<svg width="200" height="100" viewBox="0 0 200 100" fill="none" xmlns="http://www.w3.org/2000/svg">
<mask id="mask0_59_1181" style="mask-type:alpha" maskUnits="userSpaceOnUse" x="0" y="0" width="200" height="100">
<rect width="200" height="100" fill="#D9D9D9"/>
</mask>
<g mask="url(#mask0_59_1181)">
<path d="M47.7971 40.7812H49.4013C50.6611 40.7812 51.4255 40.1808 51.4255 39.0311C51.4197 38.7772 51.3608 38.5273 51.2526 38.2975C51.1444 38.0677 50.9893 37.8631 50.7973 37.6969C50.6052 37.5307 50.3805 37.4065 50.1376 37.3323C49.8946 37.2582 49.6389 37.2357 49.3867 37.2664H47.7971L47.7971 40.7812ZM47.7971 36.516H49.1115C49.3216 36.5268 49.5317 36.4946 49.7289 36.4214C49.9262 36.3482 50.1064 36.2355 50.2586 36.0902C50.4108 35.9449 50.5317 35.77 50.614 35.5764C50.6962 35.3827 50.7381 35.1743 50.737 34.9639C50.7338 34.7619 50.6888 34.5627 50.605 34.3788C50.5211 34.195 50.4002 34.0304 50.2497 33.8955C50.0992 33.7607 49.9225 33.6583 49.7306 33.595C49.5387 33.5316 49.3358 33.5086 49.1346 33.5274H47.7971V36.516ZM46.8965 33.1762C46.8965 32.8632 47.0467 32.7004 47.4477 32.7004H49.0623C50.9995 32.7004 51.6363 33.926 51.6363 34.9275C51.6677 35.3351 51.5599 35.7413 51.3305 36.0797C51.1012 36.4181 50.7639 36.6688 50.3736 36.7906V36.8168C50.9279 36.8584 51.4435 37.1167 51.8088 37.5357C52.1741 37.9546 52.3597 38.5006 52.3255 39.0554C52.3347 39.4169 52.2655 39.7761 52.1228 40.1084C51.9801 40.4407 51.7672 40.7382 51.4987 40.9805C51.2303 41.2228 50.9126 41.4042 50.5675 41.5122C50.2224 41.6202 49.858 41.6523 49.4993 41.6064H47.4477C47.0454 41.6064 46.8965 41.4459 46.8965 41.1318V33.1762Z" fill="white"/>
<path d="M57.3555 33.8008H57.3294L55.4789 38.8427H59.2065L57.3555 33.8008ZM54.5918 41.2697C54.4776 41.4952 54.4028 41.6824 54.0892 41.6824C54.0393 41.6886 53.9888 41.6841 53.9408 41.6693C53.8928 41.6546 53.8484 41.6298 53.8107 41.5967C53.7729 41.5636 53.7426 41.5228 53.7217 41.4772C53.7008 41.4315 53.6898 41.3819 53.6895 41.3317C53.6978 41.2023 53.7277 41.0751 53.7781 40.9556L56.6433 33.2759C56.7539 32.9884 56.8925 32.625 57.3427 32.625C57.793 32.625 57.9304 32.9884 58.0427 33.2759L60.908 40.9556C60.958 41.0752 60.9876 41.2023 60.9955 41.3317C60.995 41.3818 60.984 41.4313 60.9631 41.4769C60.9422 41.5225 60.9119 41.5632 60.8742 41.5963C60.8366 41.6294 60.7923 41.6541 60.7444 41.669C60.6965 41.6838 60.646 41.6884 60.5962 41.6824C60.282 41.6824 60.1819 41.4952 60.0942 41.2697L59.5067 39.6685H55.1788L54.5918 41.2697Z" fill="white"/>
<path d="M63.621 41.1077C63.621 41.4827 63.4593 41.6826 63.1707 41.6826C62.8833 41.6826 62.7217 41.4827 62.7217 41.1077V33.1491C62.7217 32.8009 62.9222 32.624 63.1707 32.624C63.2791 32.6286 63.3846 32.661 63.4768 32.7182C63.5691 32.7753 63.6451 32.8553 63.6975 32.9503L68.4769 39.9429H68.4988V33.2007C68.4988 32.8246 68.6628 32.624 68.9514 32.624C69.2383 32.624 69.4017 32.8246 69.4017 33.2007V41.1315C69.4017 41.5575 69.2273 41.6826 68.9763 41.6826C68.7393 41.6826 68.6397 41.5702 68.4885 41.3569L63.6465 34.2757H63.6209L63.621 41.1077Z" fill="white"/>
<path d="M78.0334 33.9627C78.0393 34.0206 78.0335 34.0791 78.0163 34.1346C77.9991 34.1902 77.9709 34.2417 77.9334 34.2861C77.8958 34.3305 77.8497 34.3669 77.7978 34.3931C77.7459 34.4193 77.6892 34.4347 77.6311 34.4385C77.2574 34.4385 76.7943 33.4505 75.3171 33.4505C73.443 33.4505 72.4282 35.4644 72.4282 37.2764C72.4282 39.1176 73.3288 40.8562 75.4811 40.8562C77.0435 40.8562 77.5211 39.9793 77.8443 39.9793C78.0692 39.9793 78.2212 40.1191 78.2212 40.4314C78.2212 40.8185 77.0684 41.6825 75.432 41.6825C72.7041 41.6825 71.4517 39.656 71.4517 37.2764C71.4517 34.9399 72.7041 32.624 75.3298 32.624C76.8314 32.624 78.0334 33.5253 78.0334 33.9627Z" fill="white"/>
<path d="M86.1765 37.153C86.1765 35.4777 85.4637 33.4511 83.3745 33.4511C81.2866 33.4511 80.5731 35.4777 80.5731 37.153C80.5731 38.8296 81.2866 40.8568 83.3745 40.8568C85.4637 40.8568 86.1765 38.8296 86.1765 37.153ZM83.3745 32.624C85.8867 32.624 87.1518 34.8894 87.1518 37.153C87.1518 39.4167 85.8867 41.6832 83.3745 41.6832C80.8619 41.6832 79.5967 39.4166 79.5967 37.153C79.5967 34.8895 80.8619 32.624 83.3745 32.624Z" fill="white"/>
<path d="M49.6307 67.9236C49.6307 69.0064 49.1051 69.5649 48.2683 69.5649C47.434 69.5649 46.9077 69.0064 46.9077 67.9236V48.8026C46.9077 47.7222 47.434 47.1631 48.2683 47.1631C49.1051 47.1631 49.6307 47.7222 49.6307 48.8026V57.1563H59.2575V48.8026C59.2575 47.7222 59.7855 47.1631 60.6198 47.1631C61.4566 47.1631 61.9798 47.7222 61.9798 48.8026V67.9236C61.9798 69.0064 61.4566 69.5649 60.6198 69.5649C59.7855 69.5649 59.2575 69.0064 59.2575 67.9236V59.508H49.6307V67.9236Z" fill="white"/>
<path d="M68.8726 68.1096C68.8849 68.2961 68.8587 68.4832 68.7957 68.6591C68.7328 68.8351 68.6344 68.9963 68.5066 69.1328C68.3788 69.2692 68.2244 69.3779 68.0529 69.4523C67.8814 69.5266 67.6965 69.565 67.5096 69.565C67.3227 69.565 67.1378 69.5266 66.9663 69.4523C66.7948 69.3779 66.6404 69.2692 66.5126 69.1328C66.3848 68.9963 66.2864 68.8351 66.2234 68.6591C66.1605 68.4832 66.1343 68.2961 66.1465 68.1096V54.1854C66.1346 53.9991 66.161 53.8122 66.224 53.6365C66.2871 53.4607 66.3856 53.2998 66.5133 53.1636C66.6411 53.0273 66.7954 52.9188 66.9667 52.8446C67.1381 52.7703 67.3229 52.7321 67.5096 52.7321C67.6963 52.7321 67.8811 52.7703 68.0524 52.8446C68.2238 52.9188 68.3781 53.0273 68.5059 53.1636C68.6336 53.2998 68.7321 53.4607 68.7951 53.6365C68.8582 53.8122 68.8846 53.9991 68.8726 54.1854V68.1096ZM67.5089 47.1627C67.8393 47.1627 68.1622 47.2607 68.4369 47.4442C68.7116 47.6278 68.9257 47.8887 69.0522 48.1939C69.1786 48.4991 69.2118 48.8349 69.1474 49.159C69.083 49.483 68.924 49.7807 68.6905 50.0144C68.457 50.2481 68.1594 50.4073 67.8354 50.4719C67.5114 50.5365 67.1755 50.5036 66.8702 50.3774C66.5649 50.2511 66.3039 50.0372 66.1202 49.7627C65.9364 49.4881 65.8382 49.1652 65.8379 48.8349C65.8369 48.6151 65.8795 48.3973 65.9631 48.194C66.0467 47.9908 66.1697 47.8061 66.3251 47.6507C66.4804 47.4952 66.665 47.372 66.8682 47.2883C67.0714 47.2045 67.2891 47.1618 67.5089 47.1627Z" fill="white"/>
<path d="M79.9488 67.2114C83.2909 67.2114 84.4655 63.9325 84.4655 61.1475C84.4655 58.3632 83.291 55.0829 79.9488 55.0829C76.6072 55.0829 75.4331 58.3632 75.4331 61.1475C75.4331 63.9325 76.6072 67.2114 79.9488 67.2114ZM72.9879 54.1847C72.9757 53.9985 73.002 53.8118 73.0649 53.6361C73.1278 53.4604 73.2262 53.2994 73.3538 53.1633C73.4814 53.0271 73.6356 52.9185 73.8068 52.8443C73.9781 52.7701 74.1627 52.7318 74.3494 52.7318C74.536 52.7318 74.7206 52.7701 74.8919 52.8443C75.0631 52.9185 75.2173 53.0271 75.3449 53.1633C75.4725 53.2994 75.5709 53.4604 75.6338 53.6361C75.6967 53.8118 75.723 53.9985 75.7108 54.1847V54.9911H75.7716C76.5464 53.5048 77.9992 52.7318 80.1668 52.7318C84.621 52.7318 87.1897 56.7856 87.1897 61.1475C87.1897 65.5105 84.621 69.5642 80.1668 69.5642C79.3096 69.57 78.4633 69.3708 77.6988 68.983C76.9342 68.5953 76.2734 68.0303 75.7716 67.3353H75.7108V74.6067C75.7232 74.7931 75.6972 74.98 75.6344 75.156C75.5716 75.3319 75.4733 75.493 75.3457 75.6294C75.218 75.7658 75.0637 75.8746 74.8924 75.9489C74.721 76.0232 74.5362 76.0616 74.3494 76.0616C74.1626 76.0616 73.9777 76.0232 73.8064 75.9489C73.635 75.8746 73.4807 75.7658 73.3531 75.6294C73.2254 75.493 73.1271 75.3319 73.0643 75.156C73.0015 74.98 72.9755 74.7931 72.9879 74.6067V54.1847Z" fill="white"/>
<path d="M96.835 67.2113C100.177 67.2113 101.352 63.9324 101.352 61.1474C101.352 58.3631 100.177 55.0828 96.835 55.0828C93.494 55.0828 92.3188 58.3631 92.3188 61.1474C92.3188 63.9324 93.494 67.2113 96.835 67.2113ZM96.835 52.7318C101.475 52.7318 104.075 56.7855 104.075 61.1475C104.075 65.5104 101.475 69.5642 96.835 69.5642C92.193 69.5642 89.5952 65.5104 89.5952 61.1475C89.5952 56.7856 92.193 52.7318 96.835 52.7318Z" fill="white"/>
<path d="M108.023 49.3601C108.011 49.1739 108.037 48.9871 108.1 48.8114C108.162 48.6356 108.26 48.4746 108.388 48.3384C108.516 48.2021 108.67 48.0935 108.841 48.0192C109.012 47.9449 109.197 47.9066 109.383 47.9066C109.57 47.9066 109.755 47.9449 109.926 48.0192C110.097 48.0935 110.251 48.2021 110.379 48.3384C110.506 48.4746 110.605 48.6356 110.667 48.8114C110.73 48.9871 110.756 49.1739 110.744 49.3601V52.9174H111.861C112.758 52.9174 113.221 53.3507 113.221 54.0939C113.221 54.8365 112.758 55.2684 111.861 55.2684H110.744V68.1092C110.756 68.2955 110.731 68.4825 110.668 68.6585C110.605 68.8344 110.507 68.9956 110.38 69.1321C110.252 69.2686 110.098 69.3773 109.926 69.4517C109.755 69.5261 109.57 69.5645 109.383 69.5645C109.197 69.5645 109.012 69.5261 108.841 69.4517C108.669 69.3773 108.515 69.2686 108.387 69.1321C108.26 68.9956 108.162 68.8344 108.099 68.6585C108.036 68.4825 108.01 68.2955 108.023 68.1092V55.2684H106.909C106.013 55.2684 105.548 54.8365 105.548 54.0939C105.548 53.3507 106.013 52.9174 106.909 52.9174H108.023L108.023 49.3601Z" fill="white"/>
<path d="M126.34 60.1581C126.34 57.8058 124.98 55.0829 121.979 55.0829C118.607 54.9595 117.399 57.6515 117.307 60.1581H126.34ZM117.307 62.2006C117.261 62.8575 117.353 63.5169 117.579 64.1357C117.804 64.7545 118.158 65.3188 118.616 65.7917C119.075 66.2645 119.628 66.6354 120.239 66.88C120.851 67.1246 121.507 67.2375 122.165 67.2113C125.784 67.2113 126.712 64.9854 127.733 64.9854C127.879 64.9961 128.021 65.0363 128.15 65.1035C128.28 65.1706 128.395 65.2634 128.487 65.3762C128.58 65.489 128.649 65.6194 128.69 65.7596C128.731 65.8998 128.743 66.0468 128.725 66.1917C128.725 67.5224 125.351 69.5648 122.132 69.5648C116.873 69.5648 114.584 65.5104 114.584 61.1475C114.584 56.6926 117.369 52.7318 121.979 52.7318C126.466 52.7318 129.063 56.7862 129.063 60.7469C129.063 61.7052 128.725 62.2005 127.549 62.2005L117.307 62.2006Z" fill="white"/>
<path d="M139.087 52.7319C141.873 52.7319 143.513 53.6914 143.513 54.8046C143.51 55.1022 143.393 55.3875 143.186 55.601C142.979 55.8146 142.697 55.9401 142.4 55.9513C141.346 55.9513 140.943 55.0829 139.087 55.0829C135.716 55.0829 134.386 58.3632 134.386 61.1475C134.386 63.9324 135.716 67.2114 139.087 67.2114C141.004 67.2114 141.499 66.2847 142.366 66.2847C142.514 66.2784 142.661 66.3045 142.798 66.3611C142.935 66.4177 143.058 66.5034 143.159 66.6123C143.259 66.7212 143.334 66.8506 143.38 66.9917C143.425 67.1327 143.439 67.2819 143.421 67.4289C143.421 68.4503 141.903 69.5642 139.087 69.5642C134.074 69.5642 131.661 65.5104 131.661 61.1475C131.661 56.7856 134.074 52.7319 139.087 52.7319Z" fill="white"/>
<path d="M152.843 67.2117C156.185 67.2117 157.359 63.9328 157.359 61.1478C157.359 58.3646 156.185 55.0832 152.843 55.0832C149.501 55.0832 148.326 58.3646 148.326 61.1478C148.326 63.9328 149.501 67.2117 152.843 67.2117ZM159.928 68.2332C159.937 68.4051 159.911 68.5771 159.852 68.7387C159.792 68.9002 159.7 69.0478 159.581 69.1725C159.462 69.2972 159.319 69.3963 159.161 69.4637C159.003 69.5311 158.832 69.5654 158.66 69.5645C158.487 69.568 158.315 69.5354 158.155 69.4688C157.996 69.4023 157.852 69.3033 157.732 69.1781C157.613 69.0529 157.521 68.9042 157.462 68.7415C157.404 68.5789 157.379 68.4057 157.391 68.2332V67.0884H157.331C156.851 67.8446 156.188 68.4679 155.403 68.9006C154.619 69.3334 153.738 69.5617 152.843 69.5646C148.202 69.5646 145.604 65.5121 145.604 61.1478C145.604 56.7859 148.202 52.7316 152.843 52.7316C153.708 52.7373 154.56 52.9379 155.338 53.3184C156.115 53.6989 156.796 54.2496 157.331 54.9295H157.391V54.0629C157.379 53.8904 157.404 53.7173 157.462 53.5546C157.521 53.3919 157.613 53.2432 157.732 53.118C157.852 52.9928 157.996 52.8938 158.155 52.8273C158.315 52.7607 158.487 52.7281 158.66 52.7316C158.832 52.7307 159.003 52.765 159.161 52.8324C159.319 52.8998 159.462 52.9989 159.581 53.1236C159.7 53.2483 159.792 53.3959 159.852 53.5575C159.911 53.719 159.937 53.891 159.928 54.0629V68.2332Z" fill="white"/>
<path d="M163.994 54.1851C163.982 53.9989 164.008 53.8122 164.071 53.6365C164.134 53.4608 164.232 53.2999 164.36 53.1637C164.488 53.0276 164.642 52.919 164.813 52.8448C164.984 52.7706 165.169 52.7323 165.355 52.7323C165.542 52.7323 165.727 52.7706 165.898 52.8448C166.069 52.919 166.223 53.0276 166.351 53.1637C166.478 53.2999 166.577 53.4608 166.639 53.6365C166.702 53.8122 166.729 53.9989 166.716 54.1851V55.5786H166.78C167.399 54.3097 168.913 52.7323 170.49 52.7323C170.684 52.7135 170.879 52.7358 171.063 52.7975C171.248 52.8593 171.417 52.9592 171.56 53.0907C171.703 53.2222 171.817 53.3823 171.894 53.5608C171.972 53.7392 172.01 53.9319 172.008 54.1262C172.008 54.8986 171.452 55.3938 170.308 55.6107C168.695 55.8885 166.716 57.0959 166.716 60.2837V68.1093C166.729 68.2957 166.703 68.4827 166.64 68.6587C166.577 68.8346 166.479 68.9958 166.352 69.1323C166.224 69.2688 166.07 69.3775 165.898 69.4519C165.727 69.5263 165.542 69.5647 165.355 69.5647C165.169 69.5647 164.984 69.5263 164.812 69.4519C164.641 69.3775 164.487 69.2688 164.359 69.1323C164.231 68.9958 164.133 68.8346 164.07 68.6587C164.008 68.4827 163.982 68.2957 163.994 68.1093V54.1851Z" fill="white"/>
<path d="M177.519 68.1096C177.532 68.296 177.506 68.483 177.443 68.6589C177.38 68.8349 177.282 68.9961 177.155 69.1326C177.027 69.269 176.873 69.3778 176.701 69.4522C176.53 69.5265 176.345 69.5649 176.158 69.5649C175.971 69.5649 175.787 69.5265 175.615 69.4522C175.444 69.3778 175.29 69.269 175.162 69.1326C175.034 68.9961 174.936 68.8349 174.873 68.6589C174.811 68.483 174.785 68.296 174.797 68.1096V54.1854C174.785 53.9991 174.811 53.8123 174.874 53.6365C174.937 53.4608 175.035 53.2998 175.163 53.1635C175.29 53.0273 175.444 52.9187 175.616 52.8444C175.787 52.7702 175.972 52.7318 176.158 52.7318C176.345 52.7318 176.53 52.7702 176.701 52.8444C176.872 52.9187 177.026 53.0273 177.154 53.1635C177.282 53.2998 177.38 53.4608 177.443 53.6365C177.506 53.8123 177.532 53.9991 177.519 54.1854V68.1096ZM176.158 47.1626C176.488 47.1624 176.811 47.2602 177.086 47.4436C177.361 47.6271 177.575 47.8878 177.702 48.193C177.828 48.4982 177.862 48.8341 177.797 49.1582C177.733 49.4823 177.574 49.7801 177.341 50.0139C177.107 50.2477 176.81 50.4071 176.486 50.4718C176.162 50.5365 175.826 50.5036 175.52 50.3774C175.215 50.2512 174.954 50.0373 174.77 49.7628C174.586 49.4882 174.488 49.1653 174.488 48.8349C174.487 48.6152 174.529 48.3975 174.613 48.1943C174.697 47.9912 174.819 47.8066 174.975 47.6511C175.13 47.4957 175.314 47.3725 175.517 47.2887C175.72 47.2048 175.938 47.162 176.158 47.1626Z" fill="white"/>
<path d="M187.76 67.2113C191.103 67.2113 192.277 63.9324 192.277 61.1474C192.277 58.3631 191.103 55.0828 187.76 55.0828C184.418 55.0828 183.243 58.3631 183.243 61.1474C183.243 63.9324 184.418 67.2113 187.76 67.2113ZM187.76 52.7318C192.4 52.7318 195 56.7855 195 61.1475C195 65.5104 192.4 69.5642 187.76 69.5642C183.118 69.5642 180.519 65.5104 180.519 61.1475C180.519 56.7856 183.118 52.7318 187.76 52.7318Z" fill="white"/>
<path d="M5.00098 16.4816V64.1485L10.1692 61.1673L15.0525 58.3446L20.5403 55.1793L20.6115 55.1452C20.6916 55.1033 20.7706 55.0705 20.8533 55.0371C20.9237 55.0097 20.9918 54.9799 21.0635 54.9593C21.1408 54.9363 21.216 54.9216 21.292 54.9058C21.371 54.8906 21.45 54.8767 21.5259 54.8676C21.6062 54.8602 21.6815 54.8615 21.7618 54.8615C21.8396 54.8615 21.9173 54.8602 21.9945 54.8676C22.0723 54.8767 22.1482 54.8906 22.2272 54.9058C22.3062 54.9216 22.3815 54.9363 22.4593 54.9593C22.5299 54.9799 22.5984 55.0097 22.6671 55.0371C22.75 55.0689 22.8311 55.105 22.9102 55.1452L22.9825 55.1793L28.4692 58.3446L33.3519 61.1673L38.5188 64.1472V16.4816H5.00098Z" fill="white"/>
<path d="M28.4682 63.9871L22.9756 60.8151L22.9549 60.7993C22.5857 60.594 22.1697 60.4876 21.7472 60.4904C21.3248 60.4932 20.9102 60.605 20.5437 60.8151L15.0528 63.9871L10.1694 66.8031L5 69.7885V83.5183H38.5191V69.7873L33.3509 66.8031L28.4682 63.9871Z" fill="white"/>
</g>
</svg>
