<svg width="200" height="100" viewBox="0 0 200 100" fill="none" xmlns="http://www.w3.org/2000/svg">
<mask id="mask0_59_1010" style="mask-type:alpha" maskUnits="userSpaceOnUse" x="0" y="0" width="200" height="100">
<rect width="200" height="100" fill="#D9D9D9"/>
</mask>
<g mask="url(#mask0_59_1010)">
<path d="M50.7985 57.5613L50.7476 48.8825C50.6942 49.1902 50.6034 49.4901 50.4774 49.7758L47.1521 57.3102H45.6485L42.4694 50.0429C42.3281 49.7575 42.2367 49.4499 42.1992 49.1337L42.0752 57.5613H40.1328L40.3394 45.2711H42.5266L46.5449 54.3727L50.6777 45.2711H52.8426L52.9889 57.5613H50.7985Z" fill="white"/>
<path d="M69.3492 50.8158C69.0615 50.7562 68.7687 50.7242 68.4749 50.7204C67.6961 50.7204 67.4767 50.8857 66.4817 52.4657V57.5713H64.2563V48.8734L66.0207 48.7303C66.1912 49.3638 66.2789 50.0167 66.2814 50.6727C67.0921 49.0228 67.553 48.7303 68.3637 48.7303C68.7792 48.7329 69.1923 48.7939 69.5908 48.9116L69.3492 50.8158Z" fill="white"/>
<path d="M76.3221 50.6723C75.7832 50.5073 75.2231 50.4216 74.6595 50.418C73.0954 50.418 72.4119 51.3335 72.4119 53.3681C72.4119 55.0657 73.0032 55.9114 74.4242 55.9114C75.1461 55.8997 75.8568 55.7304 76.5065 55.4154L77.0755 56.9763C76.1138 57.4733 75.0422 57.7193 73.9601 57.6916C71.4931 57.6916 70.1675 56.5376 70.1675 53.5589C70.1675 50.2845 71.97 48.6886 74.4592 48.6886C75.2503 48.6555 76.0395 48.7876 76.7767 49.0764L76.3221 50.6723Z" fill="white"/>
<path d="M93.2366 57.5621V51.5219C93.2366 50.9179 93.0522 50.53 92.3751 50.53C91.8029 50.53 91.0081 50.9369 90.2547 51.649V57.5462H88.0039V48.8737L89.959 48.7434C90.0906 49.1801 90.1644 49.6322 90.1784 50.0881C91.2084 49.1503 92.2988 48.6766 93.2557 48.6766C94.8961 48.6766 95.5065 49.465 95.5065 51.115V57.5621H93.2366Z" fill="white"/>
<path d="M99.8927 57.7076C98.3477 57.7076 97.5752 57.0718 97.5752 55.4822V50.4975L97.6292 48.908L97.6515 46.3838L99.8419 46.2217V48.908H102.42L102.293 50.5261H99.8482V55.3932C99.8482 55.8637 100.01 56.029 100.484 56.029C101.08 56.0178 101.668 55.8927 102.217 55.6603L102.601 57.1481C101.758 57.5554 100.828 57.7507 99.8927 57.7171" fill="white"/>
<path d="M104.23 57.5618V48.9084L106.455 48.7813V57.5586L104.23 57.5618ZM104.176 45.2017H106.442V47.1854H104.176V45.2017Z" fill="white"/>
<path d="M108.896 44.3718L111.121 44.2446V55.1583C111.121 55.7623 111.156 55.9085 111.655 55.9085C111.895 55.9097 112.135 55.897 112.374 55.8704L112.425 57.4345C111.83 57.5848 111.219 57.6574 110.606 57.6507C109.465 57.6507 108.909 57.177 108.909 55.9435L108.896 44.3718Z" fill="white"/>
<path d="M120.998 57.7141C119.683 57.7394 118.378 57.4654 117.184 56.913L117.775 55.0405C118.859 55.515 120.025 55.7741 121.208 55.8035C122.623 55.8035 123.37 55.1836 123.37 54.3253C123.37 53.4669 122.976 52.9901 121.145 52.456C118.716 51.763 117.648 51.0286 117.648 48.8351C117.648 46.7337 119.094 45.0965 121.815 45.0965C123.06 45.0639 124.295 45.3208 125.424 45.8468L124.871 47.5762C123.941 47.2191 122.957 47.0203 121.962 46.988C120.547 46.988 119.956 47.5221 119.956 48.5203C119.956 49.3946 120.274 49.8524 121.962 50.3515C125.017 51.2416 125.675 52.154 125.675 53.9501C125.675 56.0515 124.085 57.7141 121.03 57.7141" fill="white"/>
<path d="M142.418 57.5621V51.5219C142.418 50.9179 142.234 50.53 141.547 50.53C140.982 50.53 140.19 50.9369 139.437 51.649V57.5462H137.189V48.8737L139.138 48.7434C139.272 49.1794 139.346 49.6319 139.357 50.0881C140.393 49.1503 141.477 48.6766 142.438 48.6766C144.075 48.6766 144.688 49.465 144.688 51.115V57.5621H142.418Z" fill="white"/>
<path d="M149.546 57.7074C147.998 57.7074 147.226 57.0716 147.226 55.482V50.4973L146.123 50.4464L146.253 48.9364L147.28 48.9014L147.54 46.1992L149.492 46.0371V48.8982H152.074L151.943 50.5164H149.492V55.3835C149.492 55.854 149.658 56.0193 150.128 56.0193C150.725 56.0071 151.314 55.882 151.864 55.6505L152.249 57.1383C151.404 57.5441 150.473 57.7394 149.537 57.7074" fill="white"/>
<path d="M182.166 50.7458C181.883 50.7267 181.686 50.7108 181.46 50.7108C180.684 50.7108 180.468 50.8761 179.473 52.4561V57.5617H177.248V48.8733L179.018 48.7271C179.187 49.3619 179.274 50.0158 179.276 50.6727C180.086 49.0227 180.547 48.7271 181.355 48.7271C181.71 48.7256 182.063 48.7694 182.407 48.8574L182.166 50.7458Z" fill="white"/>
<path d="M199.774 50.2151L195.794 55.9437H199.863L199.704 57.5618H193.139L192.993 56.144L197.062 50.4885H193.197L193.381 48.8926H199.644L199.774 50.2151Z" fill="white"/>
<path d="M174.555 47.6014C173.667 47.2439 172.722 47.0469 171.764 47.0197C169.73 47.0197 168.496 48.4629 168.496 51.4926C168.496 54.891 169.965 55.8034 171.675 55.8034C172.837 55.7812 173.972 55.4522 174.965 54.8496L175.573 56.5091C174.272 57.3191 172.761 57.7271 171.23 57.6822C167.889 57.6822 166.118 55.8447 166.118 51.6801C166.118 47.6555 168.156 45.1599 171.726 45.1599C173.316 45.1599 174.212 45.3729 175.178 45.818L174.555 47.6014Z" fill="white"/>
<path d="M61.7854 55.1741C60.9074 55.6651 59.9288 55.9489 58.9243 56.0038C57.4524 56.0038 56.8229 55.2186 56.8229 53.6672C56.8229 53.2253 56.8611 52.6531 56.8992 52.3256C57.055 51.0222 57.7258 50.326 58.7431 50.326C59.6618 50.326 60.1578 50.9618 60.1578 52.3256H57.6145V53.6767H62.1161C62.1556 53.3487 62.1736 53.0184 62.1701 52.6881C62.1701 50.2434 61.3404 48.7015 58.9911 48.7015C56.2094 48.7015 54.623 50.609 54.623 53.6036C54.623 56.5252 56.1013 57.6982 58.6223 57.6982C59.9318 57.7014 61.2168 57.3428 62.3354 56.6619L61.7854 55.1741Z" fill="white"/>
<path d="M85.3331 55.1166V51.5179C85.3331 49.6995 84.764 48.6377 82.6944 48.6377C81.1441 48.5921 79.6246 49.0765 78.3868 50.0111L79.2738 51.3717C80.1152 50.7533 81.1232 50.4022 82.1667 50.3639C82.828 50.3639 83.0855 50.6373 83.0855 51.4257V55.3201C82.6197 55.831 81.9703 56.1363 81.2798 56.1689C81.1276 56.1817 80.9746 56.1609 80.8314 56.108C80.6882 56.0552 80.5583 55.9715 80.451 55.863C80.3436 55.7544 80.2614 55.6236 80.2102 55.4798C80.1589 55.336 80.1399 55.1827 80.1544 55.0308C80.1544 54.4331 80.6249 54.1502 82.4115 53.9785V52.7546C78.6857 53.1234 78.0181 53.9435 78.0181 55.1166C78.0181 56.7856 79.1276 57.7075 80.45 57.7075C80.9602 57.7322 81.4694 57.6429 81.9407 57.446C82.412 57.2491 82.8335 56.9497 83.1745 56.5694C83.3779 57.2656 84.0455 57.6503 85.314 57.6503C85.5715 57.6503 85.8894 57.6503 86.2168 57.6344L86.5856 56.0036C85.4062 55.851 85.3331 55.762 85.3331 55.1166Z" fill="white"/>
<path d="M134.515 55.1168V51.5181C134.515 49.6997 133.942 48.6379 131.879 48.6379C130.328 48.5908 128.807 49.0753 127.568 50.0113L128.449 51.3719C129.291 50.7549 130.299 50.4039 131.342 50.3641C132.01 50.3641 132.267 50.6375 132.267 51.4259V55.3203C131.8 55.8314 131.15 56.1366 130.458 56.1691C130.306 56.1814 130.154 56.1602 130.011 56.1072C129.868 56.0541 129.739 55.9703 129.632 55.8619C129.525 55.7534 129.443 55.6227 129.392 55.4792C129.341 55.3356 129.322 55.1826 129.336 55.031C129.336 54.4333 129.81 54.1504 131.593 53.9787V52.7548C127.867 53.1235 127.2 53.9437 127.2 55.1168C127.2 56.7858 128.306 57.7077 129.632 57.7077C130.142 57.7326 130.651 57.6434 131.122 57.4465C131.594 57.2496 132.015 56.95 132.356 56.5696C132.56 57.2658 133.224 57.6505 134.489 57.6505C134.753 57.6505 135.065 57.6505 135.402 57.6346L135.767 56.0038C134.588 55.8512 134.515 55.7621 134.515 55.1168Z" fill="white"/>
<path d="M160.491 55.1167V51.518C160.491 49.6996 159.916 48.6378 157.856 48.6378C156.304 48.5917 154.784 49.0761 153.545 50.0111L154.432 51.3718C155.273 50.7512 156.281 50.3988 157.325 50.3608C157.986 50.3608 158.244 50.6374 158.244 51.4258V55.3201C158.013 55.5734 157.735 55.7787 157.425 55.9244C157.116 56.07 156.78 56.1531 156.438 56.1689C156.286 56.1823 156.132 56.1619 155.989 56.1093C155.845 56.0566 155.715 55.973 155.608 55.8643C155.5 55.7556 155.418 55.6246 155.367 55.4805C155.316 55.3365 155.298 55.1829 155.313 55.0308C155.313 54.4332 155.783 54.1502 157.57 53.9786V52.7546C153.844 53.1234 153.176 53.9436 153.176 55.1167C153.176 56.7857 154.283 57.7076 155.611 57.7076C156.123 57.7328 156.633 57.6437 157.105 57.4468C157.578 57.2499 158 56.9502 158.342 56.5695C158.542 57.2657 159.207 57.6504 160.482 57.6504C160.736 57.6504 161.051 57.6504 161.381 57.6345L161.75 56.0036C160.574 55.851 160.498 55.762 160.498 55.1167" fill="white"/>
<path d="M192.098 55.9785C191.199 55.8577 191.03 55.7624 191.001 55.3237V48.8193L188.738 48.9306V54.8277C187.965 55.543 187.266 55.8482 186.71 55.8482C186.049 55.8482 185.807 55.4858 185.807 54.8595V48.8193L183.543 48.9115V55.2283C183.543 56.8464 184.113 57.7079 185.788 57.7079C186.742 57.7079 187.791 57.2883 188.805 56.3759C188.805 56.4331 188.824 56.4904 188.84 56.5667C189.043 57.2661 189.708 57.6507 190.979 57.6507C191.234 57.6507 191.548 57.6507 191.879 57.6348L192.098 55.9785Z" fill="white"/>
<path d="M14.0931 65.0069C11.411 64.9981 8.7916 64.1945 6.56592 62.6977C4.34024 61.2009 2.60811 59.0781 1.58836 56.5973C0.56862 54.1166 0.307012 51.3892 0.836589 48.7598C1.36617 46.1305 2.66317 43.717 4.56374 41.8245C6.46431 39.9319 8.88318 38.6451 11.5148 38.1266C14.1463 37.6081 16.8726 37.8812 19.349 38.9113C21.8254 39.9415 23.941 41.6826 25.4284 43.9146C26.9158 46.1465 27.7083 48.7693 27.7058 51.4514C27.6974 55.0551 26.2591 58.508 23.7068 61.052C21.1544 63.596 17.6968 65.023 14.0931 65.0196M28.1986 51.4514C28.2067 48.6614 27.387 45.9317 25.843 43.6078C24.299 41.284 22.1003 39.4704 19.5251 38.3968C16.95 37.3231 14.1142 37.0376 11.3767 37.5765C8.63917 38.1153 6.12309 39.4542 4.14691 41.4237C2.17073 43.3932 0.823315 45.9047 0.275224 48.6404C-0.272868 51.376 0.00300875 54.2128 1.06793 56.7916C2.13286 59.3704 3.93895 61.5752 6.25757 63.1271C8.5762 64.6789 11.3031 65.5079 14.0931 65.5092C17.8267 65.5117 21.4087 64.033 24.0531 61.3974C26.6976 58.7619 28.1885 55.1849 28.1986 51.4514Z" fill="white"/>
<path d="M4.10205 51.4512C4.10205 57.0813 8.58768 61.6591 14.0938 61.6591C19.5999 61.6591 24.0919 57.0686 24.0919 51.4512C24.0919 45.8338 19.6126 41.2433 14.0938 41.2433C8.57497 41.2433 4.10205 45.8148 4.10205 51.4512ZM4.48354 51.4512C4.48354 46.0468 8.7975 41.6343 14.0938 41.6343C19.3901 41.6343 23.7072 46.0405 23.7072 51.4512C23.7072 56.8619 19.3964 61.2681 14.0938 61.2681C8.79114 61.2681 4.47718 56.8556 4.47718 51.4512" fill="white"/>
<path d="M3.01381 48.4313L2.77539 48.9877L2.76903 48.9845L2.49563 48.4472L1.88525 48.3932V48.3868L2.32078 47.9799L2.18091 47.3886H2.18726L2.71816 47.6842L3.25224 47.3632V47.3695L3.14734 47.9704L3.60194 48.3455L3.59876 48.3518L3.01381 48.4313Z" fill="white"/>
<path d="M3.01381 48.4313L2.77539 48.9877L2.76903 48.9845L2.49563 48.4472L1.88525 48.3932V48.3868L2.32078 47.9799L2.18091 47.3886H2.18726L2.71816 47.6842L3.25224 47.3632V47.3695L3.14734 47.9704L3.60194 48.3455L3.59876 48.3518L3.01381 48.4313Z" fill="white"/>
<path d="M2.8428 53.7089L2.87459 54.3224H2.86823L2.38502 53.9505L1.81915 54.1826H1.81279L2.01943 53.6135L1.63477 53.1557V53.1525L2.24514 53.1716L2.57576 52.6566L2.75697 53.2288L3.32602 53.3783V53.3814L2.8428 53.7089Z" fill="white"/>
<path d="M2.8428 53.7089L2.87459 54.3224H2.86823L2.38502 53.9505L1.81915 54.1826H1.81279L2.01943 53.6135L1.63477 53.1557V53.1525L2.24514 53.1716L2.57576 52.6566L2.75697 53.2288L3.32602 53.3783V53.3814L2.8428 53.7089Z" fill="white"/>
<path d="M5.05783 58.5153L5.37256 59.0398H5.36938L4.75582 58.9381L4.37116 59.3927H4.36162L4.27897 58.8014L3.73535 58.5661V58.5629L4.27897 58.3054L4.34891 57.6951L4.35209 57.6919L4.76218 58.1306L5.35031 57.9971L5.35348 58.0034L5.05783 58.5153Z" fill="white"/>
<path d="M5.05783 58.5153L5.37256 59.0398H5.36938L4.75582 58.9381L4.37116 59.3927H4.36162L4.27897 58.8014L3.73535 58.5661V58.5629L4.27897 58.3054L4.34891 57.6951L4.35209 57.6919L4.76218 58.1306L5.35031 57.9971L5.35348 58.0034L5.05783 58.5153Z" fill="white"/>
<path d="M9.2192 61.8119L9.72467 62.1425L9.14291 62.3237L8.99031 62.9086H8.9776L8.65016 62.4159L8.0525 62.4477L8.04932 62.4445L8.42762 61.9708L8.20827 61.3922L8.78367 61.5957L9.24146 61.2238L9.2192 61.8119Z" fill="white"/>
<path d="M9.2192 61.8119L9.72467 62.1425L9.14291 62.3237L8.99031 62.9086H8.9776L8.65016 62.4159L8.0525 62.4477L8.04932 62.4445L8.42762 61.9708L8.20827 61.3922L8.78367 61.5957L9.24146 61.2238L9.2192 61.8119Z" fill="white"/>
<path d="M14.4144 62.8734L15.0184 62.9529L14.5733 63.3662L14.7037 63.967V63.9734L14.176 63.6714L13.6578 63.9797L13.6514 63.9734L13.7786 63.3757L13.3208 62.9656V62.9624L13.9248 62.8798L14.1696 62.3457H14.1728L14.4144 62.8734Z" fill="white"/>
<path d="M14.4144 62.8734L15.0184 62.9529L14.5733 63.3662L14.7037 63.967V63.9734L14.176 63.6714L13.6578 63.9797L13.6514 63.9734L13.7786 63.3757L13.3208 62.9656V62.9624L13.9248 62.8798L14.1696 62.3457H14.1728L14.4144 62.8734Z" fill="white"/>
<path d="M19.5357 61.5288L20.1143 61.3095L20.1175 61.3158L19.9045 61.8944L20.2891 62.3586V62.3649L19.6851 62.3427L19.364 62.8386L19.3577 62.8354L19.1955 62.2536L18.6074 62.0852V62.082L19.1065 61.7514L19.0779 61.1505H19.0843L19.5357 61.5288Z" fill="white"/>
<path d="M19.5357 61.5288L20.1143 61.3095L20.1175 61.3158L19.9045 61.8944L20.2891 62.3586V62.3649L19.6851 62.3427L19.364 62.8386L19.3577 62.8354L19.1955 62.2536L18.6074 62.0852V62.082L19.1065 61.7514L19.0779 61.1505H19.0843L19.5357 61.5288Z" fill="white"/>
<path d="M23.5129 58.0035L23.923 57.5585V57.5648L24.0089 58.1657L24.5525 58.42V58.4263L24.012 58.668L23.9389 59.2561H23.9326L23.5352 58.8047L22.9248 58.9223L22.9185 58.9191L23.2268 58.3946L22.928 57.8796L22.9312 57.8764L23.5129 58.0035Z" fill="white"/>
<path d="M23.5129 58.0035L23.923 57.5585V57.5648L24.0089 58.1657L24.5525 58.42V58.4263L24.012 58.668L23.9389 59.2561H23.9326L23.5352 58.8047L22.9248 58.9223L22.9185 58.9191L23.2268 58.3946L22.928 57.8796L22.9312 57.8764L23.5129 58.0035Z" fill="white"/>
<path d="M25.4555 53.0854L25.6272 52.5037H25.6335L25.9705 53.0123L26.5809 52.9869L26.5841 52.9964L26.1994 53.4542L26.4124 54.0169L26.4092 54.0201L25.837 53.7944L25.357 54.1758H25.3538L25.3792 53.5623L24.8896 53.238V53.2348L25.4555 53.0854Z" fill="white"/>
<path d="M24.9941 47.8303L24.8829 47.2231H24.8892L25.4169 47.5347L25.9542 47.2327L25.9574 47.2359L25.827 47.8272L26.2658 48.2245L26.2594 48.2309L25.6522 48.2977L25.3852 48.8413L25.1404 48.2977L24.5522 48.2118V48.2087L24.9941 47.8303Z" fill="white"/>
<path d="M24.9941 47.8303L24.8829 47.2231H24.8892L25.4169 47.5347L25.9542 47.2327L25.9574 47.2359L25.827 47.8272L26.2658 48.2245L26.2594 48.2309L25.6522 48.2977L25.3852 48.8413L25.1404 48.2977L24.5522 48.2118V48.2087L24.9941 47.8303Z" fill="white"/>
<path d="M6.23489 43.6275L5.82479 43.2333C5.92002 43.1298 6.04804 43.0625 6.1872 43.0425C6.22279 43.0417 6.25815 43.0483 6.29101 43.062C6.32387 43.0757 6.35349 43.0961 6.37795 43.122C6.40454 43.146 6.42592 43.1751 6.44075 43.2077C6.45558 43.2403 6.46354 43.2756 6.46414 43.3114C6.46474 43.3471 6.45795 43.3827 6.44422 43.4157C6.43048 43.4488 6.41009 43.4787 6.3843 43.5035C6.33723 43.5541 6.2862 43.6009 6.23171 43.6434M5.30343 42.7246C5.47192 42.5657 5.62133 42.5371 5.75485 42.6515C5.8094 42.7005 5.84251 42.769 5.84704 42.8422C5.84386 42.9035 5.81777 42.9614 5.77393 43.0044C5.77393 43.0044 5.71988 43.0584 5.68174 43.0902L5.30343 42.7246ZM6.04097 42.8136C6.06529 42.7427 6.06801 42.6662 6.04876 42.5937C6.02952 42.5213 5.98918 42.4562 5.93288 42.4067C5.74214 42.2191 5.47192 42.2637 5.2176 42.518C5.08395 42.6405 4.97025 42.7832 4.88061 42.9408C4.87553 42.9541 4.87314 42.9684 4.87359 42.9827C4.87404 42.9969 4.87731 43.011 4.88322 43.024C4.88914 43.037 4.89757 43.0487 4.90804 43.0584C4.9185 43.0682 4.93079 43.0757 4.9442 43.0807L4.96963 43.0616L5.09997 42.9599L6.00282 43.8341L5.9456 43.939C5.93806 43.956 5.93417 43.9744 5.93417 43.9931C5.93417 44.0117 5.93806 44.0301 5.9456 44.0471C5.95066 44.0613 5.95865 44.0743 5.96906 44.0853C5.97946 44.0962 5.99205 44.1049 6.006 44.1107H6.03461L6.05686 44.0916C6.16495 43.974 6.17767 43.9581 6.30165 43.8277L6.41609 43.7197C6.455 43.6867 6.49214 43.6516 6.52736 43.6147C6.58076 43.5691 6.62414 43.5129 6.65475 43.4497C6.68537 43.3865 6.70256 43.3177 6.70525 43.2475C6.70794 43.1773 6.69606 43.1073 6.67037 43.0419C6.64468 42.9766 6.60573 42.9172 6.55597 42.8677C6.48557 42.8075 6.39826 42.7706 6.30604 42.7621C6.21382 42.7535 6.12122 42.7738 6.04097 42.82" fill="white"/>
<path d="M6.23489 43.6275L5.82479 43.2333C5.92002 43.1298 6.04804 43.0625 6.1872 43.0425C6.22279 43.0417 6.25815 43.0483 6.29101 43.062C6.32387 43.0757 6.35349 43.0961 6.37795 43.122C6.40454 43.146 6.42592 43.1751 6.44075 43.2077C6.45558 43.2403 6.46354 43.2756 6.46414 43.3114C6.46474 43.3471 6.45795 43.3827 6.44422 43.4157C6.43048 43.4488 6.41009 43.4787 6.3843 43.5035C6.33723 43.5541 6.2862 43.6009 6.23171 43.6434M5.30343 42.7246C5.47192 42.5657 5.62133 42.5371 5.75485 42.6515C5.8094 42.7005 5.84251 42.769 5.84704 42.8422C5.84386 42.9035 5.81777 42.9614 5.77393 43.0044C5.77393 43.0044 5.71988 43.0584 5.68174 43.0902L5.30343 42.7246ZM6.04097 42.8136C6.06529 42.7427 6.06801 42.6662 6.04876 42.5937C6.02952 42.5213 5.98918 42.4562 5.93288 42.4067C5.74214 42.2191 5.47192 42.2637 5.2176 42.518C5.08395 42.6405 4.97025 42.7832 4.88061 42.9408C4.87553 42.9541 4.87314 42.9684 4.87359 42.9827C4.87404 42.9969 4.87731 43.011 4.88322 43.024C4.88914 43.037 4.89757 43.0487 4.90804 43.0584C4.9185 43.0682 4.93079 43.0757 4.9442 43.0807L4.96963 43.0616L5.09997 42.9599L6.00282 43.8341L5.9456 43.939C5.93806 43.956 5.93417 43.9744 5.93417 43.9931C5.93417 44.0117 5.93806 44.0301 5.9456 44.0471C5.95066 44.0613 5.95865 44.0743 5.96906 44.0853C5.97946 44.0962 5.99205 44.1049 6.006 44.1107H6.03461L6.05686 44.0916C6.16495 43.974 6.17767 43.9581 6.30165 43.8277L6.41609 43.7197C6.455 43.6867 6.49214 43.6516 6.52736 43.6147C6.58076 43.5691 6.62414 43.5129 6.65475 43.4497C6.68537 43.3865 6.70256 43.3177 6.70525 43.2475C6.70794 43.1773 6.69606 43.1073 6.67037 43.0419C6.64468 42.9766 6.60573 42.9172 6.55597 42.8677C6.48557 42.8075 6.39826 42.7706 6.30604 42.7621C6.21382 42.7535 6.12122 42.7738 6.04097 42.82" fill="white"/>
<path d="M9.01613 41.3862C8.97986 41.4984 8.90113 41.592 8.79677 41.6469C8.52973 41.7963 8.26905 41.6692 8.05606 41.3004C7.84306 40.9316 7.91618 40.69 8.1705 40.547C8.27241 40.485 8.39457 40.4656 8.51066 40.4929C8.68807 40.5641 8.83143 40.7007 8.91122 40.8744C9.01099 41.0251 9.04859 41.2085 9.01613 41.3862ZM8.11964 40.2958C7.9734 40.3938 7.85713 40.5303 7.7837 40.6903C7.71028 40.8503 7.68257 41.0275 7.70363 41.2023C7.72469 41.377 7.79371 41.5425 7.90305 41.6805C8.01238 41.8185 8.15776 41.9235 8.32309 41.9839C8.40993 42.0053 8.50015 42.0093 8.58855 41.9957C8.67694 41.982 8.76176 41.951 8.8381 41.9044C8.94774 41.8468 9.04373 41.7663 9.11956 41.6684C9.19539 41.5704 9.2493 41.4574 9.27763 41.3368C9.30597 41.2162 9.30807 41.091 9.28379 40.9695C9.25952 40.848 9.20943 40.7332 9.13693 40.6328C8.88897 40.1941 8.52973 40.0733 8.11964 40.3149" fill="white"/>
<path d="M9.01613 41.3862C8.97986 41.4984 8.90113 41.592 8.79677 41.6469C8.52973 41.7963 8.26905 41.6692 8.05606 41.3004C7.84306 40.9316 7.91618 40.69 8.1705 40.547C8.27241 40.485 8.39457 40.4656 8.51066 40.4929C8.68807 40.5641 8.83143 40.7007 8.91122 40.8744C9.01099 41.0251 9.04859 41.2085 9.01613 41.3862ZM8.11964 40.2958C7.9734 40.3938 7.85713 40.5303 7.7837 40.6903C7.71028 40.8503 7.68257 41.0275 7.70363 41.2023C7.72469 41.377 7.79371 41.5425 7.90305 41.6805C8.01238 41.8185 8.15776 41.9235 8.32309 41.9839C8.40993 42.0053 8.50015 42.0093 8.58855 41.9957C8.67694 41.982 8.76176 41.951 8.8381 41.9044C8.94774 41.8468 9.04373 41.7663 9.11956 41.6684C9.19539 41.5704 9.2493 41.4574 9.27763 41.3368C9.30597 41.2162 9.30807 41.091 9.28379 40.9695C9.25952 40.848 9.20943 40.7332 9.13693 40.6328C8.88897 40.1941 8.52973 40.0733 8.11964 40.3149" fill="white"/>
<path d="M12.3073 40.1789V40.1503H12.2755C12.2377 40.1359 12.1958 40.1359 12.1579 40.1503C12.1211 40.1797 12.0962 40.2215 12.088 40.268C12.088 40.268 12.088 40.3919 12.0625 40.4523L11.538 40.5382L11.2678 39.327L11.3727 39.2983C11.3935 39.2951 11.4133 39.2872 11.4307 39.2752C11.448 39.2632 11.4624 39.2474 11.4728 39.2291C11.4832 39.2108 11.4893 39.1903 11.4907 39.1693C11.4921 39.1482 11.4887 39.1271 11.4808 39.1076V39.0726H11.4426L10.9213 39.1871C10.8944 39.1903 10.8686 39.1998 10.846 39.2146C10.8234 39.2295 10.8045 39.2495 10.7909 39.2729C10.7836 39.29 10.7798 39.3084 10.7798 39.327C10.7798 39.3455 10.7836 39.3639 10.7909 39.381L10.81 39.4064H10.8354L10.9817 39.3874L11.2614 40.6272L11.1661 40.6781C11.1501 40.6852 11.1358 40.6957 11.1243 40.7089C11.1128 40.722 11.1042 40.7376 11.0993 40.7543C11.0955 40.7878 11.1034 40.8214 11.1215 40.8497L11.1374 40.8688H11.1661L12.2946 40.6176H12.3264V40.1789H12.3073Z" fill="white"/>
<path d="M12.3073 40.1789V40.1503H12.2755C12.2377 40.1359 12.1958 40.1359 12.1579 40.1503C12.1211 40.1797 12.0962 40.2215 12.088 40.268C12.088 40.268 12.088 40.3919 12.0625 40.4523L11.538 40.5382L11.2678 39.327L11.3727 39.2983C11.3935 39.2951 11.4133 39.2872 11.4307 39.2752C11.448 39.2632 11.4624 39.2474 11.4728 39.2291C11.4832 39.2108 11.4893 39.1903 11.4907 39.1693C11.4921 39.1482 11.4887 39.1271 11.4808 39.1076V39.0726H11.4426L10.9213 39.1871C10.8944 39.1903 10.8686 39.1998 10.846 39.2146C10.8234 39.2295 10.8045 39.2495 10.7909 39.2729C10.7836 39.29 10.7798 39.3084 10.7798 39.327C10.7798 39.3455 10.7836 39.3639 10.7909 39.381L10.81 39.4064H10.8354L10.9817 39.3874L11.2614 40.6272L11.1661 40.6781C11.1501 40.6852 11.1358 40.6957 11.1243 40.7089C11.1128 40.722 11.1042 40.7376 11.0993 40.7543C11.0955 40.7878 11.1034 40.8214 11.1215 40.8497L11.1374 40.8688H11.1661L12.2946 40.6176H12.3264V40.1789H12.3073Z" fill="white"/>
<path d="M14.6202 39.0154C14.6409 39.0167 14.6616 39.0134 14.6809 39.0057C14.7001 38.998 14.7174 38.9861 14.7315 38.9709C14.7538 38.9383 14.7639 38.899 14.7601 38.8597V38.8247H14.722H14.2101C14.1837 38.8209 14.1567 38.8239 14.1317 38.8334C14.1067 38.8428 14.0845 38.8584 14.0671 38.8787C14.0551 38.8924 14.0468 38.909 14.0429 38.9267C14.039 38.9445 14.0397 38.963 14.0448 38.9805V39.0091H14.0734L14.226 39.0313L14.1879 40.3029L14.0703 40.3252C14.0287 40.3307 13.991 40.3524 13.9653 40.3856C13.9536 40.4163 13.9536 40.4503 13.9653 40.481V40.5096H13.9971C14.0639 40.5096 14.1752 40.5096 14.2801 40.5096H14.3023C14.3891 40.5036 14.4762 40.5036 14.563 40.5096C14.6046 40.5087 14.6453 40.4966 14.6806 40.4746C14.7069 40.4485 14.7218 40.4131 14.722 40.3761V40.3252H14.6934L14.4931 40.2839L14.528 39.0123L14.6202 39.0154Z" fill="white"/>
<path d="M14.6202 39.0154C14.6409 39.0167 14.6616 39.0134 14.6809 39.0057C14.7001 38.998 14.7174 38.9861 14.7315 38.9709C14.7538 38.9383 14.7639 38.899 14.7601 38.8597V38.8247H14.722H14.2101C14.1837 38.8209 14.1567 38.8239 14.1317 38.8334C14.1067 38.8428 14.0845 38.8584 14.0671 38.8787C14.0551 38.8924 14.0468 38.909 14.0429 38.9267C14.039 38.9445 14.0397 38.963 14.0448 38.9805V39.0091H14.0734L14.226 39.0313L14.1879 40.3029L14.0703 40.3252C14.0287 40.3307 13.991 40.3524 13.9653 40.3856C13.9536 40.4163 13.9536 40.4503 13.9653 40.481V40.5096H13.9971C14.0639 40.5096 14.1752 40.5096 14.2801 40.5096H14.3023C14.3891 40.5036 14.4762 40.5036 14.563 40.5096C14.6046 40.5087 14.6453 40.4966 14.6806 40.4746C14.7069 40.4485 14.7218 40.4131 14.722 40.3761V40.3252H14.6934L14.4931 40.2839L14.528 39.0123L14.6202 39.0154Z" fill="white"/>
<path d="M17.7497 39.3712C17.7269 39.36 17.7019 39.3542 17.6766 39.3542C17.6512 39.3542 17.6262 39.36 17.6034 39.3712C17.5795 39.3953 17.5639 39.4265 17.5589 39.4602V39.4856H17.5875L17.7211 39.5524L17.1425 40.4266L17.0789 39.368L17.1647 39.3871C17.2069 39.3978 17.2515 39.3914 17.289 39.3694C17.3265 39.3474 17.3538 39.3115 17.365 39.2695V39.2345L17.3237 39.2186L16.8119 39.0724C16.7876 39.0645 16.7619 39.0621 16.7366 39.0654C16.7113 39.0687 16.687 39.0776 16.6656 39.0914C16.6486 39.1009 16.6343 39.1147 16.6242 39.1315C16.6142 39.1482 16.6087 39.1673 16.6084 39.1868V39.2154H16.6306L16.7483 39.2663L16.8278 40.8558V40.8908H16.8754C16.9417 40.9038 17.0103 40.8955 17.0715 40.8669C17.1326 40.8383 17.1831 40.791 17.2156 40.7318L17.9595 39.6891C18.0186 39.7131 18.0848 39.7131 18.1439 39.6891C18.167 39.6729 18.1865 39.6521 18.2013 39.6281C18.216 39.604 18.2257 39.5772 18.2297 39.5492V39.5143H18.1916L17.7497 39.3712Z" fill="white"/>
<path d="M17.7497 39.3712C17.7269 39.36 17.7019 39.3542 17.6766 39.3542C17.6512 39.3542 17.6262 39.36 17.6034 39.3712C17.5795 39.3953 17.5639 39.4265 17.5589 39.4602V39.4856H17.5875L17.7211 39.5524L17.1425 40.4266L17.0789 39.368L17.1647 39.3871C17.2069 39.3978 17.2515 39.3914 17.289 39.3694C17.3265 39.3474 17.3538 39.3115 17.365 39.2695V39.2345L17.3237 39.2186L16.8119 39.0724C16.7876 39.0645 16.7619 39.0621 16.7366 39.0654C16.7113 39.0687 16.687 39.0776 16.6656 39.0914C16.6486 39.1009 16.6343 39.1147 16.6242 39.1315C16.6142 39.1482 16.6087 39.1673 16.6084 39.1868V39.2154H16.6306L16.7483 39.2663L16.8278 40.8558V40.8908H16.8754C16.9417 40.9038 17.0103 40.8955 17.0715 40.8669C17.1326 40.8383 17.1831 40.791 17.2156 40.7318L17.9595 39.6891C18.0186 39.7131 18.0848 39.7131 18.1439 39.6891C18.167 39.6729 18.1865 39.6521 18.2013 39.6281C18.216 39.604 18.2257 39.5772 18.2297 39.5492V39.5143H18.1916L17.7497 39.3712Z" fill="white"/>
<path d="M20.1648 40.4514C20.1444 40.4342 20.1201 40.4223 20.094 40.4168C20.068 40.4112 20.041 40.4122 20.0154 40.4196C19.9983 40.4264 19.9831 40.4372 19.9709 40.451C19.9588 40.4648 19.9501 40.4812 19.9454 40.499V40.5245L19.9645 40.5435L20.0948 40.6389L19.4177 41.723L19.3064 41.688C19.2878 41.6783 19.2671 41.6732 19.246 41.6732C19.225 41.6732 19.2043 41.6783 19.1856 41.688C19.1715 41.6964 19.1596 41.7079 19.1508 41.7217C19.1419 41.7355 19.1364 41.7512 19.1348 41.7675V41.7993H19.1602L19.4209 41.9519C19.5099 41.9995 19.5925 42.0568 19.6498 42.0917C19.666 42.105 19.685 42.1145 19.7053 42.1194C19.7257 42.1244 19.7469 42.1247 19.7674 42.1204C19.7853 42.1162 19.8022 42.1085 19.8169 42.0975C19.8317 42.0866 19.8441 42.0727 19.8532 42.0568V42.0282L19.8278 41.9995L19.6752 41.8692L20.311 40.782L20.3937 40.8169C20.429 40.838 20.4711 40.8448 20.5113 40.836C20.5472 40.8164 20.5753 40.7849 20.5908 40.747V40.7152L20.559 40.6961L20.1648 40.4514Z" fill="white"/>
<path d="M20.1648 40.4514C20.1444 40.4342 20.1201 40.4223 20.094 40.4168C20.068 40.4112 20.041 40.4122 20.0154 40.4196C19.9983 40.4264 19.9831 40.4372 19.9709 40.451C19.9588 40.4648 19.9501 40.4812 19.9454 40.499V40.5245L19.9645 40.5435L20.0948 40.6389L19.4177 41.723L19.3064 41.688C19.2878 41.6783 19.2671 41.6732 19.246 41.6732C19.225 41.6732 19.2043 41.6783 19.1856 41.688C19.1715 41.6964 19.1596 41.7079 19.1508 41.7217C19.1419 41.7355 19.1364 41.7512 19.1348 41.7675V41.7993H19.1602L19.4209 41.9519C19.5099 41.9995 19.5925 42.0568 19.6498 42.0917C19.666 42.105 19.685 42.1145 19.7053 42.1194C19.7257 42.1244 19.7469 42.1247 19.7674 42.1204C19.7853 42.1162 19.8022 42.1085 19.8169 42.0975C19.8317 42.0866 19.8441 42.0727 19.8532 42.0568V42.0282L19.8278 41.9995L19.6752 41.8692L20.311 40.782L20.3937 40.8169C20.429 40.838 20.4711 40.8448 20.5113 40.836C20.5472 40.8164 20.5753 40.7849 20.5908 40.747V40.7152L20.559 40.6961L20.1648 40.4514Z" fill="white"/>
<path d="M22.0754 42.9887L22.5586 42.7567L22.3075 43.2303L22.0754 42.9887ZM22.9369 42.6231V42.6041C22.9115 42.5659 22.8893 42.5468 22.867 42.5182C22.8391 42.4845 22.8001 42.4619 22.757 42.4543C22.7139 42.4467 22.6695 42.4547 22.6318 42.4769C22.6318 42.4769 21.465 43.0046 21.2997 43.0746L21.2044 43.0173C21.1763 43.0093 21.1466 43.0093 21.1185 43.0173C21.1022 43.0225 21.0872 43.0311 21.0746 43.0426C21.062 43.0542 21.052 43.0683 21.0454 43.0841V43.1095L21.0708 43.1318C21.1153 43.1699 21.1758 43.2367 21.233 43.2907L21.411 43.491C21.4348 43.5172 21.4675 43.5337 21.5027 43.5372C21.5379 43.5407 21.5732 43.5311 21.6017 43.5101L21.6367 43.4878L21.6145 43.456L21.4968 43.2844L21.8942 43.1L22.2121 43.4433L22.0182 43.8248L21.891 43.7453C21.8624 43.734 21.8306 43.734 21.802 43.7453C21.771 43.7578 21.746 43.7817 21.7321 43.8121V43.8343V43.8534L21.9324 44.0505C22.0309 44.1523 22.104 44.2381 22.1326 44.2667C22.1435 44.2814 22.1573 44.2937 22.1732 44.3029C22.189 44.3121 22.2066 44.3179 22.2248 44.32C22.243 44.322 22.2614 44.3204 22.2789 44.315C22.2964 44.3097 22.3126 44.3008 22.3266 44.289L22.3584 44.2667L22.3393 44.2381L22.2471 44.0887L22.9306 42.6676L22.9369 42.6231Z" fill="white"/>
<path d="M22.0754 42.9887L22.5586 42.7567L22.3075 43.2303L22.0754 42.9887ZM22.9369 42.6231V42.6041C22.9115 42.5659 22.8893 42.5468 22.867 42.5182C22.8391 42.4845 22.8001 42.4619 22.757 42.4543C22.7139 42.4467 22.6695 42.4547 22.6318 42.4769C22.6318 42.4769 21.465 43.0046 21.2997 43.0746L21.2044 43.0173C21.1763 43.0093 21.1466 43.0093 21.1185 43.0173C21.1022 43.0225 21.0872 43.0311 21.0746 43.0426C21.062 43.0542 21.052 43.0683 21.0454 43.0841V43.1095L21.0708 43.1318C21.1153 43.1699 21.1758 43.2367 21.233 43.2907L21.411 43.491C21.4348 43.5172 21.4675 43.5337 21.5027 43.5372C21.5379 43.5407 21.5732 43.5311 21.6017 43.5101L21.6367 43.4878L21.6145 43.456L21.4968 43.2844L21.8942 43.1L22.2121 43.4433L22.0182 43.8248L21.891 43.7453C21.8624 43.734 21.8306 43.734 21.802 43.7453C21.771 43.7578 21.746 43.7817 21.7321 43.8121V43.8343V43.8534L21.9324 44.0505C22.0309 44.1523 22.104 44.2381 22.1326 44.2667C22.1435 44.2814 22.1573 44.2937 22.1732 44.3029C22.189 44.3121 22.2066 44.3179 22.2248 44.32C22.243 44.322 22.2614 44.3204 22.2789 44.315C22.2964 44.3097 22.3126 44.3008 22.3266 44.289L22.3584 44.2667L22.3393 44.2381L22.2471 44.0887L22.9306 42.6676L22.9369 42.6231Z" fill="white"/>
<path d="M15.8349 58.7631H15.4884C15.3549 58.7631 15.1705 58.7631 15.1069 58.7631C15.1069 58.7218 15.1069 58.6741 15.1991 58.655L15.4057 58.6073V57.6377C15.3517 57.6377 15.2468 57.6377 15.18 57.6377C15.1133 57.6377 15.0815 57.6123 15.091 57.5296C15.1927 57.5137 15.5742 57.4216 15.6505 57.3929V58.601L15.9684 58.6582C15.9645 58.6881 15.9489 58.7151 15.9251 58.7336C15.9013 58.752 15.8712 58.7604 15.8413 58.7568" fill="white"/>
<path d="M15.8349 58.7631H15.4884C15.3549 58.7631 15.1705 58.7631 15.1069 58.7631C15.1069 58.7218 15.1069 58.6741 15.1991 58.655L15.4057 58.6073V57.6377C15.3517 57.6377 15.2468 57.6377 15.18 57.6377C15.1133 57.6377 15.0815 57.6123 15.091 57.5296C15.1927 57.5137 15.5742 57.4216 15.6505 57.3929V58.601L15.9684 58.6582C15.9645 58.6881 15.9489 58.7151 15.9251 58.7336C15.9013 58.752 15.8712 58.7604 15.8413 58.7568" fill="white"/>
<path d="M17.1 58.0448C17.1 57.7936 17.0174 57.552 16.8457 57.552C16.7376 57.552 16.674 57.6696 16.674 57.7936C16.674 58.0003 16.7503 58.1115 16.9093 58.1115C16.9742 58.1121 17.0388 58.1013 17.1 58.0797V58.0448ZM16.744 58.795C16.5628 58.795 16.4102 58.706 16.4102 58.5629C16.41 58.5367 16.4198 58.5114 16.4374 58.4919C16.4551 58.4725 16.4794 58.4604 16.5055 58.458C16.5469 58.5757 16.6168 58.6233 16.7758 58.6233C16.9347 58.6233 17.0682 58.5025 17.0937 58.191C17.0076 58.2429 16.9078 58.2673 16.8075 58.2609C16.7544 58.2635 16.7014 58.2546 16.652 58.2347C16.6027 58.2149 16.5582 58.1846 16.5216 58.1459C16.4851 58.1073 16.4573 58.0612 16.4403 58.0108C16.4233 57.9604 16.4173 57.9069 16.4229 57.854C16.427 57.7331 16.4775 57.6184 16.5639 57.5337C16.6503 57.4491 16.766 57.401 16.887 57.3994C17.1731 57.3994 17.3543 57.6092 17.3543 58.0352C17.3543 58.5216 17.1668 58.8014 16.744 58.8014" fill="white"/>
<path d="M17.1 58.0448C17.1 57.7936 17.0174 57.552 16.8457 57.552C16.7376 57.552 16.674 57.6696 16.674 57.7936C16.674 58.0003 16.7503 58.1115 16.9093 58.1115C16.9742 58.1121 17.0388 58.1013 17.1 58.0797V58.0448ZM16.744 58.795C16.5628 58.795 16.4102 58.706 16.4102 58.5629C16.41 58.5367 16.4198 58.5114 16.4374 58.4919C16.4551 58.4725 16.4794 58.4604 16.5055 58.458C16.5469 58.5757 16.6168 58.6233 16.7758 58.6233C16.9347 58.6233 17.0682 58.5025 17.0937 58.191C17.0076 58.2429 16.9078 58.2673 16.8075 58.2609C16.7544 58.2635 16.7014 58.2546 16.652 58.2347C16.6027 58.2149 16.5582 58.1846 16.5216 58.1459C16.4851 58.1073 16.4573 58.0612 16.4403 58.0108C16.4233 57.9604 16.4173 57.9069 16.4229 57.854C16.427 57.7331 16.4775 57.6184 16.5639 57.5337C16.6503 57.4491 16.766 57.401 16.887 57.3994C17.1731 57.3994 17.3543 57.6092 17.3543 58.0352C17.3543 58.5216 17.1668 58.8014 16.744 58.8014" fill="white"/>
<path d="M18.2608 57.5866C18.1304 57.5866 18.0414 57.736 18.0414 58.0825C18.0414 58.4831 18.159 58.6071 18.3053 58.6071C18.4515 58.6071 18.5215 58.4704 18.5215 58.1111C18.5215 57.7519 18.4102 57.5866 18.2608 57.5866ZM18.229 58.7915C17.9874 58.7915 17.7935 58.5657 17.7935 58.1111C17.7935 57.7328 18.016 57.4054 18.3116 57.4054C18.6073 57.4054 18.779 57.6343 18.779 58.0603C18.779 58.4863 18.5374 58.7915 18.229 58.7915Z" fill="white"/>
<path d="M18.2608 57.5866C18.1304 57.5866 18.0414 57.736 18.0414 58.0825C18.0414 58.4831 18.159 58.6071 18.3053 58.6071C18.4515 58.6071 18.5215 58.4704 18.5215 58.1111C18.5215 57.7519 18.4102 57.5866 18.2608 57.5866ZM18.229 58.7915C17.9874 58.7915 17.7935 58.5657 17.7935 58.1111C17.7935 57.7328 18.016 57.4054 18.3116 57.4054C18.6073 57.4054 18.779 57.6343 18.779 58.0603C18.779 58.4863 18.5374 58.7915 18.229 58.7915Z" fill="white"/>
<path d="M19.8726 57.6629C19.7656 57.6612 19.6591 57.6485 19.5547 57.6248V57.9109C19.933 57.8855 20.1397 58.0603 20.1397 58.3146C20.1379 58.3835 20.1218 58.4513 20.0924 58.5136C20.063 58.576 20.021 58.6315 19.9689 58.6766C19.9169 58.7218 19.856 58.7556 19.7902 58.7759C19.7243 58.7963 19.655 58.8027 19.5865 58.7947C19.3799 58.7947 19.2368 58.693 19.2368 58.5149C19.2396 58.4889 19.2512 58.4646 19.2697 58.4461C19.2882 58.4276 19.3125 58.416 19.3385 58.4132C19.3534 58.4757 19.3886 58.5316 19.4387 58.5719C19.4888 58.6122 19.5509 58.6346 19.6151 58.6357C19.6498 58.6388 19.6848 58.6341 19.7175 58.6219C19.7502 58.6098 19.7797 58.5906 19.8041 58.5657C19.8284 58.5407 19.8469 58.5107 19.8582 58.4777C19.8695 58.4447 19.8733 58.4097 19.8694 58.375C19.8694 58.1334 19.6596 58.0349 19.3449 58.0889L19.3894 57.4531C19.6307 57.4713 19.873 57.4713 20.1142 57.4531C20.1619 57.5707 20.0952 57.6884 19.8949 57.6884" fill="white"/>
<path d="M19.8726 57.6629C19.7656 57.6612 19.6591 57.6485 19.5547 57.6248V57.9109C19.933 57.8855 20.1397 58.0603 20.1397 58.3146C20.1379 58.3835 20.1218 58.4513 20.0924 58.5136C20.063 58.576 20.021 58.6315 19.9689 58.6766C19.9169 58.7218 19.856 58.7556 19.7902 58.7759C19.7243 58.7963 19.655 58.8027 19.5865 58.7947C19.3799 58.7947 19.2368 58.693 19.2368 58.5149C19.2396 58.4889 19.2512 58.4646 19.2697 58.4461C19.2882 58.4276 19.3125 58.416 19.3385 58.4132C19.3534 58.4757 19.3886 58.5316 19.4387 58.5719C19.4888 58.6122 19.5509 58.6346 19.6151 58.6357C19.6498 58.6388 19.6848 58.6341 19.7175 58.6219C19.7502 58.6098 19.7797 58.5906 19.8041 58.5657C19.8284 58.5407 19.8469 58.5107 19.8582 58.4777C19.8695 58.4447 19.8733 58.4097 19.8694 58.375C19.8694 58.1334 19.6596 58.0349 19.3449 58.0889L19.3894 57.4531C19.6307 57.4713 19.873 57.4713 20.1142 57.4531C20.1619 57.5707 20.0952 57.6884 19.8949 57.6884" fill="white"/>
<path d="M12.0814 54.1092C12.0117 54.7796 12.1135 55.4567 12.377 56.0771C12.4629 56.2773 12.269 56.2137 12.269 56.2137C11.7889 56.0802 11.4551 55.5779 11.2771 55.0502C11.1608 54.6575 11.1092 54.2484 11.1245 53.839C11.1656 53.1652 11.2591 52.4955 11.4043 51.8362C11.753 50.5137 12.1776 49.2124 12.6759 47.9387C12.714 47.8401 12.6759 47.8147 12.6282 47.8338C12.5964 47.8558 12.5694 47.8839 12.5487 47.9164C10.7716 50.5264 9.58902 52.472 9.58902 52.472C9.4396 52.6882 9.37602 52.472 9.37602 52.472C9.39827 51.5183 9.52861 47.9578 9.52861 47.9578C9.52861 47.8688 9.52862 47.8433 9.5 47.837C9.47139 47.8306 9.41417 47.926 9.41417 47.926C9.36648 48.0214 8.33329 50.873 7.6339 52.6946C7.40742 53.3168 7.14416 53.9251 6.8455 54.5161C6.70247 54.7317 6.48136 54.8832 6.22877 54.939C6.01392 55.0153 5.78396 55.0392 5.55799 55.0089C5.37996 54.9771 5.49759 54.8372 5.49759 54.8372C6.09842 54.4367 6.91862 53.1015 7.57986 51.6582C8.25714 50.1416 8.85351 48.5902 9.36648 47.0104C9.42186 46.8833 9.43414 46.7415 9.40145 46.6067C9.3855 46.577 9.36158 46.5523 9.33237 46.5355C9.30317 46.5186 9.26984 46.5103 9.23614 46.5113C7.99314 46.5113 7.27785 47.9419 7.27785 47.9419C7.12264 48.2163 7.03247 48.5226 7.01428 48.8373C6.9961 49.152 7.05038 49.4667 7.17294 49.7571C7.22381 49.9002 7.08393 49.8557 7.08393 49.8557C6.00623 49.4424 6.41315 48.1517 6.41315 48.1517C6.41315 48.1517 6.89954 45.9073 10.6317 46.1807C10.6524 46.1846 10.6706 46.1964 10.6825 46.2137C10.6944 46.231 10.699 46.2522 10.6953 46.2729C10.6953 46.2729 10.4982 49.4742 10.495 50.1958C10.495 50.1958 10.53 50.3993 10.6286 50.2244C10.6286 50.2244 12.4661 47.4809 13.3371 46.2824C13.3501 46.2569 13.3703 46.2358 13.3951 46.2217C13.42 46.2076 13.4485 46.2011 13.477 46.2029C13.477 46.2029 14.1541 46.1807 14.8472 46.2029C14.8472 46.2029 14.9489 46.2029 14.9393 46.2792C14.9298 46.3555 14.9393 46.3428 14.8599 46.3841C14.8599 46.3841 14.5769 46.47 14.2241 47.02C14.0491 47.2984 13.9042 47.5947 13.7917 47.9037C13.2309 49.3445 12.7511 50.8155 12.3548 52.3099C12.2146 52.9178 12.1284 53.537 12.0973 54.1601" fill="white"/>
<path d="M12.0814 54.1092C12.0117 54.7796 12.1135 55.4567 12.377 56.0771C12.4629 56.2773 12.269 56.2137 12.269 56.2137C11.7889 56.0802 11.4551 55.5779 11.2771 55.0502C11.1608 54.6575 11.1092 54.2484 11.1245 53.839C11.1656 53.1652 11.2591 52.4955 11.4043 51.8362C11.753 50.5137 12.1776 49.2124 12.6759 47.9387C12.714 47.8401 12.6759 47.8147 12.6282 47.8338C12.5964 47.8558 12.5694 47.8839 12.5487 47.9164C10.7716 50.5264 9.58902 52.472 9.58902 52.472C9.4396 52.6882 9.37602 52.472 9.37602 52.472C9.39827 51.5183 9.52861 47.9578 9.52861 47.9578C9.52861 47.8688 9.52862 47.8433 9.5 47.837C9.47139 47.8306 9.41417 47.926 9.41417 47.926C9.36648 48.0214 8.33329 50.873 7.6339 52.6946C7.40742 53.3168 7.14416 53.9251 6.8455 54.5161C6.70247 54.7317 6.48136 54.8832 6.22877 54.939C6.01392 55.0153 5.78396 55.0392 5.55799 55.0089C5.37996 54.9771 5.49759 54.8372 5.49759 54.8372C6.09842 54.4367 6.91862 53.1015 7.57986 51.6582C8.25714 50.1416 8.85351 48.5902 9.36648 47.0104C9.42186 46.8833 9.43414 46.7415 9.40145 46.6067C9.3855 46.577 9.36158 46.5523 9.33237 46.5355C9.30317 46.5186 9.26984 46.5103 9.23614 46.5113C7.99314 46.5113 7.27785 47.9419 7.27785 47.9419C7.12264 48.2163 7.03247 48.5226 7.01428 48.8373C6.9961 49.152 7.05038 49.4667 7.17294 49.7571C7.22381 49.9002 7.08393 49.8557 7.08393 49.8557C6.00623 49.4424 6.41315 48.1517 6.41315 48.1517C6.41315 48.1517 6.89954 45.9073 10.6317 46.1807C10.6524 46.1846 10.6706 46.1964 10.6825 46.2137C10.6944 46.231 10.699 46.2522 10.6953 46.2729C10.6953 46.2729 10.4982 49.4742 10.495 50.1958C10.495 50.1958 10.53 50.3993 10.6286 50.2244C10.6286 50.2244 12.4661 47.4809 13.3371 46.2824C13.3501 46.2569 13.3703 46.2358 13.3951 46.2217C13.42 46.2076 13.4485 46.2011 13.477 46.2029C13.477 46.2029 14.1541 46.1807 14.8472 46.2029C14.8472 46.2029 14.9489 46.2029 14.9393 46.2792C14.9298 46.3555 14.9393 46.3428 14.8599 46.3841C14.8599 46.3841 14.5769 46.47 14.2241 47.02C14.0491 47.2984 13.9042 47.5947 13.7917 47.9037C13.2309 49.3445 12.7511 50.8155 12.3548 52.3099C12.2146 52.9178 12.1284 53.537 12.0973 54.1601" fill="white"/>
<path d="M9.71631 55.1196C9.75967 54.4846 10.0503 53.8918 10.5258 53.4686C11.0013 53.0454 11.6237 52.8255 12.2595 52.8561C12.6082 52.8474 12.9538 52.9226 13.2673 53.0755C13.4227 53.1474 13.5616 53.2506 13.6754 53.3786C13.7892 53.5066 13.8754 53.6566 13.9285 53.8194C14.0031 54.0726 14.0031 54.3419 13.9285 54.5951C13.8756 54.758 13.7846 54.9059 13.6629 55.0264C13.5412 55.147 13.3925 55.2367 13.2292 55.2881C13.0098 55.3612 13.1592 55.1641 13.1592 55.1641C13.2765 54.9129 13.3404 54.6402 13.3468 54.363C13.3468 53.3711 12.587 53.2058 12.587 53.2058C12.237 53.1228 11.8705 53.1427 11.5315 53.2631C10.527 53.6191 10.4538 54.8526 10.4538 54.8526C10.369 55.3031 10.4402 55.769 10.6558 56.1736C10.8713 56.5781 11.2184 56.8971 11.6396 57.0779C13.2641 57.6851 14.5612 56.4707 14.5612 56.4707C14.8829 56.1779 15.1163 55.8009 15.2348 55.3823C15.3534 54.9638 15.3524 54.5204 15.232 54.1023C15.0825 53.5333 14.2782 52.2648 14.2782 52.2648C13.9651 51.848 13.7263 51.3801 13.5725 50.882C13.4439 50.3823 13.4865 49.8541 13.6933 49.3814C13.9444 48.806 14.5294 48.1098 15.7819 47.9127C15.7819 47.9127 16.8056 47.7506 17.4668 48.0526C17.4847 48.0657 17.4977 48.0843 17.504 48.1056C17.5103 48.1268 17.5096 48.1495 17.5018 48.1702C17.309 48.5468 17.1381 48.9343 16.99 49.3306C16.9741 49.3701 16.9448 49.4027 16.9073 49.4228C16.8901 49.4325 16.8705 49.4371 16.8508 49.4359C16.831 49.4347 16.8121 49.4277 16.7963 49.4159C16.7804 49.4041 16.7684 49.388 16.7615 49.3694C16.7547 49.3509 16.7535 49.3308 16.7579 49.3115C16.7579 49.3115 16.8914 48.0971 15.8264 48.2402C15.5659 48.2696 15.3177 48.367 15.1068 48.5227C14.8959 48.6784 14.7296 48.8869 14.6248 49.1271C14.4482 49.5468 14.4346 50.0173 14.5866 50.4464C14.7802 50.9263 15.0311 51.381 15.3337 51.8007C15.3337 51.8007 16.3096 53.1931 16.37 53.9783C16.37 53.9783 16.7229 56.0447 14.3736 57.1765C14.3736 57.1765 12.5075 58.0857 10.8353 57.1574C10.4738 56.9653 10.1777 56.6697 9.98519 56.3083C9.79263 55.947 9.71229 55.5364 9.75446 55.1292" fill="white"/>
<path d="M9.71631 55.1196C9.75967 54.4846 10.0503 53.8918 10.5258 53.4686C11.0013 53.0454 11.6237 52.8255 12.2595 52.8561C12.6082 52.8474 12.9538 52.9226 13.2673 53.0755C13.4227 53.1474 13.5616 53.2506 13.6754 53.3786C13.7892 53.5066 13.8754 53.6566 13.9285 53.8194C14.0031 54.0726 14.0031 54.3419 13.9285 54.5951C13.8756 54.758 13.7846 54.9059 13.6629 55.0264C13.5412 55.147 13.3925 55.2367 13.2292 55.2881C13.0098 55.3612 13.1592 55.1641 13.1592 55.1641C13.2765 54.9129 13.3404 54.6402 13.3468 54.363C13.3468 53.3711 12.587 53.2058 12.587 53.2058C12.237 53.1228 11.8705 53.1427 11.5315 53.2631C10.527 53.6191 10.4538 54.8526 10.4538 54.8526C10.369 55.3031 10.4402 55.769 10.6558 56.1736C10.8713 56.5781 11.2184 56.8971 11.6396 57.0779C13.2641 57.6851 14.5612 56.4707 14.5612 56.4707C14.8829 56.1779 15.1163 55.8009 15.2348 55.3823C15.3534 54.9638 15.3524 54.5204 15.232 54.1023C15.0825 53.5333 14.2782 52.2648 14.2782 52.2648C13.9651 51.848 13.7263 51.3801 13.5725 50.882C13.4439 50.3823 13.4865 49.8541 13.6933 49.3814C13.9444 48.806 14.5294 48.1098 15.7819 47.9127C15.7819 47.9127 16.8056 47.7506 17.4668 48.0526C17.4847 48.0657 17.4977 48.0843 17.504 48.1056C17.5103 48.1268 17.5096 48.1495 17.5018 48.1702C17.309 48.5468 17.1381 48.9343 16.99 49.3306C16.9741 49.3701 16.9448 49.4027 16.9073 49.4228C16.8901 49.4325 16.8705 49.4371 16.8508 49.4359C16.831 49.4347 16.8121 49.4277 16.7963 49.4159C16.7804 49.4041 16.7684 49.388 16.7615 49.3694C16.7547 49.3509 16.7535 49.3308 16.7579 49.3115C16.7579 49.3115 16.8914 48.0971 15.8264 48.2402C15.5659 48.2696 15.3177 48.367 15.1068 48.5227C14.8959 48.6784 14.7296 48.8869 14.6248 49.1271C14.4482 49.5468 14.4346 50.0173 14.5866 50.4464C14.7802 50.9263 15.0311 51.381 15.3337 51.8007C15.3337 51.8007 16.3096 53.1931 16.37 53.9783C16.37 53.9783 16.7229 56.0447 14.3736 57.1765C14.3736 57.1765 12.5075 58.0857 10.8353 57.1574C10.4738 56.9653 10.1777 56.6697 9.98519 56.3083C9.79263 55.947 9.71229 55.5364 9.75446 55.1292" fill="white"/>
<path d="M18.4645 54.9484C17.1929 54.9707 16.7256 54.1441 16.6016 53.1968C16.4236 51.8266 17.1007 50.0368 17.1007 50.0368C17.1007 50.0368 18.2038 45.9326 21.0046 46.1234C21.394 46.1596 21.7733 46.2674 22.1236 46.4413C22.1453 46.4566 22.1619 46.4783 22.171 46.5033C22.1801 46.5283 22.1813 46.5555 22.1745 46.5812C22.1745 46.5812 21.5736 47.9291 21.5387 48.4568C21.5387 48.4568 21.51 48.549 21.3924 48.5109C21.285 48.4732 21.1864 48.4141 21.1026 48.3371C21.0188 48.2602 20.9515 48.167 20.9048 48.0632C20.8581 47.9594 20.833 47.8472 20.8311 47.7335C20.8291 47.6197 20.8503 47.5067 20.8933 47.4014C20.9474 47.2488 21.0046 47.1184 21.0713 46.9277C21.1256 46.8177 21.156 46.6974 21.1604 46.5748C21.1595 46.5578 21.1548 46.5412 21.1465 46.5264C21.1382 46.5115 21.1267 46.4987 21.1127 46.489C21.001 46.4525 20.8833 46.4384 20.7662 46.4477C20.5474 46.4658 20.3372 46.5403 20.1558 46.6638C19.0145 47.4554 18.0958 50.5995 18.0958 50.5995C18.0958 50.5995 16.8082 54.5002 18.4137 54.6273C18.4137 54.6273 19.4341 54.8658 20.2162 53.2413C20.5465 52.5722 20.7707 51.8557 20.8806 51.1177C20.8806 51.1177 20.8806 51.0064 20.9537 50.9905C21.0268 50.9746 21.0491 51.0191 21.0872 51.1399C21.2293 51.5348 21.2803 51.9566 21.2362 52.3739C21.1922 52.7912 21.0543 53.1932 20.8329 53.5496C20.6058 53.9787 20.2643 54.3366 19.8462 54.5835C19.4282 54.8304 18.95 54.9567 18.4645 54.9484Z" fill="white"/>
<path d="M18.4645 54.9484C17.1929 54.9707 16.7256 54.1441 16.6016 53.1968C16.4236 51.8266 17.1007 50.0368 17.1007 50.0368C17.1007 50.0368 18.2038 45.9326 21.0046 46.1234C21.394 46.1596 21.7733 46.2674 22.1236 46.4413C22.1453 46.4566 22.1619 46.4783 22.171 46.5033C22.1801 46.5283 22.1813 46.5555 22.1745 46.5812C22.1745 46.5812 21.5736 47.9291 21.5387 48.4568C21.5387 48.4568 21.51 48.549 21.3924 48.5109C21.285 48.4732 21.1864 48.4141 21.1026 48.3371C21.0188 48.2602 20.9515 48.167 20.9048 48.0632C20.8581 47.9594 20.833 47.8472 20.8311 47.7335C20.8291 47.6197 20.8503 47.5067 20.8933 47.4014C20.9474 47.2488 21.0046 47.1184 21.0713 46.9277C21.1256 46.8177 21.156 46.6974 21.1604 46.5748C21.1595 46.5578 21.1548 46.5412 21.1465 46.5264C21.1382 46.5115 21.1267 46.4987 21.1127 46.489C21.001 46.4525 20.8833 46.4384 20.7662 46.4477C20.5474 46.4658 20.3372 46.5403 20.1558 46.6638C19.0145 47.4554 18.0958 50.5995 18.0958 50.5995C18.0958 50.5995 16.8082 54.5002 18.4137 54.6273C18.4137 54.6273 19.4341 54.8658 20.2162 53.2413C20.5465 52.5722 20.7707 51.8557 20.8806 51.1177C20.8806 51.1177 20.8806 51.0064 20.9537 50.9905C21.0268 50.9746 21.0491 51.0191 21.0872 51.1399C21.2293 51.5348 21.2803 51.9566 21.2362 52.3739C21.1922 52.7912 21.0543 53.1932 20.8329 53.5496C20.6058 53.9787 20.2643 54.3366 19.8462 54.5835C19.4282 54.8304 18.95 54.9567 18.4645 54.9484Z" fill="white"/>
<path d="M50.8332 57.6981L50.7823 49.013C50.7289 49.3206 50.6381 49.6206 50.5121 49.9063L47.1868 57.447H45.68L42.4977 50.1797C42.3573 49.8942 42.267 49.5866 42.2307 49.2705L42.1067 57.7045H40.1611L40.3678 45.4111H42.555L46.5764 54.5191L50.7092 45.4111H52.8741L53.0204 57.7109L50.8332 57.6981Z" fill="white"/>
<path d="M69.3985 50.9396C69.1097 50.8794 68.816 50.8464 68.5211 50.841C67.7422 50.841 67.5229 51.0063 66.5246 52.5895V57.6982H64.2993V49.0035L66.0637 48.8573C66.1972 49.1307 66.2862 49.9954 66.3244 50.8029C67.135 49.1498 67.596 48.8573 68.4098 48.8573C68.8255 48.8612 69.2385 48.9232 69.6369 49.0417L69.3985 50.9396Z" fill="white"/>
<path d="M76.3773 50.8157C75.8368 50.653 75.2759 50.5684 74.7115 50.5645C73.1474 50.5645 72.4639 51.4769 72.4639 53.5147C72.4639 55.2123 73.0552 56.0579 74.4762 56.0579C75.1984 56.0485 75.9096 55.8791 76.5585 55.562L77.1307 57.1261C76.1679 57.623 75.0953 57.869 74.0121 57.8413C71.542 57.8413 70.2163 56.6873 70.2163 53.6927C70.2163 50.4151 72.022 48.8192 74.5112 48.8192C75.3029 48.7871 76.0929 48.918 76.8319 49.2039L76.3773 50.8157Z" fill="white"/>
<path d="M93.2986 57.6986V51.6584C93.2986 51.0544 93.1174 50.6665 92.4371 50.6665C91.8649 50.6665 91.0701 51.0734 90.3135 51.7887V57.689H88.0659V49.0039L90.021 48.8735C90.1523 49.3103 90.2261 49.7624 90.2404 50.2183C91.2672 49.2646 92.3608 48.8036 93.3209 48.8036C94.9613 48.8036 95.5716 49.5952 95.5716 51.2451V57.6986H93.2986Z" fill="white"/>
<path d="M99.9623 57.844C98.4141 57.844 97.6416 57.2082 97.6416 55.6186V50.6212L97.6988 49.0317L97.7179 46.4884L99.9114 46.3263V49.0158H102.49L102.362 50.6339H99.9114V55.5042C99.9114 55.9779 100.074 56.14 100.547 56.14C101.144 56.1278 101.732 56.0038 102.283 55.7744L102.664 57.2622C101.821 57.6683 100.892 57.8636 99.9559 57.8313" fill="white"/>
<path d="M104.298 57.6983V49.0386L106.524 48.9146V57.6983H104.298ZM104.248 45.3286H106.524V47.3187H104.257L104.248 45.3286Z" fill="white"/>
<path d="M108.972 44.4986L111.197 44.3683V55.2915C111.197 55.8987 111.229 56.0417 111.728 56.0417C111.969 56.0428 112.21 56.0311 112.45 56.0068L112.5 57.5709C111.906 57.7209 111.295 57.7936 110.682 57.787C109.538 57.787 108.981 57.3134 108.981 56.0767L108.972 44.4986Z" fill="white"/>
<path d="M121.081 57.8508C119.759 57.879 118.449 57.6039 117.25 57.0465L117.841 55.1772C118.926 55.6484 120.092 55.9064 121.275 55.937C122.693 55.937 123.44 55.3203 123.44 54.4588C123.44 53.5972 123.045 53.1236 121.214 52.5895C118.785 51.8933 117.717 51.1621 117.717 48.9654C117.717 46.864 119.164 45.2236 121.888 45.2236C123.134 45.193 124.369 45.4497 125.5 45.9739L124.946 47.7033C124.015 47.348 123.031 47.1493 122.034 47.1152C120.617 47.1152 120.028 47.6524 120.028 48.6507C120.028 49.5249 120.327 49.9858 122.034 50.4818C125.09 51.3719 125.748 52.2875 125.748 54.0836C125.748 56.185 124.158 57.8508 121.1 57.8508" fill="white"/>
<path d="M142.517 57.6986V51.6584C142.517 51.0544 142.333 50.6665 141.646 50.6665C141.08 50.6665 140.286 51.0734 139.532 51.7887V57.689H137.285V49.0039L139.233 48.8735C139.368 49.3098 139.442 49.7621 139.456 50.2183C140.489 49.2646 141.576 48.8036 142.536 48.8036C144.174 48.8036 144.79 49.5952 144.79 51.2451V57.6986H142.517Z" fill="white"/>
<path d="M149.65 57.8443C148.099 57.8443 147.326 57.2084 147.326 55.6189V50.6215L146.223 50.5674L146.353 49.0574L147.38 49.0224L147.641 46.317L149.596 46.1549V49.016H152.177L152.047 50.6342H149.596V55.5045C149.596 55.9782 149.758 56.1403 150.232 56.1403C150.828 56.1281 151.417 56.0041 151.968 55.7747L152.352 57.2625C151.508 57.6683 150.577 57.8635 149.641 57.8315" fill="white"/>
<path d="M182.294 50.8792C182.008 50.857 181.814 50.8411 181.588 50.8411C180.809 50.8411 180.593 51.0064 179.598 52.5895V57.6983H177.373V49.0036L179.143 48.8573C179.312 49.4922 179.399 50.146 179.401 50.8029C180.211 49.153 180.672 48.8573 181.483 48.8573C181.838 48.8558 182.192 48.8996 182.535 48.9877L182.294 50.8792Z" fill="white"/>
<path d="M199.911 50.3452L195.931 56.077H200L199.841 57.6983H193.273L193.13 56.2805L197.199 50.6218H193.33L193.515 49.0227H199.784L199.911 50.3452Z" fill="white"/>
<path d="M174.673 47.7284C173.783 47.3727 172.837 47.1758 171.879 47.1466C169.844 47.1466 168.608 48.5931 168.608 51.6227C168.608 55.0243 170.076 55.9367 171.787 55.9367C172.948 55.9141 174.083 55.5851 175.077 54.983L175.684 56.6424C174.384 57.4553 172.871 57.8646 171.338 57.8187C167.997 57.8187 166.227 55.9812 166.227 51.8103C166.227 47.7824 168.264 45.2869 171.838 45.2869C173.427 45.2869 174.324 45.4999 175.293 45.9449L174.673 47.7284Z" fill="white"/>
<path d="M61.8302 55.3078C60.9461 55.8008 59.9608 56.0847 58.9499 56.1375C57.478 56.1375 56.8486 55.3523 56.8486 53.7977C56.8486 53.3558 56.8836 52.7868 56.9217 52.4593C57.0807 51.1528 57.7514 50.4565 58.7687 50.4565C59.6875 50.4565 60.1834 51.0924 60.1834 52.4593H57.6402V53.7977H62.1449C62.1822 53.4695 62.1992 53.1393 62.1957 52.809C62.1957 50.3644 61.3692 48.8193 59.0167 48.8193C56.2319 48.8193 54.6455 50.7268 54.6455 53.7278C54.6455 56.6493 56.1238 57.8256 58.6479 57.8256C59.9612 57.8335 61.251 57.4769 62.3738 56.7956L61.8302 55.3078Z" fill="white"/>
<path d="M85.3926 55.2666V51.6489C85.3926 49.8304 84.8236 48.7686 82.7508 48.7686C81.2005 48.7225 79.6808 49.207 78.4432 50.142L79.327 51.5026C80.1699 50.8847 81.1787 50.5337 82.2231 50.4949C82.8844 50.4949 83.1419 50.7714 83.1419 51.5567V55.4542C82.6761 55.9651 82.0267 56.2704 81.3362 56.303C81.184 56.3158 81.031 56.295 80.8878 56.2421C80.7445 56.1893 80.6147 56.1056 80.5074 55.9971C80.4 55.8885 80.3178 55.7577 80.2666 55.6139C80.2153 55.4701 80.1963 55.3168 80.2108 55.1649C80.2108 54.5672 80.6813 54.2843 82.4679 54.1126V52.8855C78.7389 53.2543 78.0713 54.0777 78.0713 55.2539C78.0713 56.9229 79.1808 57.8448 80.5064 57.8448C81.0166 57.8695 81.5258 57.7801 81.9971 57.5833C82.4684 57.3864 82.8899 57.087 83.2309 56.7067C83.4343 57.4029 84.1051 57.7876 85.3704 57.7876C85.6279 57.7876 85.949 57.7876 86.2764 57.7685L86.642 56.1377C85.4657 55.9883 85.3926 55.8992 85.3926 55.2539" fill="white"/>
<path d="M134.61 55.2667V51.6489C134.61 49.8305 134.035 48.7687 131.969 48.7687C130.417 48.7221 128.896 49.2066 127.658 50.1421L128.538 51.5027C129.382 50.8853 130.39 50.5343 131.435 50.4949C132.102 50.4949 132.36 50.7715 132.36 51.5567V55.4542C131.892 55.9648 131.242 56.2699 130.551 56.303C130.399 56.3158 130.246 56.2951 130.102 56.2422C129.959 56.1894 129.829 56.1057 129.722 55.9971C129.615 55.8886 129.532 55.7578 129.481 55.614C129.43 55.4702 129.411 55.3169 129.425 55.1649C129.425 54.5673 129.899 54.2843 131.686 54.1127V52.8856C127.957 53.2543 127.289 54.0777 127.289 55.254C127.289 56.923 128.395 57.8449 129.724 57.8449C130.234 57.8696 130.744 57.7802 131.215 57.5833C131.686 57.3865 132.108 57.087 132.449 56.7068C132.652 57.403 133.317 57.7877 134.585 57.7877C134.846 57.7877 135.157 57.7877 135.494 57.7686L135.863 56.1377C134.68 55.9883 134.61 55.8993 134.61 55.254" fill="white"/>
<path d="M160.603 55.2667V51.6489C160.603 49.8305 160.028 48.7687 157.968 48.7687C156.415 48.7221 154.893 49.2066 153.654 50.142L154.541 51.5027C155.383 50.8842 156.392 50.5331 157.437 50.4949C158.095 50.4949 158.352 50.7715 158.352 51.5567V55.4542C158.122 55.7078 157.844 55.9133 157.534 56.0589C157.224 56.2046 156.889 56.2876 156.547 56.303C156.394 56.3158 156.241 56.2951 156.098 56.2422C155.955 56.1893 155.825 56.1057 155.718 55.9971C155.61 55.8886 155.528 55.7578 155.477 55.614C155.426 55.4702 155.407 55.3169 155.421 55.1649C155.421 54.5673 155.892 54.2843 157.682 54.1127V52.8856C153.953 53.2543 153.282 54.0777 153.282 55.254C153.282 56.923 154.388 57.8449 155.72 57.8449C156.231 57.869 156.741 57.779 157.212 57.5816C157.684 57.3842 158.106 57.0843 158.448 56.7036C158.648 57.403 159.312 57.7876 160.587 57.7876C160.842 57.7876 161.156 57.7876 161.49 57.7686L161.856 56.1377C160.679 55.9883 160.603 55.8993 160.603 55.254" fill="white"/>
<path d="M192.232 56.1117C191.332 55.9909 191.163 55.8956 191.135 55.4759V48.9494L188.868 49.0606V54.9482C188.096 55.6667 187.396 55.9719 186.84 55.9719C186.176 55.9719 185.934 55.6094 185.934 54.9832V48.943L183.67 49.032V55.3583C183.67 56.9733 184.243 57.838 185.918 57.838C186.872 57.838 187.921 57.4151 188.935 56.5028C188.935 56.56 188.957 56.6204 188.97 56.6967C189.177 57.3961 189.841 57.7776 191.113 57.7776C191.367 57.7776 191.682 57.7776 192.012 57.7776L192.232 56.1117Z" fill="white"/>
</g>
</svg>
