<svg width="200" height="100" viewBox="0 0 200 100" fill="none" xmlns="http://www.w3.org/2000/svg">
<mask id="mask0_59_716" style="mask-type:alpha" maskUnits="userSpaceOnUse" x="0" y="0" width="200" height="100">
<rect width="200" height="100" fill="#D9D9D9"/>
</mask>
<g mask="url(#mask0_59_716)">
<path fill-rule="evenodd" clip-rule="evenodd" d="M97.6957 67.2506H98.1735C98.6765 67.2506 99.1354 67.062 99.544 66.666C99.9231 66.3032 100.222 65.8654 100.423 65.3804C100.623 64.8955 100.72 64.374 100.707 63.8495C100.707 63.6924 100.688 63.4535 100.657 63.1266C100.462 61.3223 99.6069 60.4233 98.0981 60.4233H97.6957V67.2506ZM91.6731 74.9895V53.3382H99.764C100.619 53.3382 101.399 53.4325 102.09 53.6148C102.782 53.8034 103.366 54.08 103.85 54.4447C104.359 54.8336 104.792 55.3132 105.127 55.8592C105.914 57.1847 106.407 58.6641 106.573 60.197C106.617 60.7753 106.642 61.316 106.642 61.8189C106.642 62.8562 106.522 63.7678 106.283 64.5725C106.042 65.3989 105.664 66.1789 105.164 66.8797C104.837 67.3386 104.422 67.7724 103.913 68.1873L106.032 74.9895H99.72L97.6894 68.0113V74.9895H91.6731ZM108.301 74.9895V53.3382H120.34L121.931 59.9832H113.293V62.479H119.114V69.1806H113.306V72.5H122.421L121.855 74.9895H108.308H108.301ZM120.705 79.9811H108.308V78.3152H107.069L107.339 79.1953L101.191 80L100.701 78.3152H97.6957V79.3525C97.2494 79.3839 96.6333 79.4405 95.8537 79.5096L93.5151 79.6857L91.6794 79.8428V78.3152H89.9883L89.8751 79.5285C89.347 79.6542 88.8064 79.7988 88.272 79.868C87.7376 79.9308 86.7632 79.9874 86.3231 79.9874C85.6117 79.9776 84.9075 79.8435 84.2422 79.5914C83.176 79.252 82.1885 78.7026 81.3378 77.9757C80.3842 77.1776 79.576 76.2205 78.9489 75.1467C78.2464 73.9342 77.7133 72.6313 77.3646 71.2741C76.7226 68.844 76.5942 66.3068 76.9874 63.8244C77.22 62.2904 77.5972 60.9074 78.1001 59.6626C78.5766 58.4895 79.2319 57.3974 80.0427 56.425C80.7732 55.5194 81.6795 54.7712 82.7071 54.2256C83.7346 53.6799 84.8621 53.3481 86.0214 53.2502C86.7695 53.2502 87.4359 53.2879 88.0205 53.3759L88.6052 53.4388L89.0201 53.5079L90.0008 61.6555C89.7557 61.4606 89.3533 61.36 89.0201 61.2028C88.525 60.9824 87.9903 60.8648 87.4484 60.8571C84.8395 60.8571 83.3432 62.4287 82.9535 65.5784C82.8407 66.3155 82.8343 67.0649 82.9346 67.8038C83.2929 70.8843 84.7452 72.4246 87.285 72.4246C87.9639 72.4246 89.2967 72.1731 90.114 71.733C90.3466 71.601 90.4283 71.5193 90.6295 71.4061L90.2963 74.9895H85.0595V76.6492H106.554L128.224 76.6618V78.3152H121.095L120.711 79.9811H120.705Z" fill="white"/>
<mask id="mask1_59_716" style="mask-type:luminance" maskUnits="userSpaceOnUse" x="71" y="20" width="58" height="30">
<path d="M71.7446 20H128.256V49.8554H71.7446V20Z" fill="white"/>
</mask>
<g mask="url(#mask1_59_716)">
<path fill-rule="evenodd" clip-rule="evenodd" d="M80.0933 24.9979H121.585V26.6576H109.213C109.78 27.7191 110.231 28.8382 110.559 29.9958H87.7442C88.07 28.8395 88.5211 27.7222 89.0896 26.6639H80.1059V24.9916L80.0933 24.9979ZM91.5477 23.3319C93.6223 21.2448 96.2752 20 99.1545 20C102.046 20 104.687 21.2448 106.768 23.3319H91.5477ZM76.7488 44.9833H118.266V46.6492H106.636C104.58 48.661 101.984 49.8554 99.1545 49.8554C96.3255 49.8554 93.7229 48.661 91.6734 46.6492H76.7425V44.9833H76.7488ZM81.753 38.3068H128.262V39.9665H110.533C110.197 41.1307 109.733 42.2544 109.15 43.3173H89.1587C88.5778 42.2545 88.116 41.1307 87.7819 39.9665H81.7593V38.3068H81.753ZM71.7446 31.6555H114.959V33.3278H111.162C111.259 34.4301 111.257 35.5389 111.156 36.6408H87.147C87.0464 35.5389 87.0443 34.4301 87.1407 33.3278H71.7446V31.6555Z" fill="white"/>
</g>
</g>
</svg>
