<svg width="200" height="100" viewBox="0 0 200 100" fill="none" xmlns="http://www.w3.org/2000/svg">
<mask id="mask0_59_1150" style="mask-type:alpha" maskUnits="userSpaceOnUse" x="0" y="0" width="200" height="100">
<rect width="200" height="100" fill="#D9D9D9"/>
</mask>
<g mask="url(#mask0_59_1150)">
<path d="M79.8599 35.9576H95.7773V38.6827H82.635V47.4036H95.6621V50.1225H82.635V61.0588H95.6621V63.7836H79.8599V35.9576Z" fill="white"/>
<path d="M97.5283 43.2029H100.176V46.7594C100.919 45.6199 101.884 44.6416 103.012 43.8827C104.285 43.089 105.754 42.6686 107.253 42.6689C108.228 42.6721 109.192 42.8787 110.083 43.2757C110.922 43.6233 111.672 44.1564 112.276 44.8354C112.942 45.6633 113.444 46.6108 113.755 47.6271C114.511 46.1326 115.64 44.8594 117.033 43.9312C118.296 43.1122 119.769 42.676 121.274 42.6749C122.605 42.6491 123.914 43.0233 125.031 43.7491C126.131 44.4871 126.977 45.5466 127.454 46.7837C127.982 48.0703 128.248 49.994 128.248 52.5674V63.8009H125.552V52.5612C125.552 50.3602 125.396 48.845 125.085 48.0157C124.774 47.1951 124.209 46.4956 123.474 46.0189C122.663 45.4991 121.715 45.2349 120.753 45.2604C119.493 45.2554 118.264 45.6529 117.245 46.3953C116.185 47.1523 115.375 48.2089 114.918 49.4297C114.429 50.692 114.185 52.7979 114.185 55.7475V63.8009H111.543V53.247C111.543 50.7588 111.388 49.0716 111.077 48.1855C110.788 47.3154 110.222 46.5645 109.465 46.0493C108.661 45.4999 107.705 45.2175 106.732 45.2421C105.504 45.2446 104.307 45.6307 103.309 46.3467C102.245 47.0849 101.423 48.1215 100.946 49.3265C100.437 50.5767 100.182 52.4884 100.182 55.0617V63.7766H97.5283V43.2029Z" fill="white"/>
<path d="M131.405 63.7763V35.2522H134.047V46.7348C135.05 45.4652 136.318 44.4297 137.761 43.7002C139.728 42.7659 141.938 42.4712 144.08 42.8575C146.223 43.2438 148.191 44.2918 149.709 45.8547C150.713 46.8636 151.503 48.0642 152.034 49.3852C152.565 50.7061 152.825 52.1203 152.8 53.544C152.822 54.9596 152.558 56.3649 152.023 57.6752C151.487 58.9854 150.692 60.1731 149.685 61.1665C148.722 62.1817 147.559 62.9866 146.27 63.5308C144.982 64.0748 143.595 64.3465 142.196 64.3285C140.608 64.3471 139.04 63.9696 137.634 63.23C136.2 62.4451 134.968 61.3378 134.034 59.9952V63.7763H131.405ZM141.978 61.7553C143.415 61.7672 144.829 61.3878 146.068 60.6577C147.307 59.9277 148.325 58.8744 149.013 57.6102C149.738 56.3406 150.119 54.9033 150.119 53.4409C150.119 51.9784 149.738 50.5412 149.013 49.2715C148.312 47.992 147.28 46.9249 146.025 46.1824C144.816 45.4542 143.431 45.0702 142.02 45.0718C140.575 45.0721 139.156 45.4553 137.906 46.1824C136.638 46.8693 135.588 47.8998 134.877 49.1562C134.165 50.4568 133.806 51.9216 133.834 53.4045C133.804 54.5075 133.996 55.6055 134.399 56.6325C134.802 57.6597 135.407 58.595 136.179 59.3823C136.921 60.1665 137.817 60.7873 138.811 61.2053C139.806 61.6232 140.876 61.8291 141.954 61.8099" fill="white"/>
<path d="M164.749 42.6756C166.233 42.6384 167.707 42.9273 169.068 43.5218C170.429 44.1163 171.643 45.002 172.626 46.1169C174.478 48.1764 175.49 50.8584 175.461 53.6305C175.432 56.4027 174.364 59.0626 172.468 61.0828C171.457 62.1052 170.253 62.9165 168.927 63.4694C167.6 64.0222 166.177 64.3057 164.741 64.3035C163.304 64.3013 161.882 64.0132 160.557 63.4563C159.232 62.8992 158.031 62.0842 157.023 61.0585C155.128 59.0421 154.059 56.3849 154.03 53.6154C154.001 50.8459 155.013 48.1668 156.866 46.1107C157.847 44.9925 159.06 44.1033 160.421 43.5057C161.782 42.9081 163.257 42.6165 164.743 42.6514L164.749 42.6756ZM164.743 45.2428C163.681 45.2291 162.629 45.438 161.654 45.856C160.678 46.2742 159.8 46.8922 159.077 47.6704C158.307 48.4439 157.7 49.3649 157.293 50.3784C156.886 51.3919 156.687 52.4772 156.708 53.5694C156.699 55.0256 157.071 56.4589 157.787 57.7267C158.466 58.9713 159.477 60.0029 160.707 60.7065C161.941 61.3953 163.33 61.7569 164.743 61.7569C166.155 61.7569 167.544 61.3953 168.778 60.7065C170.008 60.0029 171.019 58.9713 171.699 57.7267C172.414 56.4589 172.786 55.0256 172.777 53.5694C172.797 52.4768 172.597 51.3914 172.189 50.3779C171.781 49.3645 171.173 48.4436 170.402 47.6704C169.679 46.894 168.802 46.2769 167.828 45.8589C166.853 45.4409 165.803 45.2311 164.743 45.2428Z" fill="white"/>
<path d="M180 35.2584H177.358V63.7825H180V35.2584Z" fill="white"/>
<path d="M20 49.6292V58.9444C20 53.4569 30.5639 50.8609 42.0931 48.9302C46.5295 48.188 50.5571 44.9792 54.7414 44.3018C56.8259 43.9661 58.9381 44.2156 60.8904 44.465C62.9964 44.7329 64.9118 45.0039 66.3937 44.5328C69.3636 43.5905 71.196 42.4572 71.196 40.976V31.6084C71.1806 47.5013 20 44.0246 20 49.6292Z" fill="#A2A2A2"/>
<path d="M20 59.2429V68.5582C20 62.9937 31.7444 60.4316 43.9808 58.4146C48.076 57.7402 51.8853 54.7347 55.6637 54.1034C57.5453 53.7955 59.4146 54.011 61.1456 54.2389C62.9902 54.4853 64.6966 54.7285 66.0647 54.2943C69.2099 53.312 71.1621 52.1387 71.1621 50.599V41.2222C71.1806 57.1181 20 53.6384 20 59.2429Z" fill="#A2A2A2"/>
<path fill-rule="evenodd" clip-rule="evenodd" d="M20 36.9328C22.1275 49.5246 64.4967 15.3276 71.1806 31.6085V40.9761C58.5691 15.4322 27.9506 54.8489 20 46.2481V36.9328Z" fill="white"/>
<path fill-rule="evenodd" clip-rule="evenodd" d="M20 49.6292C22.1275 62.224 64.4967 28.0239 71.1806 44.3049V53.6725C58.5753 28.1132 27.9506 67.5452 20 58.9445V49.6292Z" fill="white"/>
<path fill-rule="evenodd" clip-rule="evenodd" d="M20 62.3251C22.1275 74.9169 64.4967 40.7199 71.1806 56.9885V66.3561C58.5753 40.7968 27.9506 80.2289 20 71.6281V62.3251Z" fill="white"/>
</g>
</svg>
