<svg width="200" height="100" viewBox="0 0 200 100" fill="none" xmlns="http://www.w3.org/2000/svg">
<mask id="mask0_59_836" style="mask-type:alpha" maskUnits="userSpaceOnUse" x="0" y="0" width="200" height="100">
<rect width="200" height="100" fill="#D9D9D9"/>
</mask>
<g mask="url(#mask0_59_836)">
<path d="M37.3097 61.471C36.3235 61.9621 35.2575 62.2732 34.162 62.3897C33.2179 62.4948 32.2691 62.5514 31.3193 62.5591C29.8335 62.6079 28.3772 62.1379 27.2001 61.23C26.0705 60.349 25.6677 58.8843 25.9312 56.8473C26.1822 54.9421 26.9127 53.5804 28.1226 52.762C29.4737 51.8945 30.9999 51.3365 32.5919 51.1279C33.5407 51.0037 34.1206 50.902 34.5348 50.8568C36.5629 50.5858 37.6373 49.9959 37.7578 49.0872C37.7895 48.9419 37.7916 48.7917 37.7639 48.6455C37.7363 48.4993 37.6795 48.3603 37.5969 48.2366C37.5143 48.1129 37.4076 48.0071 37.2833 47.9255C37.1589 47.8439 37.0193 47.7883 36.873 47.7618C36.2636 47.5688 35.6295 47.4648 34.9903 47.4531C34.4004 47.4469 33.8137 47.5399 33.2546 47.728C32.7347 47.9054 32.2989 48.2688 32.0309 48.7483H27.4524C27.808 47.3531 28.6388 46.1255 29.8019 45.2768C31.1599 44.2351 32.9747 43.7142 35.2464 43.7142C37.7841 43.7142 39.6341 44.1447 40.7963 45.0057C41.9936 45.9119 42.4856 47.182 42.2723 48.8161L41.4778 55.0061C41.2444 56.821 40.7248 58.2404 39.9416 59.2608C39.252 60.1973 38.3483 60.9552 37.3059 61.471M37.2984 53.0896C36.4086 53.4783 35.4813 53.7748 34.531 53.9744L32.9232 54.3171C32.0761 54.543 31.4172 54.7538 31.0406 55.2019C30.6777 55.6294 30.445 56.1522 30.3704 56.708C30.3119 56.9962 30.3176 57.2937 30.3873 57.5795C30.4569 57.8652 30.5887 58.132 30.7733 58.3609C31.0058 58.5601 31.2759 58.7107 31.5675 58.8038C31.8592 58.8969 32.1665 58.9307 32.4714 58.9031C33.6176 58.9409 34.736 58.5457 35.6041 57.7961C36.4488 57.0168 36.9735 55.9512 37.0763 54.8066L37.2984 53.0896Z" fill="white"/>
<path d="M94.6944 61.471C93.7084 61.9626 92.6423 62.2738 91.5467 62.3897C90.6026 62.4949 89.6538 62.5514 88.7039 62.5592C87.2182 62.6079 85.7618 62.1379 84.5848 61.23C83.4778 60.349 83.0523 58.8843 83.3159 56.8473C83.5644 54.9421 84.2911 53.5791 85.5073 52.7621C86.8481 51.8768 88.3773 51.3172 89.9728 51.128C90.6995 51.0376 91.5015 50.902 91.9157 50.8569C93.9438 50.5858 95.0169 49.9959 95.1349 49.0872C95.1666 48.9419 95.1687 48.7917 95.1411 48.6455C95.1134 48.4994 95.0566 48.3603 94.974 48.2366C94.8915 48.1129 94.7848 48.0071 94.6604 47.9255C94.536 47.8439 94.3965 47.7883 94.2501 47.7618C93.6408 47.5683 93.0067 47.4643 92.3675 47.4531C91.7776 47.447 91.1908 47.5399 90.6317 47.728C90.1124 47.9046 89.6774 48.2684 89.4118 48.7483H84.837C85.1932 47.3534 86.0239 46.126 87.1865 45.2768C88.547 44.2326 90.3606 43.7117 92.6273 43.7142C95.1701 43.7142 97.02 44.1447 98.1772 45.0057C99.3745 45.9119 99.8678 47.182 99.6569 48.8161L98.8587 55.0061C98.6253 56.821 98.1132 58.2392 97.3225 59.2608C96.6338 60.1982 95.7299 60.9562 94.6869 61.471M94.6869 53.1009C93.797 53.4896 92.8697 53.7861 91.9194 53.9858L90.3117 54.3284C89.4645 54.5543 88.7868 54.7652 88.4291 55.2132C88.07 55.6432 87.8379 56.1647 87.7589 56.7193C87.7015 57.0055 87.7075 57.3007 87.7765 57.5843C87.8454 57.8679 87.9757 58.133 88.158 58.3609C88.3909 58.5594 88.661 58.7095 88.9526 58.8026C89.2441 58.8957 89.5512 58.9298 89.8561 58.9031C91.0012 58.9478 92.1211 58.5593 92.9925 57.815C93.8371 57.0352 94.3629 55.9701 94.4685 54.8254L94.6869 53.1009Z" fill="white"/>
<path d="M113.314 56.644H116.703C116.061 58.4205 114.868 59.9455 113.299 60.9966C111.664 62.0687 109.741 62.6153 107.787 62.5629C105.204 62.5629 103.293 61.7245 102.056 60.0477C100.801 58.4136 100.378 56.0767 100.787 53.0369C101.161 50.1327 102.156 47.8648 103.773 46.2332C105.437 44.5539 107.565 43.7142 110.155 43.7142C112.878 43.7142 114.887 44.53 116.179 46.1616C116.884 47.2004 117.336 48.389 117.501 49.6332H112.723C112.599 49.2642 112.413 48.9191 112.173 48.6128C111.671 47.9777 110.873 47.6602 109.778 47.6602C108.832 47.6405 107.912 47.981 107.207 48.6128C106.268 49.5215 105.667 51.0175 105.403 53.1009C105.14 55.1843 105.358 56.659 106.058 57.525C106.548 58.2517 107.391 58.6132 108.57 58.6132C109.277 58.6301 109.977 58.4668 110.603 58.1388C110.754 58.0891 110.892 58.0083 111.01 57.9016L111.431 57.525C111.613 57.3223 111.816 57.1404 112.038 56.9829C112.413 56.7355 112.858 56.6166 113.306 56.644" fill="white"/>
<path d="M119.982 60.5859C119.095 59.6946 118.527 58.535 118.367 57.2875C117.933 54.5886 118.254 51.8223 119.293 49.294C119.741 48.1462 120.42 47.1029 121.289 46.2291C122.591 44.8934 124.31 44.042 126.161 43.8156C127.831 43.546 129.542 43.6974 131.139 44.2561C131.922 44.5662 132.628 45.0435 133.207 45.6549C133.787 46.2662 134.226 46.9968 134.493 47.7954C135.089 49.4736 135.253 51.2745 134.972 53.0328C134.829 54.3193 134.506 55.5793 134.012 56.7755C133.615 57.722 133.089 58.609 132.449 59.4111C131.301 60.8243 129.708 61.8076 127.931 62.2011C126.45 62.6064 124.891 62.6413 123.394 62.3028C122.111 62.0665 120.925 61.4636 119.979 60.567M124.79 48.5936C123.704 49.6379 123.076 51.1916 122.908 53.255C122.74 55.3183 122.937 56.7692 123.499 57.6076C123.825 58.0473 124.285 58.3696 124.809 58.5263C125.471 58.7753 126.196 58.7992 126.873 58.5941C127.708 58.315 128.433 57.7785 128.944 57.0616C129.591 56.2483 130.056 54.933 130.337 53.1157C130.548 51.4866 130.445 50.2616 130.028 49.4408C129.719 48.7309 129.145 48.1701 128.428 47.8783C127.768 47.6502 127.053 47.6383 126.387 47.8444C125.805 47.9853 125.261 48.2527 124.794 48.6275" fill="white"/>
<path d="M151.15 67.9432C151.053 68.5729 150.738 69.1488 150.261 69.571C149.784 69.9933 149.174 70.2352 148.537 70.255H146.225L148.409 51.9598C148.823 48.7845 150.033 46.6195 152.039 45.4648C153.94 44.3365 156.108 43.7372 158.319 43.7291C159.466 43.7316 160.603 43.9501 161.67 44.3729C162.677 44.7365 163.553 45.3919 164.185 46.2555C165.317 48.0126 165.705 50.2805 165.349 53.0593C164.98 55.9158 164.001 58.2289 162.412 59.9986C160.825 61.723 158.968 62.5853 156.839 62.5853C155.833 62.6138 154.835 62.4049 153.925 61.9753C153.066 61.512 152.392 60.7676 152.016 59.8668L151.15 67.9432ZM160.627 53.24C160.858 51.4829 160.694 50.1211 160.134 49.1547C159.577 48.2059 158.662 47.7277 157.393 47.7277C156.81 47.7175 156.233 47.8408 155.706 48.0881C155.179 48.3355 154.715 48.7004 154.35 49.1547C153.597 50.017 153.112 51.38 152.871 53.24C152.65 54.9595 152.824 56.2522 153.394 57.1182C153.948 58.0708 154.863 58.5452 156.131 58.5452C156.703 58.5504 157.268 58.4245 157.783 58.1771C158.298 57.9297 158.749 57.5674 159.102 57.1182C159.908 56.1618 160.41 54.8691 160.608 53.24" fill="white"/>
<path d="M12.406 62.2201H10L12.7034 41.2667C12.7898 40.592 13.1256 39.9741 13.6447 39.5347C14.1412 39.0741 14.7936 38.8185 15.4709 38.8193H30.031L29.5114 42.8292H17.2669L16.6155 47.8633H25.7311L25.5315 49.4259C25.4476 50.1026 25.1131 50.7232 24.594 51.1654C24.0963 51.6236 23.4443 51.8777 22.7678 51.877H16.0959L15.0793 59.784V59.8819C14.9953 60.5186 14.6772 61.1012 14.1869 61.516C13.7192 61.9506 13.1047 62.1927 12.4662 62.1937L12.406 62.2201Z" fill="white"/>
<path d="M44.9183 62.22H42.4634L43.5929 53.4433C43.7575 51.8837 44.2202 50.3703 44.956 48.9853C45.5737 47.8507 46.4321 46.8651 47.4711 46.0974C48.444 45.4019 49.5365 44.8914 50.6941 44.5913C51.88 44.2785 53.1011 44.1191 54.3276 44.1169H55.0053L54.3841 48.9477H52.8177C51.5037 48.9477 50.4871 49.2677 49.7717 49.9003C49.0563 50.5328 48.6082 51.5306 48.4312 52.9124L47.5276 59.8668C47.4447 60.5038 47.1264 61.0868 46.6352 61.5009C46.1689 61.9382 45.5538 62.1818 44.9145 62.1824L44.9183 62.22Z" fill="white"/>
<path d="M137.957 62.22H135.498L136.628 53.4433C136.791 51.884 137.252 50.3705 137.987 48.9853C138.603 47.8499 139.462 46.864 140.502 46.0974C141.475 45.4019 142.567 44.8914 143.725 44.5913C144.911 44.2781 146.132 44.1186 147.358 44.1169H148.036L147.43 48.9477H145.864C144.546 48.9477 143.533 49.2677 142.818 49.9003C142.102 50.5328 141.654 51.5306 141.477 52.9124L140.566 59.8668C140.483 60.5038 140.165 61.0868 139.674 61.5009C139.207 61.9382 138.592 62.1818 137.953 62.1824L137.957 62.22Z" fill="white"/>
<path d="M76.4259 62.2123L77.9094 50.6531C78.0475 49.5637 77.8203 48.7705 77.2279 48.2735C76.6396 47.7726 75.8881 47.5047 75.1156 47.5205C74.2865 47.5242 73.4794 47.7875 72.8076 48.2735C72.4315 48.552 72.1208 48.9092 71.8971 49.3202C71.6734 49.7312 71.5421 50.1861 71.5123 50.6531L71.373 51.6057L70.3075 59.8892C70.2228 60.5257 69.9048 61.108 69.4151 61.5233C68.9482 61.9596 68.3334 62.2031 67.6944 62.2048H65.3223L66.6928 51.5907L66.8133 50.6381C66.9564 49.5499 66.7267 48.7554 66.1356 48.2584C65.5454 47.7582 64.793 47.4905 64.0195 47.5054C63.2053 47.5083 62.4135 47.7723 61.7604 48.2584C61.3928 48.5427 61.0899 48.9018 60.8718 49.3121C60.6537 49.7224 60.5253 50.1744 60.4953 50.6381L59.3055 59.8704C59.2224 60.5063 58.904 61.088 58.4131 61.5007C57.95 61.9485 57.3329 62.2018 56.6887 62.2086H54.23L55.6043 51.5944C56.0009 48.5095 57.0715 46.4449 58.816 45.4006C60.4967 44.3774 62.4079 43.7934 64.3735 43.7025C65.3872 43.7002 66.3978 43.8139 67.3856 44.0414C68.3382 44.2616 69.2152 44.7306 69.9272 45.4006C70.6911 44.8082 71.5691 44.3801 72.5063 44.1431C73.4714 43.8957 74.4593 43.7481 75.4545 43.7025C77.3509 43.6686 79.212 44.218 80.7861 45.2764C82.3298 46.3231 82.8971 48.4329 82.4879 51.6057L81.588 58.5789L81.4148 59.8967C81.3317 60.5326 81.0134 61.1143 80.5225 61.5271C80.0571 61.9635 79.4435 62.207 78.8055 62.2086L76.4259 62.2123Z" fill="white"/>
<path d="M182.119 41.0144C181.976 41.1462 181.953 41.1763 182.119 41.342C185.707 44.2186 189.999 43.8346 189.999 41.1688C189.999 38.503 185.703 38.1227 182.119 41.0144Z" fill="white"/>
<path d="M175.026 41.3381C175.172 41.1988 175.191 41.1762 175.026 41.0105C171.452 38.1151 167.156 38.4803 167.145 41.1498C167.134 43.8194 171.43 44.2072 175.026 41.3381Z" fill="white"/>
<path d="M178.738 44.712C178.606 44.5689 178.576 44.5501 178.41 44.712C175.526 48.2965 175.903 52.5888 178.568 52.5926C181.234 52.5964 181.618 48.304 178.738 44.712Z" fill="white"/>
<path d="M178.417 37.6257C178.557 37.7726 178.583 37.7876 178.749 37.6257C181.622 34.0375 181.238 29.7451 178.572 29.7451C175.906 29.7451 175.533 34.0412 178.417 37.6257Z" fill="white"/>
<path d="M186.735 33.0132C185.526 31.8121 181.332 35.6489 180.993 38.6309C180.986 38.6695 180.986 38.709 180.993 38.7476C181.03 38.7526 181.068 38.7526 181.106 38.7476C184.092 38.405 187.936 34.2218 186.735 33.0132Z" fill="white"/>
<path d="M170.417 33.0057C169.216 34.2144 173.053 38.4088 176.039 38.7477C176.076 38.7526 176.114 38.7526 176.152 38.7477C176.159 38.7091 176.159 38.6695 176.152 38.631C175.82 35.6489 171.626 31.8046 170.417 33.0057Z" fill="white"/>
<path d="M170.398 49.324C171.607 50.5213 175.801 46.6883 176.14 43.7025C176.149 43.6654 176.149 43.6267 176.14 43.5896C176.103 43.5807 176.064 43.5807 176.027 43.5896C173.052 43.9209 169.212 48.1153 170.398 49.324Z" fill="white"/>
<path d="M186.728 49.3244C187.929 48.1157 184.093 43.9213 181.107 43.5824C181.07 43.5736 181.031 43.5736 180.994 43.5824C180.989 43.6199 180.989 43.6579 180.994 43.6954C181.318 46.6887 185.52 50.5292 186.728 49.3244Z" fill="white"/>
</g>
</svg>
