<svg width="200" height="100" viewBox="0 0 200 100" fill="none" xmlns="http://www.w3.org/2000/svg">
<mask id="mask0_59_871" style="mask-type:alpha" maskUnits="userSpaceOnUse" x="0" y="0" width="200" height="100">
<rect width="200" height="100" fill="#D9D9D9"/>
</mask>
<g mask="url(#mask0_59_871)">
<path d="M107.481 34.3934V41.181C107.481 41.3242 107.623 41.4189 108.157 41.4189C108.692 41.4189 108.817 41.3242 108.817 41.181V34.3924H110.309C110.56 34.3924 110.984 33.8057 110.984 33.5043C110.984 33.4095 110.905 33.3299 110.795 33.3299H108.816V32.8863C108.816 31.7128 109.429 31.0626 110.167 31.0626C110.615 31.0626 110.872 31.2425 111.053 31.3692C111.151 31.4379 111.227 31.491 111.299 31.491C111.471 31.491 111.958 30.8569 111.958 30.6663C111.958 30.4597 111.252 30 110.356 30C108.644 30 107.481 31.1896 107.481 33.0768V33.3308H106.806C106.681 33.3308 106.571 33.4739 106.571 33.8701C106.571 34.2663 106.681 34.3934 106.806 34.3934H107.481Z" fill="white"/>
<path fill-rule="evenodd" clip-rule="evenodd" d="M114.346 41.546C115.681 41.546 116.654 40.8635 116.953 40.6417V40.6407C117.032 40.8948 117.44 41.4976 118.241 41.4976C118.665 41.4976 119.183 40.8152 119.183 40.5934C119.183 40.5137 119.135 40.4825 119.042 40.4825C118.995 40.4825 118.743 40.4825 118.696 40.4663C118.367 40.4341 118.178 40.2284 118.178 39.7365V36.1839C118.178 34.2019 117.298 33.2028 115.194 33.2028C114.015 33.2028 112.947 33.71 112.806 33.9801C112.68 34.2654 112.587 34.6303 112.587 34.8209C112.587 34.9479 112.633 34.9953 112.743 34.9953C112.834 34.9953 112.974 34.9231 113.164 34.8251C113.563 34.6186 114.185 34.2976 115.037 34.2976C116.184 34.2976 116.812 34.8209 116.812 35.6616C116.812 35.8995 116.545 36.0104 116.058 36.1374C115.874 36.1876 115.686 36.2365 115.497 36.2858L115.497 36.2859L115.496 36.2859L115.496 36.286C113.708 36.7508 111.77 37.2548 111.77 39.2616C111.77 40.8322 112.901 41.546 114.346 41.546ZM116.844 39.5005C116.844 39.7858 115.916 40.4673 114.833 40.4834C113.906 40.4834 113.153 40.1346 113.153 39.1517C113.153 37.8972 114.539 37.5259 115.688 37.2184C115.89 37.1644 116.085 37.1123 116.263 37.0578C116.467 36.9943 116.639 36.9469 116.718 36.9469C116.812 36.9469 116.844 37.0104 116.844 37.09V39.5005Z" fill="white"/>
<path d="M120.818 35.1697V41.181L120.817 41.1801C120.817 41.3232 120.928 41.418 121.477 41.418C122.026 41.418 122.152 41.3232 122.152 41.1801V36.327C122.152 35.4389 122.906 34.3924 123.801 34.3924C124.237 34.3924 124.502 34.5591 124.681 34.672C124.773 34.7298 124.842 34.7735 124.901 34.7735C124.979 34.7735 125.042 34.7251 125.136 34.6303C125.341 34.4085 125.623 33.9479 125.623 33.7896C125.623 33.5517 125.027 33.2028 124.242 33.2028C122.969 33.2028 122.137 34.4559 122.137 34.4559C122.012 33.6626 121.681 33.2502 121.336 33.2502C121.053 33.2502 120.331 33.7261 120.331 33.9327C120.331 33.993 120.379 34.0501 120.446 34.1281C120.59 34.2966 120.818 34.5627 120.818 35.1697Z" fill="white"/>
<path d="M135.63 34.3299C136.557 34.3299 137.091 34.8692 137.091 35.8682V40.0379C137.091 40.9099 137.561 41.4967 138.347 41.4967C138.771 41.4967 139.305 40.8142 139.305 40.5924C139.305 40.5128 139.258 40.4654 139.149 40.4654C138.63 40.4654 138.426 40.2758 138.426 39.7204V35.3118C138.426 34.0597 137.531 33.2028 136.101 33.2028C134.97 33.2028 133.839 33.9479 133.321 34.5507C132.959 33.7735 132.315 33.2028 131.279 33.2028C129.881 33.2028 129.048 34.0749 128.656 34.5033C128.546 33.6787 128.2 33.2502 127.855 33.2502C127.572 33.2502 126.85 33.7261 126.85 33.9327C126.85 33.993 126.898 34.0501 126.965 34.1281C127.109 34.2966 127.337 34.5627 127.337 35.1697V41.1801C127.337 41.3232 127.448 41.418 127.997 41.418C128.546 41.418 128.672 41.3232 128.672 41.1801V35.9469C128.672 35.4076 129.693 34.3289 130.73 34.3289C131.546 34.3289 132.221 34.8682 132.221 35.8834V41.181C132.221 41.3242 132.363 41.4189 132.897 41.4189C133.431 41.4189 133.557 41.3242 133.557 41.181V35.8682C133.557 35.2654 134.625 34.3299 135.63 34.3299Z" fill="white"/>
<path fill-rule="evenodd" clip-rule="evenodd" d="M142.951 41.546C144.286 41.546 145.259 40.8635 145.558 40.6417L145.559 40.6407C145.637 40.8948 146.046 41.4976 146.847 41.4976C147.271 41.4976 147.789 40.8152 147.789 40.5934C147.789 40.5137 147.741 40.4825 147.647 40.4825C147.6 40.4825 147.349 40.4825 147.302 40.4663C146.972 40.4341 146.784 40.2284 146.784 39.7365V36.1839C146.784 34.2019 145.904 33.2028 143.799 33.2028C142.621 33.2028 141.553 33.71 141.412 33.9801C141.286 34.2654 141.192 34.6303 141.192 34.8209C141.192 34.9479 141.239 34.9953 141.349 34.9953C141.44 34.9953 141.58 34.9231 141.769 34.8251C142.169 34.6186 142.791 34.2976 143.643 34.2976C144.789 34.2976 145.417 34.8209 145.417 35.6616C145.417 35.8995 145.149 36.0104 144.663 36.1374C144.479 36.1876 144.291 36.2364 144.102 36.2857L144.102 36.2857C142.313 36.7506 140.375 37.2545 140.375 39.2616C140.375 40.8322 141.506 41.546 142.951 41.546ZM145.448 39.5005C145.448 39.7858 144.52 40.4673 143.437 40.4834C142.51 40.4834 141.756 40.1346 141.756 39.1517C141.756 37.8969 143.143 37.5258 144.293 37.2182C144.494 37.1643 144.688 37.1123 144.867 37.0578C145.07 36.9943 145.243 36.9469 145.322 36.9469C145.416 36.9469 145.448 37.0104 145.448 37.09V39.5005Z" fill="white"/>
<path d="M152.767 33.2038C150.679 33.2038 148.731 34.5677 148.731 37.5175V37.5185C148.731 40.4047 150.648 41.5469 152.737 41.5469C153.978 41.5469 154.919 40.944 155.124 40.69C155.281 40.3886 155.375 40.0872 155.375 39.8331C155.375 39.7222 155.298 39.6587 155.219 39.6587C155.137 39.6587 155.021 39.7292 154.859 39.8273C154.489 40.0515 153.882 40.4199 152.909 40.4199C151.417 40.4199 150.207 39.564 150.207 37.4388C150.207 35.1554 151.574 34.3147 152.69 34.3147C153.58 34.3147 154.031 34.6583 154.277 34.846C154.369 34.9164 154.433 34.9649 154.48 34.9649C154.715 34.9649 155.155 34.3782 155.155 34.108C155.155 33.854 154.385 33.2038 152.767 33.2038Z" fill="white"/>
<path d="M157.889 32.1251C158.407 32.1251 158.721 31.8711 158.721 31.2208C158.721 30.5706 158.391 30.3166 157.889 30.3166C157.386 30.3166 157.072 30.5706 157.072 31.2208C157.072 31.8711 157.37 32.1251 157.889 32.1251Z" fill="white"/>
<path d="M157.23 33.5678C157.23 33.4256 157.339 33.3298 157.889 33.3298C158.438 33.3298 158.565 33.4256 158.565 33.5516V39.7213C158.565 40.2768 158.769 40.4663 159.287 40.4663C159.397 40.4663 159.444 40.5137 159.444 40.5933C159.444 40.8151 158.91 41.4976 158.486 41.4976C157.701 41.4976 157.23 40.9109 157.23 40.0388V33.5678Z" fill="white"/>
<path fill-rule="evenodd" clip-rule="evenodd" d="M165.805 40.6417C165.507 40.8635 164.533 41.546 163.198 41.546C161.754 41.546 160.622 40.8322 160.622 39.2616C160.622 37.2548 162.561 36.7508 164.349 36.286L164.349 36.2859L164.349 36.2858C164.539 36.2365 164.727 36.1876 164.911 36.1374C165.398 36.0104 165.665 35.8995 165.665 35.6616C165.665 34.8209 165.036 34.2976 163.889 34.2976C163.037 34.2976 162.416 34.6186 162.016 34.8251C161.827 34.9231 161.687 34.9953 161.596 34.9953C161.486 34.9953 161.439 34.9479 161.439 34.8209C161.439 34.6303 161.533 34.2654 161.659 33.9801C161.8 33.71 162.868 33.2028 164.046 33.2028C166.151 33.2028 167.03 34.2019 167.03 36.1839V39.7365C167.03 40.2284 167.219 40.4341 167.549 40.4663C167.596 40.4825 167.847 40.4825 167.894 40.4825C167.988 40.4825 168.036 40.5137 168.036 40.5934C168.036 40.8152 167.518 41.4976 167.093 41.4976C166.293 41.4976 165.884 40.8948 165.805 40.6407V40.6417ZM163.685 40.4834C164.768 40.4673 165.696 39.7858 165.696 39.5005V37.09C165.696 37.0104 165.664 36.9469 165.57 36.9469C165.491 36.9469 165.318 36.9943 165.114 37.0578C164.936 37.1123 164.742 37.1642 164.54 37.2182L164.54 37.2182C163.391 37.5258 162.004 37.8969 162.004 39.1517C162.004 40.1346 162.758 40.4834 163.685 40.4834Z" fill="white"/>
<path d="M169.057 40.1653C169.058 39.9432 169.545 39.436 169.717 39.436C169.778 39.436 169.881 39.5177 170.031 39.6358C170.419 39.9435 171.121 40.4986 172.199 40.4986C173.142 40.4986 173.754 40.0389 173.754 39.2455C173.754 38.3573 172.89 38.0881 171.932 37.8028C171.889 37.7901 171.846 37.7773 171.803 37.7646C170.61 37.411 169.293 37.0209 169.293 35.582C169.293 34.091 170.565 33.2028 172.324 33.2028C174.084 33.2028 174.79 33.9962 174.79 34.2341C174.79 34.472 174.351 34.9791 174.146 34.9791C174.1 34.9791 174.034 34.9233 173.936 34.8415C173.67 34.6183 173.173 34.2019 172.23 34.2019C171.304 34.2019 170.628 34.6455 170.628 35.4076C170.628 36.242 171.463 36.4668 172.398 36.7184L172.424 36.7254C173.664 37.0578 175.089 37.4399 175.089 39.0711C175.089 40.546 173.833 41.545 172.183 41.545C170.315 41.545 169.059 40.4362 169.057 40.1653Z" fill="white"/>
<path d="M70.3008 53.7118V64.4436H70.3018C70.3018 67.8986 72.2882 70 75.7045 70C77.9735 70 80.5599 66.8237 80.5599 65.7497C80.5599 65.3782 80.327 65.1441 79.867 65.1441H78.9442C77.8308 65.1441 77.1399 64.5839 77.1399 63.1365V51.5649C77.1399 47.7393 74.0409 45.2626 70.1102 45.2626C67.2469 45.2626 64.2456 46.292 62.5295 47.8758V37.0465C62.5295 36.4408 61.9278 35.927 59.1114 35.927C56.2951 35.927 55.6933 36.4408 55.6933 37.0465V68.4114C55.6933 68.9744 56.3354 69.5365 59.1114 69.5365C61.8874 69.5365 62.5295 68.9734 62.5295 68.4114V53.7573C62.5295 52.6844 64.9835 50.5365 67.1521 50.5365C69.0475 50.5365 70.3008 51.6085 70.3008 53.7118Z" fill="white"/>
<path d="M40.531 37.7962C32.0669 37.7962 24.167 43.4872 24.167 54.3195C24.167 65.2834 32.2546 70 40.6211 70C45.7957 70 50.0503 67.3877 50.515 66.1744C51.2087 64.5374 51.4819 62.764 51.4819 61.8796C51.4819 61.3659 51.2491 61.1337 50.7872 61.1337C50.5183 61.1337 50.0922 61.3752 49.4883 61.7174C48.0202 62.5496 45.5014 63.9773 41.6359 63.9773C36.1806 63.9773 31.5581 61.5943 31.5581 54.2683C31.5581 46.9422 36.0342 43.9109 40.7093 43.9109C43.8972 43.9109 45.4255 44.6275 46.3979 45.0835C46.8516 45.2962 47.1843 45.4522 47.508 45.4522C48.2891 45.4522 50.0493 42.7375 50.0493 41.8057C50.0493 40.874 47.2273 37.7962 40.531 37.7962Z" fill="white"/>
<path fill-rule="evenodd" clip-rule="evenodd" d="M89.8548 70C92.9499 70 95.2152 68.8313 96.9229 67.6209C96.9229 67.6209 98.6371 70 101.362 70C103.582 70 106.125 66.8711 106.125 65.7498C106.125 65.3782 105.937 65.1441 105.475 65.1441H104.554C103.441 65.1441 102.75 64.5839 102.75 63.1365V54.6427C102.75 48.8672 100.464 45.7601 94.5436 45.3177C97.1164 44.7329 98.9434 43.704 99.3159 43.492L99.3361 43.4807C99.8016 43.2214 100.01 43.1054 100.153 42.7204C100.518 41.7612 99.1281 38.7754 98.3114 38.4531C97.9631 38.3223 97.6364 38.3924 97.2825 38.5583C97.2063 38.5967 97.0913 38.6579 96.9433 38.7367C95.8256 39.332 92.8207 40.9324 90.342 41.2948C89.3019 41.4437 88.4554 41.6016 87.7945 41.7248L87.7938 41.725C87.5208 41.7759 87.2796 41.8209 87.0694 41.8569C86.584 41.9176 86.2921 41.9621 86.0461 42.2436V42.2446C85.7044 42.6256 85.7194 44.7119 86.1025 45.0493C86.34 45.2654 86.677 45.3811 87.1699 45.4531C87.6073 45.5311 88.4556 45.6271 89.4026 45.6828C87.1287 46.2243 85.4959 47.1786 85.1824 47.8759C84.5384 49.419 84.2117 51.0048 84.2117 51.7488C84.2117 52.2161 84.4014 52.4503 84.8135 52.4503C85.0438 52.4503 85.481 52.2415 86.083 51.9542C87.4125 51.3196 89.5454 50.3014 92.0262 50.3014C94.6135 50.3014 95.817 51.237 95.817 52.5886C95.817 53.2901 94.7083 53.7119 92.4881 54.2237C85.7833 55.8095 82.1333 57.7232 82.1333 63.1375C82.1333 67.527 85.4115 70 89.8548 70ZM95.9109 63.1375C95.9109 64.0256 94.4764 65.2834 92.4411 65.2834C90.3157 65.2834 88.7911 64.2597 88.7911 62.2521C88.7911 60.1062 90.9165 59.0303 92.857 58.3289C93.8737 57.8616 94.7965 57.6294 95.3983 57.6294C95.7719 57.6294 95.9109 57.8616 95.9109 58.145V63.1375Z" fill="white"/>
<path d="M108.02 46.8484V61.8294C108.02 66.8237 113.148 69.999 117.821 69.999C124.984 69.999 129.84 63.419 129.882 55.4351C129.882 52.728 129.47 50.2559 128.545 47.9706C127.988 46.6626 126.46 45.7289 123.735 45.7289C122.071 45.7289 121.057 46.1953 121.057 46.8967C121.057 47.1659 121.211 47.5632 121.429 48.1289C121.969 49.5255 122.905 51.9477 122.905 55.9981C122.905 61.6891 121.151 64.7261 118.698 64.7261C116.758 64.7261 114.862 63.4199 114.862 60.8047V46.8484C114.862 46.2408 114.22 45.7289 111.442 45.7289C108.664 45.7289 108.02 46.2408 108.02 46.8484Z" fill="white"/>
<path fill-rule="evenodd" clip-rule="evenodd" d="M143.98 45.2626C138.063 45.2626 132.102 49.0463 132.102 58.2346C132.102 66.1736 137.514 69.9991 144.814 69.9991C148.835 69.9991 151.751 68.1318 152.118 67.1517C152.669 65.7498 152.994 64.0701 152.994 63.3242C152.994 62.8578 152.669 62.6702 152.35 62.6702C152.118 62.6702 151.763 62.8762 151.277 63.1592C150.21 63.7796 148.508 64.7697 146.064 64.7697C143.429 64.7697 140.841 63.8863 139.824 61.037C145.323 60.9005 153.364 58.3792 153.364 52.1213C153.364 48.2484 150.269 45.2626 143.98 45.2626ZM146.478 51.7043C146.478 55.1081 143.105 57.1157 139.408 57.4891C139.592 51.6086 141.903 49.4626 144.212 49.4626C145.462 49.4626 146.478 50.3953 146.478 51.7043Z" fill="white"/>
<path d="M156.786 63.1374C155.355 65.0995 155.262 65.8455 155.262 68.7384C155.262 69.3014 155.634 69.5355 155.957 69.5355H172.781C174.954 69.5355 175.833 67.3384 175.833 63.3696C175.833 62.9042 175.603 62.6701 175.232 62.6701C174.997 62.6701 174.705 62.7578 174.269 62.8885C172.993 63.2719 170.484 64.0256 164.556 64.0256C164.136 64.0256 163.904 63.9317 163.904 63.6995C163.904 63.5118 163.999 63.3697 164.369 62.9516C164.992 62.2109 166.51 60.4568 168.145 58.569C170.63 55.6981 173.382 52.518 173.661 52.1223C174.954 50.4919 175.186 49.3706 175.186 46.5251C175.186 45.9175 174.862 45.7299 174.4 45.7299H159.053C156.973 45.7299 156.418 47.6891 156.418 51.6085C156.418 52.1223 156.651 52.3099 157.018 52.3099C157.216 52.3099 157.448 52.2279 157.796 52.1049C158.836 51.7377 160.908 51.0057 166.172 51.0057C166.496 51.0057 166.771 51.0995 166.771 51.3336C166.771 51.472 166.634 51.6559 166.452 51.8881C165.905 52.5326 164.716 53.8961 163.352 55.4602C160.56 58.6601 157.036 62.6994 156.786 63.1374Z" fill="white"/>
</g>
</svg>
