<svg width="200" height="100" viewBox="0 0 200 100" fill="none" xmlns="http://www.w3.org/2000/svg">
<mask id="mask0_59_774" style="mask-type:alpha" maskUnits="userSpaceOnUse" x="0" y="0" width="200" height="100">
<rect width="200" height="100" fill="#D9D9D9"/>
</mask>
<g mask="url(#mask0_59_774)">
<path d="M144.179 92.8354C143.794 92.7019 143.411 92.5467 143.019 92.435C137.459 90.824 134.348 85.9786 135.157 80.174C135.879 74.981 140.536 71.1133 146.124 71.0668C151.767 71.0233 156.437 74.773 157.227 79.9847C158.102 85.7334 155.012 90.6936 149.521 92.3698C149.082 92.5033 148.656 92.6802 148.224 92.8354H144.179ZM146.223 88.5239C149.826 88.5239 152.502 85.7861 152.533 82.0644C152.567 78.2154 149.814 75.3566 146.099 75.3814C142.521 75.4031 139.852 78.1968 139.855 81.8999C139.858 85.603 142.605 88.5239 146.223 88.5239Z" fill="white"/>
<path d="M170 61.7957C169.418 61.4853 168.665 61.3083 168.282 60.8365C165.243 57.1117 162.278 53.3247 159.285 49.5595C158.927 49.0526 158.436 48.6532 157.866 48.4048V61.7336L157.425 61.9167C157.179 61.6529 156.728 61.3921 156.725 61.1252C156.681 56.1308 156.694 51.1333 156.694 46.1358L157.098 45.8254C157.605 46.1979 158.224 46.4834 158.607 46.9552C161.531 50.5746 164.409 54.2342 167.302 57.8784C167.679 58.3533 168.071 58.8096 168.73 59.6166V46.1948L170 45.9651V61.7957Z" fill="white"/>
<path d="M30 45.9635H41.0164V47.0747C40.1049 47.0747 40.4938 47.0654 40.1049 47.0747C37.7747 47.1337 35.4382 47.0996 33.108 47.112C32.5511 47.112 31.9942 47.1617 31.3316 47.1927V53.6801H40.1391V54.6424C39.5545 54.6424 39.5865 54.631 38.7733 54.6424C36.3467 54.6765 33.92 54.6424 31.3067 54.6424V61.6917L30 61.7941V45.9635Z" fill="white"/>
<path d="M111.824 7.16406C112.032 7.30064 112.231 7.47447 112.446 7.5738C114.425 8.59192 115.283 10.2029 114.838 12.0778C114.616 13.013 114.077 13.8431 113.313 14.4278C112.548 15.0125 111.604 15.3161 110.642 15.2873C109.651 15.3018 108.686 14.9763 107.908 14.3655C107.13 13.7546 106.586 12.8954 106.367 11.9319C105.913 9.9577 106.694 8.38705 108.647 7.4248C108.779 7.34724 108.905 7.26009 109.024 7.16406L111.824 7.16406ZM113.009 11.5097C113.009 9.83354 111.83 8.36533 110.461 8.3436C109.024 8.31256 107.446 10.0788 107.468 11.7022C107.465 12.0628 107.535 12.4203 107.674 12.7533C107.813 13.0863 108.018 13.3878 108.276 13.6398C108.535 13.8917 108.842 14.0889 109.179 14.2195C109.516 14.35 109.876 14.4113 110.237 14.3996C110.989 14.3825 111.703 14.0686 112.222 13.5268C112.742 12.9849 113.025 12.2595 113.009 11.5097Z" fill="white"/>
<path d="M130.734 92.3873H126.904L117.154 79.6608L116.806 79.7756V92.3501H112.276V71.5747H116.563L125.934 83.8543L126.245 83.786V71.5654H130.722L130.734 92.3873Z" fill="white"/>
<path d="M59.7651 92.3754L68.7158 71.3549H73.0713L82.0095 92.3382H77.1904C76.5962 90.9507 75.946 89.4452 75.2833 87.8684H66.3825L64.4536 92.3754H59.7651ZM71.0087 77.3146L70.6167 77.3643C69.8109 79.3726 69.0051 81.3809 68.1278 83.5506H73.5567C72.6544 81.3499 71.83 79.3198 71.0087 77.3146Z" fill="white"/>
<path d="M48.0944 86.025V92.379H43.7046V71.2715C47.5126 71.4391 51.2552 71.2994 54.9046 71.855C58.5539 72.4107 60.489 75.6389 60.1779 79.4879C59.901 83.0265 57.2752 85.6463 53.4392 86.0064C51.7779 86.1585 50.0668 86.025 48.0944 86.025ZM48.2904 75.6978V81.937C49.877 81.937 51.3299 82.0549 52.7548 81.909C54.4783 81.729 55.5361 80.3756 55.5019 78.7119C55.4677 77.0481 54.3881 75.8468 52.5775 75.7165C51.1961 75.6202 49.8024 75.6978 48.2904 75.6978Z" fill="white"/>
<path d="M119.451 37.7513C118.882 35.3395 118.48 32.8811 117.706 30.5437C116.607 27.2255 115.478 23.8763 113.913 20.7629C112.454 17.8668 110.842 17.901 108.624 20.2787C105.936 23.1623 104.984 26.6916 104.683 30.491C104.493 32.8966 104.244 35.2991 104.02 37.7048L103.441 37.9779C103.077 37.6054 102.533 37.295 102.383 36.848C101.833 35.237 101.54 33.5298 100.915 31.9499C100.176 29.9728 99.2645 28.0647 98.1896 26.2478C97.0416 24.3853 95.9527 24.3853 94.1825 25.7108C92.1385 27.2628 91.199 29.3487 90.9376 31.8257C90.7292 33.8061 90.4896 35.7834 90.2625 37.7637L89.687 38.0183C89.2888 37.6396 88.7536 37.3323 88.5141 36.8729C87.8919 35.7461 87.503 34.4859 86.831 33.3964C85.6114 31.4222 83.7199 31.4687 82.5968 33.4708C81.8252 34.8646 81.1874 36.3328 80.5123 37.7203H55.6235L55.5239 37.2485C56.1461 37.1243 56.7684 36.8915 57.3906 36.8946C64.5928 36.9132 71.7919 36.966 78.9941 37.0095C79.1629 37.0035 79.3311 36.9879 79.4981 36.9629C80.195 35.6002 80.839 34.2003 81.6137 32.8749C83.3185 29.954 85.7328 29.9043 87.699 32.6979C87.9914 33.1108 88.2901 33.5205 88.6728 34.0482C89.6061 31.7543 90.4803 29.6125 91.3639 27.4738C91.6376 26.8065 91.899 26.1267 92.235 25.4873C93.8932 22.3305 96.8674 21.9518 99.0296 24.7547C100.153 26.2136 100.918 27.9457 101.83 29.566C102.119 30.0874 102.34 30.6431 102.738 31.4936C103.78 28.3709 104.642 25.5742 105.656 22.8302C106.207 21.3403 106.817 19.8038 107.744 18.5373C109.648 15.933 112.218 15.9175 114.221 18.4163C115.13 19.5473 115.892 20.7884 116.489 22.1101C118.598 26.7847 120.512 31.5308 120.845 36.8232C124.223 36.8232 127.521 36.8015 130.819 36.8232C134.863 36.8543 138.908 36.8977 142.952 36.9908C143.737 37.0229 144.495 37.2865 145.13 37.7482L119.451 37.7513Z" fill="white"/>
<path d="M87.5337 75.7233H81.2119V71.5483H98.3448V75.6891H92.1786V92.3609H87.5337V75.7233Z" fill="white"/>
<path d="M102.372 92.3768V71.5518H106.771V92.3768H102.372Z" fill="white"/>
<path d="M74.9255 62.0872C73.7215 60.6128 72.5082 59.1415 71.3135 57.6578C70.0504 56.084 68.8028 54.4979 67.5459 52.9179C66.3326 51.3938 65.1131 49.8728 63.598 47.9732C63.5513 48.9602 63.5046 49.4941 63.5046 50.028C63.5046 53.4921 63.5046 56.9594 63.4766 60.4235C63.4766 60.9232 63.1904 61.4199 63.0348 61.9165L62.4624 61.7613V45.6203C63.2091 46.1821 63.7815 46.4584 64.1424 46.9085C67.1664 50.6551 70.1468 54.4327 73.1428 58.201C73.4539 58.5921 73.7931 58.9615 74.4059 59.6785V45.7103C75.0282 46.1821 75.5633 46.387 75.5633 46.5981C75.6099 51.6421 75.6006 56.6893 75.6006 61.7334L74.9255 62.0872Z" fill="white"/>
<path d="M80.4805 45.8425C83.0876 45.979 85.5454 45.8611 87.9067 46.2801C91.7769 46.9692 94.1787 50.1757 94.1289 54.0402C94.1324 55.8678 93.4893 57.638 92.3129 59.0388C91.1365 60.4397 89.5023 61.3814 87.6982 61.6979C86.8818 61.8316 86.0553 61.8939 85.228 61.8841C83.688 61.9121 82.148 61.8841 80.4836 61.8841L80.4805 45.8425ZM81.6254 60.9436C83.8591 60.7884 85.9436 60.8536 87.9347 60.4594C90.7347 59.9038 92.6169 57.4888 92.8378 54.7355C93.0898 51.5663 91.6742 48.9651 88.9831 47.767C86.6125 46.7147 84.1516 47.1306 81.6254 47.2176V60.9436Z" fill="white"/>
<path d="M144.551 62.1521C139.99 62.1304 136.649 58.6725 136.646 53.973C136.643 49.2735 140.087 45.6945 144.67 45.6914C149.252 45.6883 152.709 49.2642 152.668 53.9823C152.628 58.7004 149.174 62.177 144.551 62.1521ZM151.396 53.9606C151.396 49.8415 148.543 46.8213 144.654 46.8027C140.765 46.784 137.872 49.8353 137.875 53.9419C137.875 57.9772 140.83 61.1216 144.648 61.1402C148.465 61.1588 151.396 58.0703 151.393 53.9606H151.396Z" fill="white"/>
<path d="M99.1877 57.5208C97.9433 58.8897 98.0677 61.0563 96.4469 61.9472L96.0269 61.6709C96.0505 61.4786 96.0943 61.2892 96.1575 61.106C98.466 56.0867 100.784 51.0706 103.26 45.7037C103.802 46.0359 104.458 46.1973 104.642 46.5853C106.959 51.4866 109.209 56.422 111.467 61.3512C111.505 61.4319 111.467 61.5499 111.467 61.7206C109.949 62.1427 110.08 60.7242 109.65 60.0258C109.199 59.2131 108.792 58.377 108.431 57.5208H99.1877ZM107.899 56.2792C106.542 53.2931 105.248 50.4405 103.755 47.1626C102.268 50.4157 100.974 53.2434 99.5829 56.2792H107.899Z" fill="white"/>
<path d="M57.3583 45.9644C57.5014 46.3617 57.7627 46.7559 57.7658 47.1532C57.797 50.0493 57.8561 52.9485 57.7658 55.8445C57.6321 59.6749 55.2987 62.0247 51.6867 62.155C47.7387 62.3009 45.1845 60.2926 44.8423 56.3505C44.5623 53.2185 44.7148 50.0493 44.7334 46.8987C44.7334 46.5665 44.7338 45.8278 44.7338 45.8278H45.9187V47.6995C45.9187 47.6995 45.8565 52.9764 45.9467 55.6117C46.0805 59.6097 48.9085 61.7763 52.757 60.9383C54.913 60.4664 56.3347 58.9827 56.4903 56.5678C56.6801 53.6841 56.6085 50.7818 56.6645 47.8765C56.6645 47.2774 56.7298 46.6783 56.7672 46.0792L57.3583 45.9644Z" fill="white"/>
<path d="M127.617 48.3239L126.895 48.9447C122.627 46.1045 119.027 46.1511 116.526 49.0316C114.18 51.7352 114.208 56.1957 116.582 58.8776C119.183 61.8141 122.683 61.8016 127.054 58.7876L127.654 59.3526C124.854 62.767 119.5 63.1612 116.227 60.2217C112.758 57.1176 112.625 51.3007 115.947 47.97C119.08 44.8256 124.447 44.9281 127.617 48.3239Z" fill="white"/>
<path d="M117.732 70.0234L115.598 69.3716C115.928 65.9571 117.854 64.6131 120.903 65.4853C121.301 65.5971 121.69 65.7367 122.082 65.8764C124.126 66.5935 124.303 66.5531 125.765 64.9763C126.216 65.1066 126.699 65.2308 127.193 65.3922C127.419 65.4801 127.638 65.5838 127.85 65.7026C127.143 69.3964 125.333 70.4549 121.845 69.266C120.383 68.7787 118.871 67.8754 117.732 70.0234Z" fill="white"/>
<path d="M96.7111 13.9938C99.2995 13.9938 100.924 15.3565 100.902 17.5045C100.874 20.1864 98.8982 22.2723 96.4093 22.2506C94.0604 22.2289 92.1751 20.1616 92.1782 17.61C92.1782 15.49 94.048 13.9938 96.7111 13.9938ZM99.1004 17.8056C99.1222 16.0021 97.9804 14.6053 96.4622 14.5867C94.944 14.5681 93.628 16.2225 93.5813 18.2091C93.544 19.7611 94.7076 20.9127 96.3253 20.8972C97.9431 20.8817 99.0662 19.5811 99.1004 17.8118V17.8056Z" fill="white"/>
<path d="M84.6607 29.1155C82.8314 29.2676 81.2385 28.8765 80.4732 26.9861C79.851 25.4124 80.6754 23.6369 82.4799 22.3859C84.2843 21.135 86.1976 21.0977 87.6598 22.2307C89.1221 23.3637 89.7225 25.3006 89.0132 26.9333C88.1763 28.8237 86.5896 29.3172 84.6607 29.1155ZM84.0727 22.4977C82.7007 22.5442 81.8079 23.6182 81.895 25.1268C82.0132 27.3803 83.1861 29.0224 84.6732 29.0099C86.1603 28.9975 87.3021 27.4052 87.1963 25.5334C87.0936 23.8666 85.6314 22.4449 84.0727 22.4977Z" fill="white"/>
<path d="M132.289 46.0955V61.6467L131.912 61.9136C131.682 61.6032 131.253 61.2618 131.249 60.9359C131.206 56.2426 131.206 51.5482 131.249 46.8528C131.249 46.5424 131.676 46.232 131.903 45.8999L132.289 46.0955Z" fill="white"/>
<path d="M144.505 43.8939L146.207 41.6466L147.597 42.2395L144.919 44.3192L144.505 43.8939Z" fill="white"/>
</g>
</svg>
