<svg width="200" height="100" viewBox="0 0 200 100" fill="none" xmlns="http://www.w3.org/2000/svg">
<mask id="mask0_59_959" style="mask-type:alpha" maskUnits="userSpaceOnUse" x="0" y="0" width="200" height="100">
<rect width="200" height="100" fill="#D9D9D9"/>
</mask>
<g mask="url(#mask0_59_959)">
<mask id="mask1_59_959" style="mask-type:luminance" maskUnits="userSpaceOnUse" x="10" y="28" width="180" height="44">
<path d="M190 28.1959H10V71.8042H190V28.1959Z" fill="white"/>
</mask>
<g mask="url(#mask1_59_959)">
<path d="M15.6666 54.14L16.2222 52.7047L14.8888 53.2568L15.2222 51.0487L14.2222 53.0359L13.3333 51.8215L13.1111 53.3671L11.3333 51.9319L12.6666 53.8087L11.1111 53.9191L12.2222 54.9128L10.2222 55.6856L12.4444 55.5751L11.8888 56.8999L13.2222 56.3479L12.8888 58.556L13.8888 56.5688L14.7777 57.7831L14.9999 56.3479L16.7777 57.6728L15.5555 55.796L16.9999 55.6856L15.8888 54.6919L17.9999 53.9191L15.6666 54.14Z" fill="white"/>
<path d="M73.3337 43.3211L74.2226 44.5355L74.4448 42.9899L76.3337 44.4251L75.0004 42.5483L76.4448 42.4379L75.3337 41.4443L77.4448 40.5611L75.2226 40.7818L75.7781 39.4571L74.3336 40.0091L74.667 37.6907L73.667 39.7883L72.7781 38.5739L72.5559 40.0091L70.7781 38.6843L72.1115 40.5611L70.667 40.6715L71.7781 41.6651L69.667 42.4379L71.8892 42.3275L71.3337 43.6523L72.7781 43.1003L72.4447 45.3083L73.3337 43.3211Z" fill="white"/>
<path d="M32 31.0665L30.5555 32.6121L32.3333 31.5081L32.9999 33.4953V31.3977L35 31.8393L33.2221 30.8457L34.5555 29.3001L32.7777 30.4041L32.1111 28.4169L32.2222 30.5145L30.2222 30.0729L32 31.0665Z" fill="white"/>
<path d="M39.6665 63.8556L39.7777 64.4076L39.9999 64.2972V63.7452C39.8887 63.7452 39.7777 63.8556 39.6665 63.8556Z" fill="white"/>
<path d="M37.0002 51.7119H37.2224V51.2703L36.8892 51.3807L37.0002 51.7119Z" fill="white"/>
<path d="M34.5558 39.6781L34.3335 38.5741L34.1113 38.6845L34.3335 39.6781H34.5558Z" fill="white"/>
<path d="M34.8899 40.7488L34.5645 40.8204L34.805 41.8983L35.1304 41.8266L34.8899 40.7488Z" fill="white"/>
<path d="M33.8733 36.4575L33.5479 36.529L33.7875 37.6071L34.113 37.5356L33.8733 36.4575Z" fill="white"/>
<path d="M35.2222 43.6525L35.4444 43.5421L35.3334 42.7693L35 42.8797L35.2222 43.6525Z" fill="white"/>
<path d="M33.1108 34.4893L33.3331 35.4829L33.6664 35.3725L33.4442 34.3789L33.1108 34.4893Z" fill="white"/>
<path d="M40.5556 66.5048L40.3334 65.4008L40 65.5112L40.3334 66.5048H40.5556Z" fill="white"/>
<path d="M36.2217 47.2953L35.9995 47.4056L36.2217 48.3992H36.4439L36.2217 47.2953Z" fill="white"/>
<path d="M69.4447 42.6586V42.4377L68.3335 42.6586V42.8794L69.4447 42.6586Z" fill="white"/>
<path d="M25.3338 52.3734H25.6672C25.6672 52.263 25.6672 52.1526 25.6672 52.0422L25.2227 52.1526L25.3338 52.3734Z" fill="white"/>
<path d="M67.3331 43.0997L67.2219 42.8789L66.1108 43.0997L66.222 43.4309L67.3331 43.0997Z" fill="white"/>
<path d="M45.525 47.7211L44.4399 47.9592L44.5119 48.2827L45.5968 48.0445L45.525 47.7211Z" fill="white"/>
<path d="M20.8887 53.036L20.9997 53.3672L22.1108 53.1463L21.9998 52.8152L20.8887 53.036Z" fill="white"/>
<path d="M23.1113 52.5947L23.2225 52.8155L24.2224 52.5947V52.3739L23.1113 52.5947Z" fill="white"/>
<path d="M18.7773 53.5886L18.8885 53.8094L19.8885 53.5886V53.3678L18.7773 53.5886Z" fill="white"/>
<path d="M65.1116 43.6523V43.3212L64.0005 43.5419V43.8731L65.1116 43.6523Z" fill="white"/>
<path d="M54.2219 45.9702V45.7494L53.1108 45.9702V46.3015L54.2219 45.9702Z" fill="white"/>
<path d="M56.4443 45.529L56.3332 45.3082L55.2222 45.529L55.3332 45.7498L56.4443 45.529Z" fill="white"/>
<path d="M52.1114 46.5229L52.0003 46.1917L50.8892 46.4125L51.0003 46.7436L52.1114 46.5229Z" fill="white"/>
<path d="M47.6231 47.1842L46.5381 47.4223L46.6099 47.7457L47.6949 47.5076L47.6231 47.1842Z" fill="white"/>
<path d="M49.8486 46.7344L48.7637 46.9726L48.8116 47.1883L49.8966 46.95L49.8486 46.7344Z" fill="white"/>
<path d="M60.7776 44.5349L60.6665 44.3142L59.6665 44.5349V44.8662L60.7776 44.5349Z" fill="white"/>
<path d="M63.0001 44.0938L62.8889 43.8729L61.7778 44.0938L61.8889 44.3145L63.0001 44.0938Z" fill="white"/>
<path d="M58.5559 44.7563L57.4448 44.9772L57.5559 45.3084L58.5559 45.0876V44.7563Z" fill="white"/>
<path d="M34.5552 50.3862L35.1108 50.2758V49.9446L34.6663 50.055L34.5552 50.3862Z" fill="white"/>
<path d="M38.3335 49.503L39.0001 49.3926L38.7779 49.1718L38.3335 49.2822V49.503Z" fill="white"/>
<path d="M37.2222 49.503L36.7778 49.6134L36.6666 49.1718H36.4444L36.5555 49.6134L36.2222 49.7238V49.9445H36.5555L36.6666 50.2758H36.8888V49.8341L37.3333 49.7238L37.2222 49.503Z" fill="white"/>
<path d="M41.5556 69.1552L42.8889 67.6095L41.1112 68.7136L40.5556 66.7263V68.824L38.5557 68.3824L40.3334 69.3759L38.8889 70.9216L40.6668 69.8176L41.3334 71.8048V69.7072L43.3334 70.1487L41.5556 69.1552Z" fill="white"/>
<path d="M42.6666 60.5438C42.4444 59.9918 42.2221 59.219 42.2221 58.4461V56.9005C42.2221 55.4654 42.5554 54.5822 43.3332 54.0302V53.5885H37.2221V53.9198C37.9999 54.3613 38.3332 55.3549 38.3332 56.7901V59.219C38.3332 60.6542 37.7776 61.427 36.6666 61.427C35.8887 61.427 35.2221 61.2062 34.6665 60.875C34.111 60.5438 33.6666 59.9918 33.2221 59.219C32.8888 58.5565 32.5554 57.6733 32.3332 56.7901C32.111 55.9069 32.111 54.9134 32.111 53.8094C32.111 52.5949 32.2221 51.6013 32.4443 50.6077C32.6666 49.6142 32.9998 48.8413 33.4444 48.0685C33.8888 47.2957 34.3332 46.8541 34.8887 46.5229C35.4443 46.1916 35.9999 46.0813 36.5554 46.0813C37.5554 46.0813 38.5554 46.5229 39.4443 47.4061C40.3332 48.2893 41.111 49.5037 41.6666 51.1597H41.9998V46.4125C40.9999 46.0813 40.2221 45.8605 39.5555 45.6397C38.8888 45.5293 38.3332 45.4189 37.7776 45.3085C37.2221 45.3085 36.7776 45.1981 36.5554 45.1981C35.2221 45.1981 33.8888 45.4189 32.7776 45.8605C31.6665 46.3021 30.6665 46.8541 29.8888 47.6269C29.111 48.3997 28.4444 49.2829 28.111 50.3869C27.6666 51.3806 27.4443 52.5949 27.4443 53.6989C27.4443 55.0237 27.6666 56.1277 28.111 57.2318C28.5554 58.3358 29.2221 59.219 29.9999 59.8814C30.7777 60.6542 31.7777 61.2062 32.8888 61.5374C33.9999 61.8686 35.3333 62.0894 36.6666 62.0894C37.7776 62.0894 38.8888 61.8686 40.111 61.5374C41.2221 61.427 42.111 60.9854 42.6666 60.5438ZM30.7777 59.219C30.111 58.6669 29.5554 57.8942 29.2221 57.0109C28.8888 56.1277 28.6666 55.0237 28.6666 53.9198C28.6666 52.9262 28.8888 51.9325 29.2221 51.0493C29.5554 50.1661 30.111 49.3933 30.7777 48.7309C31.2221 48.2893 31.7777 47.8477 32.4443 47.5165C31.9999 48.2893 31.6665 49.2829 31.3332 50.3869C31.111 51.4909 30.9999 52.5949 30.9999 53.9198C30.9999 55.0237 31.111 56.1277 31.3332 57.1214C31.5555 58.115 31.8888 59.1086 32.3332 59.8814C32.4443 59.9918 32.5554 60.2125 32.5554 60.3229C31.7777 59.9918 31.2221 59.6606 30.7777 59.219ZM39.3332 60.7646C39.4443 60.3229 39.5555 59.8814 39.5555 59.3293V56.9005C39.5555 56.1277 39.4443 55.4654 39.3332 54.9134H41.4443C41.111 55.4654 41.111 56.1277 41.111 56.9005V58.5565C41.111 59.1086 41.111 59.6606 41.2221 60.1022C40.7777 60.3229 40.3332 60.5438 39.6665 60.6542C39.5555 60.6542 39.4443 60.6542 39.3332 60.7646Z" fill="white"/>
<path d="M55.1115 59.6598C54.4449 58.8871 53.7782 58.1143 53.2226 57.2311L52.4449 56.127C53.0004 56.0166 53.4449 55.7959 53.8894 55.5751C54.3338 55.3542 54.6671 55.023 54.8893 54.5814C55.1115 54.1398 55.2227 53.6982 55.2227 53.1463C55.2227 52.7046 55.1115 52.1526 54.8893 51.8214C54.6671 51.3798 54.4449 51.0486 54.0004 50.8278C53.556 50.6071 53.1116 50.2758 52.4449 50.1654C51.7782 50.055 51.1115 49.9446 50.2227 49.9446H45.2227V50.1654C45.7782 50.4966 46.0005 51.2694 46.0005 52.2631V59.5494C46.0005 60.6535 45.7782 61.3158 45.2227 61.6471V61.8679H50.0005V61.6471C49.4449 61.3158 49.2226 60.5431 49.2226 59.5494V50.4966H49.6671C51.2227 50.4966 51.8893 51.3798 51.8893 53.1463C51.8893 53.9191 51.6671 54.5814 51.3338 55.2438C51.0005 55.7959 50.3338 56.2374 49.4449 56.4583V56.6791C49.4449 56.7894 49.6671 57.1206 50.0005 57.6726C50.3338 58.2247 50.556 58.6662 50.7783 58.9975C51.0005 59.3287 51.1115 59.5494 51.2227 59.6598C51.8893 60.5431 52.4449 61.0951 53.0004 61.5367C53.556 61.9783 54.2227 62.0886 55.0005 62.0886C55.556 62.0886 55.8893 62.0886 56.2227 61.8679C56.4449 61.7575 56.6671 61.6471 56.7782 61.5367L56.8893 61.3158C56.3338 60.9847 55.7783 60.4326 55.1115 59.6598ZM52.7782 51.6006C53.0004 51.711 53.2226 51.8214 53.3338 51.9318C53.556 52.1526 53.7782 52.2631 53.8894 52.4838C54.0004 52.7046 54.1116 53.0358 54.1116 53.367C54.1116 53.6982 54.0004 54.0295 53.8894 54.2502C53.7782 54.471 53.556 54.6918 53.3338 54.8023C53.2226 54.9127 53.0004 54.9127 52.8894 55.023C53.1116 54.471 53.1116 53.9191 53.1116 53.367C53.1116 52.5942 53.0004 52.0422 52.7782 51.6006ZM47.1115 60.8743C47.2227 60.5431 47.2227 60.1015 47.2227 59.6598V52.3734C47.2227 51.9318 47.2227 51.6006 47.1115 51.159H48.0004V59.6598C48.0004 60.1015 48.0004 60.4326 48.1116 60.8743H47.1115ZM53.7782 60.6535C53.3338 60.3222 52.7782 59.7703 52.2227 59.1079C52.1116 58.9975 52.0004 58.7766 51.7782 58.5558C51.556 58.2247 51.3337 57.783 51.0005 57.3415C51.1115 57.2311 51.2227 57.2311 51.3338 57.1206L52.1116 58.2247C52.6671 59.1079 53.3338 59.8807 54.1116 60.7639C54.2227 60.8743 54.3338 61.095 54.4449 61.2054C54.2227 60.8743 54.0004 60.7639 53.7782 60.6535Z" fill="white"/>
<path d="M69.8886 60.5438C69.5554 59.9917 69.1108 59.3293 68.7776 58.4461L64.9998 49.7245H64.5554L60.3331 58.9982C60.1108 59.6606 59.6664 60.2125 59.222 60.7646C58.7775 61.3166 58.3331 61.6478 57.8887 61.7581V61.979H61.8887V61.7581C61.5553 61.5374 61.3331 61.3166 61.1109 60.8749C60.8886 60.5438 60.8886 60.2125 60.8886 59.771C60.8886 59.3293 60.9998 59.1085 61.1109 58.8878L61.222 58.5565H65.5553C65.8887 59.4398 66.1109 60.1021 65.9998 60.6542C65.8887 61.2062 65.6664 61.5374 65.222 61.6478V61.8685H71.1109V61.6478C70.6664 61.427 70.222 61.0958 69.8886 60.5438ZM61.6664 58.0046L63.4442 53.5885L65.3331 58.0046H61.6664ZM67.222 60.8749C67.222 60.323 67.2219 59.8814 67.1109 59.2189H67.222L64.4442 53.0365L64.7776 52.3741L67.6665 58.9982C67.9998 59.771 68.3331 60.323 68.6664 60.8749H67.222Z" fill="white"/>
<path d="M81.5552 50.276C81.8886 50.3864 82.222 50.7176 82.4442 51.2696C82.6664 51.8216 82.8886 52.484 82.8886 53.2568L83.1109 57.6728L75.9997 50.0552H73.1108V50.276C73.4442 50.6072 73.6664 50.9384 73.9997 51.4904C74.2219 51.932 74.4441 52.484 74.5553 52.9256C74.6664 53.4776 74.6664 53.8088 74.6664 54.2504L74.5553 58.8872C74.5553 59.66 74.3331 60.3224 74.1109 60.8745C73.8886 61.4264 73.5553 61.7577 73.222 61.8681V62.0888H76.6664V61.8681C76.333 61.7577 75.9997 61.316 75.7775 60.8745C75.5553 60.3224 75.3331 59.66 75.3331 58.8872L75.1109 53.9192L83.1109 62.6409H83.4441L83.6664 53.4776C83.6664 52.7048 83.8886 52.0424 84.1109 51.4904C84.3331 50.9384 84.6664 50.6072 84.9997 50.4968V50.276H81.4442H81.5552ZM82.3331 59.7704L75.6664 52.5944C75.5553 52.1528 75.4442 51.6008 75.2219 51.1592H75.5553L82.4442 58.556L82.3331 59.7704Z" fill="white"/>
<path d="M88 50.276C88.5556 50.6072 88.7778 51.38 88.7778 52.3736V59.66C88.7778 60.7641 88.5556 61.4264 88 61.7577V61.9784H92.7778V61.7577C92.2222 61.4264 92 60.6537 92 59.66V52.3736C92 51.2696 92.2222 50.6072 92.7778 50.276V50.0552H88V50.276ZM89.8889 51.1592H90.8889C90.7778 51.4904 90.7778 51.932 90.7778 52.3736V59.66C90.7778 60.1017 90.7778 60.4328 90.8889 60.8745H89.8889C90 60.5432 90 60.1017 90 59.66V52.3736C90 51.932 90 51.4904 89.8889 51.1592Z" fill="white"/>
<path d="M103.445 60.6536C102.778 61.2056 102.111 61.4264 101.334 61.4264C100.889 61.4264 100.445 61.316 100.223 60.9848C100 60.764 99.8892 60.212 99.8892 59.66V56.1272L100.667 56.2376C101.111 56.2376 101.445 56.4583 101.778 56.6792C102.111 56.9 102.445 57.3416 102.778 58.004H103.001V53.8087H102.778C102.445 54.4712 102.111 54.9128 101.778 55.1336C101.445 55.3544 101 55.5751 100.667 55.5751L99.8892 55.6856V50.6071H100.889C101.667 50.6071 102.445 50.828 103.111 51.3799C103.778 51.932 104.223 52.484 104.556 53.2568H104.778V50.0552H95.8892V50.2759C96.4447 50.6071 96.667 51.3799 96.667 52.3736V59.66C96.667 60.764 96.4447 61.4264 95.8892 61.7576V61.9784H105.112V58.7768H104.889C104.556 59.5496 104.111 60.212 103.445 60.6536ZM97.7781 60.8744C97.8892 60.5432 97.8892 60.1016 97.8892 59.66V52.3736C97.8892 51.932 97.8892 51.6008 97.7781 51.1591H98.667V59.66C98.667 60.1016 98.667 60.4328 98.7781 60.764H97.7781V60.8744Z" fill="white"/>
<path d="M117.555 59.6598C116.889 58.8871 116.222 58.1143 115.666 57.2311L114.889 56.127C115.445 56.0166 115.889 55.7959 116.333 55.5751C116.778 55.3542 117.111 55.023 117.334 54.5814C117.555 54.1398 117.667 53.6982 117.667 53.1463C117.667 52.7046 117.555 52.1526 117.334 51.8214C117.111 51.4903 116.889 51.0486 116.445 50.8278C116 50.6071 115.556 50.2758 114.889 50.1654C114.222 50.055 113.555 49.9446 112.667 49.9446H107.778V50.1654C108.334 50.4966 108.555 51.2694 108.555 52.2631V59.5494C108.555 60.6535 108.334 61.3158 107.778 61.6471V61.8679H112.555V61.6471C111.999 61.3158 111.778 60.5431 111.778 59.5494V50.4966H112.222C113.777 50.4966 114.444 51.3798 114.444 53.1463C114.444 53.9191 114.222 54.5814 113.889 55.2438C113.555 55.7959 112.888 56.2374 111.999 56.4583V56.6791C112.111 56.7894 112.222 57.1206 112.555 57.6726C112.888 58.2247 113.111 58.6662 113.333 58.9975C113.555 59.3287 113.667 59.5494 113.777 59.6598C114.444 60.5431 115 61.0951 115.556 61.5367C116.111 61.9783 116.778 62.0886 117.555 62.0886C118.111 62.0886 118.444 61.9782 118.777 61.8679C119.111 61.7575 119.222 61.6471 119.333 61.5367L119.444 61.3158C118.889 60.9847 118.333 60.4326 117.555 59.6598ZM115.333 51.6006C115.556 51.711 115.778 51.8214 115.889 51.9318C116.111 52.1526 116.333 52.2631 116.445 52.4838C116.555 52.7046 116.666 53.0358 116.666 53.367C116.666 53.6982 116.555 54.0295 116.445 54.2502C116.333 54.471 116.111 54.6918 115.889 54.8023C115.778 54.9127 115.556 54.9127 115.445 55.023C115.666 54.471 115.666 53.9191 115.666 53.367C115.556 52.5942 115.556 52.0422 115.333 51.6006ZM109.667 60.8743C109.777 60.5431 109.777 60.1015 109.777 59.6598V52.3734C109.777 51.9318 109.777 51.6006 109.667 51.159H110.556V59.6598C110.556 60.1015 110.556 60.4326 110.666 60.8743H109.667ZM116.222 60.6535C115.778 60.3222 115.222 59.7703 114.667 59.1079C114.556 58.9975 114.444 58.7766 114.222 58.5558C114 58.2247 113.777 57.783 113.444 57.3415C113.555 57.2311 113.667 57.2311 113.777 57.1206L114.556 58.2247C115.111 59.1079 115.778 59.8807 116.555 60.7639C116.666 60.8743 116.778 61.095 116.889 61.2054C116.778 60.8743 116.555 60.7639 116.222 60.6535Z" fill="white"/>
<path d="M142.445 47.737C141.667 46.9642 140.778 46.4122 139.667 45.9706C138.556 45.529 137.445 45.3082 136.112 45.3082C134.89 45.3082 133.667 45.529 132.556 45.9706C131.445 46.4122 130.556 46.9642 129.778 47.737C129.001 48.5098 128.445 49.393 128.001 50.4971C127.556 51.601 127.445 52.5946 127.445 53.8091C127.445 55.1338 127.668 56.3483 128.001 57.3419C128.445 58.4459 129.001 59.3291 129.667 59.9915C130.445 60.7643 131.333 61.3163 132.445 61.6475C133.556 61.9786 134.778 62.1995 136.112 62.1995C137.445 62.1995 138.556 61.9786 139.667 61.5371C140.778 61.0955 141.667 60.5435 142.445 59.7707C143.223 58.9979 143.778 58.1147 144.223 57.0106C144.667 55.9066 144.779 54.8027 144.779 53.5882C144.779 52.3738 144.556 51.2698 144.223 50.2762C143.778 49.393 143.223 48.5098 142.445 47.737ZM130.556 59.2187C130 58.6666 129.445 57.8938 129.111 57.0106C128.778 56.1274 128.556 55.0234 128.556 53.8091C128.556 52.8154 128.778 51.8218 129.111 50.9386C129.445 50.0554 130 49.2826 130.556 48.6202C131 48.1786 131.445 47.8474 132.112 47.5162C131.667 48.289 131.445 49.1722 131.223 50.1658C131 51.1594 130.889 52.3739 130.889 53.8091C130.889 55.4651 131.112 57.0106 131.445 58.2251C131.667 59.1083 132 59.7707 132.445 60.4331C131.667 60.1019 131 59.6603 130.556 59.2187ZM138.89 59.6603C138.556 60.3226 138.111 60.7643 137.556 61.0954C137.112 61.4267 136.556 61.5371 136 61.5371C135.112 61.5371 134.445 61.2058 133.89 60.5435C133.334 59.8811 132.778 58.9979 132.556 57.8938C132.222 56.6795 132.112 55.3546 132.112 53.8091C132.112 52.4842 132.222 51.3803 132.445 50.4971C132.667 49.5034 132.889 48.7306 133.334 48.0682C133.667 47.4058 134.111 46.9642 134.667 46.7434C135.223 46.5226 135.667 46.3018 136.223 46.3018C137.112 46.3018 137.778 46.633 138.445 47.2954C139.111 47.9578 139.556 48.9514 139.779 50.1658C140 51.3803 140.223 52.5946 140.223 53.9195C140.223 55.2442 140.112 56.3483 139.889 57.3419C139.667 58.3355 139.334 58.9979 138.89 59.6603ZM143.111 56.7898C142.778 57.673 142.222 58.4459 141.668 59.1083C141.222 59.5498 140.667 59.9915 140.112 60.2123C140.556 59.4394 140.889 58.5562 141.112 57.4523C141.334 56.3483 141.445 55.1338 141.445 53.8091C141.445 52.4842 141.334 51.1594 141 49.8346C140.778 48.9514 140.445 48.1786 140.112 47.5162C140.778 47.8474 141.222 48.1786 141.778 48.7306C142.445 49.393 142.89 50.1658 143.223 51.049C143.556 51.9322 143.778 52.9258 143.778 53.9195C143.556 54.9131 143.445 55.9066 143.111 56.7898Z" fill="white"/>
<path d="M156.333 59.6598C155.666 58.8871 155 58.1143 154.444 57.2311L153.667 56.127C154.221 56.0166 154.666 55.7959 155.11 55.5751C155.555 55.3542 155.889 55.023 156.111 54.5814C156.333 54.1398 156.444 53.6982 156.444 53.1463C156.444 52.7046 156.333 52.1526 156.111 51.8214C155.889 51.4903 155.666 51.0486 155.222 50.8278C154.777 50.6071 154.333 50.2758 153.667 50.1654C152.999 50.055 152.333 49.9446 151.444 49.9446H146.444V50.1654C146.999 50.4966 147.222 51.2694 147.222 52.2631V59.5494C147.222 60.6535 146.999 61.3158 146.444 61.6471V61.8679H151.222V61.6471C150.666 61.3158 150.444 60.5431 150.444 59.5494V50.4966H150.889C152.444 50.4966 153.222 51.3798 153.222 53.1463C153.222 53.9191 152.999 54.5814 152.666 55.2438C152.333 55.7959 151.666 56.2374 150.777 56.4583V56.6791C150.777 56.7894 151 57.1206 151.333 57.6726C151.666 58.2247 151.889 58.6662 152.111 58.9975C152.333 59.3287 152.444 59.5494 152.555 59.6598C153.222 60.5431 153.777 61.0951 154.333 61.5367C154.889 61.9783 155.555 62.0886 156.333 62.0886C156.888 62.0886 157.222 61.9782 157.555 61.8679C157.888 61.7575 158 61.6471 158.111 61.5367L158.221 61.3158C157.555 60.9847 156.999 60.4326 156.333 59.6598ZM154 51.6006C154.221 51.711 154.444 51.8214 154.555 51.9318C154.777 52.1526 155 52.2631 155.11 52.4838C155.222 52.7046 155.333 53.0358 155.333 53.367C155.333 53.6982 155.222 54.0295 155.11 54.2502C155 54.471 154.777 54.6918 154.555 54.8023C154.444 54.9127 154.221 54.9127 154.111 55.023C154.333 54.471 154.333 53.9191 154.333 53.367C154.333 52.5942 154.221 52.0422 154 51.6006ZM148.332 60.8743C148.444 60.5431 148.444 60.1015 148.444 59.6598V52.3734C148.444 51.9318 148.444 51.6006 148.332 51.159H149.221V59.6598C149.221 60.1015 149.221 60.4326 149.333 60.8743H148.332ZM155 60.6535C154.555 60.3222 154 59.7703 153.444 59.1079C153.333 58.9975 153.222 58.7766 152.999 58.5558C152.778 58.2247 152.555 57.783 152.222 57.3415C152.333 57.2311 152.444 57.2311 152.555 57.1206L153.333 58.2247C153.888 59.1079 154.555 59.8807 155.333 60.7639C155.444 60.8743 155.555 61.095 155.666 61.2054C155.444 60.8743 155.222 60.7639 155 60.6535Z" fill="white"/>
<path d="M159.111 53.6982H159.333C159.778 52.5942 160.222 51.711 160.778 51.2694C161.334 50.8278 161.888 50.6071 162.555 50.6071H162.889V59.6598C162.889 60.7639 162.667 61.4263 162.111 61.7575V61.9782H166.888V61.7575C166.334 61.4263 166.111 60.6535 166.111 59.6598V50.6071H166.444C167.111 50.6071 167.777 50.8278 168.222 51.2694C168.778 51.711 169.222 52.5942 169.666 53.6982H169.889V49.9446H159V53.6982H159.111ZM164.222 59.6598V51.159H165V59.6598C165 60.1015 165 60.4326 165.111 60.8743H164.111C164.222 60.4326 164.222 60.1015 164.222 59.6598Z" fill="white"/>
<path d="M172.333 50.276C172.889 50.6072 173.111 51.38 173.111 52.3736V59.66C173.111 60.7641 172.889 61.4264 172.333 61.7577V61.9784H177.111V61.7577C176.556 61.4264 176.333 60.6537 176.333 59.66V52.3736C176.333 51.2696 176.556 50.6072 177.111 50.276V50.0552H172.333V50.276ZM174.223 51.1592H175.223C175.111 51.4904 175.111 51.932 175.111 52.3736V59.66C175.111 60.1017 175.111 60.4328 175.223 60.8745H174.223C174.334 60.5432 174.334 60.1017 174.334 59.66V52.3736C174.334 51.932 174.334 51.4904 174.223 51.1592Z" fill="white"/>
<path d="M190 49.9446H180.222V53.9191H180.444C180.667 53.2566 181.111 52.5942 181.556 52.1526C182 51.6006 182.444 51.2694 182.889 51.0486C183.333 50.8278 183.778 50.7174 184.222 50.7174L186.333 50.4966L179.889 61.8679V62.0886H189.778V58.1143H189.555C189.334 58.7766 188.889 59.3287 188.555 59.8807C188.222 60.4326 187.666 60.7639 187.222 60.9847C186.777 61.2054 186.222 61.4263 185.777 61.4263L183.666 61.6471L190 50.2758V49.9446ZM182.666 60.8743H181.889L187.333 51.159H188.111L182.666 60.8743Z" fill="white"/>
<path d="M137.111 52.9258C137.001 51.8218 136.556 51.049 136.112 50.9386C135.667 50.9386 135.222 51.7114 135 52.8154C133.889 52.9258 133 53.3674 133 53.9195C133 54.4714 133.889 54.8027 135 55.0234C135.222 56.1274 135.667 57.0106 136.112 56.9002C136.556 56.9002 137.001 56.1274 137.111 54.9131C138.223 54.8027 139 54.361 139 53.9195C139.112 53.4778 138.334 53.0362 137.111 52.9258Z" fill="white"/>
</g>
</g>
</svg>
