<svg width="200" height="100" viewBox="0 0 200 100" fill="none" xmlns="http://www.w3.org/2000/svg">
<mask id="mask0_59_1163" style="mask-type:alpha" maskUnits="userSpaceOnUse" x="0" y="0" width="200" height="100">
<rect width="200" height="100" fill="#D9D9D9"/>
</mask>
<g mask="url(#mask0_59_1163)">
<path d="M47.548 25.2367C50.9323 21.978 55.5636 20 60.6529 20C71.1496 20 79.6614 28.4066 79.6614 38.7913C79.6614 43.8378 77.6511 48.4151 74.3813 51.7879L56.5051 69.476L48.2477 61.3103L70.8569 38.9561L60.5384 28.749L47.0772 42.0373L38.8198 33.8716L47.548 25.2367Z" fill="white"/>
<path d="M69.9027 74.5478C66.4419 77.9079 61.6834 80 56.4287 80C45.8557 80 37.2803 71.5807 37.2803 61.1834C37.2803 55.9467 39.4687 51.1919 42.9803 47.781L60.4747 30.486L68.8848 38.8038L46.2629 61.1707L56.4287 71.2257L69.7882 58.0135L78.1982 66.3314L69.9027 74.5478Z" fill="white"/>
<path d="M104.906 56.0355C104.142 58.7997 103.989 59.3323 103.315 62.1598L102.972 62.4768H93.8745C92.335 62.4768 86.6477 62.5275 85.439 62.5783L85.1973 62.2613L86.4569 56.6568C86.8513 54.9324 87.1821 53.208 87.5129 51.4835L90.2611 38.246C90.6937 36.0524 91.1772 33.8588 91.6098 31.6652C91.7497 30.8284 92.475 26.7455 92.6658 25.8072L92.9584 25.5536C96.4701 25.5536 97.348 25.5536 101.05 25.3888L101.292 25.7058C101.241 25.8072 101.241 25.9087 101.203 26.0735C100.427 29.1039 99.3709 34.0236 98.6966 37.0541L96.8263 45.6255C96.4828 47.2993 96.1011 48.973 95.7703 50.6467C95.0959 53.7786 94.9942 54.2477 94.6634 55.8707C97.208 55.8707 102.794 55.8707 104.727 55.7185L104.906 56.0355Z" fill="white"/>
<path d="M133.977 39.2352C135.186 37.5995 135.95 35.3425 135.95 32.9334C135.95 31.602 135.708 29.4592 133.838 27.7347C131.382 25.3763 127.718 25.3763 123.634 25.4397L118.913 25.5411H115.681L115.351 25.8328C114.524 31.919 112.412 41.7331 111.152 47.6418L109.663 54.6029C109.333 56.3274 108.696 59.2056 107.971 62.2868L108.162 62.5531C109.752 62.5024 110.516 62.5024 112.068 62.4516H114.905C122.234 62.4516 125.987 62.4009 129.308 59.9411C133.201 57.0628 133.787 52.1557 133.787 50.1143C133.787 46.9824 132.527 45.1946 131.038 44.0027C130.517 43.5843 129.932 43.2166 129.359 42.9503C129.168 42.8996 128.977 42.8489 128.786 42.7474C129.028 42.684 129.27 42.646 129.461 42.5446C131.382 41.7838 132.921 40.6426 133.977 39.2352ZM123.519 55.1735C122.221 56.7965 120.491 56.7965 119.142 56.7965H116.979L119.091 46.4372H121.216C122.705 46.4879 125.122 46.5513 125.122 49.8861C125.122 51.4076 124.588 53.8675 123.519 55.1735ZM126.076 39.0196C124.868 40.5412 123.379 40.5919 122.272 40.5919L120.338 40.5412L122.412 30.9173L124.677 30.8539C125.351 30.8539 127.667 30.8539 127.667 33.9478C127.667 35.3552 127.132 37.6629 126.076 39.0196Z" fill="white"/>
<path d="M158.101 54.3371C156.231 55.7572 153.89 55.9094 152.77 55.9094C147.91 55.9094 145.951 52.3591 145.951 47.5788C145.951 41.5814 148.991 32.1984 155.722 32.1984C157.631 32.1984 159.183 32.8578 160.633 34.2398L161.04 34.0877C161.74 31.2982 161.88 30.791 162.72 27.9507L162.567 27.5957C159.297 25.605 156.167 25.4148 154.768 25.4148C152.516 25.4148 145.505 25.9727 141.065 34.8104C139.004 38.8679 137.986 43.8003 137.986 48.0607C137.986 56.6448 142.146 62.5789 150.518 62.5789C151.587 62.5789 154.399 62.4267 155.938 61.8181C156.129 61.7167 156.256 61.666 156.46 61.5518L156.829 61.0954C157.529 58.0015 157.567 57.6972 158.419 54.5527L158.101 54.3371Z" fill="white"/>
<path d="M85.2744 75.0802L85.6179 73.7488L85.7197 73.7235C85.8597 73.8883 85.9487 74.0024 86.1905 74.1546C86.6867 74.4589 87.1702 74.4969 87.3738 74.4969C88.1117 74.4969 88.6715 74.1165 88.6715 73.5333C88.6715 73.0261 88.2262 72.7471 87.73 72.4935L87.3992 72.3033C86.8775 71.9863 86.1141 71.5426 86.1141 70.4521C86.1141 70.0337 86.2541 69.4251 86.6612 68.9305C87.1956 68.2712 88.0481 68.043 88.8878 68.043C89.982 68.043 90.7072 68.4487 90.9872 68.6262L91.0253 68.7023L90.6563 70.021L90.5546 70.059C90.4273 69.8942 90.3764 69.8435 90.211 69.7294C89.8675 69.4758 89.4604 69.349 89.0405 69.349C88.3916 69.349 87.9717 69.7167 87.9717 70.2112C87.9717 70.6677 88.3025 70.8832 88.9387 71.2382L89.1804 71.365C89.7148 71.682 90.5418 72.1765 90.5418 73.2923C90.5418 74.5603 89.6512 75.841 87.5264 75.841C87.0048 75.841 86.4958 75.7522 86.0124 75.5874C85.6688 75.4733 85.5162 75.3591 85.2999 75.2323L85.2744 75.0802Z" fill="white"/>
<path d="M100.555 74.2943L100.505 74.2309L98.8506 74.269H97.6291L97.8963 73.1024L98.049 72.4304H99.2577H100.454L100.53 72.3797L100.861 71.2385L100.81 71.1624L99.4485 71.1878H98.3035L98.6851 69.5014H101.255L101.332 69.438L101.662 68.2334L101.599 68.17L99.8811 68.1954H97.2093L97.1456 68.2588C96.8657 69.7423 96.8021 70.072 96.4204 71.7964L96.026 73.4955L95.5298 75.6257L95.5807 75.6891L97.5019 75.6637H100.136L100.212 75.6003L100.555 74.2943Z" fill="white"/>
<path d="M112.603 71.885C111.738 71.923 111.547 71.923 110.873 71.923L110.796 71.9864C110.695 72.7092 110.669 72.8994 110.529 73.6221L110.402 74.2307C110.198 74.2814 110.008 74.3322 109.74 74.3322C109.295 74.3322 108.862 74.2054 108.557 73.8757C108.188 73.4699 108.15 72.9754 108.15 72.6458C108.15 71.7075 108.633 69.4124 110.784 69.4124C111.344 69.4124 111.751 69.59 111.929 69.6914C112.183 69.8182 112.272 69.9323 112.425 70.1225L112.54 70.0845L112.947 68.7024L112.921 68.6136C112.438 68.3474 111.802 68.005 110.631 68.005C107.081 68.005 106.331 71.2764 106.331 72.6204C106.331 73.6094 106.636 74.6111 107.501 75.2197C107.896 75.4987 108.519 75.7903 109.613 75.7903C110.364 75.7903 111.178 75.6762 111.852 75.3338L111.916 75.2451C112.031 74.7252 112.132 74.218 112.247 73.6982C112.374 73.1149 112.514 72.519 112.654 71.9484L112.603 71.885Z" fill="white"/>
<path d="M125.187 68.1446L123.673 68.17L123.597 68.2334L123.291 69.7423L122.922 71.378C122.706 72.3543 122.579 72.9376 122.439 73.3179C122.299 73.7364 121.993 74.4718 121.154 74.4718C120.327 74.4718 120.161 73.9266 120.161 73.4447C120.161 73.077 120.365 72.1514 120.454 71.7076L120.836 70.0212L121.268 68.1954L121.217 68.132L119.436 68.1573L119.372 68.2207L119.092 69.5774L118.647 71.6569C118.507 72.2782 118.342 73.0263 118.342 73.6223C118.342 74.345 118.584 74.9663 119.232 75.3847C119.423 75.4988 119.869 75.7778 120.976 75.7778C122.197 75.7778 122.922 75.4228 123.418 74.8015C123.902 74.2055 124.08 73.394 124.5 71.5682L124.907 69.6916L125.251 68.1954L125.187 68.1446Z" fill="white"/>
<path d="M135.455 68.5374C134.971 68.1697 134.386 68.157 133.266 68.157L131.294 68.1823L131.231 68.2457C130.976 69.78 130.887 70.2491 130.48 72.037L130.162 73.3937L129.64 75.6L129.691 75.6633L131.396 75.638L131.472 75.5746C131.714 74.1798 131.79 73.8375 132.045 72.7343L132.566 72.7217L133.164 74.5475L133.495 75.6253L133.572 75.6887L135.34 75.6126L135.391 75.5365L134.869 74.2432L134.157 72.43C134.666 72.2779 135.162 72.1004 135.582 71.5805C135.913 71.1494 136.091 70.5915 136.091 70.0336C136.104 69.5517 135.989 68.9304 135.455 68.5374ZM133.61 71.3396C133.228 71.5044 132.859 71.5044 132.503 71.5044L132.325 71.4917L132.643 70.0716L132.808 69.4123L133.063 69.3996C133.699 69.3996 134.322 69.3996 134.322 70.173C134.322 70.3506 134.297 71.0226 133.61 71.3396Z" fill="white"/>
<path d="M145.099 68.0179C144.081 68.0179 142.605 68.3096 141.74 70.0594C141.333 70.8835 141.079 71.9613 141.079 72.8362C141.079 74.0408 141.448 74.7001 141.957 75.1312C142.516 75.6257 143.318 75.7906 144.069 75.7906C145.226 75.7906 145.837 75.4229 146.066 75.2834C146.753 74.8523 147.466 74.0408 147.847 72.5192C147.975 72.012 148.064 71.4922 148.064 70.9723C148.076 68.6139 146.473 68.0179 145.099 68.0179ZM146.13 71.7204C145.939 72.7982 145.443 74.4592 144.132 74.4592C143.827 74.4592 143.458 74.3451 143.191 73.9901C143.038 73.7872 142.911 73.4829 142.911 72.9377C142.911 72.253 143.305 69.324 145.01 69.324C145.112 69.324 145.646 69.3366 145.99 69.8185C146.155 70.0594 146.219 70.4144 146.219 70.8202C146.219 71.1245 146.181 71.4288 146.13 71.7204Z" fill="white"/>
<path d="M151.969 75.1944C152.172 75.3338 152.338 75.4353 152.669 75.5494C153.152 75.7142 153.661 75.803 154.183 75.803C156.307 75.803 157.198 74.5224 157.198 73.2544C157.198 72.1386 156.358 71.6441 155.837 71.3271L155.595 71.2003C154.959 70.8453 154.628 70.6297 154.628 70.1732C154.628 69.6914 155.048 69.311 155.697 69.311C156.117 69.311 156.524 69.4505 156.867 69.6914C157.033 69.8055 157.096 69.8562 157.211 70.0211L157.313 69.983L157.682 68.6643L157.643 68.5883C157.351 68.4234 156.651 68.005 155.544 68.005C154.704 68.005 153.852 68.2332 153.317 68.8926C152.91 69.3871 152.783 69.9957 152.783 70.4141C152.783 71.5173 153.534 71.9611 154.068 72.2654L154.399 72.4556C154.895 72.7218 155.34 72.9881 155.34 73.4953C155.34 74.0786 154.781 74.459 154.043 74.459C153.839 74.459 153.368 74.4209 152.859 74.1293C152.618 73.9771 152.516 73.863 152.389 73.6982L152.287 73.7235L151.943 75.0549L151.969 75.1944Z" fill="white"/>
</g>
</svg>
