<svg width="200" height="100" viewBox="0 0 200 100" fill="none" xmlns="http://www.w3.org/2000/svg">
<mask id="mask0_59_824" style="mask-type:alpha" maskUnits="userSpaceOnUse" x="0" y="0" width="200" height="100">
<rect width="200" height="100" fill="#D9D9D9"/>
</mask>
<g mask="url(#mask0_59_824)">
<path d="M88.506 49.8011H89.4797V69.2723H85.7936V52.1654C85.7936 51.6091 86.976 49.8011 88.506 49.8011ZM108.675 54.1126C106.866 54.1126 105.475 54.8775 104.502 56.4074V49.8011H104.085C102.276 49.8011 101.303 50.7747 100.816 51.6092V51.47V62.666C100.816 67.047 103.111 69.2723 107.701 69.2723C112.291 69.2027 114.517 66.6993 114.517 61.8315C114.517 56.7551 112.569 54.2517 108.675 54.1126ZM107.562 66.0734C105.475 66.0734 104.432 64.5436 104.502 61.6229C104.641 58.7717 105.615 57.3809 107.631 57.3809C109.648 57.3809 110.622 58.7717 110.761 61.6229C110.761 64.6131 109.648 66.0734 107.562 66.0734ZM116.673 61.6229C116.812 56.8941 119.107 54.2516 124.044 54.2516H125.157V58.0763H123.419C121.332 58.0763 120.428 59.3976 120.428 61.5533V69.2027H116.673V61.6229ZM130.999 65.4476C131.625 66.0039 132.46 66.2821 133.572 66.2821C134.337 66.2821 135.033 66.0735 135.589 65.6562C136.146 65.239 136.493 64.8217 136.633 64.4045H140.11C139.554 66.143 138.719 67.3252 137.537 68.0901C136.354 68.8551 135.033 69.2027 133.364 69.2027C132.251 69.2027 131.208 68.9942 130.304 68.6465C129.4 68.2988 128.635 67.7424 128.009 67.1165C127.383 66.4211 126.896 65.6562 126.548 64.7522C126.201 63.8481 126.061 62.8051 126.061 61.6925C126.061 60.6494 126.27 59.6062 126.618 58.7022C126.966 57.7982 127.452 56.9637 128.078 56.3378C128.704 55.6424 129.469 55.1557 130.373 54.7385C131.277 54.3212 132.251 54.1821 133.364 54.1821C134.546 54.1821 135.659 54.3907 136.563 54.8775C137.467 55.3643 138.232 55.9901 138.789 56.7551C139.345 57.52 139.762 58.424 140.04 59.4671C140.318 60.4407 140.388 61.5533 140.319 62.666H129.956C130.095 63.9872 130.443 64.8912 130.999 65.4476ZM135.45 57.9373C134.963 57.4505 134.268 57.1724 133.294 57.1724C132.668 57.1724 132.112 57.3115 131.695 57.5201C131.277 57.7287 130.93 58.0068 130.721 58.285C130.443 58.6327 130.304 58.9109 130.165 59.2586C130.026 59.6063 130.026 59.9539 129.956 60.2321H136.354C136.285 59.189 135.937 58.4241 135.45 57.9373ZM93.4438 49.8011H97.1298V53.139H93.4438V49.8011ZM93.4438 54.808H97.1298V69.2027H93.4438V54.808ZM185.265 42.0821C184.639 42.7775 183.805 43.1948 182.761 43.1948C181.718 43.1948 180.884 42.7775 180.258 42.0821C179.632 41.3867 179.423 40.2046 179.423 38.8138C179.423 37.3534 179.701 36.3104 180.258 35.615C180.884 34.9196 181.718 34.5023 182.761 34.5023C183.805 34.5023 184.639 34.9196 185.265 35.615C185.891 36.3104 186.1 37.4925 186.1 38.8138C186.1 40.135 185.891 41.2477 185.265 42.0821ZM188.186 33.4592C187.073 31.9988 185.196 31.1644 182.761 31.1644C180.397 31.1644 178.45 31.8597 177.337 33.4592C176.224 34.9195 175.529 36.7276 175.529 38.7443C175.529 40.8305 176.154 42.6385 177.337 44.0293C178.45 45.4896 180.327 46.2545 182.761 46.2545C185.126 46.2545 187.073 45.5592 188.186 44.0293C189.299 42.5689 189.994 40.7609 189.994 38.7443C190.064 36.7971 189.438 34.989 188.186 33.4592ZM170.104 42.0821C169.617 42.7775 168.782 43.1948 167.739 43.1948C166.696 43.1948 165.862 42.7775 165.444 42.0821C164.957 41.2477 164.749 40.2046 164.749 38.8138C164.749 37.5621 164.957 36.5885 165.444 35.8235C165.931 34.989 166.696 34.5719 167.809 34.5719C168.504 34.5719 169.13 34.7804 169.687 35.1977C170.521 35.8931 171.008 37.2839 171.008 39.092C170.799 40.3437 170.66 41.3867 170.104 42.0821ZM174.416 26.9225C174.416 26.9225 170.66 26.5052 170.66 29.4954V33.4592C170.243 32.8333 169.756 32.3466 168.991 31.8598C168.365 31.4425 167.531 31.373 166.696 31.373C164.818 31.373 163.358 32.0684 162.176 33.4592C161.063 34.7804 160.506 36.7971 160.506 39.3005C160.506 41.3867 160.993 43.1948 162.176 44.377C163.288 45.6982 165.514 46.2545 167.461 46.2545C174.346 46.2545 174.207 40.4132 174.207 40.4132L174.416 26.9225ZM155.916 40.3436C155.916 41.5954 155.499 42.4299 154.873 42.9167C154.178 43.3339 153.413 43.6121 152.648 43.6121C152.161 43.6121 151.743 43.5425 151.396 43.1948C151.048 42.8471 150.909 42.4994 150.909 41.8736C150.909 41.1782 151.187 40.6218 151.743 40.2741C152.022 40.0655 152.648 39.8569 153.413 39.7874L154.247 39.5787C154.665 39.5092 154.943 39.3701 155.29 39.3701C155.499 39.3005 155.777 39.1615 155.986 39.092L155.916 40.3436ZM157.794 32.2075C156.542 31.5816 155.221 31.3034 153.621 31.3034C151.257 31.3034 149.518 31.9293 148.544 33.1811C147.918 34.0155 147.64 34.989 147.501 36.1712H151.048C151.118 35.6844 151.326 35.2673 151.535 34.9196C151.952 34.5023 152.578 34.2937 153.413 34.2937C154.247 34.2937 154.734 34.3632 155.221 34.5719C155.638 34.7805 155.847 35.1977 155.847 35.8235C155.847 36.3103 155.569 36.658 155.012 36.8666C154.734 36.9362 154.178 37.0753 153.552 37.1448L152.3 37.2143C150.839 37.423 149.796 37.7011 149.031 38.1184C147.71 38.8138 147.014 40.2046 147.014 41.8736C147.014 43.1948 147.432 44.2379 148.266 45.0029C149.101 45.6983 150.144 46.0459 151.465 46.1155C159.602 46.3937 159.533 41.804 159.533 40.9V35.615C159.602 34.0851 159.046 32.8333 157.794 32.2075ZM139.364 34.5023C140.268 34.5023 140.964 34.7805 141.451 35.3368C141.729 35.754 141.937 36.2408 141.937 36.7971H145.902C145.693 34.7804 144.997 33.3201 143.815 32.6247C142.702 31.7902 141.103 31.5121 139.225 31.5121C137 31.5121 135.261 32.138 134.009 33.5288C132.757 34.9196 132.131 36.7971 132.131 39.1615C132.131 41.3868 132.618 43.0557 133.8 44.377C134.913 45.6982 136.721 46.3937 139.086 46.3937C141.451 46.3937 143.259 45.5592 144.511 44.0293C145.206 42.9862 145.623 41.943 145.762 40.7609H141.798C141.729 41.4563 141.52 42.0822 141.103 42.569C140.686 42.9862 140.06 43.2644 139.086 43.2644C137.834 43.2644 136.86 42.6384 136.513 41.4563C136.304 40.8304 136.095 39.9959 136.095 38.9528C136.095 37.9097 136.165 36.9362 136.513 36.3799C137.139 35.1282 137.973 34.5023 139.364 34.5023ZM131.088 31.373C122.812 31.373 123.368 38.6747 123.368 38.6747V46.046H127.124V39.1615C127.124 38.0488 127.193 37.1448 127.541 36.6581C128.028 35.754 129.002 35.1977 130.532 35.1977H130.949C131.158 35.1977 131.366 35.1977 131.575 35.2673V31.5121H131.297C131.227 31.373 131.227 31.373 131.088 31.373ZM112.449 35.1977C112.936 34.7109 113.701 34.3632 114.675 34.3632C115.51 34.3632 116.275 34.5718 116.9 35.0586C117.526 35.5454 117.805 36.3103 117.805 37.2839H111.406C111.615 36.4494 111.893 35.754 112.449 35.1977ZM117.457 42.0821C117.387 42.2908 117.179 42.4994 116.97 42.569C116.483 42.9862 115.718 43.0557 114.884 43.0557C114.049 43.0557 113.423 42.9862 112.867 42.569C111.963 42.0822 111.406 40.9695 111.406 39.6482H121.699C121.699 38.3965 121.699 37.423 121.63 36.8666C121.421 35.754 121.143 34.7805 120.517 33.946C119.891 33.042 119.056 32.277 118.152 31.8598C117.248 31.4425 116.066 31.2339 114.814 31.2339C112.728 31.2339 111.059 31.8598 109.807 33.2506C108.555 34.5718 107.79 36.4494 107.79 38.8833C107.79 41.4563 108.485 43.4034 110.015 44.516C111.476 45.6287 113.145 46.3241 115.023 46.3241C117.318 46.3241 119.126 45.6287 120.308 44.2379C121.004 43.5425 121.421 42.7775 121.56 42.0126L117.457 42.0821ZM106.19 45.9764H102.713V37.423C102.713 36.5885 102.504 34.85 100.209 34.85C98.7487 34.85 97.636 35.8931 97.636 37.423V45.9764H94.1586V37.423C94.1586 36.5885 93.95 34.85 91.6549 34.85C90.1945 34.85 89.1512 35.8931 89.1512 37.423V45.9764H85.6738V37.4925C85.6738 33.946 87.9689 31.2339 91.5853 31.2339C93.3935 31.2339 94.8541 31.9293 95.8973 33.2506C96.9405 31.9989 98.4009 31.2339 100.209 31.2339C103.965 31.2339 106.121 33.8069 106.121 37.4925L106.19 45.9764Z" fill="white"/>
<path d="M43.1043 27.3401C61.3952 27.3401 76.2087 37.0757 76.2087 48.967V50.2188C76.2087 62.8751 63.3425 73.0974 43.1043 73.0974C22.9357 73.0974 10 62.8751 10 50.2188V48.967C10 37.0757 24.8135 27.3401 43.1043 27.3401Z" fill="white"/>
<path d="M74.8863 48.9666C74.8863 60.1626 60.6291 69.2723 43.1033 69.2723C25.5774 69.2723 11.3203 60.1626 11.3203 48.9666C11.3203 37.7707 25.5774 28.6609 43.1033 28.6609C60.6291 28.6609 74.8863 37.7707 74.8863 48.9666Z" fill="#141414"/>
<path d="M32.5886 42.5693C32.5886 42.5693 32.2408 42.9169 32.4495 43.1951C32.9363 43.8209 34.4664 44.1687 36.066 43.821C36.9701 43.6123 38.2219 42.6388 39.3346 41.7348C40.5865 40.7612 41.8383 39.7181 43.0902 39.3704C44.4116 38.9531 45.2462 39.1618 45.8025 39.3009C46.4285 39.5095 47.1239 39.9267 48.3062 40.7612C50.4622 42.3606 59.2251 50.0101 60.7551 51.3313C61.9374 50.775 67.3621 48.4802 74.7341 46.8112C74.1082 42.917 71.7436 39.3009 68.1271 36.3802C63.1197 38.4664 56.93 39.5791 50.8794 36.6584C50.8794 36.6584 47.6108 35.1284 44.3421 35.198C39.5433 35.3371 37.5265 37.3538 35.301 39.579L32.5886 42.5693Z" fill="white"/>
<path d="M60.4074 52.1658C60.3378 52.0963 50.1144 43.1952 47.8194 41.4567C46.498 40.4831 45.7329 40.2049 44.9679 40.0659C44.5506 39.9963 43.9942 40.0659 43.577 40.205C42.5338 40.4831 41.0733 41.4567 39.8215 42.4302C38.5001 43.4733 37.3177 44.4469 36.205 44.6556C34.7445 45.0033 33.0059 44.586 32.2409 44.0297C31.8931 43.8211 31.6845 43.5429 31.5454 43.2648C31.2672 42.5694 31.8236 42.013 31.8931 41.9435L34.675 38.8837L35.6487 37.9101C34.7446 38.0492 33.9099 38.2579 33.0754 38.4665C32.0322 38.7446 31.0586 39.0228 30.0849 39.0228C29.6676 39.0228 27.4421 38.6751 27.0248 38.536C24.4516 37.8406 22.226 37.1452 18.8878 35.6154C14.9236 38.6056 12.2113 42.2912 11.4463 46.3941C12.0027 46.5331 12.9763 46.8113 13.324 46.8808C22.3651 48.8975 25.147 50.9837 25.7034 51.4009C26.2598 50.7751 27.0248 50.4273 27.9289 50.4273C28.9025 50.4273 29.8067 50.9141 30.363 51.6791C30.8499 51.2618 31.6149 50.9142 32.5191 50.9142C32.9363 50.9142 33.3536 50.9837 33.8404 51.1227C34.8836 51.4704 35.3705 52.1659 35.6487 52.7917C35.9964 52.6526 36.4136 52.5135 36.9005 52.5135C37.3873 52.5135 37.8742 52.6526 38.4306 52.8612C40.0997 53.5566 40.3778 55.2256 40.2388 56.4774H40.5865C42.6034 56.4774 44.2029 58.0768 44.2029 60.0934C44.2029 60.7193 44.0638 61.2756 43.7856 61.7624C44.342 62.0406 45.6634 62.7359 46.9152 62.5968C47.8889 62.4578 48.2366 62.1796 48.3757 61.971C48.4453 61.8319 48.5843 61.6928 48.4452 61.5537L45.872 58.7026C45.872 58.7026 45.4547 58.2853 45.5938 58.1463C45.7329 58.0072 46.0111 58.2158 46.2198 58.3549C47.5412 59.4676 49.0712 61.067 49.0712 61.067C49.0712 61.067 49.2103 61.2756 49.7667 61.4147C50.2535 61.4842 51.1576 61.4146 51.7835 60.9279C51.9226 60.7888 52.1313 60.6497 52.2008 60.5106C52.8267 59.6762 52.1313 58.8417 52.1313 58.8417L49.1407 55.5038C49.1407 55.5038 48.7235 55.0865 48.8626 54.9474C49.0017 54.8084 49.2798 55.017 49.4885 55.1561C50.4621 55.921 51.7836 57.3118 53.0354 58.5636C53.3136 58.7722 54.4263 59.4675 55.8868 58.494C56.7909 57.8681 56.9996 57.1727 56.93 56.6164C56.8605 55.921 56.3041 55.3647 56.3041 55.3647L52.2703 51.2619C52.2703 51.2619 51.8531 50.9141 51.9922 50.7055C52.1313 50.5664 52.4094 50.7751 52.6181 50.9142C53.9395 52.0268 57.4168 55.2256 57.4168 55.2256C57.4864 55.2256 58.6687 56.1297 60.1987 55.1561C60.7551 54.8084 61.1029 54.3216 61.1029 53.6958C61.1724 52.7917 60.4074 52.1658 60.4074 52.1658Z" fill="white"/>
<path d="M40.7258 57.3812C40.0999 57.3812 39.4045 57.7289 39.3349 57.7289C39.2654 57.7289 39.3349 57.4507 39.4044 57.3117C39.474 57.1726 40.3086 54.6692 38.2917 53.7651C36.7617 53.0697 35.788 53.8347 35.5098 54.1824C35.4403 54.2519 35.3708 54.2519 35.3708 54.1824C35.3708 53.7651 35.1621 52.5134 33.7711 52.0962C31.8238 51.4703 30.6415 52.8611 30.2938 53.3479C30.1547 52.2353 29.2506 51.4008 28.0683 51.4008C26.8165 51.4008 25.8428 52.3743 25.8428 53.626C25.8428 54.8777 26.8165 55.8513 28.0683 55.8513C28.6943 55.8513 29.181 55.6427 29.5983 55.2255V55.295C29.5288 55.8513 29.3201 57.868 31.4065 58.6329C32.2411 58.9806 32.9366 58.7025 33.5626 58.2852C33.7712 58.1462 33.7711 58.2157 33.7711 58.3548C33.7016 58.8415 33.7712 59.9541 35.3708 60.58C36.5531 61.0668 37.2485 60.58 37.6658 60.1628C37.8744 59.9542 37.944 60.0238 37.944 60.3019C38.0135 61.7623 39.2654 62.9444 40.7258 62.9444C42.2559 62.9444 43.5077 61.6927 43.5077 60.1628C43.5077 58.6329 42.2559 57.3812 40.7258 57.3812Z" fill="white"/>
<path d="M60.8245 51.1224C57.6949 48.4104 50.462 42.0823 48.4451 40.6219C47.3324 39.7874 46.5674 39.3007 45.8719 39.1616C45.5938 39.0921 45.1764 38.9529 44.6201 38.9529C44.1332 38.9529 43.5769 39.0225 43.0205 39.2311C41.7687 39.6484 40.5168 40.6219 39.265 41.5955L39.1954 41.665C38.0827 42.569 36.9004 43.4731 35.9963 43.6817C35.579 43.7512 35.2312 43.8207 34.8139 43.8207C33.8403 43.8207 32.9362 43.5426 32.5885 43.1253C32.5189 43.0558 32.5884 42.9167 32.7275 42.7776L35.5094 39.7875C37.6654 37.6317 39.6823 35.615 44.4115 35.4759H44.6201C47.541 35.4759 50.462 36.7972 50.8098 36.9363C53.5916 38.2575 56.3735 38.9529 59.2249 38.9529C62.2155 38.9529 65.2756 38.188 68.4747 36.7277C68.127 36.4495 67.7097 36.1018 67.362 35.8236C64.5106 37.0754 61.8677 37.6317 59.2249 37.6317C56.5821 37.6317 53.9394 37.0058 51.3662 35.7541C51.2271 35.6846 48.0279 34.1547 44.6201 34.1547H44.3419C40.3778 34.2242 38.1523 35.615 36.6918 36.8667C35.2313 36.8667 33.9794 37.284 32.8667 37.5621C31.893 37.8403 30.9889 38.049 30.1543 38.049H29.1111C28.1375 38.049 23.2692 36.8668 19.4441 35.3369C19.0268 35.6151 18.6791 35.8932 18.2618 36.1713C22.2955 37.8403 27.2334 39.092 28.7634 39.2311C29.1807 39.2311 29.6675 39.3006 30.1543 39.3006C31.1975 39.3006 32.1712 39.0225 33.2144 38.7444C33.8403 38.6053 34.4662 38.3966 35.0922 38.2575L34.5357 38.8139L31.7539 41.8737C31.5452 42.0823 31.0584 42.7081 31.3366 43.4035C31.4757 43.6817 31.7539 43.9598 32.1016 44.238C32.7971 44.6552 33.9794 45.003 35.0922 45.003C35.5094 45.003 35.9267 44.9334 36.2744 44.8638C37.4567 44.5857 38.7086 43.6122 39.9604 42.5691C41.0037 41.7346 42.4641 40.6914 43.5769 40.3437C43.9246 40.2742 44.2723 40.2047 44.6201 40.2047H44.8983C45.6633 40.2742 46.3588 40.5524 47.6801 41.526C49.9752 43.2645 60.1986 52.1655 60.2681 52.2351C60.2681 52.2351 60.8941 52.7914 60.8941 53.765C60.8941 54.2518 60.5464 54.7386 60.0595 55.0863C59.6423 55.3644 59.1554 55.5035 58.7381 55.5035C58.0427 55.5035 57.5559 55.1558 57.5559 55.1558C57.5559 55.1558 54.009 51.9569 52.7571 50.8443C52.5485 50.6357 52.3398 50.4966 52.1312 50.4966C51.9921 50.4966 51.9225 50.5662 51.853 50.6357C51.6443 50.9139 51.853 51.2615 52.1312 51.4701L56.2345 55.573C56.2345 55.573 56.7212 56.0598 56.7908 56.6857C56.7908 57.3811 56.5127 57.9374 55.8172 58.3546C55.3304 58.7023 54.8435 58.8414 54.3566 58.8414C53.7307 58.8414 53.3135 58.5632 53.1744 58.4937L52.5484 57.9374C51.5052 56.8943 50.3925 55.7817 49.558 55.1558C49.3493 55.0167 49.1407 54.8081 48.932 54.8081C48.8625 54.8081 48.7234 54.8081 48.6538 54.9472C48.5843 55.0167 48.5147 55.2253 48.7234 55.573C48.7929 55.7121 48.932 55.7817 48.932 55.7817L51.9225 59.1196C51.9225 59.1196 52.5485 59.8845 51.9921 60.5104L51.853 60.6495L51.5748 60.9276C51.0879 61.3448 50.3925 61.4144 50.1143 61.4144H49.697C49.4188 61.3449 49.2102 61.2753 49.0711 61.1362C48.932 60.9276 47.402 59.4673 46.1501 58.4242C46.0111 58.2851 45.8024 58.146 45.5937 58.146C45.5242 58.146 45.3851 58.2156 45.3155 58.2851C45.1069 58.5633 45.4546 58.9805 45.5937 59.1196L48.167 61.9012C48.167 61.9012 48.167 61.9707 48.0974 62.1098C48.0279 62.2489 47.6802 62.527 46.7761 62.6661H46.4284C45.4547 62.6661 44.481 62.1793 43.9246 61.9012C44.1332 61.4144 44.2723 60.8581 44.2723 60.3018C44.2723 58.2156 42.6033 56.5466 40.5169 56.5466H40.3777C40.4473 55.573 40.3082 53.765 38.4304 53.0001C37.8741 52.7915 37.3872 52.6524 36.8308 52.6524C36.4135 52.6524 36.0658 52.7219 35.6486 52.8609C35.2313 52.096 34.6053 51.5397 33.7707 51.2616C33.2839 51.1225 32.8666 51.0529 32.3798 51.0529C31.6148 51.0529 30.9193 51.2615 30.2934 51.7483C29.9913 51.3763 29.6094 51.077 29.1761 50.8724C28.7427 50.6678 28.269 50.5631 27.7897 50.5662C26.9552 50.5662 26.1206 50.9138 25.5642 51.4701C24.7992 50.8443 21.6696 48.8972 13.2544 46.95C12.8371 46.8805 11.933 46.6024 11.3766 46.3938C11.3071 46.811 11.2375 47.2978 11.168 47.7846C11.168 47.7846 12.6981 48.1323 13.0458 48.2018C21.6001 50.0794 24.4515 52.096 24.9383 52.4437C24.7992 52.861 24.7296 53.2782 24.7296 53.6955C24.7296 55.5035 26.1901 56.8943 27.9288 56.8943C28.1374 56.8943 28.3461 56.8943 28.5547 56.8248C28.8329 58.146 29.6675 59.1196 30.9889 59.6064C31.4061 59.7455 31.7539 59.815 32.1016 59.815C32.3102 59.815 32.5885 59.815 32.8667 59.7454C33.0753 60.3713 33.6316 61.1362 34.8835 61.623C35.3008 61.8316 35.7181 61.9012 36.1354 61.9012C36.4831 61.9012 36.8308 61.8317 37.109 61.6926C37.6654 63.0834 39.0564 64.0569 40.5864 64.0569C41.6296 64.0569 42.6033 63.6397 43.2987 62.8747C43.9247 63.2224 45.1765 63.8483 46.4979 63.8483H46.9847C48.3061 63.7092 48.8624 63.1529 49.1406 62.8052C49.2102 62.7357 49.2102 62.6661 49.2798 62.5966C49.5579 62.6661 49.9057 62.7357 50.323 62.7357C51.0184 62.7357 51.7139 62.527 52.4094 61.9707C53.1048 61.4839 53.5916 60.7885 53.5916 60.1627C53.8003 60.2322 54.0785 60.2322 54.2871 60.2322C54.9826 60.2322 55.7476 60.0236 56.4431 59.5368C57.7644 58.7023 57.9731 57.5202 57.9731 56.8248C58.1818 56.8943 58.46 56.8943 58.6686 56.8943C59.3641 56.8943 60.0596 56.6857 60.6855 56.2684C61.5201 55.7121 62.0069 54.9472 62.0764 54.0432C62.146 53.4173 61.9373 52.7914 61.6591 52.2351C63.8846 51.2615 68.892 49.4535 74.873 48.0627C74.873 47.5759 74.8035 47.1586 74.6644 46.6719C67.5011 48.2018 62.1459 50.4966 60.8245 51.1224ZM40.7254 62.7357C39.3345 62.7357 38.2218 61.623 38.1522 60.2322C38.1522 60.0931 38.1522 59.815 37.874 59.815C37.7349 59.815 37.6654 59.8845 37.5263 59.9541C37.2481 60.2322 36.8308 60.5104 36.2744 60.5104C35.9962 60.5104 35.7181 60.4409 35.4399 60.3018C33.9794 59.6759 33.9099 58.7023 33.9794 58.2851C33.9794 58.146 33.9794 58.0765 33.9099 58.0069L33.8403 57.9374H33.7707C33.7012 57.9374 33.6316 57.9374 33.4925 58.0765C33.0753 58.3546 32.658 58.4937 32.2407 58.4937C32.0321 58.4937 31.7539 58.4242 31.5453 58.3546C29.598 57.5897 29.737 55.7816 29.8761 55.2253C29.8761 55.0862 29.8761 55.0167 29.8066 54.9472L29.6675 54.8081L29.5284 54.9472C29.1111 55.2949 28.6243 55.5035 28.1375 55.5035C27.0247 55.5035 26.1206 54.5995 26.1206 53.4868C26.1206 52.3742 27.0247 51.4701 28.1375 51.4701C29.1111 51.4701 30.0152 52.2351 30.1543 53.2086L30.2239 53.765L30.5021 53.2782C30.5021 53.2086 31.3367 51.957 32.8667 52.0265C33.1449 52.0265 33.423 52.096 33.7707 52.1655C34.953 52.5132 35.1617 53.6259 35.1617 54.0432C35.1617 54.3213 35.3704 54.3213 35.3704 54.3213C35.4399 54.3213 35.579 54.2518 35.579 54.1822C35.7876 53.9736 36.2745 53.5564 37.0395 53.5564C37.3872 53.5564 37.735 53.6259 38.1522 53.8345C40.03 54.669 39.1954 57.0333 39.1954 57.1029C39.0564 57.5201 38.9868 57.6592 39.1954 57.7983H39.3345C39.4041 57.7983 39.5431 57.7983 39.6822 57.7288C39.9604 57.6592 40.3082 57.5202 40.6559 57.5202C42.0469 57.5202 43.2291 58.7023 43.2291 60.0931C43.2987 61.623 42.1164 62.7357 40.7254 62.7357Z" fill="#141414"/>
</g>
</svg>
