<svg width="200" height="100" viewBox="0 0 200 100" fill="none" xmlns="http://www.w3.org/2000/svg">
<mask id="mask0_59_1099" style="mask-type:alpha" maskUnits="userSpaceOnUse" x="0" y="0" width="200" height="100">
<rect width="200" height="100" fill="#D9D9D9"/>
</mask>
<g mask="url(#mask0_59_1099)">
<path d="M60.2742 75.1369H17.6986C16.6876 75.1369 15.6866 74.9379 14.7525 74.551C13.8185 74.1642 12.9698 73.5972 12.2549 72.8824C11.54 72.1675 10.9729 71.3189 10.586 70.3849C10.1991 69.4509 10 68.4498 10 67.4388V32.5601C10 31.5492 10.1991 30.5481 10.586 29.6142C10.9728 28.6802 11.5399 27.8316 12.2547 27.1168C12.9695 26.4019 13.8182 25.8349 14.7521 25.448C15.6861 25.0612 16.6871 24.8621 17.698 24.8621H52.5762C54.6177 24.8622 56.5756 25.6733 58.0191 27.117C59.4627 28.5606 60.2736 30.5185 60.2736 32.5601L60.2742 75.1369Z" fill="white"/>
<path d="M33.6187 71.6975V64.5884L30.1748 61.9675L33.5648 62.7621L32.605 59.2324L34.7303 60.4496L35.6414 57.7151L36.8586 61.9681L41.1121 61.3601L37.4665 64.331V71.6975L40.6259 75.1379H30.3545L33.6187 71.6975Z" fill="#141414"/>
<path d="M55.0035 47.8232C54.5256 47.6234 54.0012 47.5617 53.4899 47.6451C52.9786 47.7285 52.501 47.9537 52.1114 48.295C50.5778 49.4774 50.845 51.7569 50.845 51.7569C51.3205 51.8615 51.813 51.8615 52.2885 51.7568C52.764 51.6522 53.211 51.4453 53.5986 51.1506C54.1415 50.8029 54.5664 50.2988 54.8172 49.7049C55.068 49.1109 55.1329 48.4548 55.0035 47.8232Z" fill="#141414"/>
<path d="M46.6052 44.6469C46.5852 45.2152 46.701 45.7802 46.9429 46.2948C47.1848 46.8095 47.5459 47.2591 47.9962 47.6063C49.5611 48.8414 51.5456 47.7917 51.5456 47.7917C51.5528 47.2519 51.4376 46.7174 51.2086 46.2285C50.9796 45.7395 50.6429 45.3088 50.2236 44.9686C48.7381 43.8054 46.6052 44.6469 46.6052 44.6469Z" fill="#141414"/>
<path d="M50.3911 38.7354C50.0623 39.162 49.8396 39.6607 49.7414 40.1904C49.6433 40.7201 49.6725 41.2655 49.8266 41.7816C50.3314 43.6299 52.4006 43.9991 52.4006 43.9991C52.7033 43.5871 52.9093 43.1121 53.0033 42.6095C53.0973 42.1069 53.0769 41.5896 52.9436 41.096C52.4597 39.3503 50.3911 38.7354 50.3911 38.7354Z" fill="#141414"/>
<path d="M45.8714 34.8776C45.8714 34.8776 44.4039 34.4139 43.1028 36.1654C42.785 36.6469 42.5755 37.1917 42.4887 37.762C42.4019 38.3324 42.44 38.9148 42.6003 39.469C43.1531 39.5438 43.7159 39.465 44.227 39.2413C44.7382 39.0177 45.1779 38.6577 45.4982 38.2009C45.8559 37.7329 46.0796 37.1764 46.1453 36.591C46.211 36.0056 46.1164 35.4133 45.8714 34.8776Z" fill="#141414"/>
<path d="M40.6207 32.2941C40.6207 32.2941 39.0037 32.3613 38.3024 34.5742C38.1462 35.1619 38.1201 35.7767 38.2259 36.3756C38.3317 36.9745 38.5669 37.5431 38.915 38.0418C39.494 37.9138 40.0276 37.6317 40.4595 37.2253C40.8914 36.819 41.2054 36.3035 41.3684 35.7333C41.5703 35.1465 41.6074 34.5155 41.4755 33.9091C41.3437 33.3027 41.048 32.7441 40.6207 32.2941Z" fill="#141414"/>
<path d="M35.834 31.3987C35.3764 31.7307 34.994 32.1557 34.7119 32.6456C34.4297 33.1356 34.2542 33.6796 34.1967 34.2421C33.9863 36.1814 35.6914 37.4095 35.6914 37.4095C36.2158 37.1241 36.6551 36.7048 36.9646 36.1943C37.2742 35.6838 37.4428 35.1004 37.4534 34.5035C37.4983 33.8867 37.3706 33.2695 37.0846 32.7211C36.7986 32.1727 36.3656 31.7148 35.834 31.3987Z" fill="#141414"/>
<path d="M29.0024 33.0212C28.9016 33.5809 28.9175 34.1553 29.0492 34.7086C29.1808 35.2618 29.4253 35.7819 29.7674 36.2361C30.9347 37.7686 32.9824 37.4005 32.9824 37.4005C33.1392 36.8256 33.1408 36.2193 32.9869 35.6435C32.8331 35.0678 32.5293 34.5431 32.1066 34.123C31.2543 33.3663 30.141 32.9712 29.0024 33.0212Z" fill="#141414"/>
<path d="M37.7698 39.4352C37.3702 39.0503 36.8833 38.7679 36.3508 38.6123C35.8182 38.4566 35.2559 38.4323 34.7119 38.5415C32.7147 38.8521 32.0679 40.9033 32.0679 40.9033C33.0289 41.5427 34.1869 41.8174 35.3327 41.6776C37.1491 41.404 37.7698 39.4352 37.7698 39.4352Z" fill="#141414"/>
<path d="M29.2187 46.2878C28.9785 46.7745 28.8535 47.31 28.8535 47.8527C28.8535 48.3954 28.9785 48.9309 29.2187 49.4176C29.474 49.9508 29.8659 50.4069 30.3545 50.7397C30.8431 51.0724 31.4111 51.27 32.0007 51.3123C32.3211 50.228 32.2656 49.0672 31.8431 48.0185C31.5952 47.5256 31.2225 47.1064 30.7619 46.8028C30.3014 46.4991 29.7693 46.3215 29.2187 46.2878Z" fill="#141414"/>
<path d="M23.6247 35.4606C23.5782 36.0264 23.6493 36.5957 23.8335 37.1328C24.0177 37.6698 24.3111 38.1629 24.6951 38.581C26.0009 39.9889 27.9988 39.4116 27.9988 39.4116C28.101 38.8253 28.0452 38.2224 27.8371 37.6649C27.6289 37.1074 27.276 36.6154 26.8147 36.2395C25.8931 35.5749 24.7488 35.2955 23.6247 35.4606Z" fill="#141414"/>
<path d="M19.9867 39.0347C19.5642 39.3952 19.2245 39.8427 18.9907 40.3465C18.757 40.8503 18.6347 41.3986 18.6322 41.954C18.5429 43.9687 20.6219 45.133 20.6219 45.133C21.0352 44.7114 21.3562 44.2084 21.5646 43.6561C21.7731 43.1037 21.8644 42.514 21.8326 41.9245C21.6231 40.7552 20.9595 39.7163 19.9867 39.0347Z" fill="#141414"/>
<path d="M22.9305 41.4235C22.7842 41.9944 22.7564 42.5892 22.8488 43.1712C22.9412 43.7533 23.1518 44.3102 23.4678 44.8077C24.5452 46.4885 26.6792 46.281 26.6792 46.281C26.8496 45.0891 26.6231 43.8743 26.0347 42.8238C25.0633 41.296 22.9305 41.4235 22.9305 41.4235Z" fill="#141414"/>
<path d="M27.5889 41.9076C27.6247 42.4631 27.8075 42.9991 28.1185 43.4607C28.4295 43.9223 28.8576 44.293 29.3589 44.5349C31.1556 45.5028 33.1187 44.1837 33.1187 44.1837C33.0127 43.6679 32.7931 43.1822 32.4759 42.7619C32.1587 42.3417 31.7518 41.9974 31.2849 41.754C29.6626 40.8725 27.5889 41.9076 27.5889 41.9076Z" fill="#141414"/>
<path d="M40.0125 41.4835C39.5887 41.8511 39.2701 42.3246 39.0893 42.8557C38.9086 43.3867 38.8721 43.9563 38.9837 44.5061C39.2735 46.5804 41.4504 47.4648 41.4504 47.4648C42.1108 46.6286 42.4126 45.5645 42.2897 44.5061C42.2519 43.8334 42.0153 43.1872 41.6099 42.6491C41.2045 42.111 40.6486 41.7054 40.0125 41.4835Z" fill="#141414"/>
<path d="M44.1919 45.8429C43.7388 46.1721 43.3812 46.6157 43.1558 47.1285C42.9305 47.6412 42.8454 48.2047 42.9093 48.7611C43.0252 50.8522 45.1187 51.9314 45.1187 51.9314C45.4865 51.5527 45.7726 51.1025 45.9594 50.6088C46.1461 50.115 46.2295 49.5881 46.2042 49.0607C46.2435 48.382 46.0709 47.7078 45.7105 47.1314C45.35 46.555 44.8194 46.1047 44.1919 45.8429Z" fill="#141414"/>
<path d="M48.2427 50.8181C47.7125 50.8208 47.1932 50.9693 46.7416 51.2473C46.2901 51.5254 45.9238 51.9223 45.6827 52.3946C44.6615 54.1067 45.7337 56.1387 45.7337 56.1387C46.2248 56.0486 46.6911 55.8553 47.1018 55.5716C47.5126 55.2878 47.8584 54.9201 48.1164 54.4927C48.5066 53.9648 48.7275 53.331 48.7501 52.675C48.7726 52.019 48.5957 51.3715 48.2427 50.8181Z" fill="#141414"/>
<path d="M51.7774 53.2173C51.051 53.4292 50.4065 53.8578 49.93 54.4457C49.4536 55.0337 49.168 55.753 49.1113 56.5076C50.1424 57.2321 52.2683 56.8664 53.1029 56.0573C53.7689 55.3893 54.1438 54.4851 54.1462 53.5419C53.0826 53.0626 52.4323 53.0098 51.7774 53.2173Z" fill="#141414"/>
<path d="M49.41 58.2143C48.6945 58.3103 48.026 58.6244 47.4954 59.1139C46.9649 59.6034 46.598 60.2445 46.4448 60.9499C47.3241 61.7805 49.3862 61.7387 50.2828 61.0913C51.0035 60.5511 51.4802 59.7468 51.6083 58.8553C50.6642 58.252 50.0556 58.1094 49.41 58.2143Z" fill="#141414"/>
<path d="M43.8324 57.7037C43.1013 57.8978 42.4468 58.3105 41.9567 58.8867C41.4665 59.4629 41.1641 60.1751 41.0898 60.928C42.1006 61.6745 44.2341 61.3661 45.089 60.5802C45.7711 59.9274 46.1681 59.0318 46.1937 58.088C45.1423 57.5844 44.4926 57.5189 43.8324 57.7037Z" fill="#141414"/>
<path d="M40.3335 55.1391C39.6058 54.9208 38.8262 54.9504 38.117 55.2231C37.4079 55.4958 36.8094 55.9963 36.4155 56.6461C36.903 57.8313 38.502 58.5981 40.0055 58.5007C40.4697 58.4482 40.9135 58.2805 41.2965 58.0129C41.6796 57.7453 41.9896 57.3862 42.1986 56.9683C41.5541 55.9778 40.9896 55.3333 40.3335 55.1391Z" fill="#141414"/>
<path d="M30.4258 57.369C31.1499 57.5568 31.9146 57.5119 32.6116 57.2406C33.3087 56.9692 33.9025 56.4853 34.309 55.8575C33.7544 54.7029 31.7316 53.9391 30.6188 54.2219C30.1747 54.3432 29.7597 54.5527 29.3984 54.838C29.0371 55.1233 28.737 55.4785 28.5161 55.8824C29.2134 56.8393 29.7582 57.2131 30.4258 57.369Z" fill="#141414"/>
<path d="M27.8657 49.9117C27.2819 50.1192 26.7658 50.4821 26.3729 50.9611C25.98 51.4402 25.7253 52.0174 25.6361 52.6306C25.2739 55.0787 26.5147 55.5157 26.5147 55.5157C27.6275 55.4334 28.5027 53.5376 28.5027 53.5376C29.2967 50.9022 27.8657 49.9117 27.8657 49.9117Z" fill="#141414"/>
<path d="M21.0244 49.3367C21.3438 49.8139 21.7861 50.196 22.3047 50.4425C22.8232 50.6891 23.3987 50.791 23.9704 50.7376C24.5823 50.7167 25.1704 50.4956 25.6445 50.1082C26.1186 49.7208 26.4524 49.1885 26.5948 48.5931C26.2063 48.2233 25.7412 47.9434 25.2325 47.7731C24.7238 47.6028 24.184 47.5464 23.6511 47.6078C22.1314 47.8194 21.0244 49.3367 21.0244 49.3367Z" fill="#141414"/>
<path d="M16.6475 45.465C16.3917 45.9607 16.2442 46.5052 16.2149 47.0623C16.1856 47.6194 16.2752 48.1763 16.4777 48.6961C17.1437 50.5931 19.4956 50.8406 19.4956 50.8406C19.4956 50.8406 20.2989 48.9796 19.4243 47.3979C19.1146 46.906 18.7093 46.4815 18.2322 46.1494C17.7552 45.8174 17.2163 45.5846 16.6475 45.465Z" fill="#141414"/>
<path d="M15.2168 51.7402C15.1807 52.2941 15.2629 52.8493 15.458 53.3689C15.6531 53.8886 15.9565 54.3607 16.3481 54.7541C17.7101 56.1995 19.9543 55.42 19.9543 55.42C19.9543 55.42 19.9444 53.3804 18.5163 52.3134C18.0347 51.9975 17.4934 51.7836 16.9259 51.685C16.3584 51.5864 15.7767 51.6052 15.2168 51.7402Z" fill="#141414"/>
<path d="M19.4307 59.9639C19.7502 60.4407 20.1925 60.8223 20.7109 61.0686C21.2294 61.3149 21.8047 61.4166 22.3761 61.363C22.9884 61.3429 23.5771 61.1221 24.0516 60.7346C24.5261 60.3472 24.8601 59.8145 25.0022 59.2186C24.613 58.8494 24.1477 58.5698 23.6389 58.3996C23.1302 58.2294 22.5904 58.1726 22.0573 58.2333C20.54 58.4477 19.4307 59.9639 19.4307 59.9639Z" fill="#141414"/>
<path d="M25.6167 62.3564C25.6167 62.3564 27.0506 63.3417 28.9366 62.0666C30.8764 60.7504 30.4707 58.9885 30.4707 58.9885C29.9793 58.6996 29.4115 58.5677 28.8431 58.6102C28.2747 58.6528 27.7328 58.8679 27.29 59.2267C26.0247 60.1175 25.6167 62.3564 25.6167 62.3564Z" fill="#141414"/>
<path d="M33.3554 52.45C33.0482 51.6544 33.0482 50.773 33.3554 49.9775C33.8078 49.9182 34.2676 49.9537 34.7056 50.0816C35.1436 50.2095 35.5503 50.427 35.8997 50.7205C36.7865 51.4687 37.4136 53.6033 36.8555 54.7573C36.1035 54.7897 35.3605 54.5842 34.7321 54.17C34.1037 53.7557 33.6219 53.1538 33.3554 52.45Z" fill="#141414"/>
<path d="M42.5954 51.4468C43.1184 52.1166 43.3725 52.9577 43.3077 53.8051C42.8965 54.0005 42.4492 54.1086 41.9941 54.1225C41.539 54.1363 41.086 54.0557 40.6636 53.8856C39.603 53.4434 38.3888 51.5998 38.5893 50.3264C39.2893 50.0618 40.0555 50.0278 40.7761 50.2293C41.4968 50.4309 42.1342 50.8574 42.5954 51.4468Z" fill="#141414"/>
<path d="M35.9399 42.8057C36.4148 43.1359 36.8109 43.5668 37.0999 44.0678C37.389 44.5687 37.5638 45.1273 37.612 45.7037C37.7331 48.0017 36.2627 48.8798 36.2627 48.8798C35.7573 48.563 35.3355 48.1293 35.033 47.6152C34.7304 47.1012 34.5559 46.5219 34.5243 45.9263C34.4926 45.3307 34.6047 44.7361 34.8511 44.1929C35.0975 43.6497 35.4709 43.1743 35.9399 42.8057Z" fill="#141414"/>
<path d="M48.1177 41.2432C47.9509 41.7984 47.6315 42.2956 47.1959 42.6781C46.7603 43.0607 46.226 43.3131 45.6539 43.4068C45.1065 43.5064 44.5422 43.4545 44.0221 43.2569C43.502 43.0592 43.0458 42.7233 42.7026 42.2853C42.9451 41.773 43.2999 41.3219 43.7406 40.9656C44.1812 40.6092 44.6965 40.3566 45.2482 40.2266C47.3532 39.8655 48.1177 41.2432 48.1177 41.2432Z" fill="#141414"/>
<path d="M21.8237 52.1452C21.8237 52.1452 23.5851 51.783 24.7216 54.2966C24.7216 54.2966 25.3099 56.3339 24.5072 57.2334C24.5072 57.2334 23.2634 57.8518 21.9165 55.8018C21.5817 55.254 21.3968 54.6277 21.3806 53.9859C21.3643 53.3441 21.5171 52.7093 21.8237 52.1452Z" fill="#141414"/>
<path d="M98.6568 43.4052L100.573 47.7845C100.602 47.8502 100.649 47.906 100.709 47.9452C100.769 47.9845 100.839 48.0054 100.91 48.0054H103.586C103.647 48.0054 103.708 47.9899 103.762 47.9604C103.816 47.9308 103.862 47.8881 103.896 47.8362C103.929 47.7843 103.949 47.7248 103.953 47.6632C103.958 47.6016 103.947 47.5399 103.921 47.4837L96.7795 31.6953C96.7502 31.6309 96.703 31.5762 96.6435 31.5379C96.584 31.4995 96.5147 31.4791 96.4439 31.4791H93.7657C93.6949 31.4791 93.6256 31.4994 93.566 31.5378C93.5065 31.5761 93.4593 31.6308 93.4301 31.6953L86.3934 47.2484V31.8477C86.3935 31.7993 86.384 31.7513 86.3655 31.7066C86.347 31.6618 86.3198 31.6212 86.2856 31.5869C86.2513 31.5527 86.2107 31.5255 86.1659 31.507C86.1212 31.4885 86.0732 31.4791 86.0248 31.4791H83.6809C83.6325 31.4791 83.5845 31.4885 83.5398 31.507C83.495 31.5255 83.4543 31.5527 83.4201 31.5869C83.3859 31.6212 83.3587 31.6618 83.3402 31.7066C83.3217 31.7513 83.3122 31.7993 83.3123 31.8477V43.4203L73.7724 31.6159C73.7378 31.5732 73.6942 31.5388 73.6447 31.5151C73.5952 31.4915 73.541 31.4792 73.4861 31.4791H70.7661C70.6683 31.4791 70.5746 31.518 70.5054 31.5871C70.4363 31.6562 70.3975 31.75 70.3975 31.8477V47.6373C70.3975 47.7351 70.4363 47.8288 70.5054 47.898C70.5746 47.9671 70.6683 48.0059 70.7661 48.0059H73.1093C73.2071 48.0059 73.3008 47.9671 73.37 47.898C73.4391 47.8288 73.4779 47.7351 73.4779 47.6373V36.063L83.0179 47.8692C83.0525 47.9119 83.0962 47.9464 83.1458 47.9701C83.1955 47.9937 83.2498 48.006 83.3048 48.0059H86.0253C86.059 47.958 86.1038 47.9188 86.1558 47.8918C86.2078 47.8648 86.2655 47.8507 86.3241 47.8507C86.3827 47.8507 86.4405 47.8648 86.4925 47.8918C86.5445 47.9188 86.5892 47.958 86.6229 48.0059H89.1435C89.2151 48.0059 89.2852 47.9851 89.3451 47.9458C89.405 47.9066 89.4522 47.8508 89.4808 47.7851L91.3969 43.4058L98.6568 43.4052ZM97.4739 40.6331H92.5984L95.0095 34.9485L97.4739 40.6331Z" fill="white"/>
<path d="M105.65 46.4546C107.322 47.7695 109.401 48.4596 111.528 48.4061C113.619 48.4568 115.658 47.7474 117.266 46.4094C118.677 45.2054 119.578 43.5097 119.786 41.6661C119.795 41.6132 119.793 41.5587 119.779 41.5067C119.765 41.4547 119.74 41.4063 119.706 41.365C119.671 41.3237 119.628 41.2905 119.58 41.2677C119.531 41.2449 119.478 41.2331 119.424 41.2331H117.078C116.994 41.2331 116.912 41.2617 116.846 41.3145C116.781 41.3672 116.735 41.4407 116.717 41.5229C115.983 44.9205 113.502 45.6339 111.55 45.6339C107.419 45.6339 105.947 42.6937 105.947 39.9424C105.947 36.0157 107.983 33.8539 111.681 33.8539C114.454 33.8539 116.335 35.2513 116.714 37.5916C116.728 37.678 116.772 37.7566 116.839 37.8133C116.906 37.87 116.99 37.9012 117.078 37.9011H119.422C119.473 37.9012 119.524 37.8907 119.57 37.8703C119.617 37.8498 119.659 37.8199 119.694 37.7823C119.728 37.7448 119.755 37.7004 119.771 37.6521C119.788 37.6038 119.794 37.5526 119.79 37.5018C119.731 36.4627 119.418 35.454 118.877 34.5646C118.337 33.6752 117.586 32.9323 116.691 32.4015C115.109 31.5134 113.32 31.0583 111.506 31.0823C108.84 31.0823 106.619 31.9517 105.077 33.5983C103.582 35.2716 102.79 37.457 102.866 39.6996C102.864 42.5957 103.828 44.932 105.65 46.4546Z" fill="white"/>
<path d="M123.241 31.4791H121.527C121.149 31.4791 120.843 31.7853 120.843 32.163V47.3215C120.843 47.6992 121.149 48.0054 121.527 48.0054H123.241C123.619 48.0054 123.925 47.6992 123.925 47.3215V32.163C123.925 31.7853 123.619 31.4791 123.241 31.4791Z" fill="white"/>
<path d="M133.973 48.4063C136.971 48.4063 139.408 47.4552 141.017 45.6544C142.42 44.0088 143.168 41.9046 143.12 39.7427C143.12 35.747 140.725 31.0808 133.973 31.0808C130.973 31.0808 128.537 32.0325 126.928 33.8327C125.525 35.4783 124.776 37.5825 124.824 39.7444C124.824 43.7377 127.22 48.4063 133.973 48.4063ZM127.908 39.7421C127.908 35.3993 131.042 33.8518 133.974 33.8518C136.907 33.8518 140.041 35.3993 140.041 39.7421C140.041 44.0849 136.907 45.6324 133.974 45.6324C131.042 45.6324 127.908 44.0849 127.908 39.7421Z" fill="white"/>
<path d="M189.637 45.2333H180.406V31.8449C180.406 31.7965 180.397 31.7486 180.378 31.7039C180.36 31.6591 180.333 31.6185 180.298 31.5843C180.264 31.5501 180.224 31.5229 180.179 31.5044C180.134 31.4858 180.086 31.4763 180.038 31.4763H177.697C177.649 31.4762 177.601 31.4857 177.556 31.5042C177.512 31.5227 177.471 31.5499 177.437 31.5841C177.402 31.6184 177.375 31.659 177.357 31.7038C177.338 31.7485 177.329 31.7965 177.329 31.8449V47.2532L170.292 31.6966C170.263 31.6321 170.216 31.5774 170.156 31.5391C170.097 31.5008 170.027 31.4804 169.957 31.4804H167.28C167.209 31.4804 167.14 31.5008 167.08 31.5391C167.021 31.5774 166.974 31.6321 166.944 31.6966L159.904 47.245V31.8472C159.904 31.7988 159.895 31.7509 159.876 31.7061C159.858 31.6613 159.831 31.6207 159.796 31.5864C159.762 31.5522 159.722 31.525 159.677 31.5065C159.632 31.488 159.584 31.4786 159.536 31.4786H157.191C157.093 31.4786 157 31.5175 156.931 31.5866C156.861 31.6557 156.823 31.7495 156.823 31.8472V43.4204L147.283 31.6154C147.248 31.5727 147.204 31.5382 147.155 31.5146C147.105 31.4909 147.051 31.4786 146.996 31.4786H144.276C144.228 31.4786 144.18 31.488 144.135 31.5065C144.09 31.525 144.05 31.5522 144.016 31.5864C143.981 31.6207 143.954 31.6613 143.936 31.7061C143.917 31.7509 143.908 31.7988 143.908 31.8472V47.6368C143.908 47.6853 143.917 47.7332 143.936 47.778C143.954 47.8227 143.981 47.8634 144.016 47.8977C144.05 47.9319 144.09 47.9591 144.135 47.9775C144.18 47.996 144.228 48.0055 144.276 48.0054H146.619C146.717 48.0054 146.811 47.9666 146.88 47.8975C146.949 47.8283 146.988 47.7346 146.988 47.6368V36.0626L156.528 47.8687C156.562 47.9114 156.606 47.9459 156.656 47.9696C156.705 47.9932 156.759 48.0055 156.814 48.0054H159.536C159.569 47.9578 159.614 47.919 159.666 47.8922C159.718 47.8654 159.775 47.8515 159.834 47.8515C159.892 47.8515 159.949 47.8654 160.001 47.8922C160.053 47.919 160.098 47.9578 160.131 48.0054H162.653C162.724 48.0054 162.794 47.9846 162.854 47.9453C162.914 47.9061 162.961 47.8503 162.99 47.7846L164.906 43.4053H172.165L174.08 47.7846C174.109 47.8503 174.156 47.9062 174.216 47.9454C174.276 47.9846 174.346 48.0055 174.418 48.0054H177.093C177.127 47.9574 177.171 47.9181 177.224 47.8911C177.276 47.864 177.334 47.8498 177.392 47.8498C177.451 47.8498 177.509 47.864 177.561 47.8911C177.613 47.9181 177.658 47.9574 177.692 48.0054H189.631C189.729 48.0054 189.823 47.9666 189.892 47.8975C189.961 47.8283 190 47.7346 190 47.6368V45.6019C190 45.5052 189.962 45.4123 189.894 45.3433C189.826 45.2743 189.734 45.2348 189.637 45.2333ZM170.986 40.6326H166.11L168.521 34.948L170.986 40.6326Z" fill="white"/>
<path d="M80.1501 58.9698L80.1171 58.964L76.2449 58.301C74.2001 57.9532 73.9636 57.1546 73.9636 56.5848C73.9636 54.8333 76.0397 54.3656 77.2673 54.3656C80.7291 54.3656 81.3962 55.7601 81.5909 56.9737C81.6049 57.0603 81.6491 57.139 81.7158 57.1958C81.7825 57.2526 81.8673 57.2838 81.9549 57.2838H84.2999C84.3501 57.2838 84.3997 57.2736 84.4458 57.2537C84.4919 57.2339 84.5334 57.2048 84.5679 57.1684C84.6023 57.1319 84.629 57.0888 84.6462 57.0417C84.6634 56.9946 84.6708 56.9444 84.668 56.8943C84.4726 53.5252 81.886 51.5929 77.5773 51.5929C73.4484 51.5929 70.8837 53.5727 70.8837 56.7605C70.8837 60.4367 74.6441 61.0563 75.8797 61.2603L79.4627 61.8573C81.3325 62.1749 82.0952 62.7493 82.0952 63.8372C82.0952 65.5388 80.0806 66.1451 78.1958 66.1451C74.3381 66.1451 73.5011 64.4063 73.4774 62.9463C73.476 62.8495 73.4365 62.7572 73.3675 62.6893C73.2985 62.6214 73.2056 62.5834 73.1088 62.5835H70.7661C70.7177 62.5834 70.6698 62.5929 70.6251 62.6114C70.5803 62.6298 70.5397 62.6569 70.5055 62.6911C70.4712 62.7253 70.4441 62.7659 70.4255 62.8106C70.407 62.8553 70.3975 62.9032 70.3975 62.9516C70.3975 66.742 73.1754 68.916 78.019 68.916C82.5015 68.916 85.1768 66.844 85.1768 63.3723C85.1757 59.8641 81.3939 59.1912 80.1501 58.9698Z" fill="white"/>
<path d="M98.6725 65.7474H88.4718V61.3756H98.1427C98.1911 61.3757 98.2391 61.3662 98.2839 61.3477C98.3286 61.3292 98.3693 61.3021 98.4035 61.2679C98.4378 61.2336 98.4649 61.1929 98.4834 61.1482C98.5019 61.1034 98.5114 61.0555 98.5113 61.007V58.9721C98.5113 58.8743 98.4725 58.7806 98.4034 58.7115C98.3342 58.6423 98.2405 58.6035 98.1427 58.6035H88.4712V54.7638H98.4516C98.5494 54.7638 98.6431 54.7249 98.7123 54.6558C98.7814 54.5867 98.8202 54.4929 98.8202 54.3951V52.3602C98.8202 52.3118 98.8107 52.2639 98.7922 52.2193C98.7736 52.1746 98.7465 52.134 98.7122 52.0998C98.678 52.0656 98.6374 52.0385 98.5926 52.02C98.5479 52.0016 98.5 51.9921 98.4516 51.9922H85.7588C85.7104 51.9921 85.6625 52.0016 85.6177 52.02C85.573 52.0385 85.5324 52.0656 85.4981 52.0998C85.4639 52.134 85.4367 52.1746 85.4182 52.2193C85.3997 52.2639 85.3901 52.3118 85.3901 52.3602V68.1498C85.3901 68.2476 85.429 68.3413 85.4981 68.4105C85.5672 68.4796 85.661 68.5184 85.7588 68.5184H98.6725C98.7702 68.5184 98.864 68.4796 98.9331 68.4105C99.0022 68.3413 99.0411 68.2476 99.0411 68.1498V66.1155C99.0409 66.0178 99.002 65.9242 98.9329 65.8552C98.8638 65.7862 98.7701 65.7474 98.6725 65.7474Z" fill="white"/>
<path d="M116.125 59.2677H108.87C108.772 59.2677 108.678 59.3065 108.609 59.3756C108.54 59.4448 108.501 59.5385 108.501 59.6363V61.6712C108.501 61.7196 108.511 61.7676 108.529 61.8123C108.548 61.8571 108.575 61.8978 108.609 61.932C108.643 61.9662 108.684 61.9934 108.729 62.0119C108.773 62.0304 108.821 62.0399 108.87 62.0398H113.629C113.223 64.5482 111.112 66.1461 108.141 66.1461C102.925 66.1461 102.362 62.0734 102.362 60.3225C102.362 57.4431 103.851 54.3655 108.029 54.3655C110.741 54.3655 112.33 55.3468 113.032 57.4524C113.056 57.5255 113.103 57.5892 113.165 57.6345C113.228 57.6797 113.303 57.7042 113.38 57.7045H115.858C115.913 57.7046 115.968 57.6922 116.018 57.6682C116.068 57.6442 116.112 57.6092 116.146 57.5658C116.181 57.5225 116.205 57.4719 116.218 57.4178C116.23 57.3637 116.23 57.3076 116.217 57.2536C115.37 53.5506 112.501 51.5934 107.919 51.5934C103.933 51.5934 99.2789 53.9314 99.2789 60.519C99.255 62.5294 99.9188 64.4876 101.16 66.0691C102.692 67.9313 105.052 68.9154 107.986 68.9154C111.004 68.9154 112.733 67.7684 113.811 66.6898L114.08 68.2124C114.095 68.2976 114.14 68.3748 114.206 68.4305C114.272 68.4861 114.356 68.5166 114.443 68.5166H116.123C116.221 68.5166 116.315 68.4778 116.384 68.4087C116.453 68.3395 116.492 68.2458 116.492 68.148V59.6363C116.492 59.5387 116.453 59.4451 116.384 59.376C116.316 59.3069 116.222 59.268 116.125 59.2677Z" fill="white"/>
<path d="M132.6 51.9928H130.255C130.207 51.9927 130.159 52.0022 130.114 52.0206C130.07 52.0391 130.029 52.0662 129.995 52.1004C129.961 52.1346 129.933 52.1752 129.915 52.2199C129.896 52.2645 129.887 52.3125 129.887 52.3608V62.467C129.887 64.9082 128.396 66.1462 125.456 66.1462C122.517 66.1462 121.026 64.9082 121.026 62.467V52.3608C121.026 52.3125 121.017 52.2645 120.998 52.2199C120.979 52.1752 120.952 52.1346 120.918 52.1004C120.884 52.0662 120.843 52.0391 120.798 52.0206C120.754 52.0022 120.706 51.9927 120.657 51.9928H118.312C118.264 51.9927 118.216 52.0022 118.171 52.0206C118.127 52.0391 118.086 52.0662 118.052 52.1004C118.018 52.1346 117.99 52.1752 117.972 52.2199C117.953 52.2645 117.944 52.3125 117.944 52.3608V62.1795C117.944 66.651 120.471 68.9172 125.456 68.9172C130.44 68.9172 132.968 66.6505 132.968 62.1795V52.3608C132.968 52.2632 132.929 52.1696 132.86 52.1006C132.791 52.0316 132.697 51.9928 132.6 51.9928Z" fill="white"/>
<path d="M149.045 63.8435C148.967 62.1929 148.35 60.9845 147.343 60.4338C148.008 60.0394 148.551 59.4697 148.914 58.7869C149.277 58.1041 149.445 57.3347 149.4 56.5628C149.4 54.4543 148.174 51.9928 144.719 51.9928H134.945C134.896 51.9927 134.848 52.0022 134.804 52.0206C134.759 52.0391 134.718 52.0662 134.684 52.1004C134.65 52.1346 134.623 52.1752 134.604 52.2199C134.586 52.2645 134.576 52.3125 134.576 52.3608V68.1504C134.576 68.2482 134.615 68.3419 134.684 68.4111C134.753 68.4802 134.847 68.519 134.945 68.519H137.288C137.386 68.519 137.48 68.4802 137.549 68.4111C137.618 68.3419 137.657 68.2482 137.657 68.1504V61.8185H143.415C144.999 61.8185 145.946 62.3656 146.098 65.1632L146.128 65.6814C146.217 67.2463 146.253 67.8954 146.671 68.388C146.706 68.4289 146.749 68.4618 146.798 68.4843C146.846 68.5069 146.899 68.5185 146.953 68.5185H149.43C149.501 68.5186 149.57 68.4985 149.629 68.4604C149.689 68.4224 149.736 68.3681 149.766 68.304C149.795 68.2398 149.805 68.1686 149.795 68.0987C149.786 68.0288 149.756 67.9633 149.71 67.9099C149.274 67.4033 149.181 66.833 149.045 63.8435ZM146.321 56.9169C146.321 57.8889 145.89 59.0469 143.837 59.0469H137.656V54.7644H143.9C145.46 54.7644 146.319 55.5288 146.319 56.9169H146.321Z" fill="white"/>
<path d="M176.705 58.9698L176.672 58.964L172.8 58.301C170.755 57.9532 170.519 57.1546 170.519 56.5848C170.519 54.8333 172.595 54.3656 173.823 54.3656C177.284 54.3656 177.952 55.7601 178.146 56.9737C178.16 57.0603 178.204 57.139 178.271 57.1958C178.338 57.2526 178.423 57.2838 178.51 57.2838H180.855C180.905 57.2838 180.955 57.2736 181.001 57.2537C181.047 57.2339 181.089 57.2048 181.123 57.1684C181.158 57.1319 181.184 57.0888 181.201 57.0417C181.219 56.9946 181.226 56.9444 181.223 56.8943C181.028 53.5252 178.441 51.5929 174.133 51.5929C170.004 51.5929 167.439 53.5727 167.439 56.7605C167.439 60.4367 171.199 61.0563 172.435 61.2603L176.018 61.8573C177.888 62.1749 178.651 62.7493 178.651 63.8372C178.651 65.5388 176.636 66.1451 174.75 66.1451C170.892 66.1451 170.056 64.4063 170.032 62.9463C170.031 62.8496 169.991 62.7574 169.922 62.6895C169.854 62.6216 169.761 62.5835 169.664 62.5835H167.328C167.51 61.8208 167.602 61.0391 167.601 60.2548C167.601 56.2591 165.205 51.5929 158.453 51.5929C155.454 51.5929 153.017 52.5446 151.408 54.3447C150.004 55.9902 149.256 58.0945 149.304 60.2565C149.304 64.2527 151.7 68.9184 158.453 68.9184C161.452 68.9184 163.888 67.9667 165.497 66.1665C166.143 65.4357 166.649 64.5925 166.99 63.6789C167.328 67.0202 170.05 68.9184 174.575 68.9184C179.057 68.9184 181.733 66.8464 181.733 63.3747C181.733 59.8641 177.951 59.1912 176.705 58.9698ZM164.517 60.2559C164.517 64.5987 161.382 66.1462 158.45 66.1462C155.517 66.1462 152.383 64.5987 152.383 60.2559C152.383 55.9131 155.517 54.3656 158.45 54.3656C161.382 54.3656 164.519 55.9131 164.519 60.2559H164.517Z" fill="white"/>
</g>
</svg>
