<svg width="200" height="100" viewBox="0 0 200 100" fill="none" xmlns="http://www.w3.org/2000/svg">
<mask id="mask0_59_856" style="mask-type:alpha" maskUnits="userSpaceOnUse" x="0" y="0" width="200" height="100">
<rect width="200" height="100" fill="#D9D9D9"/>
</mask>
<g mask="url(#mask0_59_856)">
<path d="M91.3156 68.8922H99.1178C98.9474 66.3855 97.5766 65.0853 95.2573 65.0853C93.2864 65.0853 91.8306 66.3855 91.3156 68.8922ZM95.087 80.9103C89.2131 80.9103 85.6973 77.408 85.6973 71.2271C85.6973 65.347 89.4261 61.2823 95.4316 61.2823C101.348 61.2823 104.434 64.652 104.434 70.8367C104.434 71.2701 104.434 71.6566 104.391 72.09H91.1414C91.4008 75.2449 92.8993 76.8028 95.3464 76.8028C97.3599 76.8028 98.7344 75.8071 99.292 74.1633L104.178 74.8544C103.106 79.0947 99.7605 80.9103 95.087 80.9103Z" fill="white"/>
<path d="M118.624 80.4809H107.647V76.8497L109.277 76.7639C109.877 76.7209 110.09 76.4632 110.09 75.858V66.5614C110.09 65.9562 109.92 65.7414 109.362 65.6946L107.647 65.5657V61.6768H114.508V63.6642C114.508 64.8746 114.508 65.9991 114.38 67.1236C115.623 63.3167 117.253 61.2864 120.041 61.2864C120.727 61.2864 121.327 61.4152 121.884 61.63V67.4047C120.916 67.0065 119.956 66.9089 119.356 66.9089C118.043 66.9089 116.893 67.4946 115.937 69.1032C115.445 69.9349 115.197 70.8954 115.197 71.8598V75.858C115.197 76.4203 115.368 76.7248 116.011 76.7248L118.628 76.8537V80.4809H118.624Z" fill="white"/>
<path d="M135.402 76.5452C138.02 76.5452 139.731 74.6437 139.731 71.0125C139.731 67.4243 138.016 65.6087 135.53 65.6087C132.401 65.6087 131.069 68.4629 131.069 71.3171C131.073 74.6867 132.789 76.5452 135.402 76.5452ZM130.299 77.7127L130.086 80.4809H123.825V76.8498L125.412 76.7209C126.012 76.678 126.272 76.3734 126.272 75.7682V60.2868C126.272 59.6816 126.059 59.5099 125.501 59.4669L123.829 59.338V55.578H131.333V60.4196C131.333 61.5871 131.247 62.8404 131.12 64.0508C132.533 62.1922 134.635 61.2825 136.994 61.2825C142.054 61.2825 145.357 64.613 145.357 70.7939C145.357 77.0216 141.582 80.9105 136.525 80.9105C133.516 80.9105 131.499 79.743 130.299 77.7127Z" fill="white"/>
<path d="M158.324 76.8457C161.023 76.8457 162.653 74.6397 162.653 71.0514C162.653 67.5061 161.108 65.343 158.579 65.343C155.877 65.343 154.204 67.5061 154.204 71.0944C154.208 74.6436 155.795 76.8457 158.324 76.8457ZM158.711 61.2823C164.759 61.2823 168.143 65.1283 168.143 71.0085C168.143 77.0175 164.67 80.9103 158.154 80.9103C152.109 80.9103 148.679 77.2791 148.679 71.2271C148.679 65.304 152.237 61.2823 158.711 61.2823Z" fill="white"/>
<path d="M170.01 80.4808V76.8496L171.683 76.7637C172.241 76.7208 172.496 76.4631 172.496 75.8579V60.3375C172.496 59.7323 172.283 59.5175 171.726 59.4707L170.053 59.3418V55.5818H177.557V75.8579C177.557 76.4631 177.727 76.7247 178.327 76.7637L180 76.8496V80.4808H170.01Z" fill="white"/>
<path d="M70.8933 74.0814V65.6515H68.1055V61.8915L70.0764 61.6767C70.6339 61.5908 70.8468 61.4151 70.8894 60.8138L71.4045 55.5818H75.9928V61.6767H82.5985V65.6554H75.9928V73.9525C75.9928 75.854 76.593 77.0214 77.7081 77.0214C78.7807 77.0214 79.3809 76.2444 79.4661 74.6006C79.5086 73.5191 79.5512 72.5703 79.5086 71.4888H82.8115C82.9392 72.5703 82.9818 73.3902 82.9818 74.3429C82.9818 78.2787 81.5221 80.9142 76.9376 80.9142C73.3366 80.9103 70.8933 79.1416 70.8933 74.0814Z" fill="white"/>
<path d="M61.1485 39.8325C61.1485 36.9547 59.9209 34.3651 57.9645 32.5682C57.9717 32.4168 57.976 32.2641 57.976 32.1113C57.976 26.6844 53.613 22.2848 48.2312 22.2848C48.0782 22.2848 47.9282 22.2891 47.7782 22.2964C45.9961 20.3236 43.4281 19.0857 40.5742 19.0857C37.7204 19.0857 35.1524 20.3236 33.3689 22.2964C33.2188 22.2891 33.0674 22.2848 32.9159 22.2848C27.534 22.2848 23.1711 26.6844 23.1711 32.1113C23.1711 32.2641 23.1754 32.4168 23.1825 32.5682C21.2261 34.3651 20 36.9547 20 39.8325C20 42.7103 21.2276 45.2998 23.1825 47.0968C23.1754 47.2481 23.1711 47.4009 23.1711 47.5536C23.1711 52.8812 27.3754 57.2144 32.6215 57.3729H32.6229C37.6089 57.6785 41.5574 61.8618 41.5574 66.966C41.5574 66.9732 41.5574 66.9819 41.5574 66.9891C41.5646 69.3884 42.675 71.5269 44.4013 72.919C45.2559 71.1162 45.7403 69.0973 45.7332 66.966C45.7074 58.9105 39.2138 53.3856 32.6686 53.1651C30.3579 53.0642 28.4258 51.577 27.6698 49.4328C27.4626 48.8448 27.344 48.2136 27.344 47.5536C27.344 46.8259 27.4854 46.1342 27.7355 45.4973C27.8141 45.2955 27.7184 45.0664 27.5212 44.9799C26.2907 44.4381 25.2947 43.4654 24.7188 42.2462C24.3729 41.5142 24.1729 40.6971 24.1729 39.8325C24.1729 38.9679 24.3729 38.1508 24.7188 37.4187C25.2961 36.1996 26.2922 35.2269 27.5212 34.6851C27.7184 34.5986 27.8155 34.3695 27.7355 34.1677C27.4854 33.5308 27.344 32.8376 27.344 32.1113C27.344 31.3346 27.5083 30.5968 27.7884 29.9224C28.3429 28.5865 29.4104 27.5072 30.7337 26.9452C31.4068 26.6599 32.1413 26.4913 32.9159 26.4913C33.6376 26.4913 34.3235 26.6339 34.9552 26.8861C35.1552 26.9668 35.3825 26.8688 35.4682 26.6699C36.0055 25.4306 36.9701 24.4248 38.1791 23.844C38.9051 23.4953 39.7154 23.2936 40.5742 23.2936C41.4317 23.2936 42.242 23.4953 42.9679 23.844C44.1755 24.4248 45.1415 25.4306 45.6789 26.6699C45.7646 26.8688 45.9918 26.9668 46.1919 26.8861C46.8236 26.6339 47.5109 26.4913 48.2312 26.4913C49.0071 26.4913 49.7417 26.6599 50.4148 26.9452C51.7381 27.5072 52.8056 28.5865 53.3601 29.9224C53.6402 30.5968 53.8045 31.3332 53.8045 32.1113C53.8045 32.8391 53.663 33.5308 53.4129 34.1677C53.3329 34.3695 53.4301 34.5986 53.6273 34.6851C54.8577 35.2269 55.8538 36.1996 56.4297 37.4187C56.7756 38.1508 56.9756 38.9679 56.9756 39.8325C56.9756 40.6971 56.7756 41.5142 56.4297 42.2462C55.8524 43.4654 54.8563 44.4395 53.6273 44.9799C53.4301 45.0664 53.3329 45.2955 53.4129 45.4973C53.663 46.1342 53.8045 46.8273 53.8045 47.5536C53.8045 48.2136 53.7002 48.8477 53.4844 49.4328C52.7127 51.5367 50.8749 53.0988 48.2383 53.1781C47.238 53.2126 44.7871 53.521 42.2977 54.9794C43.3809 55.9233 44.3441 57.0271 45.1372 58.2333C45.1401 58.2376 46.5191 57.5055 48.5241 57.3715C53.7702 57.2144 57.9745 52.8798 57.9745 47.5522C57.9745 47.3994 57.9702 47.2467 57.9631 47.0954C59.9209 45.2998 61.1485 42.7103 61.1485 39.8325Z" fill="white"/>
<path d="M36.0108 75.7003C34.8018 76.2623 33.4542 76.5735 32.0366 76.575L32.0352 80.7843C34.516 80.7828 36.844 80.1214 38.8504 78.957C37.7643 78.0088 36.8068 76.9107 36.0108 75.7003Z" fill="white"/>
<path d="M45.1388 75.6945C44.5257 75.412 43.9555 75.0648 43.4196 74.6641C42.2249 73.7692 41.2431 72.5876 40.5743 71.2316C40.0341 70.1378 39.684 68.9043 39.6083 67.5684C39.5897 67.3436 39.5826 66.5712 39.5711 66.4141C39.4125 64.2338 38.345 62.2971 36.7487 61.0102C35.8941 62.8129 35.4097 64.852 35.4097 66.9848C35.4097 69.8352 36.27 72.4608 37.7362 74.6598C37.7476 74.68 38.8351 76.379 40.5872 77.771C44.5543 80.9255 48.5628 80.7526 49.113 80.7699V76.5879C49.1116 76.5879 49.1101 76.5649 49.1087 76.5649C46.7822 76.5663 45.1502 75.6988 45.1388 75.6945Z" fill="white"/>
<path d="M102.268 57.8076L91.976 59.9317L91.3682 57.218L101.424 53.9382L102.268 57.8076Z" fill="white"/>
</g>
</svg>
