<svg width="200" height="100" viewBox="0 0 200 100" fill="none" xmlns="http://www.w3.org/2000/svg">
<mask id="mask0_59_1202" style="mask-type:alpha" maskUnits="userSpaceOnUse" x="0" y="0" width="200" height="100">
<rect width="200" height="100" fill="#D9D9D9"/>
</mask>
<g mask="url(#mask0_59_1202)">
<path fill-rule="evenodd" clip-rule="evenodd" d="M53.9127 44.9235C54.069 46.775 54.6123 48.5006 55.4541 50.0304C55.8505 49.4754 56.2889 48.953 56.7693 48.4657C57.7184 47.5026 58.819 46.6888 60.0386 46.0615C61.4471 42.503 64.9099 39.9566 69.3335 40.1898C71.3809 40.2971 73.1228 40.9103 74.5686 41.8664C75.569 42.5287 76.9005 42.3468 77.656 41.414L78.8989 39.8773C79.7897 38.7767 79.4912 37.1444 78.2739 36.4215C75.6413 34.8568 72.4792 33.9613 69 33.8704C68.8508 33.8657 68.7039 33.8657 68.557 33.8657C62.037 33.8657 56.5478 37.634 53.9011 42.9344C53.8544 43.5874 53.8568 44.2519 53.9151 44.9235H53.9127ZM79.0038 47.4258C79.0038 47.4258 79.0038 47.4257 79.0038 47.4256H73.858C73.8578 47.4255 73.8576 47.4254 73.8575 47.4252H69.9725C69.0211 47.4252 68.2493 48.1971 68.2493 49.1485V51.9491C68.2493 52.9401 69.0538 53.7446 70.0448 53.7446H73.6826C73.9834 53.7446 74.2562 53.8589 74.4684 54.0384C74.9441 53.6747 75.3965 53.2806 75.8139 52.8562C76.292 52.3712 76.7327 51.8465 77.1268 51.2915H77.1311C77.1312 51.2916 77.1312 51.2918 77.1313 51.2919C77.1313 51.292 77.1312 51.292 77.1312 51.2921C77.2015 51.4199 77.2698 51.5491 77.336 51.6796C77.27 51.5498 77.2019 51.4213 77.1317 51.2942C76.7353 51.8492 76.2969 52.3715 75.8189 52.8589C75.3991 53.2833 74.9491 53.6774 74.4734 54.0411C74.7369 54.265 74.9048 54.5938 74.9048 54.9646V57.518C74.9048 58.0893 74.5643 58.607 74.0373 58.8262C72.2931 59.556 70.346 59.9245 68.4781 59.8149C64.8987 59.605 62.2706 57.8095 60.7759 55.2281C58.5443 54.0621 56.6811 52.2572 55.4545 50.0326C54.2816 51.6766 53.4888 53.6051 53.1973 55.6734C55.4615 61.783 61.3752 66.1343 68.667 66.1343C71.5212 66.1343 74.2938 65.465 76.7586 64.2851C76.7586 64.2851 76.7587 64.2851 76.7587 64.2851C78.2485 63.5716 79.6264 62.6716 80.8412 61.6177C81.3496 61.177 81.641 60.538 81.6457 59.8664L81.7087 49.6528C81.7157 48.4239 80.7223 47.4258 79.4934 47.4258H79.0038ZM78.7169 57.1696C78.7764 59.5827 78.1571 61.8718 77.0241 63.8432C78.1554 61.8718 78.7748 59.5827 78.7169 57.1696ZM32.1375 44.406C32.1375 45.5486 31.1954 46.4767 30.0341 46.4767H27.1449V54.8995C27.1449 56.2217 27.7232 56.8117 29.0221 56.8117C29.2878 56.8117 29.5332 56.775 29.7183 56.7474L29.7184 56.7474L29.7566 56.7417L29.768 56.74C29.8834 56.7222 29.9687 56.709 30.0364 56.709C31.1394 56.709 32.0722 57.6278 32.0722 58.7121C32.0722 59.6472 31.4309 60.3281 30.7966 60.5893C29.7869 60.9391 28.9171 61.086 27.8748 61.086C24.2604 61.086 22.4298 59.2205 22.4298 55.5408V46.4767H22.0707C20.9094 46.4767 20 45.5673 20 44.406C20 43.2447 20.9094 42.3353 22.0707 42.3353H22.4298V39.614C22.4298 38.3221 23.5118 37.2728 24.8037 37.2728C26.0955 37.2728 27.1449 38.3245 27.1449 39.614V42.3353H30.0341C31.1931 42.3353 32.1375 43.2634 32.1375 44.406ZM159.337 46.4767C160.498 46.4767 161.441 45.5486 161.441 44.406C161.441 43.2634 160.496 42.3353 159.337 42.3353H156.448V39.614C156.448 38.3245 155.399 37.2728 154.107 37.2728C152.815 37.2728 151.733 38.3221 151.733 39.614V42.3353H151.374C150.212 42.3353 149.303 43.2447 149.303 44.406C149.303 45.5673 150.212 46.4767 151.374 46.4767H151.733V55.5408C151.733 59.2205 153.566 61.086 157.178 61.086C158.22 61.086 159.09 60.9391 160.097 60.5893C160.732 60.3281 161.373 59.6472 161.373 58.7121C161.373 57.6278 160.44 56.709 159.337 56.709C159.268 56.709 159.185 56.722 159.073 56.7396L159.06 56.7417L159.021 56.7474C158.836 56.775 158.591 56.8117 158.325 56.8117C157.026 56.8117 156.448 56.2217 156.448 54.8995V46.4767H159.337ZM92.2208 41.9646C87.079 41.9646 83.2011 46.0897 83.2011 51.558V51.6256C83.2011 57.1662 87.1793 61.1864 92.6592 61.1864C95.2803 61.1864 97.4466 60.3865 99.2934 58.7309C99.7015 58.3228 99.9254 57.8005 99.9254 57.2595C99.9254 56.1541 99.0742 55.289 97.9899 55.289C97.4279 55.289 97.0875 55.4639 96.7424 55.7321C95.5321 56.7278 94.2193 57.2128 92.7269 57.2128C90.2737 57.2128 88.4828 55.7321 87.9768 53.3232H98.7664C100.021 53.3232 101.005 52.3252 101.005 51.0496C101.005 46.6447 97.927 41.9623 92.2208 41.9623V41.9646ZM87.9348 49.9956C88.3919 47.5192 90.0312 45.9382 92.1859 45.9382C94.8046 45.9382 96.0358 47.9739 96.3483 49.9956H87.9348ZM110.96 42.0974C112.361 42.0974 113.301 43.0395 113.301 44.4387H113.299C113.299 45.6046 112.562 46.493 111.422 46.7052C108.432 47.2253 106.788 49.5851 106.788 53.3441V58.6072C106.788 59.8991 105.727 60.9484 104.414 60.9484C103.101 60.9484 102.073 59.92 102.073 58.6072V44.5039C102.073 43.1724 103.083 42.1301 104.414 42.1301C105.746 42.1301 106.788 43.1724 106.788 44.5039V45.01C107.877 43.2074 109.43 42.0974 110.96 42.0974ZM112.41 51.558C112.41 46.0897 116.288 41.9646 121.43 41.9646V41.9623C127.136 41.9623 130.214 46.6447 130.214 51.0496C130.214 52.3252 129.233 53.3232 127.976 53.3232H117.186C117.692 55.7321 119.483 57.2128 121.936 57.2128C123.428 57.2128 124.741 56.7278 125.952 55.7321C126.297 55.4639 126.637 55.289 127.199 55.289C128.283 55.289 129.135 56.1541 129.135 57.2595C129.135 57.8005 128.911 58.3228 128.503 58.7309C126.656 60.3865 124.489 61.1864 121.868 61.1864C116.388 61.1864 112.41 57.1662 112.41 51.6256V51.558ZM121.395 45.9382C119.24 45.9382 117.601 47.5192 117.144 49.9956H125.557C125.245 47.9739 124.014 45.9382 121.395 45.9382ZM136.466 44.4527C137.879 42.781 139.604 41.9648 141.716 41.9646C145.824 41.9651 148.375 44.698 148.375 49.0955V58.6096C148.375 59.9224 147.365 60.9508 146.034 60.9508C144.702 60.9508 143.66 59.9224 143.66 58.6096V50.343C143.66 47.7406 142.41 46.3065 140.164 46.3065C137.919 46.3065 136.466 47.9179 136.466 50.4107V58.6096C136.466 59.9224 135.405 60.9508 134.092 60.9508C132.779 60.9508 131.751 59.9224 131.751 58.6096V44.5063C131.751 43.1748 132.779 42.1325 134.092 42.1325C135.405 42.1325 136.438 43.1468 136.466 44.4527ZM162.196 51.558C162.196 46.0897 166.074 41.9646 171.216 41.9646V41.9623C176.922 41.9623 180 46.6447 180 51.0496C180 52.3252 179.018 53.3232 177.761 53.3232H166.972C167.478 55.7321 169.269 57.2128 171.722 57.2128C173.214 57.2128 174.527 56.7278 175.737 55.7321C176.082 55.4639 176.423 55.289 176.985 55.289C178.069 55.289 178.92 56.1541 178.92 57.2595C178.92 57.8005 178.696 58.3228 178.288 58.7309C176.442 60.3865 174.275 61.1864 171.654 61.1864C166.174 61.1864 162.196 57.1662 162.196 51.6256V51.558ZM171.181 45.9382C169.026 45.9382 167.387 47.5192 166.93 49.9956H175.343C175.033 47.9739 173.8 45.9382 171.181 45.9382ZM45.3149 44.6509C45.3149 43.3194 46.3573 42.2747 47.6911 42.2747H47.6935C49.004 42.2747 50.0696 43.3404 50.0696 44.6509V58.7751C50.0696 60.067 48.9923 61.1187 47.6935 61.1187C46.3946 61.1187 45.3359 60.0857 45.3173 58.8101C43.9111 60.4984 42.1832 61.3216 40.0565 61.3216C35.9431 61.3216 33.3873 58.5723 33.3873 54.1464V44.6509C33.3873 43.3404 34.3994 42.2747 35.7309 42.2747C37.0624 42.2747 38.1071 43.3171 38.1071 44.6509V52.9291C38.1071 55.5128 39.3243 56.9376 41.6096 56.9376C43.8948 56.9376 45.3149 55.3753 45.3149 52.8615V44.6509ZM53.8986 42.9347C53.8543 43.5876 53.8567 44.2522 53.9126 44.9238V44.9261C54.0665 46.7776 54.6122 48.5032 55.454 50.0329C54.2811 51.6769 53.4882 53.603 53.1967 55.6738C52.5508 53.9342 52.201 52.0523 52.201 50.0866C52.201 47.5471 52.812 45.1126 53.8986 42.9347ZM60.778 55.2277C58.544 54.0641 56.6832 52.2569 55.4566 50.0323C55.853 49.4773 56.2937 48.9526 56.7718 48.4676C57.7209 47.5045 58.8215 46.6907 60.0411 46.0634C59.5957 47.1851 59.3555 48.4046 59.3555 49.6709C59.3555 51.6996 59.8475 53.6164 60.778 55.2277Z" fill="white"/>
</g>
</svg>
