<svg width="200" height="100" viewBox="0 0 200 100" fill="none" xmlns="http://www.w3.org/2000/svg">
<mask id="mask0_59_809" style="mask-type:alpha" maskUnits="userSpaceOnUse" x="0" y="0" width="200" height="100">
<rect width="200" height="100" fill="#D9D9D9"/>
</mask>
<g mask="url(#mask0_59_809)">
<path d="M34.7485 42.5792V45.804H39.3104V38.4106H36.6559V35.2251L32.3496 39.6887V42.5792H34.7485Z" fill="white"/>
<path d="M52.3068 65.2514L24.4636 65.2907V35.2649L20 30.2114V69.656H58.599L52.3068 65.2514Z" fill="white"/>
<path d="M46.8406 58.153H50.5176L54.3126 53.5518H51.4615V51.0742H44.4023V56.1867H46.8406V58.153Z" fill="white"/>
<path d="M26.1738 57.6026H31.3059L32.1908 56.1869H34.8257V58.1139L32.6037 60.7094V63.9342H43.1433L47.8035 60.4538H35.8875V58.1139H38.8763V51.1924H32.1908V53.5127H29.5756V42.2456L26.1738 47.5154V57.6026Z" fill="white"/>
<path d="M51.0877 42.1274L47.1943 45.9618H51.0877V42.1274Z" fill="white"/>
<path d="M44.4219 38.4111V42.8354L48.7085 38.4111H44.4219Z" fill="white"/>
<path d="M58.8548 41.1442V31.4502H49.4951C52.4839 34.616 55.7087 37.8998 58.8548 41.1442ZM56.8885 36.248L53.8014 33.2789H56.8885V36.248Z" fill="white"/>
<path d="M167.887 31.4699L145.117 68.8301H150.328L156.345 57.74H168.949C169.5 61.476 170.031 65.1531 170.581 68.8105H180C177.385 56.2063 174.789 43.7791 172.135 31.4502L167.887 31.4699ZM158.646 54.2006L165.665 42.501H166C166.727 46.4336 167.455 50.15 168.202 54.1613L158.646 54.2006Z" fill="white"/>
<path d="M147.674 61.9879C150.486 57.3474 150.82 51.3304 144.823 47.6337C144.017 47.1618 143.21 46.6899 142.424 46.1983C140.87 45.2348 139.297 44.232 137.842 43.2488C137.271 42.8336 136.833 42.2612 136.582 41.6012C136.33 40.9413 136.276 40.2225 136.427 39.5325C136.8 36.6223 139.042 34.7543 142.64 34.3217C143.893 34.1197 145.176 34.3929 146.238 35.0876C147.3 35.7823 148.065 36.8485 148.382 38.0774L148.893 39.4341C150.256 37.5872 151.435 35.6115 152.413 33.5352C151.665 33.0398 150.891 32.5869 150.093 32.1784C147.851 31.2371 145.42 30.833 142.994 30.9986C140.126 31.0548 137.343 31.9822 135.015 33.6574C132.686 35.3327 130.922 37.6766 129.957 40.378C127.991 46.277 129.387 50.2096 134.539 52.8642C136.112 53.69 137.705 54.4962 139.199 55.4204C139.795 55.7019 140.329 56.0995 140.769 56.5898C141.209 57.0801 141.547 57.6533 141.763 58.2759C141.979 58.8984 142.069 59.5578 142.027 60.2155C141.985 60.8731 141.813 61.5158 141.519 62.1059C141.081 63.1176 140.408 64.0106 139.557 64.7114C138.706 65.4122 137.7 65.9008 136.623 66.1369C135.767 66.4578 134.85 66.5827 133.939 66.5023C133.028 66.4218 132.147 66.1382 131.36 65.6722C130.573 65.2062 129.901 64.5698 129.393 63.8096C128.885 63.0495 128.554 62.1851 128.424 61.2801C128.349 61.0222 128.25 60.772 128.129 60.5329C127.165 60.5329 125.12 64.4655 124.393 67.474C124.781 67.7567 125.189 68.0129 125.612 68.2409C128.767 69.7042 132.301 70.1442 135.719 69.4993C138.149 69.2306 140.487 68.4152 142.557 67.1144C144.628 65.8135 146.377 64.0609 147.674 61.9879Z" fill="white"/>
<path d="M122.446 32.1776C116.881 31.7844 111.258 31.981 105.673 31.9023C105.673 31.9023 105.496 32.0007 105.221 32.1383C102.861 44.2509 100.469 56.4946 98.0439 68.8693H106.362C107.404 63.4816 108.446 58.2118 109.488 52.9617C112.064 52.6864 114.482 52.5095 116.881 52.1752C119.633 51.9306 122.234 50.8118 124.303 48.9826C126.373 47.1534 127.803 44.7097 128.384 42.0093C129.8 36.6019 127.637 32.6495 122.446 32.1776ZM114.011 49.1077C112.714 49.3982 111.4 49.6083 110.078 49.737C111.061 44.7228 112.044 39.9053 112.929 35.0288C114.31 34.9302 115.697 34.9302 117.078 35.0288C117.72 35.1514 118.311 35.4616 118.776 35.9201C119.242 36.3786 119.561 36.9648 119.693 37.6047C120.794 41.5374 119.025 47.7116 114.011 49.1077Z" fill="white"/>
<path d="M101.543 32.001H97.0992C96.5486 34.7932 96.0374 37.5854 95.4278 40.3382C94.2087 45.9423 93.1469 51.6446 91.6131 57.1897C90.914 59.9428 89.2226 62.3406 86.8637 63.9229C84.5048 65.5052 81.6445 66.1605 78.832 65.7629C77.1995 65.7318 75.6453 65.0575 74.5075 63.8865C73.3697 62.7155 72.7402 61.1426 72.756 59.5099C72.86 56.2124 73.2017 52.9266 73.7785 49.6783C74.7224 44.1529 75.9218 38.6668 77.023 33.1414C77.0621 32.7689 77.0621 32.3932 77.023 32.0206H68.8824C67.7616 37.7427 66.6408 43.3074 65.5986 48.8721C65.0087 52.0772 64.3991 55.2823 64.1239 58.5268C63.8281 60.7065 64.3299 62.9197 65.5367 64.7588C66.7435 66.5979 68.5741 67.9391 70.6914 68.5354C72.2 69.0272 73.7549 69.3632 75.3319 69.5382C80.0434 70.2112 84.8442 69.276 88.9586 66.8837C91.1222 65.5323 92.9682 63.7291 94.3699 61.5977C95.7716 59.4663 96.6959 57.0571 97.0795 54.5351C98.3183 48.6361 99.4785 42.7371 100.658 36.8381C100.973 35.2061 101.248 33.633 101.543 32.001Z" fill="white"/>
</g>
</svg>
