<svg width="200" height="100" viewBox="0 0 200 100" fill="none" xmlns="http://www.w3.org/2000/svg">
<mask id="mask0_94_1309" style="mask-type:alpha" maskUnits="userSpaceOnUse" x="0" y="0" width="200" height="100">
<rect width="200" height="100" fill="#D9D9D9"/>
</mask>
<g mask="url(#mask0_94_1309)">
<path fill-rule="evenodd" clip-rule="evenodd" d="M21.8355 30.0004C21.8355 30.0004 21.8355 30.0156 21.8355 30.0304C21.8355 43.3386 21.8355 56.6616 21.8355 69.9848C21.8355 69.9848 21.8355 69.9848 21.8355 70C21.8055 70 21.7902 70 21.7754 70C21.7754 56.6618 21.7754 43.3239 21.7754 30.0004C21.7902 30.0004 21.8055 30.0004 21.8355 30.0004Z" fill="#141414"/>
<path fill-rule="evenodd" clip-rule="evenodd" d="M42.482 69.9997C35.5951 69.9845 28.7081 69.9845 21.8359 69.9845C21.8359 56.6614 21.8359 43.3384 21.8359 30.0301C28.7081 30.0152 35.5951 30 42.482 30C43.189 30.0453 43.9108 30.0902 44.6327 30.1503C44.6928 30.2108 45.5349 30.301 45.595 30.3611C49.4896 31.0829 52.6624 32.9022 55.6399 35.4585C57.0836 36.9475 58.2415 38.4513 59.3541 40.2104C59.7449 41.0376 60.151 41.8645 60.557 42.6918C61.1136 44.5262 61.5345 46.1803 61.8203 48.0601C61.8351 49.0525 61.8652 50.0601 61.8956 51.0673C61.8051 51.8344 61.7149 52.6012 61.6399 53.3683C61.0231 56.3755 59.9405 58.947 58.2716 61.5034C57.4295 62.6012 57.4295 62.6012 57.3694 62.7366C55.1586 65.0822 53.0235 66.7667 50.1814 68.2252C49.4744 68.4809 48.783 68.7515 48.0912 69.022C46.2716 69.5635 44.3919 69.9244 42.482 69.9997Z" fill="#141414"/>
<path fill-rule="evenodd" clip-rule="evenodd" d="M41.7747 65.7741C40.9326 59.8795 39.9703 53.9397 39.3386 48.0302C40.2709 47.5641 40.5418 46.5565 40.8272 45.609C41.008 44.5866 41.2785 43.4587 41.2032 42.4062C39.414 42.4511 37.4589 42.6318 35.8348 43.4138C33.8349 43.4138 33.6998 40.5866 35.7899 40.4062C37.5791 41.098 39.3687 41.3537 41.2785 41.4138C41.1883 39.534 40.9928 37.7597 40.2861 36.0154C40.2861 35.504 40.4064 35.2182 40.7371 34.8423C41.9402 34.0603 43.0829 34.5717 43.2785 35.9853C42.5415 37.7897 42.4364 39.4286 42.2861 41.3537C42.3162 41.3685 42.3462 41.3837 42.3912 41.4138C44.226 41.3236 46.0753 41.1581 47.7747 40.4062C49.8348 40.6018 49.7294 43.4138 47.7146 43.4138C46.0905 42.6018 44.0905 42.4812 42.301 42.4362C42.4212 43.5489 42.5415 47.6242 44.2561 48.0451C44.1655 48.9473 44.1054 49.0074 42.3611 62.0298C42.301 62.0899 41.8348 65.6691 41.7747 65.7741Z" fill="white"/>
<path fill-rule="evenodd" clip-rule="evenodd" d="M50.4966 69.9246C53.1279 68.7518 55.3988 67.248 57.5639 65.3382C57.6541 65.1879 58.406 64.4812 59.6842 62.9774C60.8573 61.3382 61.895 59.7142 62.782 57.8949C63.0377 57.1879 63.3082 56.4813 63.5791 55.7895C65.0677 50.8123 64.9924 46.0003 63.4285 41.0529C63.1731 40.3911 62.9174 39.7298 62.6617 39.0829C61.188 36.1959 59.4288 33.7899 57.0978 31.5342C56.4962 31.0232 55.895 30.5266 55.2934 30.0304C96.2402 30.0156 137.202 30.0004 178.164 30.0004C178.179 30.0156 178.194 30.0304 178.224 30.0456C178.224 43.3386 178.224 56.6468 178.224 69.9545C135.638 69.9397 93.0675 69.9246 50.4966 69.9246ZM137.141 62.361C134.51 62.1201 132.781 61.2179 131.292 58.9774C131.066 58.5113 130.856 58.0452 130.645 57.579C129.232 52.1205 131.909 46.5113 137.788 45.8348C139.427 45.8348 140.961 46.2259 142.51 46.737C142.48 46.9626 142.48 46.9626 141.577 49.3234C141.126 49.2784 141.126 49.2784 140.119 49.0677C139.532 49.0677 138.946 49.0677 138.359 49.0677C137.141 49.3686 136.315 49.7294 135.457 50.6616C133.773 53.1278 133.487 56.4661 136.059 58.4512C136.375 58.6015 136.705 58.7518 137.036 58.9021C138.57 59.1129 140.044 59.0075 141.532 58.5414C141.848 58.3911 141.848 58.3911 141.953 58.3911C142.269 58.9926 142.84 59.7746 142.961 60.436C141.141 61.5189 139.262 62.1201 137.141 62.361ZM90.6015 42.9324C90.1955 42.9324 89.7894 42.9324 89.3983 42.9324C86.7069 42.9324 84.5113 44.4811 83.0227 46.5865C82.5714 47.5489 82.361 48.1954 82.3009 48.2558C81.7594 50.4362 81.9097 52.421 82.6315 54.5112C83.6993 56.5564 84.8572 57.639 86.9622 58.451C87.4135 58.5264 87.8648 58.6166 88.3309 58.7067C89.278 58.7067 90.8119 58.827 91.6239 58.421C91.6239 56.7368 91.6391 55.0527 91.654 53.3685C91.654 53.3232 91.654 53.3232 87.7894 53.2631C87.7742 52.1953 87.7742 51.128 87.7742 50.0602C87.7742 50.045 87.7742 50.0302 87.7742 50.0302C90.361 50.0302 92.9622 50.0302 95.5638 50.0302C95.5638 53.5941 95.5786 57.1577 95.5938 60.7368C94.8419 60.9921 94.09 61.2478 93.3533 61.5035C92.06 61.8042 90.8572 62.1051 89.5189 62.2554C87.6841 62.3308 86.1506 62.1653 84.3911 61.6539C81.0227 60.2554 79.0227 57.8795 78.0151 54.3909C77.5037 51.639 77.5037 49.2931 78.3158 46.5713C78.8572 45.233 79.5943 44.1352 80.4664 42.9777C82.0753 41.3685 83.6692 40.5565 85.8195 39.7897C88.9474 39.1128 91.9398 39.4887 94.9923 40.3308C94.6315 41.3384 94.2856 42.3609 93.9398 43.3837C91.8945 43.0527 91.8945 43.0527 90.6015 42.9324ZM105.415 45.8821C103.485 45.953 101.606 46.6928 99.6509 47.4729C99.9367 48.2397 100.23 49.0209 100.531 49.8029C101.373 49.5323 102.209 49.2632 103.066 49.0075C103.983 48.7971 105.054 48.7336 105.986 48.9139C107.46 49.5456 107.517 50.7177 107.577 52.161C104.915 52.3265 102.408 52.3735 100.138 53.8921C99.671 54.3731 99.1394 54.831 98.8087 55.4174C98.3125 56.7256 98.3733 57.8182 98.659 59.1417C99.3957 60.7056 100.198 61.529 101.822 62.1454C104.167 62.5815 105.806 61.6507 107.521 60.0868C107.551 60.0868 107.578 60.1093 107.623 60.1242C107.864 61.7334 107.923 61.7932 107.923 61.8834C109.051 61.8834 110.182 61.8966 111.31 61.9115C111.295 58.1071 111.279 54.2998 111.264 50.4954C110.948 48.7811 110.409 47.6196 108.98 46.612C107.757 46.0312 106.573 45.8396 105.415 45.8821ZM107.567 54.6314C107.582 55.5788 107.59 56.5418 107.605 57.5041C106.928 58.6472 105.203 59.184 103.955 59.3194C103.098 59.079 102.512 58.8441 102.121 57.972C101.61 54.8445 105.357 54.6915 107.567 54.6314ZM159.052 45.8541C157.188 46.0646 155.393 46.6949 153.709 47.4917C153.589 47.8528 154.288 49.3497 154.589 49.831C156.288 49.1994 157.716 48.7924 159.52 48.7924C159.58 48.8525 159.573 48.8593 160.175 48.9795C161.498 49.6713 161.486 50.7814 161.607 52.1798C158.359 52.3902 153.958 52.3602 152.605 56.0444C151.973 59.1121 153.515 61.8384 156.703 62.3045C158.659 62.3045 160.175 61.4157 161.513 60.0775C161.558 60.0623 161.608 60.0588 161.654 60.0588C161.879 61.6379 161.876 61.639 161.981 61.9396C163.079 61.9248 164.181 61.9115 165.294 61.9115C165.294 58.3175 165.288 54.7386 165.303 51.1598C165.107 48.9791 164.551 47.6953 162.702 46.4624C161.679 46.0564 161.236 45.9985 161.176 45.9383C160.47 45.9083 159.759 45.8842 159.052 45.8541ZM161.579 54.6127C161.579 55.6051 161.592 56.6186 161.607 57.6258C160.268 58.7388 157.728 60.3443 156.329 58.3744C154.856 55.1115 159.444 54.6728 161.579 54.6127ZM123.277 61.9396C123.277 56.7067 123.277 51.4735 123.277 46.2406C123.292 46.2406 123.307 46.2406 123.337 46.2406C124.601 46.2406 125.864 46.2406 127.142 46.2406C127.157 51.4586 127.172 56.6766 127.187 61.9095C125.909 61.9095 124.646 61.9247 123.383 61.9396C123.337 61.9396 123.307 61.9396 123.277 61.9396ZM115.187 38.1204C115.187 38.0903 115.187 38.0602 115.187 38.0302C116.496 38.0302 117.804 38.0302 119.127 38.0302C119.127 45.9849 119.127 53.9396 119.127 61.9095C117.819 61.9095 116.511 61.9095 115.217 61.9095C115.203 53.9697 115.187 46.045 115.187 38.1204ZM145.939 61.9095C145.939 56.6915 145.939 51.4735 145.939 46.2707C147.217 46.2558 148.511 46.2406 149.804 46.2406C149.819 51.4586 149.834 56.6766 149.849 61.9095C148.541 61.9095 147.232 61.9095 145.939 61.9095ZM125.112 42.7669C123.127 42.5264 122.616 40.3909 123.849 39.0077C125.804 37.7745 127.714 39.2783 127.142 41.5039C126.631 42.346 126.075 42.6767 125.112 42.7669ZM147.773 42.7668C146.104 42.4361 145.352 41.0077 146.149 39.4137C147.112 38.3308 148.585 38.2105 149.578 39.3684C150.3 40.8574 149.849 42.1355 148.345 42.7067C148.149 42.7219 147.954 42.7367 147.773 42.7668Z" fill="#141414"/>
</g>
</svg>
