<svg width="200" height="100" viewBox="0 0 200 100" fill="none" xmlns="http://www.w3.org/2000/svg">
<mask id="mask0_94_904" style="mask-type:alpha" maskUnits="userSpaceOnUse" x="0" y="0" width="200" height="100">
<rect width="200" height="100" fill="#D9D9D9"/>
</mask>
<g mask="url(#mask0_94_904)">
<path d="M123.691 57.832C124.72 63.0828 122.97 67.9218 120.19 70.7016C116.69 74.2021 109.483 74.9228 109.071 74.9228C97.9515 75.0258 86.3174 75.0258 75.198 74.9228C75.3009 74.7169 75.095 74.3051 75.198 73.9962C75.4039 73.4814 76.8453 73.1726 77.1542 72.6578C77.669 71.7312 77.566 69.0543 77.566 67.304V32.9163C77.566 30.3424 77.9778 27.2537 76.3305 26.3271C75.7128 26.0182 74.9921 26.2241 75.198 25.2975C75.198 25.1945 75.198 25.0916 75.3009 25.0916H101.349C104.232 25.0916 107.218 24.8857 109.998 25.0916C115.969 25.5034 120.705 29.4158 122.043 34.5636C123.279 39.7115 121.529 44.2416 118.749 46.6096C117.822 47.4333 116.69 48.051 115.557 48.7717C115.969 49.0806 116.587 49.2865 116.999 49.4924C120.396 51.1397 122.867 53.6107 123.691 57.832ZM113.601 31.5779C110.409 29.3128 104.438 29.5187 98.7752 29.5187H83.4346C83.3316 29.5187 83.2286 29.6217 83.2286 29.7247V46.4037C88.1706 46.5067 93.5244 46.5067 98.6722 46.5067C103.82 46.5067 109.277 46.8155 112.777 45.0653C115.145 43.9327 116.69 41.6677 116.896 38.6819C117.102 35.5932 115.66 33.0193 113.601 31.5779ZM118.337 60.8177C118.234 57.4201 116.793 54.9492 114.631 53.4048C110.306 50.3161 101.761 51.2427 94.5539 51.2427C90.8475 51.2427 86.5233 51.2427 83.2286 51.3457C83.0227 51.7575 83.1257 52.7871 83.1257 53.6107C83.1257 59.1704 83.1257 65.2449 83.2286 70.1868C90.4356 70.1868 98.1574 70.4957 105.261 70.1868C109.071 70.0839 112.057 69.775 114.425 68.3336C116.793 66.7892 118.337 64.4212 118.337 60.8177Z" fill="#141414"/>
<path d="M71.1832 36.6229H71.2862L71.4921 36.5199C71.5951 36.417 71.698 36.314 71.9039 36.2111C72.4187 35.6963 73.0365 34.9756 73.5513 35.5933C73.9631 35.9022 73.0365 37.3436 72.6246 37.8584C71.698 39.5057 70.8744 40.7412 69.9478 42.2856C69.5359 43.0063 69.1241 43.8299 68.5064 44.3447C67.2709 43.624 68.4034 42.5944 68.1975 41.6678C68.0945 41.5649 67.8886 41.3589 67.3738 41.0501C66.7561 40.6382 66.0354 40.3294 65.6236 40.1234C64.2851 39.5057 63.0496 38.9909 61.7112 38.682C58.7254 37.9613 54.6071 38.0643 52.0332 38.785C47.0913 40.1235 43.0759 44.3447 42.973 50.5221C42.87 54.5375 44.6203 57.4203 46.7824 59.4794C49.1504 61.6415 51.7243 63.1859 55.7397 63.3918C60.9905 63.7006 65.1088 61.8474 67.9916 59.2735C68.1975 59.1705 68.4034 58.9646 68.6093 58.7587L68.7123 58.6557C69.0211 57.8321 67.6827 56.3907 68.7123 55.9789C69.2271 55.7729 70.0507 57.1114 70.5655 57.7291C71.698 59.2735 72.5217 60.406 73.5513 61.8474C74.0661 62.4652 74.6838 63.1859 74.8897 64.0095C73.9631 64.7302 73.4483 63.9066 72.8306 63.4947L72.6246 63.3918C72.5217 63.3918 72.5217 63.2888 72.4187 63.2888C72.3158 63.3918 72.2128 63.3918 72.1099 63.4947C71.698 63.8036 71.2862 64.1125 71.0803 64.3184C69.0211 65.7598 66.7561 67.0982 63.9762 67.9219C60.5787 68.8485 55.019 69.0544 51.2096 68.2308C47.2972 67.4071 44.4144 65.5539 41.9434 63.0829C39.5754 60.7149 37.7222 57.4203 37.2074 53.302C36.5896 48.463 37.7222 44.6536 39.2665 41.9767C42.4582 36.417 47.9149 33.3283 55.9456 32.9164C61.6082 32.6076 66.4472 34.049 70.3596 36.1081C70.5655 36.2111 70.8744 36.417 71.1832 36.6229ZM72.7276 63.2888C72.7276 63.2888 72.6247 63.1859 72.5217 63.1859L72.7276 63.2888Z" fill="#141414"/>
<path d="M162.918 67.7159C162.712 68.3336 158.697 68.0247 157.358 68.0247C154.99 68.0247 153.24 68.1277 151.593 67.8188C151.387 66.4804 153.137 66.6863 153.24 65.5538C153.24 65.4508 153.24 65.2449 153.24 65.1419C153.137 65.039 153.137 64.936 153.137 64.936C152.931 64.6272 152.622 64.3183 152.416 64.1124C146.342 56.8024 140.062 49.8013 133.987 42.6973C133.575 42.2854 133.266 41.8736 132.855 41.3588C132.752 47.7422 132.855 58.3468 132.855 65.039C133.06 65.6567 133.369 66.1715 133.987 66.5833C134.605 66.9952 135.12 66.9952 134.914 67.6129C134.708 68.1277 133.678 68.0247 132.752 68.0247H127.501C126.677 68.0247 125.751 68.2307 125.133 67.7159C124.927 66.8922 126.883 66.2745 127.295 65.4508V65.3479C127.295 64.0094 127.295 62.2591 127.295 61.8473V39.6086V39.1967C127.192 37.6524 126.883 36.3139 125.853 35.7991C125.236 35.4903 124.515 35.5932 124.721 34.5637C124.721 34.4607 124.824 34.3577 125.03 34.2548H135.737C136.87 34.2548 138.002 34.0489 138.929 34.5637C139.135 35.7991 137.282 35.7991 137.179 36.9317C137.179 37.2405 137.179 37.5494 137.385 37.8583C142.841 44.3446 148.298 50.8309 153.858 57.2142C154.167 57.5231 154.373 57.832 154.681 58.1409C154.784 52.3753 154.784 45.2712 154.784 39.1967C154.784 38.579 154.784 37.9612 154.784 37.4465C154.681 36.9317 154.476 36.5198 154.064 36.211C153.961 36.108 153.858 36.108 153.858 36.0051L153.652 35.9021C152.931 35.4903 152.519 35.3873 152.622 34.8725C152.828 33.9459 156.123 34.3577 157.358 34.3577C159.418 34.3577 160.962 34.2548 162.403 34.5637C162.609 35.3873 161.786 35.6962 161.065 36.211L160.859 36.3139C160.653 36.5198 160.447 36.6228 160.344 36.9317V37.0346C160.344 37.2405 160.344 37.4465 160.344 37.6524C160.344 38.2701 160.344 38.9908 160.344 39.7115V61.8473C160.344 62.2591 160.344 62.671 160.344 62.9798C160.447 63.9065 160.55 64.6272 160.859 65.2449C161.168 65.8626 161.58 66.2745 161.991 66.6863C162.609 66.9952 163.124 66.9952 162.918 67.7159Z" fill="#141414"/>
</g>
</svg>
