<svg width="200" height="100" viewBox="0 0 200 100" fill="none" xmlns="http://www.w3.org/2000/svg">
<mask id="mask0_94_1247" style="mask-type:alpha" maskUnits="userSpaceOnUse" x="0" y="0" width="200" height="100">
<rect width="200" height="100" fill="#D9D9D9"/>
</mask>
<g mask="url(#mask0_94_1247)">
<path d="M79.8599 35.9576H95.7773V38.6826H82.635V47.4035H95.6621V50.1224H82.635V61.0587H95.6621V63.7836H79.8599V35.9576Z" fill="#141414"/>
<path d="M97.5283 43.2028H100.176V46.7593C100.919 45.6199 101.884 44.6416 103.012 43.8826C104.285 43.089 105.754 42.6686 107.253 42.6689C108.228 42.672 109.192 42.8786 110.083 43.2757C110.922 43.6232 111.672 44.1564 112.276 44.8354C112.942 45.6632 113.444 46.6108 113.755 47.6271C114.511 46.1325 115.64 44.8593 117.033 43.9312C118.296 43.1121 119.769 42.676 121.274 42.6749C122.605 42.649 123.914 43.0232 125.031 43.7491C126.131 44.487 126.977 45.5465 127.454 46.7836C127.982 48.0702 128.248 49.994 128.248 52.5673V63.8009H125.552V52.5611C125.552 50.3601 125.396 48.8449 125.085 48.0156C124.774 47.195 124.209 46.4955 123.474 46.0188C122.663 45.4991 121.715 45.2348 120.753 45.2603C119.493 45.2553 118.264 45.6528 117.245 46.3952C116.185 47.1523 115.375 48.2088 114.918 49.4296C114.429 50.6919 114.185 52.7978 114.185 55.7474V63.8009H111.543V53.2469C111.543 50.7588 111.388 49.0715 111.077 48.1855C110.788 47.3153 110.222 46.5644 109.465 46.0492C108.661 45.4999 107.705 45.2175 106.732 45.2421C105.504 45.2446 104.307 45.6306 103.309 46.3467C102.245 47.0848 101.423 48.1214 100.946 49.3265C100.437 50.5766 100.182 52.4883 100.182 55.0616V63.7766H97.5283V43.2028Z" fill="#141414"/>
<path d="M131.405 63.7763V35.2523H134.047V46.7348C135.05 45.4653 136.318 44.4297 137.761 43.7003C139.728 42.766 141.938 42.4712 144.08 42.8576C146.223 43.2439 148.191 44.2919 149.709 45.8547C150.713 46.8636 151.503 48.0643 152.034 49.3852C152.565 50.7062 152.825 52.1203 152.8 53.5441C152.822 54.9597 152.558 56.365 152.023 57.6752C151.487 58.9855 150.692 60.1732 149.685 61.1666C148.722 62.1818 147.559 62.9866 146.27 63.5308C144.982 64.0748 143.595 64.3465 142.196 64.3286C140.608 64.3472 139.04 63.9697 137.634 63.2301C136.2 62.4451 134.968 61.3378 134.034 59.9953V63.7763H131.405ZM141.978 61.7554C143.415 61.7672 144.829 61.3878 146.068 60.6577C147.307 59.9278 148.325 58.8744 149.013 57.6103C149.738 56.3407 150.119 54.9034 150.119 53.441C150.119 51.9784 149.738 50.5412 149.013 49.2715C148.312 47.9921 147.28 46.925 146.025 46.1824C144.816 45.4542 143.431 45.0702 142.02 45.0718C140.575 45.0721 139.156 45.4553 137.906 46.1824C136.638 46.8693 135.588 47.8998 134.877 49.1563C134.165 50.4569 133.806 51.9217 133.834 53.4046C133.804 54.5076 133.996 55.6056 134.399 56.6326C134.802 57.6598 135.407 58.595 136.179 59.3824C136.921 60.1665 137.817 60.7874 138.811 61.2054C139.806 61.6233 140.876 61.8292 141.954 61.81" fill="#141414"/>
<path d="M164.749 42.6757C166.233 42.6385 167.707 42.9274 169.068 43.5218C170.429 44.1163 171.643 45.0021 172.626 46.1169C174.478 48.1765 175.49 50.8584 175.461 53.6306C175.432 56.4028 174.364 59.0627 172.468 61.0828C171.457 62.1053 170.253 62.9166 168.927 63.4694C167.6 64.0223 166.177 64.3058 164.741 64.3036C163.304 64.3014 161.882 64.0133 160.557 63.4563C159.232 62.8992 158.031 62.0843 157.023 61.0585C155.128 59.0422 154.059 56.385 154.03 53.6155C154.001 50.846 155.013 48.1669 156.866 46.1108C157.847 44.9926 159.06 44.1034 160.421 43.5058C161.782 42.9081 163.257 42.6166 164.743 42.6514L164.749 42.6757ZM164.743 45.2429C163.681 45.2291 162.629 45.4381 161.654 45.8561C160.678 46.2743 159.8 46.8923 159.077 47.6705C158.307 48.4439 157.7 49.365 157.293 50.3785C156.886 51.3919 156.687 52.4773 156.708 53.5694C156.699 55.0257 157.071 56.4589 157.787 57.7267C158.466 58.9714 159.477 60.003 160.707 60.7066C161.941 61.3954 163.33 61.7569 164.743 61.7569C166.155 61.7569 167.544 61.3954 168.778 60.7066C170.008 60.003 171.019 58.9714 171.699 57.7267C172.414 56.4589 172.786 55.0257 172.777 53.5694C172.797 52.4768 172.597 51.3914 172.189 50.378C171.781 49.3645 171.173 48.4436 170.402 47.6705C169.679 46.894 168.802 46.277 167.828 45.8589C166.853 45.4409 165.803 45.2312 164.743 45.2429Z" fill="#141414"/>
<path d="M180 35.2584H177.358V63.7824H180V35.2584Z" fill="#141414"/>
<path d="M20 49.6292V58.9444C20 53.4569 30.5639 50.8609 42.0931 48.9302C46.5295 48.188 50.5571 44.9792 54.7414 44.3018C56.8259 43.9661 58.9381 44.2156 60.8904 44.465C62.9964 44.7329 64.9118 45.0039 66.3937 44.5328C69.3636 43.5905 71.196 42.4572 71.196 40.976V31.6084C71.1806 47.5013 20 44.0246 20 49.6292Z" fill="#A2A2A2"/>
<path d="M20 59.243V68.5583C20 62.9937 31.7444 60.4317 43.9808 58.4146C48.076 57.7402 51.8853 54.7347 55.6637 54.1034C57.5453 53.7955 59.4146 54.0111 61.1456 54.239C62.9902 54.4853 64.6966 54.7285 66.0647 54.2943C69.2099 53.312 71.1621 52.1388 71.1621 50.599V41.2222C71.1806 57.1182 20 53.6385 20 59.243Z" fill="#A2A2A2"/>
<path fill-rule="evenodd" clip-rule="evenodd" d="M20 36.9328C22.1275 49.5246 64.4967 15.3276 71.1806 31.6085V40.9761C58.5691 15.4322 27.9506 54.8489 20 46.2481V36.9328Z" fill="#141414"/>
<path fill-rule="evenodd" clip-rule="evenodd" d="M20 49.6291C22.1275 62.224 64.4967 28.0239 71.1806 44.3048V53.6724C58.5753 28.1132 27.9506 67.5452 20 58.9444V49.6291Z" fill="#141414"/>
<path fill-rule="evenodd" clip-rule="evenodd" d="M20 62.3251C22.1275 74.9168 64.4967 40.7198 71.1806 56.9884V66.356C58.5753 40.7968 27.9506 80.2289 20 71.628V62.3251Z" fill="#141414"/>
</g>
</svg>
