<svg width="200" height="100" viewBox="0 0 200 100" fill="none" xmlns="http://www.w3.org/2000/svg">
<mask id="mask0_94_1023" style="mask-type:alpha" maskUnits="userSpaceOnUse" x="0" y="0" width="200" height="100">
<rect width="200" height="100" fill="#D9D9D9"/>
</mask>
<g mask="url(#mask0_94_1023)">
<path d="M72.1421 42.3444H80.9288V43.8136H73.6168V49.3993H80.0123V50.8686H73.6168V56.1457H81.1758V57.615H72.1421V42.3444Z" fill="#141414"/>
<path d="M84.8666 53.2289C84.871 53.6436 84.9609 54.0531 85.1308 54.4321C85.3008 54.8111 85.5471 55.1516 85.8547 55.4328C86.1889 55.753 86.5852 56.0025 87.0196 56.1662C87.454 56.33 87.9174 56.4045 88.3818 56.3854C90.5309 56.3854 91.8945 55.232 92.1612 53.8803C92.4305 52.1294 91.1731 51.0887 89.2315 50.6454L87.154 50.1777C84.7381 49.6463 83.5302 48.3607 83.5302 46.3429C83.5217 45.7698 83.6486 45.2027 83.9009 44.6869C84.1531 44.1711 84.5236 43.721 84.9827 43.3725C85.9262 42.5835 87.1252 42.1584 88.3595 42.1751C89.7478 42.1751 90.8866 42.5742 91.8055 43.3995C92.2586 43.7889 92.6182 44.2737 92.858 44.8186C93.0977 45.3634 93.2116 45.9545 93.1913 46.5486H91.7092C91.7092 44.7953 90.3011 43.6444 88.3546 43.6444C87.5073 43.6389 86.6821 43.9119 86.0078 44.4206C85.6947 44.6367 85.4394 44.9251 85.2638 45.2608C85.0882 45.5966 84.9977 45.9696 85 46.3478C85 47.5893 85.8275 48.3877 87.4702 48.7648L89.5724 49.23C90.9385 49.541 92.0106 50.0945 92.7838 50.9148C93.5569 51.7351 93.8336 52.8004 93.6335 54.1521C93.4155 55.1861 92.8277 56.1072 91.9784 56.7454C91.062 57.48 89.8763 57.8546 88.399 57.8546C87.7359 57.8781 87.0751 57.7639 86.4591 57.5193C85.8431 57.2747 85.2855 56.9052 84.8221 56.4344C83.8834 55.4826 83.4141 54.4215 83.4141 53.2509L84.8666 53.2289Z" fill="#141414"/>
<path d="M108.998 55.5551C108.292 56.2952 107.438 56.8808 106.491 57.2743C105.543 57.6678 104.523 57.8604 103.496 57.8398C102.494 57.8656 101.497 57.6769 100.575 57.2864C99.6522 56.896 98.8254 56.3129 98.1508 55.5771C96.7422 54.0655 95.9806 52.0708 96.0264 50.0135C96.0264 47.8096 96.718 45.9558 98.1286 44.4498C99.5391 42.9438 101.325 42.1651 103.496 42.1651C104.52 42.1446 105.537 42.3373 106.481 42.7309C107.424 43.1244 108.274 43.7101 108.975 44.4498L107.945 45.4685C107.369 44.8785 106.678 44.4111 105.913 44.0949C105.149 43.7787 104.327 43.6204 103.499 43.6295C102.686 43.6089 101.878 43.7647 101.132 44.0862C100.386 44.4077 99.7202 44.887 99.1809 45.4906C98.0983 46.7532 97.5039 48.3564 97.5039 50.0135C97.5039 51.6706 98.0983 53.2737 99.1809 54.5364C99.7246 55.1331 100.392 55.6063 101.137 55.9237C101.882 56.2411 102.688 56.3952 103.499 56.3754C104.334 56.3901 105.162 56.2322 105.932 55.9118C106.702 55.5913 107.396 55.1154 107.97 54.5143L108.998 55.5551Z" fill="#141414"/>
<path d="M111.681 57.6147H110.092L116.021 42.3416H117.587L123.516 57.6147H121.927L120.364 53.6036H113.225L111.681 57.6147ZM119.833 52.2273L116.802 44.3912L113.761 52.2273H119.833Z" fill="#141414"/>
<path d="M126.174 42.3444H127.656V56.1457H134.188V57.615H126.174V42.3444Z" fill="#141414"/>
<path d="M136.842 57.6147H135.253L141.182 42.3416H142.748L148.677 57.6147H147.086L145.522 53.6036H138.386L136.842 57.6147ZM145.006 52.2273L141.963 44.3912L138.934 52.2273H145.006Z" fill="#141414"/>
<path d="M153.68 45.5792H149.7V42.3444H161.397V45.5792H157.415V57.615H153.68V45.5792Z" fill="#141414"/>
<path d="M173.919 57.615H163.722V42.3444H173.719V45.5792H167.457V48.5055H172.958V51.6767H167.457V54.3703H173.919V57.615Z" fill="#141414"/>
<path d="M189.978 54.3138C189.264 55.39 188.291 56.2735 187.147 56.8851C186.003 57.4967 184.724 57.8173 183.424 57.818C182.391 57.8347 181.366 57.6405 180.412 57.2475C179.458 56.8544 178.595 56.2709 177.879 55.5333C176.771 54.4407 176.015 53.0473 175.706 51.5291C175.397 50.0108 175.549 48.4359 176.143 47.0032C176.736 45.5704 177.744 44.3441 179.04 43.4792C180.336 42.6142 181.862 42.1494 183.424 42.1433C184.727 42.1408 186.011 42.4595 187.159 43.0708C188.306 43.682 189.283 44.5667 190 45.6451C187.92 47.0874 186.89 47.7976 186.89 47.7976C186.528 47.2095 186.02 46.7233 185.415 46.3855C184.809 46.0476 184.127 45.8694 183.432 45.8679C182.891 45.8571 182.354 45.9607 181.856 46.1719C181.359 46.383 180.912 46.6968 180.547 47.0923C179.788 47.872 179.364 48.9131 179.364 49.9966C179.364 51.08 179.788 52.1212 180.547 52.9008C180.917 53.2884 181.365 53.5951 181.862 53.8013C182.359 54.0075 182.893 54.1087 183.432 54.0983C184.13 54.1022 184.817 53.929 185.428 53.595C186.039 53.2611 186.553 52.7776 186.922 52.1907L189.978 54.3138Z" fill="#141414"/>
<path d="M25.9409 29.7958C24.8037 29.7951 23.6688 29.8989 22.5494 30.1061L22.6936 30.878C23.7655 30.6809 24.8521 30.5821 25.9409 30.5829C36.257 30.5829 44.6502 39.2937 44.6502 50.0076C44.6502 60.7214 36.257 69.4323 25.9409 69.4323C22.9613 69.4278 20.0261 68.6872 17.3804 67.2723C14.7347 65.8574 12.4554 63.8093 10.733 61.2991L10.5644 61.1654L10 61.6018C11.7881 64.2544 14.1703 66.4218 16.9441 67.9195C19.7178 69.4173 22.8009 70.2011 25.9311 70.2042C36.6651 70.2042 45.3979 61.1402 45.3979 50.0025C45.3979 38.8648 36.6749 29.7958 25.9409 29.7958Z" fill="#141414"/>
<path d="M25.9404 31.9024C24.9378 31.9031 23.9371 31.9934 22.9496 32.1723L23.0913 32.9443C24.0362 32.7745 24.9936 32.6901 25.9526 32.692C35.1521 32.692 42.6339 40.4568 42.6339 50.0052C42.6339 59.5536 35.1521 67.3159 25.9526 67.3159C21.6394 67.3211 17.4942 65.5899 14.3976 62.49V62.49L14.08 62.104L13.5913 62.7801C15.2049 64.4656 17.1264 65.8038 19.2445 66.7171C21.3626 67.6303 23.6352 68.1005 25.9306 68.1005C35.5455 68.1005 43.3693 59.9825 43.3693 50.0027C43.3693 40.0229 35.5553 31.9024 25.9404 31.9024Z" fill="#141414"/>
<path d="M25.9408 34.1854C25.0752 34.1859 24.2111 34.2627 23.3581 34.4149L23.5023 35.1869C24.3094 35.0435 25.1268 34.9718 25.9457 34.9724C29.7737 35.0236 33.4281 36.6296 36.1176 39.4425C38.807 42.2554 40.315 46.0488 40.315 50.0014C40.315 53.9539 38.807 57.7473 36.1176 60.5602C33.4281 63.3731 29.7737 64.9791 25.9457 65.0303C23.3306 65.0332 20.7645 64.2978 18.525 62.9037L17.5672 62.3234L17.1665 62.9213C19.7291 64.8073 22.7987 65.819 25.9457 65.8148C34.3462 65.8148 41.1854 58.721 41.1854 50.0026C41.1854 41.2842 34.3413 34.1854 25.9408 34.1854Z" fill="#141414"/>
<path d="M25.9407 36.559C25.2219 36.5587 24.5043 36.6203 23.7954 36.7432L23.9396 37.5151C25.6075 37.2374 27.3131 37.3189 28.9492 37.7543C30.5852 38.1897 32.1164 38.9697 33.4464 40.0454C34.7765 41.121 35.8768 42.469 36.6781 44.0046C37.4795 45.5403 37.9646 47.2304 38.1029 48.9689C38.2413 50.7074 38.03 52.4566 37.4822 54.1067C36.9345 55.7568 36.0621 57.2722 34.92 58.5576C33.7778 59.8429 32.3905 60.8706 30.8453 61.5759C29.3001 62.2813 27.6302 62.6491 25.9407 62.6562C24.9212 62.6572 23.9056 62.525 22.9182 62.2627L21.3251 61.7102L20.8511 62.3611C22.4583 63.0767 24.1904 63.4451 25.9407 63.4433C29.3629 63.3949 32.629 61.9574 35.0324 59.4418C37.4359 56.9261 38.7834 53.5347 38.7834 50.0012C38.7834 46.4677 37.4359 43.0762 35.0324 40.5606C32.629 38.045 29.3629 36.6074 25.9407 36.559V36.559Z" fill="#141414"/>
<path d="M25.9399 38.8574C25.3628 38.8567 24.7867 38.9048 24.2173 39.0012L24.3614 39.7732C24.8833 39.6859 25.4112 39.642 25.9399 39.642C28.6007 39.642 31.1526 40.7333 33.0341 42.6758C34.9156 44.6184 35.9726 47.253 35.9726 50.0002C35.9726 52.7473 34.9156 55.3819 33.0341 57.3245C31.1526 59.267 28.6007 60.3583 25.9399 60.3583C25.6394 60.3583 25.3413 60.3457 25.048 60.318L24.9796 61.0748H24.8868C25.2337 61.1101 25.5832 61.1277 25.9399 61.1277C28.7745 61.0837 31.4785 59.8902 33.4679 57.8051C35.4574 55.72 36.5725 52.9106 36.5725 49.9838C36.5725 47.0569 35.4574 44.2475 33.4679 42.1624C31.4785 40.0773 28.7745 38.8838 25.9399 38.8398V38.8574Z" fill="#141414"/>
<path d="M25.9415 41.0975C25.503 41.0974 25.0652 41.1319 24.6318 41.2009L24.776 41.9754C25.1617 41.9145 25.5513 41.8841 25.9415 41.8846C27.9581 41.8942 29.8939 42.7035 31.349 44.145C32.804 45.5865 33.667 47.5501 33.7595 49.6299C33.8521 51.7097 33.1671 53.7467 31.8462 55.3199C30.5254 56.8931 28.6695 57.8822 26.6623 58.0827L26.7576 58.8648C28.9588 58.6411 30.9927 57.5528 32.4388 55.825C33.885 54.0971 34.633 51.8617 34.5282 49.5807C34.4235 47.2997 33.4739 45.1474 31.8759 43.5686C30.2778 41.9898 28.1533 41.1051 25.9415 41.0975Z" fill="#141414"/>
<path d="M25.9402 43.3379C25.6402 43.338 25.3405 43.3599 25.0435 43.4035L25.1901 44.178C25.4386 44.1425 25.6893 44.1248 25.9402 44.125C27.3142 44.1371 28.6376 44.6615 29.6666 45.6017C30.6955 46.5419 31.3605 47.8344 31.5391 49.241C31.7176 50.6476 31.3977 52.0734 30.6382 53.2556C29.8787 54.4378 28.7308 55.2966 27.4062 55.6739L27.6115 56.4307C29.1153 56.0029 30.4183 55.0275 31.2798 53.6849C32.1412 52.3424 32.5029 50.7232 32.2979 49.1267C32.093 47.5302 31.3353 46.0643 30.1648 44.9997C28.9944 43.9352 27.4903 43.344 25.9304 43.3354L25.9402 43.3379Z" fill="#141414"/>
<path d="M25.9408 45.7518C25.7898 45.7514 25.6389 45.7598 25.4888 45.7771L25.6354 46.5515C25.7355 46.5515 25.8382 46.5389 25.9408 46.5389C26.7018 46.5414 27.4394 46.811 28.0325 47.3034C28.6255 47.7958 29.0388 48.4817 29.2044 49.2486C29.3701 50.0155 29.2783 50.8177 28.9441 51.5236C28.6099 52.2295 28.0532 52.7971 27.3653 53.1332L27.3946 53.2215L27.6634 53.8547C28.5098 53.4456 29.1962 52.7513 29.6098 51.886C30.0234 51.0207 30.1395 50.0359 29.939 49.0935C29.7386 48.151 29.2336 47.307 28.507 46.7002C27.7803 46.0933 26.8754 45.7598 25.9408 45.7544V45.7518Z" fill="#141414"/>
<path d="M58.0181 43.547H41.0314C40.4813 43.5451 39.9398 43.4063 39.4527 43.1423C38.9657 42.8783 38.5475 42.4969 38.2336 42.0305C37.9197 41.564 37.7194 41.0264 37.6497 40.463C37.5799 39.8996 37.6428 39.3272 37.833 38.7943C38.0786 38.1235 38.5161 37.5457 39.0875 37.1379C39.6588 36.7301 40.3369 36.5115 41.0314 36.5112H58.023C58.5726 36.5137 59.1135 36.6528 59.6 36.9168C60.0865 37.1809 60.5042 37.5621 60.8177 38.0281C61.1313 38.4941 61.3315 39.0313 61.4013 39.5941C61.4712 40.1569 61.4086 40.7289 61.219 41.2615V41.2615C60.9737 41.9331 60.5359 42.5117 59.9641 42.92C59.3922 43.3283 58.7134 43.547 58.0181 43.547V43.547Z" fill="#141414"/>
<path d="M47.7607 47.6036H37.0316C36.3356 47.6048 35.6565 47.8253 35.085 48.2355C34.5135 48.6457 34.0768 49.2261 33.8332 49.8992V49.8992C33.644 50.4319 33.5819 51.0038 33.6521 51.5664C33.7223 52.1291 33.9227 52.6661 34.2365 53.1318C34.5503 53.5976 34.9681 53.9784 35.4547 54.2422C35.9412 54.5059 36.4821 54.6447 37.0316 54.6469H47.7607C48.4563 54.6452 49.1349 54.4245 49.7059 54.0143C50.2769 53.6042 50.7132 53.024 50.9567 52.3513V52.3513C51.1458 51.8188 51.208 51.2472 51.1379 50.6847C51.0678 50.1222 50.8675 49.5854 50.554 49.1197C50.2405 48.654 49.823 48.2731 49.3368 48.0092C48.8506 47.7453 48.31 47.6062 47.7607 47.6036V47.6036Z" fill="#141414"/>
<path d="M49.7906 59.3464H32.799C32.1037 59.348 31.4254 59.5683 30.8544 59.9779C30.2834 60.3876 29.8469 60.9672 29.603 61.6395V61.6395C29.4129 62.1722 29.35 62.7444 29.4196 63.3076C29.4892 63.8708 29.6893 64.4083 30.0029 64.8747C30.3165 65.341 30.7344 65.7225 31.2211 65.9866C31.7079 66.2508 32.2491 66.3899 32.799 66.3922H49.7906C50.4866 66.391 51.1657 66.1705 51.7372 65.7604C52.3087 65.3502 52.7454 64.7698 52.989 64.0966V64.0966C53.1787 63.5638 53.2412 62.9917 53.1713 62.4286C53.1013 61.8656 52.9009 61.3283 52.5871 60.8622C52.2732 60.3961 51.8552 60.015 51.3684 59.7511C50.8816 59.4873 50.3404 59.3484 49.7906 59.3464V59.3464Z" fill="#141414"/>
</g>
</svg>
