<svg width="200" height="100" viewBox="0 0 200 100" fill="none" xmlns="http://www.w3.org/2000/svg">
<mask id="mask0_94_841" style="mask-type:alpha" maskUnits="userSpaceOnUse" x="0" y="0" width="200" height="100">
<rect width="200" height="100" fill="#D9D9D9"/>
</mask>
<g mask="url(#mask0_94_841)">
<path d="M131.001 39.0298C130.235 36.2239 128.455 34.1279 126.212 32.3812C124.003 30.657 121.569 29.3611 118.944 28.3807C116.938 27.6369 114.898 26.9833 112.802 26.51C108.599 25.5634 104.35 25.0789 100.034 25C97.9496 25.1465 95.8648 25.2817 93.78 25.4395C91.1882 25.6423 88.6414 26.1382 86.1397 26.7805C84.2352 27.2763 82.3421 27.9074 80.5165 28.6286C78.7473 29.3273 77.0457 30.195 75.4567 31.2768C73.3607 32.6967 71.4563 34.3194 70.1716 36.5507C69.4053 37.8691 68.932 39.2778 68.8757 40.8103C68.7968 42.7937 69.4391 44.5629 70.4984 46.1969C71.9634 48.462 74.0368 50.1072 76.3132 51.4708C79.4459 53.3527 82.8492 54.6035 86.3989 55.46C89.1936 56.1361 92.0221 56.632 94.8844 56.8686C97.4086 57.0827 99.9216 57.2179 102.457 57.0376C104.384 56.9024 106.322 56.7672 108.238 56.508C111.461 56.091 114.628 55.3924 117.704 54.288C120.048 53.4428 122.313 52.4624 124.409 51.0989C126.854 49.51 129.018 47.6619 130.337 44.9799C131.261 43.0754 131.565 41.1033 131.001 39.0298ZM79.1417 47.5041C78.9501 47.9098 78.7585 48.3155 78.5782 48.7211C78.2289 49.4536 77.9584 49.5438 77.2823 49.1156C75.8737 48.2253 74.5552 47.2336 73.4847 45.949C72.2902 44.5066 71.4901 42.8726 71.5464 40.9681C71.6027 38.9172 72.5381 37.2268 73.9242 35.7731C75.5694 34.0377 77.564 32.8094 79.7051 31.7726C82.6689 30.3528 85.8016 29.4512 89.002 28.7976C89.3288 28.73 89.7232 28.6511 89.9824 29.1695C89.6556 29.5977 89.3288 30.0485 88.9569 30.4654C87.3906 32.291 86.0834 34.3082 84.8663 36.3704C83.6267 38.4664 82.466 40.6188 81.3391 42.7824C80.5278 44.315 79.8629 45.9264 79.1417 47.5041ZM105.691 49.6452C105.252 50.6143 104.756 51.5722 104.17 52.4512C103.246 53.8147 101.871 54.4458 100.248 54.4458C97.003 54.457 93.78 54.1528 90.5797 53.6569C88.6076 53.3527 86.6806 52.9019 84.7762 52.3497C84.393 52.2371 83.9873 52.1469 83.6831 51.6173C83.9873 51.3243 84.2691 51.0087 84.6071 50.7496C86.8947 48.9916 89.4302 47.6731 92.0672 46.5575C93.4307 45.9715 94.8055 45.3968 96.2029 44.9122C98.2426 44.2136 100.271 43.4811 102.412 43.143C103.347 42.9965 104.271 42.9965 105.184 43.3233C106.142 43.6727 106.706 44.4277 106.751 45.4532C106.796 46.9519 106.3 48.3267 105.691 49.6452ZM103.607 37.3958C101.792 38.0494 99.9104 38.5115 98.0397 38.9848C97.0593 39.2327 96.0338 39.2101 95.0647 38.8495C93.7913 38.3875 93.4194 37.4635 93.4983 36.269C93.6561 33.925 94.659 31.8628 95.8986 29.9245C97.003 28.2004 98.682 27.5806 100.688 27.7384C101.161 27.7722 101.646 27.7496 102.119 27.7609C104.587 27.8285 107.044 28.0426 109.478 28.5046C111.348 28.854 113.196 29.2935 115.045 29.6992C115.349 29.7668 115.642 29.8569 115.924 29.9809C116.138 30.0823 116.329 30.2513 116.622 30.4542C116.329 30.7584 116.16 30.9951 115.935 31.1754C114.154 32.5953 112.205 33.7785 110.131 34.7026C107.99 35.6717 105.815 36.607 103.607 37.3958ZM126.866 45.6898C125.705 47.1998 124.195 48.3155 122.572 49.2959C120.916 50.2988 119.158 51.144 117.321 51.7187C115.225 52.3723 113.084 52.8794 110.965 53.4203C110.74 53.4766 110.469 53.3189 110.221 53.2625C110.21 53.1949 110.199 53.1273 110.176 53.0484C110.413 52.7329 110.65 52.4061 110.909 52.0906C112.622 50.0283 114.143 47.8309 115.473 45.4982C116.532 43.6501 117.591 41.802 118.572 39.9201C119.428 38.2636 120.161 36.5507 120.949 34.8603C121.197 34.3307 121.423 33.7898 121.693 33.2601C121.93 32.7981 122.212 32.6854 122.651 32.9446C124.77 34.218 126.685 35.728 127.835 37.9818C129.221 40.754 128.691 43.312 126.866 45.6898Z" fill="#141414"/>
<path d="M134.291 63.235C131.744 63.235 129.209 63.235 126.662 63.235C125.4 63.235 124.16 63.9225 124.171 65.7142C124.194 68.6554 124.183 71.5853 124.183 74.5265C124.183 74.673 124.205 74.8195 124.217 74.966C125.174 74.966 126.087 74.966 127.034 74.966C127.034 73.7941 127.034 72.6446 127.034 71.4727C128.713 71.4727 130.302 71.4727 131.981 71.4727C131.981 72.6559 131.981 73.8053 131.981 74.966C132.973 74.966 133.874 74.966 134.821 74.966C134.821 71.0557 134.821 67.1792 134.821 63.2576C134.618 63.2463 134.46 63.235 134.291 63.235ZM131.913 68.7456C130.302 68.7456 128.702 68.7456 127.023 68.7456C127.023 68.3962 127.023 68.0469 127.023 67.7088C127.023 67.3031 127.023 66.8975 127.034 66.4918C127.045 66.1762 127.18 65.9058 127.518 65.9058C128.972 65.8832 130.437 65.8945 131.925 65.8945C131.913 66.8411 131.913 67.7652 131.913 68.7456Z" fill="#141414"/>
<path d="M111.178 63.2352C111.37 63.2352 111.528 63.2352 111.674 63.2352C114.243 63.2352 116.813 63.2352 119.382 63.2352C120.565 63.2352 121.456 63.8663 121.726 64.903C121.816 65.2411 121.839 65.6017 121.839 65.9398C121.85 68.0583 121.85 70.1769 121.839 72.2955C121.839 73.2083 121.647 74.076 120.802 74.6056C120.475 74.8084 120.081 74.9662 119.709 74.9775C116.948 75.0113 114.176 75 111.415 74.9887C111.347 74.9887 111.28 74.9662 111.178 74.9549C111.178 71.0559 111.178 67.1681 111.178 63.2352ZM114.029 72.3405C115.539 72.3405 117.004 72.3405 118.458 72.3293C118.582 72.3293 118.706 72.2391 118.931 72.149C118.931 70.1206 118.976 68.0809 118.897 66.1201C118.469 65.8609 114.739 65.7707 114.029 65.9398C114.029 68.0583 114.029 70.1656 114.029 72.3405Z" fill="#141414"/>
<path d="M87.6948 63.269C87.6948 66.2891 87.6948 69.2754 87.6948 72.3067C87.8638 72.318 87.9991 72.3405 88.1343 72.3405C89.3964 72.3405 90.6585 72.3405 91.9319 72.3405C92.4616 72.3405 92.6419 72.1715 92.6419 71.6306C92.6419 69.0275 92.6419 66.4356 92.6419 63.8325C92.6419 63.6522 92.6419 63.4719 92.6419 63.2578C93.611 63.2578 94.5463 63.2578 95.5042 63.2578C95.5154 63.4606 95.538 63.6184 95.538 63.7761C95.538 66.6835 95.538 69.5909 95.538 72.4983C95.538 74.0083 94.5689 74.9775 93.0701 74.9775C90.512 74.9775 87.954 74.9775 85.3959 74.9775C85.2269 74.9775 85.0691 74.9775 84.8438 74.9775C84.8438 71.0559 84.8438 67.1793 84.8438 63.2578C85.7903 63.269 86.7031 63.269 87.6948 63.269Z" fill="#141414"/>
<path d="M62.5414 63.2693C62.5414 64.7456 62.5414 66.188 62.5414 67.6642C64.1979 67.6642 65.7981 67.6642 67.4772 67.6642C67.4772 66.2105 67.4772 64.7569 67.4772 63.2693C68.4463 63.2693 69.3478 63.2693 70.2944 63.2693C70.2944 67.1684 70.2944 71.0562 70.2944 74.9665C69.3704 74.9665 68.4689 74.9665 67.4885 74.9665C67.4885 73.4114 67.4885 71.8563 67.4885 70.3012C65.8207 70.3012 64.2205 70.3012 62.5527 70.3012C62.5527 71.8563 62.5527 73.4001 62.5527 74.9665C61.5723 74.9665 60.6708 74.9665 59.7129 74.9665C59.7129 71.0675 59.7129 67.1909 59.7129 63.2693C60.6257 63.2693 61.5497 63.2693 62.5414 63.2693Z" fill="#141414"/>
<path d="M108.621 74.9777C107.663 74.9777 106.773 74.9777 105.826 74.9777C105.815 74.7861 105.803 74.6058 105.803 74.4255C105.803 71.8562 105.803 69.2869 105.803 66.7176C105.803 66.064 105.634 65.8837 104.992 65.8837C103.775 65.8837 102.547 65.8837 101.33 65.8837C101.194 65.8837 101.059 65.8949 100.868 65.9062C100.868 68.915 100.868 71.9013 100.868 74.9439C99.8873 74.9439 98.9632 74.9439 98.0054 74.9439C98.0054 71.0674 98.0054 67.1796 98.0054 63.258C98.1969 63.2467 98.366 63.2242 98.5237 63.2242C101.082 63.2242 103.64 63.2242 106.198 63.2242C107.764 63.2242 108.632 64.0919 108.632 65.647C108.632 68.5882 108.632 71.5181 108.632 74.4593C108.621 74.6171 108.621 74.7636 108.621 74.9777Z" fill="#141414"/>
<path d="M71.3657 63.269C72.5152 63.269 73.5857 63.269 74.7126 63.269C75.6367 64.7227 76.5832 66.2102 77.5749 67.7766C78.5553 66.2328 79.5019 64.7453 80.4485 63.2578C81.5529 63.2578 82.6459 63.2578 83.8179 63.2578C83.4686 63.8437 83.153 64.3734 82.8262 64.8805C81.6317 66.7962 80.4147 68.7007 79.2315 70.6164C79.1075 70.8192 79.0399 71.0784 79.0286 71.3151C79.0061 72.3518 79.0173 73.3885 79.0173 74.4366C79.0173 74.5831 79.0061 74.7408 78.9948 74.9324C78.0482 74.9324 77.1354 74.9324 76.1776 74.9324C76.155 74.7746 76.1212 74.6056 76.1212 74.4478C76.1212 73.3773 76.1212 72.3067 76.11 71.2474C76.11 71.0671 76.0649 70.853 75.9747 70.6953C74.5548 68.4077 73.1237 66.1313 71.6925 63.8437C71.5911 63.686 71.501 63.5057 71.3657 63.269Z" fill="#141414"/>
<path d="M137.481 63.2578C138.428 63.2578 139.34 63.2578 140.287 63.2578C140.287 67.1455 140.287 71.0221 140.287 74.9437C139.352 74.9437 138.439 74.9437 137.481 74.9437C137.481 71.0671 137.481 67.1906 137.481 63.2578Z" fill="#141414"/>
</g>
</svg>
