<svg width="200" height="100" viewBox="0 0 200 100" fill="none" xmlns="http://www.w3.org/2000/svg">
<mask id="mask0_94_828" style="mask-type:alpha" maskUnits="userSpaceOnUse" x="0" y="0" width="200" height="100">
<rect width="200" height="100" fill="#D9D9D9"/>
</mask>
<g mask="url(#mask0_94_828)">
<path d="M73.9784 80.0485H75.4036V89.9999H73.9784V80.0485ZM74.691 78.2714C74.3347 78.2714 73.6221 77.916 73.6221 77.2052C73.6221 76.8498 73.9784 76.139 74.691 76.139C75.0473 76.139 75.7599 76.4944 75.7599 77.2052C75.7599 77.5606 75.4036 78.2714 74.691 78.2714Z" fill="#141414"/>
<path d="M83.9551 90.0001V83.2473C83.9551 81.8257 82.8862 81.1149 81.461 81.1149C80.7484 81.1149 79.6795 81.1149 79.3232 81.4703V90.0001H77.8979V80.7595C78.9669 80.404 80.0358 80.0486 81.461 80.0486C83.9551 80.0486 85.3803 81.1149 85.3803 83.2473V90.0001H83.9551V90.0001Z" fill="#141414"/>
<path d="M91.7928 90.0001H90.0113L86.4482 80.0486H88.2298L90.7239 87.1568C90.7239 87.8676 91.0802 88.5784 91.0802 88.5784C91.0802 88.5784 91.4365 87.8676 91.4365 87.1568L93.9306 80.0486H95.7122L91.7928 90.0001Z" fill="#141414"/>
<path d="M100.701 81.1149C98.9199 81.1149 97.851 82.5365 97.851 84.6689L103.196 83.9581C102.839 81.8257 102.127 81.1149 100.701 81.1149ZM104.621 84.6689L97.851 85.7352C97.851 87.8676 99.2762 88.9338 101.058 88.9338C102.127 88.9338 103.196 88.5784 103.908 88.223L104.264 89.2892C103.552 89.6446 102.483 90.0001 101.058 90.0001C98.2073 90.0001 96.4258 88.223 96.4258 85.0243C96.4258 81.8257 98.2073 80.0486 100.701 80.0486C103.196 80.0486 104.621 81.4703 104.621 84.3135C104.621 84.3135 104.621 84.6689 104.621 84.6689Z" fill="#141414"/>
<path d="M109.252 89.9996C107.47 89.9996 106.758 89.2888 106.758 87.1564V81.1144H105.333V80.0482H106.758V77.5604L108.183 77.205V80.0482H110.321V81.1144H108.183V87.1564C108.183 88.2226 108.896 88.578 109.608 88.578C109.964 88.578 109.964 88.578 110.321 88.578V89.9996C110.321 89.9996 109.964 89.9996 109.252 89.9996Z" fill="#141414"/>
<path d="M114.241 89.9997C113.172 89.9997 112.103 89.6443 111.39 89.2889L112.103 88.2226C112.459 88.5781 113.528 88.9335 114.597 88.9335C116.022 88.9335 116.735 88.2226 116.735 87.5118C116.735 86.4456 116.022 86.0902 114.597 85.7348C113.172 85.3794 111.746 84.6686 111.746 82.8915C111.746 81.4699 112.815 80.4037 114.953 80.4037C116.022 80.4037 117.091 80.7591 117.804 81.1145L117.447 82.1807C117.091 81.8253 116.022 81.4699 115.309 81.4699C114.241 81.4699 113.528 82.1807 113.528 82.8915C113.528 83.9578 114.241 84.3132 115.309 84.6686C116.735 85.3794 118.16 85.7348 118.16 87.5118C118.16 88.9335 116.735 89.9997 114.241 89.9997Z" fill="#141414"/>
<path d="M125.286 84.6689C123.148 84.6689 120.654 85.0243 120.654 86.8014C120.654 87.8676 121.367 88.5784 123.148 88.5784C123.861 88.5784 124.93 88.5784 125.286 88.223V84.6689V84.6689ZM123.505 90.0001C120.654 90.0001 119.585 88.9338 119.585 87.1568C119.585 84.3135 122.792 83.9581 125.643 83.6027V82.8919C125.643 81.4703 124.574 81.1149 123.148 81.1149C122.08 81.1149 121.011 81.4703 120.298 81.8257L119.942 80.7595C120.654 80.404 122.08 80.0486 123.148 80.0486C125.286 80.0486 126.712 80.7595 126.712 83.2473V89.6446C125.999 90.0001 124.93 90.0001 123.505 90.0001Z" fill="#141414"/>
<path d="M86.4486 25.3154C88.2301 23.5384 89.299 20.3397 87.8738 18.5627C85.3797 15.7194 82.1729 16.4302 80.3914 17.8519C78.2536 19.6289 77.8973 21.4059 78.6099 23.5384C79.3225 25.3154 83.5982 27.8033 86.4486 25.3154Z" fill="#141414"/>
<path d="M88.5868 40.9533C89.6557 31.7127 82.8859 26.737 76.8287 28.514C69.7026 30.6464 69.7026 40.9533 69.7026 43.0857C70.0589 48.4168 71.4842 51.6155 71.4842 51.6155C78.9666 69.3858 93.2187 70.8075 94.644 70.8075C98.5633 70.4521 99.9885 67.2534 95.7129 63.3439C91.0809 59.7898 90.012 56.5912 88.9431 53.0371C88.2305 49.1276 87.8742 45.5735 88.5868 40.9533Z" fill="#141414"/>
<path d="M102.839 70.0968C99.6318 66.8981 98.9192 61.567 98.5629 58.0129C98.2066 53.3926 97.8503 50.1939 95.7125 42.0196C90.3679 19.2735 90.7242 15.0086 91.7931 12.5207C93.2183 9.67748 97.8503 8.96667 102.839 11.8099C105.689 13.2316 111.746 16.4302 116.734 25.3154C121.723 34.2006 121.723 37.7547 123.861 39.8871C125.642 41.3087 124.929 35.6222 122.079 29.5803C120.297 24.2492 113.528 17.141 116.022 17.141C118.16 16.7856 122.792 18.9181 125.642 23.8938C128.492 28.8695 131.343 36.333 129.918 49.8385C129.918 49.8385 128.849 61.567 124.573 60.5008C122.792 60.1453 122.079 58.7237 121.723 51.6156C121.01 40.2425 116.022 39.1763 113.884 39.1763C110.321 39.5317 117.091 52.6818 115.666 62.6332C114.597 69.0305 106.758 72.94 102.839 70.0968Z" fill="#141414"/>
</g>
</svg>
