<svg width="200" height="100" viewBox="0 0 200 100" fill="none" xmlns="http://www.w3.org/2000/svg">
<mask id="mask0_94_1196" style="mask-type:alpha" maskUnits="userSpaceOnUse" x="0" y="0" width="200" height="100">
<rect width="200" height="100" fill="#D9D9D9"/>
</mask>
<g mask="url(#mask0_94_1196)">
<path d="M60.2742 75.1369H17.6986C16.6876 75.1369 15.6866 74.9379 14.7525 74.551C13.8185 74.1642 12.9698 73.5972 12.2549 72.8824C11.54 72.1675 10.9729 71.3189 10.586 70.3849C10.1991 69.4509 10 68.4498 10 67.4388V32.5601C10 31.5492 10.1991 30.5481 10.586 29.6142C10.9728 28.6802 11.5399 27.8316 12.2547 27.1168C12.9695 26.4019 13.8182 25.8349 14.7521 25.448C15.6861 25.0612 16.6871 24.8621 17.698 24.8621H52.5762C54.6177 24.8622 56.5756 25.6733 58.0191 27.117C59.4627 28.5606 60.2736 30.5185 60.2736 32.5601L60.2742 75.1369Z" fill="#141414"/>
<path d="M33.6187 71.6977V64.5885L30.1748 61.9676L33.5648 62.7622L32.605 59.2325L34.7303 60.4497L35.6414 57.7152L36.8586 61.9682L41.1121 61.3602L37.4665 64.3312V71.6977L40.6259 75.1381H30.3545L33.6187 71.6977Z" fill="white"/>
<path d="M55.0035 47.8233C54.5256 47.6235 54.0012 47.5618 53.4899 47.6452C52.9786 47.7286 52.501 47.9538 52.1114 48.2951C50.5778 49.4774 50.845 51.7569 50.845 51.7569C51.3205 51.8616 51.813 51.8616 52.2885 51.7569C52.764 51.6522 53.211 51.4454 53.5986 51.1507C54.1415 50.803 54.5664 50.2989 54.8172 49.7049C55.068 49.1109 55.1329 48.4549 55.0035 47.8233Z" fill="white"/>
<path d="M46.6052 44.647C46.5852 45.2153 46.701 45.7802 46.9429 46.2949C47.1848 46.8095 47.5459 47.2591 47.9962 47.6064C49.5611 48.8414 51.5456 47.7918 51.5456 47.7918C51.5528 47.2519 51.4376 46.7175 51.2086 46.2285C50.9796 45.7396 50.6429 45.3088 50.2236 44.9687C48.7381 43.8054 46.6052 44.647 46.6052 44.647Z" fill="white"/>
<path d="M50.3911 38.7354C50.0623 39.1621 49.8396 39.6608 49.7414 40.1905C49.6433 40.7201 49.6725 41.2655 49.8266 41.7817C50.3314 43.63 52.4006 43.9992 52.4006 43.9992C52.7033 43.5871 52.9093 43.1122 53.0033 42.6096C53.0973 42.107 53.0769 41.5897 52.9436 41.0961C52.4597 39.3503 50.3911 38.7354 50.3911 38.7354Z" fill="white"/>
<path d="M45.8714 34.8776C45.8714 34.8776 44.4039 34.414 43.1028 36.1655C42.785 36.647 42.5755 37.1917 42.4887 37.7621C42.4019 38.3325 42.44 38.9149 42.6003 39.4691C43.1531 39.5438 43.7159 39.465 44.227 39.2414C44.7382 39.0177 45.1779 38.6578 45.4982 38.201C45.8559 37.7329 46.0796 37.1764 46.1453 36.591C46.211 36.0056 46.1164 35.4134 45.8714 34.8776Z" fill="white"/>
<path d="M40.6207 32.2941C40.6207 32.2941 39.0037 32.3614 38.3024 34.5742C38.1462 35.162 38.1201 35.7768 38.2259 36.3757C38.3317 36.9746 38.5669 37.5432 38.915 38.0419C39.494 37.9139 40.0276 37.6318 40.4595 37.2254C40.8914 36.819 41.2054 36.3035 41.3684 35.7334C41.5703 35.1466 41.6074 34.5156 41.4755 33.9092C41.3437 33.3028 41.048 32.7441 40.6207 32.2941Z" fill="white"/>
<path d="M35.834 31.3987C35.3764 31.7308 34.994 32.1557 34.7119 32.6457C34.4297 33.1357 34.2542 33.6797 34.1967 34.2422C33.9863 36.1815 35.6914 37.4096 35.6914 37.4096C36.2158 37.1242 36.6551 36.7049 36.9646 36.1944C37.2742 35.6839 37.4428 35.1005 37.4534 34.5036C37.4983 33.8867 37.3706 33.2696 37.0846 32.7212C36.7986 32.1728 36.3656 31.7149 35.834 31.3987Z" fill="white"/>
<path d="M29.0024 33.0213C28.9016 33.5809 28.9175 34.1554 29.0492 34.7086C29.1808 35.2618 29.4253 35.7819 29.7674 36.2362C30.9347 37.7686 32.9824 37.4006 32.9824 37.4006C33.1392 36.8256 33.1408 36.2194 32.9869 35.6436C32.8331 35.0678 32.5293 34.5431 32.1066 34.123C31.2543 33.3664 30.141 32.9712 29.0024 33.0213Z" fill="white"/>
<path d="M37.7698 39.4353C37.3702 39.0504 36.8833 38.768 36.3508 38.6124C35.8182 38.4567 35.2559 38.4324 34.7119 38.5416C32.7147 38.8522 32.0679 40.9034 32.0679 40.9034C33.0289 41.5429 34.1869 41.8175 35.3327 41.6777C37.1491 41.4041 37.7698 39.4353 37.7698 39.4353Z" fill="white"/>
<path d="M29.2187 46.288C28.9785 46.7746 28.8535 47.3101 28.8535 47.8528C28.8535 48.3956 28.9785 48.931 29.2187 49.4177C29.474 49.9509 29.8659 50.407 30.3545 50.7398C30.8431 51.0726 31.4111 51.2701 32.0007 51.3124C32.3211 50.2281 32.2656 49.0673 31.8431 48.0186C31.5952 47.5258 31.2225 47.1066 30.7619 46.8029C30.3014 46.4992 29.7693 46.3216 29.2187 46.288Z" fill="white"/>
<path d="M23.6247 35.4606C23.5782 36.0265 23.6493 36.5958 23.8335 37.1328C24.0177 37.6699 24.3111 38.163 24.6951 38.5811C26.0009 39.9889 27.9988 39.4116 27.9988 39.4116C28.101 38.8254 28.0452 38.2225 27.8371 37.665C27.6289 37.1075 27.276 36.6155 26.8147 36.2396C25.8931 35.5749 24.7488 35.2955 23.6247 35.4606Z" fill="white"/>
<path d="M19.9867 39.0348C19.5642 39.3953 19.2245 39.8428 18.9907 40.3466C18.757 40.8504 18.6347 41.3987 18.6322 41.9541C18.5429 43.9688 20.6219 45.1332 20.6219 45.1332C21.0352 44.7115 21.3562 44.2086 21.5646 43.6562C21.7731 43.1038 21.8644 42.5141 21.8326 41.9246C21.6231 40.7553 20.9595 39.7164 19.9867 39.0348Z" fill="white"/>
<path d="M22.9305 41.4236C22.7842 41.9945 22.7564 42.5893 22.8488 43.1713C22.9412 43.7534 23.1518 44.3103 23.4678 44.8078C24.5452 46.4886 26.6792 46.2811 26.6792 46.2811C26.8496 45.0892 26.6231 43.8744 26.0347 42.8239C25.0633 41.2961 22.9305 41.4236 22.9305 41.4236Z" fill="white"/>
<path d="M27.5889 41.9077C27.6247 42.4632 27.8075 42.9991 28.1185 43.4608C28.4295 43.9224 28.8576 44.2931 29.3589 44.5349C31.1556 45.5028 33.1187 44.1837 33.1187 44.1837C33.0127 43.6679 32.7931 43.1823 32.4759 42.762C32.1587 42.3417 31.7518 41.9974 31.2849 41.7541C29.6626 40.8725 27.5889 41.9077 27.5889 41.9077Z" fill="white"/>
<path d="M40.0125 41.4836C39.5887 41.8512 39.2701 42.3247 39.0893 42.8558C38.9086 43.3869 38.8721 43.9564 38.9837 44.5062C39.2735 46.5805 41.4504 47.4649 41.4504 47.4649C42.1108 46.6287 42.4126 45.5647 42.2897 44.5062C42.2519 43.8336 42.0153 43.1873 41.6099 42.6492C41.2045 42.1111 40.6486 41.7055 40.0125 41.4836Z" fill="white"/>
<path d="M44.1919 45.843C43.7388 46.1722 43.3812 46.6159 43.1558 47.1286C42.9305 47.6414 42.8454 48.2048 42.9093 48.7612C43.0252 50.8524 45.1187 51.9315 45.1187 51.9315C45.4865 51.5528 45.7726 51.1027 45.9594 50.6089C46.1461 50.1151 46.2295 49.5882 46.2042 49.0609C46.2435 48.3821 46.0709 47.708 45.7105 47.1315C45.35 46.5551 44.8194 46.1049 44.1919 45.843Z" fill="white"/>
<path d="M48.2427 50.8182C47.7125 50.8208 47.1932 50.9693 46.7416 51.2474C46.2901 51.5254 45.9238 51.9223 45.6827 52.3946C44.6615 54.1067 45.7337 56.1387 45.7337 56.1387C46.2248 56.0487 46.6911 55.8554 47.1018 55.5716C47.5126 55.2879 47.8584 54.9201 48.1164 54.4927C48.5066 53.9649 48.7275 53.3311 48.7501 52.6751C48.7726 52.019 48.5957 51.3716 48.2427 50.8182Z" fill="white"/>
<path d="M51.7774 53.2174C51.051 53.4293 50.4065 53.8578 49.93 54.4458C49.4536 55.0337 49.168 55.7531 49.1113 56.5077C50.1424 57.2322 52.2683 56.8664 53.1029 56.0573C53.7689 55.3893 54.1438 54.4852 54.1462 53.542C53.0826 53.0626 52.4323 53.0099 51.7774 53.2174Z" fill="white"/>
<path d="M49.41 58.2144C48.6945 58.3104 48.026 58.6245 47.4954 59.114C46.9649 59.6035 46.598 60.2446 46.4448 60.9501C47.3241 61.7806 49.3862 61.7389 50.2828 61.0915C51.0035 60.5512 51.4802 59.747 51.6083 58.8554C50.6642 58.2521 50.0556 58.1095 49.41 58.2144Z" fill="white"/>
<path d="M43.8324 57.7039C43.1013 57.8979 42.4468 58.3106 41.9567 58.8869C41.4665 59.4631 41.1641 60.1753 41.0898 60.9281C42.1006 61.6746 44.2341 61.3663 45.089 60.5803C45.7711 59.9275 46.1681 59.032 46.1937 58.0881C45.1423 57.5845 44.4926 57.519 43.8324 57.7039Z" fill="white"/>
<path d="M40.3335 55.1393C39.6058 54.9209 38.8262 54.9505 38.117 55.2232C37.4079 55.496 36.8094 55.9965 36.4155 56.6462C36.903 57.8314 38.502 58.5982 40.0055 58.5008C40.4697 58.4483 40.9135 58.2806 41.2965 58.013C41.6796 57.7454 41.9896 57.3863 42.1986 56.9684C41.5541 55.9779 40.9896 55.3334 40.3335 55.1393Z" fill="white"/>
<path d="M30.4258 57.3691C31.1499 57.5569 31.9146 57.512 32.6116 57.2407C33.3087 56.9694 33.9025 56.4854 34.309 55.8576C33.7544 54.7031 31.7316 53.9392 30.6188 54.222C30.1747 54.3433 29.7597 54.5528 29.3984 54.8381C29.0371 55.1234 28.737 55.4786 28.5161 55.8825C29.2134 56.8394 29.7582 57.2132 30.4258 57.3691Z" fill="white"/>
<path d="M27.8657 49.9118C27.2819 50.1193 26.7658 50.4821 26.3729 50.9612C25.98 51.4403 25.7253 52.0175 25.6361 52.6306C25.2739 55.0788 26.5147 55.5158 26.5147 55.5158C27.6275 55.4335 28.5027 53.5377 28.5027 53.5377C29.2967 50.9023 27.8657 49.9118 27.8657 49.9118Z" fill="white"/>
<path d="M21.0244 49.3368C21.3438 49.8139 21.7861 50.196 22.3047 50.4426C22.8232 50.6892 23.3987 50.7911 23.9704 50.7376C24.5823 50.7167 25.1704 50.4956 25.6445 50.1082C26.1186 49.7209 26.4524 49.1886 26.5948 48.5932C26.2063 48.2234 25.7412 47.9434 25.2325 47.7732C24.7238 47.6029 24.184 47.5465 23.6511 47.6079C22.1314 47.8194 21.0244 49.3368 21.0244 49.3368Z" fill="white"/>
<path d="M16.6475 45.4651C16.3917 45.9608 16.2442 46.5053 16.2149 47.0624C16.1856 47.6195 16.2752 48.1765 16.4777 48.6963C17.1437 50.5932 19.4956 50.8407 19.4956 50.8407C19.4956 50.8407 20.2989 48.9797 19.4243 47.398C19.1146 46.9062 18.7093 46.4816 18.2322 46.1495C17.7552 45.8175 17.2163 45.5847 16.6475 45.4651Z" fill="white"/>
<path d="M15.2168 51.7404C15.1807 52.2942 15.2629 52.8494 15.458 53.369C15.6531 53.8887 15.9565 54.3608 16.3481 54.7542C17.7101 56.1997 19.9543 55.4201 19.9543 55.4201C19.9543 55.4201 19.9444 53.3806 18.5163 52.3136C18.0347 51.9976 17.4934 51.7837 16.9259 51.6851C16.3584 51.5865 15.7767 51.6053 15.2168 51.7404Z" fill="white"/>
<path d="M19.4307 59.964C19.7502 60.4407 20.1925 60.8224 20.7109 61.0687C21.2294 61.3149 21.8047 61.4166 22.3761 61.3631C22.9884 61.343 23.5771 61.1222 24.0516 60.7347C24.5261 60.3472 24.8601 59.8145 25.0022 59.2186C24.613 58.8494 24.1477 58.5699 23.6389 58.3997C23.1302 58.2295 22.5904 58.1727 22.0573 58.2333C20.54 58.4478 19.4307 59.964 19.4307 59.964Z" fill="white"/>
<path d="M25.6167 62.3565C25.6167 62.3565 27.0506 63.3418 28.9366 62.0667C30.8764 60.7505 30.4707 58.9886 30.4707 58.9886C29.9793 58.6998 29.4115 58.5678 28.8431 58.6104C28.2747 58.6529 27.7328 58.868 27.29 59.2268C26.0247 60.1176 25.6167 62.3565 25.6167 62.3565Z" fill="white"/>
<path d="M33.3554 52.4501C33.0482 51.6545 33.0482 50.7731 33.3554 49.9776C33.8078 49.9183 34.2676 49.9538 34.7056 50.0817C35.1436 50.2096 35.5503 50.4272 35.8997 50.7206C36.7865 51.4688 37.4136 53.6034 36.8555 54.7574C36.1035 54.7898 35.3605 54.5843 34.7321 54.1701C34.1037 53.7558 33.6219 53.1539 33.3554 52.4501Z" fill="white"/>
<path d="M42.5954 51.4468C43.1184 52.1167 43.3725 52.9577 43.3077 53.8051C42.8965 54.0006 42.4492 54.1087 41.9941 54.1225C41.539 54.1364 41.086 54.0557 40.6636 53.8857C39.603 53.4435 38.3888 51.5998 38.5893 50.3265C39.2893 50.0619 40.0555 50.0278 40.7761 50.2294C41.4968 50.4309 42.1342 50.8575 42.5954 51.4468Z" fill="white"/>
<path d="M35.9399 42.8059C36.4148 43.136 36.8109 43.5669 37.0999 44.0679C37.389 44.5688 37.5638 45.1274 37.612 45.7038C37.7331 48.0018 36.2627 48.8799 36.2627 48.8799C35.7573 48.5631 35.3355 48.1294 35.033 47.6154C34.7304 47.1013 34.5559 46.522 34.5243 45.9264C34.4926 45.3308 34.6047 44.7363 34.8511 44.193C35.0975 43.6498 35.4709 43.1744 35.9399 42.8059Z" fill="white"/>
<path d="M48.1177 41.2433C47.9509 41.7985 47.6315 42.2957 47.1959 42.6782C46.7603 43.0608 46.226 43.3133 45.6539 43.4069C45.1065 43.5065 44.5422 43.4547 44.0221 43.257C43.502 43.0594 43.0458 42.7234 42.7026 42.2854C42.9451 41.7731 43.2999 41.3221 43.7406 40.9657C44.1812 40.6093 44.6965 40.3567 45.2482 40.2267C47.3532 39.8656 48.1177 41.2433 48.1177 41.2433Z" fill="white"/>
<path d="M21.8237 52.1453C21.8237 52.1453 23.5851 51.7831 24.7216 54.2967C24.7216 54.2967 25.3099 56.334 24.5072 57.2335C24.5072 57.2335 23.2634 57.8519 21.9165 55.8019C21.5817 55.2541 21.3968 54.6279 21.3806 53.986C21.3643 53.3442 21.5171 52.7094 21.8237 52.1453Z" fill="white"/>
<path d="M98.6568 43.4053L100.573 47.7846C100.602 47.8502 100.649 47.9061 100.709 47.9453C100.769 47.9845 100.839 48.0054 100.91 48.0054H103.586C103.647 48.0055 103.708 47.99 103.762 47.9604C103.816 47.9309 103.862 47.8882 103.896 47.8362C103.929 47.7843 103.949 47.7248 103.953 47.6633C103.958 47.6017 103.947 47.54 103.921 47.4838L96.7795 31.6954C96.7502 31.6309 96.703 31.5763 96.6435 31.5379C96.584 31.4996 96.5147 31.4792 96.4439 31.4792H93.7657C93.6949 31.4791 93.6256 31.4995 93.566 31.5378C93.5065 31.5762 93.4593 31.6309 93.4301 31.6954L86.3934 47.2485V31.8478C86.3935 31.7994 86.384 31.7514 86.3655 31.7066C86.347 31.6619 86.3198 31.6212 86.2856 31.587C86.2513 31.5527 86.2107 31.5256 86.1659 31.5071C86.1212 31.4886 86.0732 31.4791 86.0248 31.4792H83.6809C83.6325 31.4791 83.5845 31.4886 83.5398 31.5071C83.495 31.5256 83.4543 31.5527 83.4201 31.587C83.3859 31.6212 83.3587 31.6619 83.3402 31.7066C83.3217 31.7514 83.3122 31.7994 83.3123 31.8478V43.4203L73.7724 31.616C73.7378 31.5733 73.6942 31.5389 73.6447 31.5152C73.5952 31.4915 73.541 31.4792 73.4861 31.4792H70.7661C70.6683 31.4792 70.5746 31.518 70.5054 31.5872C70.4363 31.6563 70.3975 31.75 70.3975 31.8478V47.6374C70.3975 47.7351 70.4363 47.8289 70.5054 47.898C70.5746 47.9672 70.6683 48.006 70.7661 48.006H73.1093C73.2071 48.006 73.3009 47.9672 73.37 47.898C73.4391 47.8289 73.4779 47.7351 73.4779 47.6374V36.0631L83.0179 47.8692C83.0525 47.912 83.0962 47.9465 83.1458 47.9701C83.1955 47.9938 83.2498 48.006 83.3048 48.006H86.0253C86.059 47.958 86.1038 47.9189 86.1558 47.8919C86.2078 47.8649 86.2655 47.8508 86.3241 47.8508C86.3827 47.8508 86.4405 47.8649 86.4925 47.8919C86.5445 47.9189 86.5892 47.958 86.6229 48.006H89.1435C89.2151 48.006 89.2852 47.9851 89.3451 47.9459C89.405 47.9067 89.4522 47.8508 89.4808 47.7852L91.3969 43.4059L98.6568 43.4053ZM97.4739 40.6331H92.5984L95.0095 34.9486L97.4739 40.6331Z" fill="#141414"/>
<path d="M105.65 46.4547C107.322 47.7695 109.401 48.4597 111.528 48.4061C113.619 48.4568 115.658 47.7474 117.266 46.4095C118.677 45.2054 119.578 43.5098 119.786 41.6662C119.795 41.6132 119.793 41.5588 119.779 41.5068C119.765 41.4548 119.74 41.4064 119.706 41.3651C119.671 41.3238 119.628 41.2906 119.58 41.2678C119.531 41.245 119.478 41.2332 119.424 41.2332H117.078C116.994 41.2331 116.912 41.2618 116.846 41.3145C116.781 41.3672 116.735 41.4408 116.717 41.523C115.983 44.9205 113.502 45.634 111.55 45.634C107.419 45.634 105.947 42.6938 105.947 39.9425C105.947 36.0158 107.983 33.854 111.681 33.854C114.454 33.854 116.335 35.2513 116.714 37.5917C116.728 37.6781 116.772 37.7567 116.839 37.8134C116.906 37.8701 116.99 37.9012 117.078 37.9012H119.422C119.473 37.9013 119.524 37.8908 119.57 37.8703C119.617 37.8499 119.659 37.8199 119.694 37.7824C119.728 37.7448 119.755 37.7005 119.771 37.6522C119.788 37.6039 119.794 37.5527 119.79 37.5019C119.731 36.4628 119.418 35.4541 118.877 34.5647C118.337 33.6752 117.586 32.9323 116.691 32.4015C115.109 31.5134 113.32 31.0584 111.506 31.0824C108.84 31.0824 106.619 31.9518 105.077 33.5984C103.582 35.2717 102.79 37.457 102.866 39.6996C102.864 42.5958 103.828 44.9321 105.65 46.4547Z" fill="#141414"/>
<path d="M123.241 31.4792H121.527C121.149 31.4792 120.843 31.7854 120.843 32.1631V47.3215C120.843 47.6992 121.149 48.0054 121.527 48.0054H123.241C123.619 48.0054 123.925 47.6992 123.925 47.3215V32.1631C123.925 31.7854 123.619 31.4792 123.241 31.4792Z" fill="#141414"/>
<path d="M133.973 48.4064C136.971 48.4064 139.408 47.4553 141.017 45.6545C142.42 44.0089 143.168 41.9047 143.12 39.7428C143.12 35.7472 140.725 31.0809 133.973 31.0809C130.973 31.0809 128.537 32.0326 126.928 33.8328C125.525 35.4784 124.776 37.5826 124.824 39.7445C124.824 43.7379 127.22 48.4064 133.973 48.4064ZM127.908 39.7422C127.908 35.3994 131.042 33.8519 133.974 33.8519C136.907 33.8519 140.041 35.3994 140.041 39.7422C140.041 44.085 136.907 45.6325 133.974 45.6325C131.042 45.6325 127.908 44.085 127.908 39.7422Z" fill="#141414"/>
<path d="M189.637 45.2334H180.406V31.845C180.406 31.7966 180.397 31.7487 180.378 31.704C180.36 31.6593 180.333 31.6186 180.298 31.5844C180.264 31.5502 180.224 31.523 180.179 31.5045C180.134 31.486 180.086 31.4764 180.038 31.4764H177.697C177.649 31.4764 177.601 31.4858 177.556 31.5043C177.512 31.5228 177.471 31.55 177.437 31.5842C177.402 31.6185 177.375 31.6591 177.357 31.7039C177.338 31.7487 177.329 31.7966 177.329 31.845V47.2533L170.292 31.6967C170.263 31.6322 170.216 31.5776 170.156 31.5392C170.097 31.5009 170.027 31.4805 169.957 31.4805H167.28C167.209 31.4805 167.14 31.5009 167.08 31.5392C167.021 31.5776 166.974 31.6322 166.944 31.6967L159.904 47.2452V31.8474C159.904 31.7989 159.895 31.751 159.876 31.7062C159.858 31.6615 159.831 31.6208 159.796 31.5865C159.762 31.5523 159.722 31.5252 159.677 31.5067C159.632 31.4882 159.584 31.4787 159.536 31.4788H157.191C157.093 31.4788 157 31.5176 156.931 31.5867C156.861 31.6559 156.823 31.7496 156.823 31.8474V43.4205L147.283 31.6155C147.248 31.5728 147.204 31.5384 147.155 31.5147C147.105 31.491 147.051 31.4788 146.996 31.4788H144.276C144.228 31.4787 144.18 31.4882 144.135 31.5067C144.09 31.5252 144.05 31.5523 144.016 31.5865C143.981 31.6208 143.954 31.6615 143.936 31.7062C143.917 31.751 143.908 31.7989 143.908 31.8474V47.637C143.908 47.6854 143.917 47.7333 143.936 47.7781C143.954 47.8229 143.981 47.8635 144.016 47.8978C144.05 47.932 144.09 47.9592 144.135 47.9777C144.18 47.9962 144.228 48.0056 144.276 48.0056H146.619C146.717 48.0056 146.811 47.9667 146.88 47.8976C146.949 47.8285 146.988 47.7347 146.988 47.637V36.0627L156.528 47.8688C156.562 47.9115 156.606 47.946 156.656 47.9697C156.705 47.9934 156.759 48.0056 156.814 48.0056H159.536C159.569 47.958 159.614 47.9191 159.666 47.8923C159.718 47.8656 159.775 47.8516 159.834 47.8516C159.892 47.8516 159.949 47.8656 160.001 47.8923C160.053 47.9191 160.098 47.958 160.131 48.0056H162.653C162.724 48.0056 162.794 47.9847 162.854 47.9455C162.914 47.9062 162.961 47.8504 162.99 47.7848L164.906 43.4054H172.165L174.08 47.7848C174.109 47.8504 174.156 47.9063 174.216 47.9455C174.276 47.9847 174.346 48.0056 174.418 48.0056H177.093C177.127 47.9575 177.171 47.9183 177.224 47.8912C177.276 47.8641 177.334 47.8499 177.392 47.8499C177.451 47.8499 177.509 47.8641 177.561 47.8912C177.613 47.9183 177.658 47.9575 177.692 48.0056H189.631C189.729 48.0056 189.823 47.9667 189.892 47.8976C189.961 47.8285 190 47.7347 190 47.637V45.602C190 45.5053 189.962 45.4124 189.894 45.3434C189.826 45.2745 189.734 45.2349 189.637 45.2334ZM170.986 40.6327H166.11L168.521 34.9481L170.986 40.6327Z" fill="#141414"/>
<path d="M80.1501 58.9699L80.1171 58.9641L76.2449 58.301C74.2001 57.9533 73.9636 57.1546 73.9636 56.5849C73.9636 54.8334 76.0397 54.3657 77.2673 54.3657C80.7291 54.3657 81.3962 55.7602 81.5909 56.9738C81.6049 57.0603 81.6491 57.139 81.7158 57.1959C81.7826 57.2527 81.8673 57.2839 81.9549 57.2839H84.2999C84.3501 57.2839 84.3997 57.2736 84.4458 57.2538C84.4919 57.2339 84.5334 57.2049 84.5679 57.1684C84.6023 57.132 84.629 57.0889 84.6462 57.0417C84.6634 56.9946 84.6708 56.9445 84.668 56.8944C84.4726 53.5253 81.886 51.593 77.5773 51.593C73.4484 51.593 70.8837 53.5728 70.8837 56.7605C70.8837 60.4368 74.6441 61.0564 75.8797 61.2604L79.4627 61.8574C81.3325 62.175 82.0952 62.7493 82.0952 63.8372C82.0952 65.5389 80.0806 66.1451 78.1958 66.1451C74.3381 66.1451 73.5011 64.4064 73.4774 62.9464C73.476 62.8496 73.4365 62.7572 73.3675 62.6893C73.2985 62.6214 73.2056 62.5834 73.1088 62.5836H70.7661C70.7177 62.5835 70.6698 62.593 70.6251 62.6114C70.5803 62.6299 70.5397 62.657 70.5055 62.6912C70.4712 62.7254 70.4441 62.766 70.4255 62.8107C70.407 62.8553 70.3975 62.9032 70.3975 62.9516C70.3975 66.7421 73.1754 68.9161 78.019 68.9161C82.5015 68.9161 85.1768 66.8441 85.1768 63.3724C85.1757 59.8642 81.3939 59.1913 80.1501 58.9699Z" fill="#141414"/>
<path d="M98.6724 65.7476H88.4718V61.3758H98.1427C98.1911 61.3758 98.2391 61.3664 98.2839 61.3479C98.3286 61.3294 98.3693 61.3022 98.4035 61.268C98.4378 61.2337 98.4649 61.1931 98.4834 61.1483C98.5019 61.1035 98.5114 61.0556 98.5113 61.0072V58.9722C98.5113 58.8745 98.4725 58.7807 98.4034 58.7116C98.3342 58.6425 98.2405 58.6036 98.1427 58.6036H88.4712V54.7639H98.4516C98.5494 54.7639 98.6431 54.725 98.7123 54.6559C98.7814 54.5868 98.8202 54.493 98.8202 54.3953V52.3604C98.8202 52.312 98.8107 52.2641 98.7922 52.2194C98.7736 52.1747 98.7465 52.1341 98.7122 52.0999C98.678 52.0657 98.6374 52.0386 98.5926 52.0202C98.5479 52.0017 98.5 51.9922 98.4516 51.9923H85.7588C85.7104 51.9922 85.6625 52.0017 85.6177 52.0202C85.573 52.0386 85.5324 52.0657 85.4981 52.0999C85.4639 52.1341 85.4367 52.1747 85.4182 52.2194C85.3997 52.2641 85.3901 52.312 85.3901 52.3604V68.1499C85.3901 68.2477 85.429 68.3415 85.4981 68.4106C85.5672 68.4797 85.661 68.5186 85.7588 68.5186H98.6724C98.7702 68.5186 98.864 68.4797 98.9331 68.4106C99.0022 68.3415 99.0411 68.2477 99.0411 68.1499V66.1156C99.0409 66.0179 99.002 65.9243 98.9329 65.8553C98.8638 65.7863 98.7701 65.7476 98.6724 65.7476Z" fill="#141414"/>
<path d="M116.125 59.2678H108.87C108.772 59.2678 108.678 59.3066 108.609 59.3757C108.54 59.4449 108.501 59.5386 108.501 59.6364V61.6713C108.501 61.7197 108.511 61.7677 108.529 61.8125C108.548 61.8572 108.575 61.8979 108.609 61.9321C108.643 61.9664 108.684 61.9935 108.729 62.012C108.773 62.0305 108.821 62.04 108.87 62.0399H113.629C113.223 64.5484 111.112 66.1463 108.141 66.1463C102.925 66.1463 102.362 62.0735 102.362 60.3226C102.362 57.4432 103.851 54.3657 108.029 54.3657C110.741 54.3657 112.33 55.3469 113.032 57.4525C113.056 57.5257 113.103 57.5893 113.165 57.6346C113.228 57.6798 113.303 57.7043 113.38 57.7046H115.858C115.913 57.7047 115.968 57.6923 116.018 57.6683C116.068 57.6443 116.112 57.6093 116.146 57.566C116.181 57.5226 116.205 57.472 116.218 57.4179C116.23 57.3639 116.23 57.3077 116.217 57.2537C115.37 53.5508 112.501 51.5935 107.919 51.5935C103.933 51.5935 99.2789 53.9316 99.2789 60.5191C99.255 62.5295 99.9188 64.4877 101.16 66.0692C102.692 67.9314 105.052 68.9155 107.986 68.9155C111.004 68.9155 112.733 67.7685 113.811 66.6899L114.08 68.2125C114.095 68.2977 114.14 68.3749 114.206 68.4306C114.272 68.4862 114.356 68.5167 114.443 68.5168H116.123C116.221 68.5168 116.315 68.4779 116.384 68.4088C116.453 68.3397 116.492 68.2459 116.492 68.1482V59.6364C116.492 59.5388 116.453 59.4453 116.384 59.3762C116.316 59.3071 116.222 59.2681 116.125 59.2678Z" fill="#141414"/>
<path d="M132.6 51.9929H130.255C130.207 51.9928 130.159 52.0022 130.114 52.0207C130.07 52.0392 130.029 52.0663 129.995 52.1005C129.961 52.1346 129.933 52.1752 129.915 52.2199C129.896 52.2646 129.887 52.3125 129.887 52.3609V62.4671C129.887 64.9083 128.396 66.1463 125.456 66.1463C122.517 66.1463 121.026 64.9083 121.026 62.4671V52.3609C121.026 52.3125 121.017 52.2646 120.998 52.2199C120.979 52.1752 120.952 52.1346 120.918 52.1005C120.884 52.0663 120.843 52.0392 120.798 52.0207C120.754 52.0022 120.706 51.9928 120.657 51.9929H118.312C118.264 51.9928 118.216 52.0022 118.171 52.0207C118.127 52.0392 118.086 52.0663 118.052 52.1005C118.018 52.1346 117.99 52.1752 117.972 52.2199C117.953 52.2646 117.944 52.3125 117.944 52.3609V62.1796C117.944 66.6511 120.471 68.9173 125.456 68.9173C130.44 68.9173 132.968 66.6505 132.968 62.1796V52.3609C132.968 52.2633 132.929 52.1697 132.86 52.1006C132.791 52.0316 132.697 51.9929 132.6 51.9929Z" fill="#141414"/>
<path d="M149.045 63.8436C148.967 62.1929 148.35 60.9845 147.343 60.4339C148.008 60.0395 148.551 59.4697 148.914 58.7869C149.277 58.1042 149.445 57.3347 149.4 56.5629C149.4 54.4544 148.174 51.9929 144.719 51.9929H134.945C134.896 51.9928 134.848 52.0022 134.804 52.0207C134.759 52.0392 134.718 52.0663 134.684 52.1005C134.65 52.1346 134.623 52.1752 134.604 52.2199C134.586 52.2646 134.576 52.3125 134.576 52.3609V68.1505C134.576 68.2482 134.615 68.342 134.684 68.4111C134.753 68.4803 134.847 68.5191 134.945 68.5191H137.288C137.386 68.5191 137.48 68.4803 137.549 68.4111C137.618 68.342 137.657 68.2482 137.657 68.1505V61.8185H143.415C144.999 61.8185 145.946 62.3657 146.098 65.1633L146.128 65.6815C146.217 67.2463 146.253 67.8955 146.671 68.3881C146.706 68.429 146.749 68.4619 146.798 68.4844C146.846 68.5069 146.899 68.5186 146.953 68.5185H149.43C149.501 68.5187 149.57 68.4985 149.629 68.4605C149.689 68.4225 149.736 68.3682 149.766 68.304C149.795 68.2399 149.805 68.1686 149.795 68.0988C149.786 68.0289 149.756 67.9634 149.71 67.91C149.274 67.4034 149.181 66.8331 149.045 63.8436ZM146.321 56.917C146.321 57.889 145.89 59.047 143.837 59.047H137.656V54.7644H143.9C145.46 54.7644 146.319 55.5289 146.319 56.917H146.321Z" fill="#141414"/>
<path d="M176.705 58.9699L176.672 58.9641L172.8 58.301C170.755 57.9533 170.519 57.1546 170.519 56.5849C170.519 54.8334 172.595 54.3657 173.823 54.3657C177.284 54.3657 177.952 55.7602 178.146 56.9738C178.16 57.0603 178.204 57.139 178.271 57.1959C178.338 57.2527 178.423 57.2839 178.51 57.2839H180.855C180.905 57.2839 180.955 57.2736 181.001 57.2538C181.047 57.2339 181.089 57.2049 181.123 57.1684C181.158 57.132 181.184 57.0889 181.201 57.0417C181.219 56.9946 181.226 56.9445 181.223 56.8944C181.028 53.5253 178.441 51.593 174.133 51.593C170.004 51.593 167.439 53.5728 167.439 56.7605C167.439 60.4368 171.199 61.0564 172.435 61.2604L176.018 61.8574C177.888 62.175 178.651 62.7493 178.651 63.8372C178.651 65.5389 176.636 66.1451 174.75 66.1451C170.892 66.1451 170.056 64.4064 170.032 62.9464C170.031 62.8497 169.991 62.7574 169.922 62.6895C169.854 62.6216 169.761 62.5836 169.664 62.5836H167.328C167.51 61.8208 167.602 61.0391 167.601 60.2548C167.601 56.2592 165.205 51.593 158.453 51.593C155.454 51.593 153.017 52.5446 151.408 54.3448C150.004 55.9902 149.256 58.0946 149.304 60.2566C149.304 64.2528 151.7 68.9184 158.453 68.9184C161.452 68.9184 163.888 67.9668 165.497 66.1666C166.143 65.4358 166.649 64.5926 166.99 63.679C167.328 67.0203 170.05 68.9184 174.575 68.9184C179.057 68.9184 181.733 66.8464 181.733 63.3747C181.733 59.8642 177.951 59.1913 176.705 58.9699ZM164.517 60.256C164.517 64.5988 161.382 66.1463 158.45 66.1463C155.517 66.1463 152.383 64.5988 152.383 60.256C152.383 55.9132 155.517 54.3657 158.45 54.3657C161.382 54.3657 164.519 55.9132 164.519 60.256H164.517Z" fill="#141414"/>
</g>
</svg>
