<svg width="200" height="100" viewBox="0 0 200 100" fill="none" xmlns="http://www.w3.org/2000/svg">
<mask id="mask0_94_900" style="mask-type:alpha" maskUnits="userSpaceOnUse" x="0" y="0" width="200" height="100">
<rect width="200" height="100" fill="#D9D9D9"/>
</mask>
<g mask="url(#mask0_94_900)">
<path d="M33.8035 48.7531C33.728 47.6196 33.4257 46.4861 32.8212 45.5037L27.6826 36.5113C27.3048 35.8312 27.0025 35.0755 26.8514 34.3198L26.6247 34.6977C25.3401 36.8891 25.3401 39.6851 26.6247 41.8765L30.7809 49.0553C32.0655 51.2468 32.0655 54.0427 30.7809 56.2342L30.5542 56.612C30.403 55.8563 30.1008 55.1007 29.7229 54.4206L25.9446 47.8463L23.5264 43.6145C23.1486 42.9344 22.8463 42.1788 22.6952 41.4231L22.4685 41.8009C21.1839 43.9924 21.1839 46.7128 22.4685 48.9798L26.6247 56.1586C27.9093 58.3501 27.9093 61.146 26.6247 63.3375L26.398 63.7153C26.2469 62.9596 25.9446 62.204 25.5668 61.5239L20.3526 52.5314C19.6725 51.3223 19.3703 49.9621 19.3703 48.6019C13.8539 50.0377 10 53.1359 10 56.6876C10 61.675 17.4055 65.68 26.5491 65.68C35.6927 65.68 43.0982 61.675 43.0982 56.6876C43.1738 53.2871 39.3955 50.1888 33.8035 48.7531ZM49.4458 64.0931C49.5214 62.8085 49.6725 61.9773 50.0504 60.9193C51.7884 61.7506 54.0554 62.1284 55.7179 62.1284C58.5894 62.1284 60.2519 61.2216 60.2519 59.3324C60.2519 57.5188 59.0428 56.6876 56.1713 55.4029L54.5844 54.7984C51.6373 53.5138 49.6725 51.8513 49.6725 48.6019C49.6725 45.0503 52.1662 42.7833 57.1537 42.7833C59.194 42.7833 61.0831 43.0856 62.8212 43.6901C62.7456 44.8992 62.5189 45.8815 62.2166 46.7883C60.5542 46.1838 58.5139 45.8815 57.0781 45.8815C54.3577 45.8815 53.1486 46.9395 53.1486 48.6019C53.1486 50.1888 54.3577 51.1712 56.5491 52.078L58.2116 52.7581C62.1411 54.4206 63.8035 56.2342 63.8035 59.2569C63.8035 62.8085 61.0831 65.3022 55.7934 65.3022C53.2997 65.3022 51.1839 64.9244 49.4458 64.0931ZM80.5038 49.2065V64.7732H77.33L77.1788 62.8841C76.272 64.2443 74.9874 65.1511 72.796 65.1511C68.7154 65.1511 65.9194 62.1284 65.9194 56.9143C65.9194 51.4735 68.8665 48.2997 74.6096 48.2997C76.8766 48.3752 78.7657 48.6019 80.5038 49.2065ZM77.1033 61.2216V51.4735C76.4232 51.3223 75.5919 51.3223 74.6096 51.3223C71.0579 51.3223 69.3955 53.5138 69.3955 56.9898C69.3955 60.1637 70.6801 62.4307 73.7028 62.4307C75.1385 62.3551 76.1965 61.9017 77.1033 61.2216ZM98.0353 54.345V64.7732H94.6348V54.9495C94.6348 52.4558 93.8035 51.3223 90.403 51.3223C89.5718 51.3223 88.665 51.3979 87.6826 51.549V64.7732H84.2821V49.2065C86.4736 48.6775 88.8917 48.2997 90.4786 48.2997C96.2217 48.3752 98.0353 50.5667 98.0353 54.345ZM107.557 62.2795C108.539 62.2795 109.521 62.1284 110.202 61.8261C110.126 62.7329 109.975 63.7909 109.824 64.6977C108.917 65.0755 107.859 65.2266 106.952 65.2266C103.627 65.2266 101.511 63.7153 101.511 59.937V43.539C102.569 43.1611 103.854 43.01 104.912 43.01V48.9042H110.353C110.277 49.9621 110.202 50.9445 110.05 51.8513H104.912V59.4836C104.912 61.4483 105.894 62.2795 107.557 62.2795ZM125.919 49.2065V64.7732H122.746L122.594 62.8841C121.688 64.2443 120.403 65.1511 118.212 65.1511C114.131 65.1511 111.335 62.1284 111.335 56.9143C111.335 51.4735 114.282 48.2997 120.025 48.2997C122.292 48.3752 124.106 48.6019 125.919 49.2065ZM122.443 61.2216V51.4735C121.763 51.3223 120.932 51.3223 119.95 51.3223C116.398 51.3223 114.736 53.5138 114.736 56.9898C114.736 60.1637 116.02 62.4307 119.043 62.4307C120.479 62.3551 121.612 61.9017 122.443 61.2216ZM143.451 54.345V64.7732H139.975V54.9495C139.975 52.4558 139.144 51.3223 135.743 51.3223C134.912 51.3223 134.005 51.3979 133.023 51.549V64.7732H129.622V49.2065C131.814 48.6775 134.232 48.2997 135.819 48.2997C141.562 48.3752 143.451 50.5667 143.451 54.345ZM160.756 43.01V64.7732H157.582L157.431 62.8085C156.524 64.2443 155.239 65.1511 152.972 65.1511C148.892 65.1511 146.096 62.1284 146.096 56.9143C146.096 51.4735 149.043 48.2997 154.786 48.2997C155.693 48.2997 156.524 48.3752 157.355 48.5264V43.3878C158.413 43.0856 159.622 43.01 160.756 43.01ZM157.355 61.2216V51.6246C156.448 51.4735 155.542 51.3223 154.635 51.3223C151.234 51.3223 149.647 53.4382 149.647 56.9898C149.647 60.1637 150.932 62.4307 153.955 62.4307C155.315 62.3551 156.448 61.9017 157.355 61.2216ZM177.985 58.1234H167.028C167.481 60.9193 169.068 62.204 172.166 62.204C174.055 62.204 175.945 61.8261 177.607 60.9949C177.456 61.9017 177.305 63.1108 177.078 64.0931C175.491 64.7732 173.904 65.0755 172.015 65.0755C166.272 65.0755 163.552 61.9017 163.552 56.612C163.552 52.0024 165.668 48.2997 171.108 48.2997C176.02 48.2997 178.136 51.4735 178.136 55.4029C178.136 56.4609 178.136 57.2165 177.985 58.1234ZM167.028 55.2518H174.736C174.736 52.6825 173.375 51.1712 171.033 51.1712C168.539 51.2468 167.254 52.607 167.028 55.2518ZM190 48.5264C190 49.5843 189.849 50.7934 189.698 51.4735C188.867 51.3979 188.111 51.3223 187.128 51.3223C186.297 51.3223 185.466 51.3979 184.635 51.4735V64.7732H181.234V49.2065C182.67 48.6775 185.164 48.2997 187.053 48.2997C188.035 48.3752 189.244 48.3752 190 48.5264Z" fill="#141414"/>
</g>
</svg>
