<svg width="200" height="100" viewBox="0 0 200 100" fill="none" xmlns="http://www.w3.org/2000/svg">
<mask id="mask0_94_987" style="mask-type:alpha" maskUnits="userSpaceOnUse" x="0" y="0" width="200" height="100">
<rect width="200" height="100" fill="#D9D9D9"/>
</mask>
<g mask="url(#mask0_94_987)">
<path d="M60.9178 58.983C61.0077 60.1517 61.7961 60.94 63.4004 60.94C64.7697 60.94 65.883 60.2969 65.883 59.1282C65.883 58.9553 65.8485 58.8101 65.8208 58.6925C65.7378 58.4574 65.0601 57.8489 63.8707 57.4685L61.5057 56.6802C56.983 55.4562 56.2846 52.5932 56.25 50.7607C56.25 48.9212 56.9277 47.4621 58.2347 46.321C59.5486 45.1869 61.2429 44.5991 63.2829 44.5991C65.3229 44.5991 66.9895 45.1593 68.2757 46.2934C69.5551 47.3998 70.1982 48.9212 70.1982 50.8713H65.3229C65.3229 49.6196 64.6245 49.0042 63.2276 49.0042C61.9137 49.0042 61.0976 49.6473 61.0976 50.6085C61.0976 51.3416 61.7062 51.8671 62.9648 52.2475L65.2676 52.9736C68.9742 54.1146 70.8413 56.1546 70.8413 59.1005C70.8413 60.5044 70.4333 61.7007 69.645 62.6619C68.0406 64.5567 65.8485 65.2275 63.4004 65.2275C61.153 65.2275 59.3481 64.6743 58.0065 63.5333C56.658 62.3992 55.9941 60.8778 55.9941 58.983H60.9178Z" fill="#141414"/>
<path d="M109.056 64.965H96.8916V44.8621H101.822V60.7051H109.056V64.965Z" fill="#141414"/>
<path d="M162.787 64.965H149.482V44.8621H162.524V49.122H154.357V52.9738H161.535V57.1437H154.357V60.7051H162.787V64.965Z" fill="#141414"/>
<path d="M170.077 58.983C170.166 60.1517 170.955 60.94 172.559 60.94C173.928 60.94 175.042 60.2969 175.042 59.1282C175.042 58.9553 175.007 58.8101 174.98 58.6925C174.897 58.4574 174.226 57.8489 173.029 57.4685L170.664 56.6802C166.142 55.4562 165.443 52.5932 165.409 50.7607C165.409 48.9212 166.086 47.4621 167.393 46.321C168.707 45.1869 170.402 44.5991 172.442 44.5991C174.482 44.5991 176.148 45.1593 177.434 46.2934C178.714 47.3998 179.357 48.9212 179.357 50.8713H174.482C174.482 49.6196 173.783 49.0042 172.386 49.0042C171.072 49.0042 170.256 49.6473 170.256 50.6085C170.256 51.3416 170.865 51.8671 172.123 52.2475L174.426 52.9736C178.133 54.1146 180 56.1546 180 59.1005C180 60.5044 179.592 61.7007 178.804 62.6619C177.199 64.5567 175.007 65.2275 172.559 65.2275C170.312 65.2275 168.507 64.6743 167.165 63.5333C165.817 62.3992 165.153 60.8778 165.153 58.983H170.077Z" fill="#141414"/>
<path d="M55.9941 34.5926H61.6094V36.1209H58.1794V37.9673H61.3673V39.4956H58.1794V42.5106H55.9941V34.5926Z" fill="#141414"/>
<path d="M64.9426 34.5722V39.2885C64.9426 39.7172 64.9772 40.1598 65.1985 40.4848C65.4959 40.9274 66.0145 41.1348 66.5539 41.1348C67.9508 41.1348 68.1375 40.0007 68.1375 39.2124V34.5722H70.2813V39.1709C70.2813 40.0491 70.1568 41.0034 69.6658 41.5843C68.8982 42.5317 67.4736 42.7184 66.4709 42.7184C62.7228 42.7184 62.709 40.388 62.709 39.0879L62.7228 34.5722H64.9426Z" fill="#141414"/>
<path d="M71.8301 34.5722H74.8659L77.556 40.4848L77.5283 34.5722H79.4577V42.511H76.4841L73.7456 36.3425L73.7664 42.511H71.8301V34.5722Z" fill="#141414"/>
<path d="M83.3169 40.9827H84.2643C85.7234 40.9689 86.6639 40.3465 86.6639 38.4932C86.6639 36.0867 84.859 36.0867 84.1882 36.0867L83.3169 36.0728V40.9827ZM81.0625 34.5722H84.4164C85.3638 34.5722 86.6155 34.669 87.4384 35.2292C88.6209 36.0313 88.939 37.3383 88.939 38.5209C88.939 40.2773 88.3789 41.5774 86.7745 42.2067C85.9585 42.511 84.9904 42.511 84.4372 42.511H81.0625V34.5722Z" fill="#141414"/>
<path d="M94.319 39.4544L93.2955 36.1212H93.2609L92.1614 39.4544H94.319ZM92.0369 34.5722H94.727L97.8596 42.511H95.3701L94.8238 40.9136H91.6428L91.1034 42.511H88.9043L92.0369 34.5722Z" fill="#141414"/>
<path d="M103.329 37.0688C103.226 36.2597 102.666 35.9623 102.043 35.9623C100.709 35.9623 100.301 37.1863 100.301 38.6385C100.301 39.1226 100.314 41.1281 102.016 41.1281C103.184 41.1281 103.302 40.2775 103.35 39.9732H105.639C105.625 42.4558 103.094 42.6633 102.064 42.6633C101.289 42.6633 99.9271 42.5319 99.0489 41.6121C98.1775 40.6855 98.0254 39.42 98.0254 38.5971C98.0254 37.5044 98.2813 36.4187 99.0281 35.5681C99.8372 34.6484 100.888 34.4064 102.043 34.4064C103.329 34.4064 104.304 34.7106 104.934 35.3745C105.57 36.0522 105.584 36.7714 105.591 37.0688H103.329Z" fill="#141414"/>
<path d="M106.759 34.5722H109.027V42.511H106.759V34.5722Z" fill="#141414"/>
<path d="M114.726 33.7009H113.274L114.491 32.1035H116.738L114.726 33.7009ZM114.304 41.0795C115.881 41.0795 116.143 39.6273 116.143 38.5278C116.143 37.4144 115.881 36.8681 115.639 36.5154C115.32 36.0728 114.802 35.9415 114.318 35.9415C112.866 35.9415 112.471 37.2 112.471 38.5624C112.471 39.8279 112.845 41.0795 114.304 41.0795ZM111.289 35.4505C112.292 34.4339 113.813 34.3509 114.394 34.3509C117.561 34.3509 118.419 36.6261 118.419 38.5624C118.419 41.7296 116.178 42.6977 114.283 42.6977C112.174 42.6977 110.203 41.529 110.203 38.5762C110.203 38.0437 110.293 36.4601 111.289 35.4505Z" fill="#141414"/>
<path d="M119.663 34.5722H122.699L125.382 40.4848L125.361 34.5722H127.284V42.511H124.317L121.579 36.3425L121.599 42.511H119.663V34.5722Z" fill="#141414"/>
<path d="M36.5829 30.1463C27.7936 30.1463 20.6431 37.2967 20.6431 46.0861C20.6431 54.8755 27.7936 62.0328 36.5829 62.0328C45.3723 62.0328 52.5227 54.8755 52.5227 46.0861C52.5227 37.2967 45.3723 30.1463 36.5829 30.1463ZM36.5829 62.676C27.4409 62.676 20 55.2351 20 46.0861C20 36.9441 27.4409 29.5032 36.5829 29.5032C45.725 29.5032 53.1659 36.9441 53.1659 46.0861C53.1659 55.2351 45.725 62.676 36.5829 62.676Z" fill="#141414"/>
<path d="M36.5828 43.5625C35.1859 43.5625 34.0518 44.6966 34.0518 46.0866C34.0518 47.4835 35.1859 48.6176 36.5828 48.6176C37.9797 48.6176 39.1138 47.4835 39.1138 46.0866C39.1138 44.6966 37.9797 43.5625 36.5828 43.5625ZM36.5828 49.2607C34.8332 49.2607 33.4087 47.8362 33.4087 46.0866C33.4087 44.337 34.8332 42.9125 36.5828 42.9125C38.3324 42.9125 39.757 44.337 39.757 46.0866C39.757 47.8362 38.3324 49.2607 36.5828 49.2607Z" fill="#141414"/>
<path d="M36.5824 32.0686C28.8511 32.0686 22.5651 38.3546 22.5651 46.0859C22.5651 53.8173 28.8511 60.1102 36.5824 60.1102C44.3138 60.1102 50.6067 53.8173 50.6067 46.0859C50.6067 38.3546 44.3138 32.0686 36.5824 32.0686ZM36.5824 60.7533C28.4984 60.7533 21.915 54.1769 21.915 46.0859C21.915 38.0019 28.4984 31.4255 36.5824 31.4255C44.6664 31.4255 51.2498 38.0019 51.2498 46.0859C51.2498 54.1769 44.6664 60.7533 36.5824 60.7533Z" fill="#141414"/>
<path d="M36.5828 33.9913C29.9095 33.9913 24.4879 39.4199 24.4879 46.0862C24.4879 52.7595 29.9095 58.188 36.5828 58.188C43.2561 58.188 48.6846 52.7595 48.6846 46.0862C48.6846 39.4199 43.2561 33.9913 36.5828 33.9913ZM36.5828 58.8312C29.5569 58.8312 23.8379 53.1191 23.8379 46.0862C23.8379 39.0603 29.5569 33.3413 36.5828 33.3413C43.6088 33.3413 49.3278 39.0603 49.3278 46.0862C49.3278 53.1191 43.6088 58.8312 36.5828 58.8312Z" fill="#141414"/>
<path d="M36.5833 37.8151C32.0192 37.8151 28.3126 41.5286 28.3126 46.0858C28.3126 50.65 32.0192 54.3635 36.5833 54.3635C41.1474 54.3635 44.8609 50.65 44.8609 46.0858C44.8609 41.5286 41.1474 37.8151 36.5833 37.8151ZM36.5833 55.0066C31.6665 55.0066 27.6694 51.0026 27.6694 46.0858C27.6694 41.1691 31.6665 37.172 36.5833 37.172C41.5001 37.172 45.504 41.1691 45.504 46.0858C45.504 51.0026 41.5001 55.0066 36.5833 55.0066Z" fill="#141414"/>
<path d="M36.5833 39.731C33.0773 39.731 30.2282 42.5801 30.2282 46.0861C30.2282 49.5922 33.0773 52.4482 36.5833 52.4482C40.0894 52.4482 42.9454 49.5922 42.9454 46.0861C42.9454 42.5801 40.0894 39.731 36.5833 39.731ZM36.5833 53.0913C32.7246 53.0913 29.5781 49.9518 29.5781 46.0861C29.5781 42.2274 32.7246 39.0878 36.5833 39.0878C40.449 39.0878 43.5886 42.2274 43.5886 46.0861C43.5886 49.9518 40.449 53.0913 36.5833 53.0913Z" fill="#141414"/>
<path d="M36.5838 41.6463C34.1358 41.6463 32.1442 43.6379 32.1442 46.0859C32.1442 48.5409 34.1358 50.5325 36.5838 50.5325C39.0388 50.5325 41.0304 48.5409 41.0304 46.0859C41.0304 43.6379 39.0388 41.6463 36.5838 41.6463ZM36.5838 51.1756C33.7831 51.1756 31.4941 48.8936 31.4941 46.0859C31.4941 43.2852 33.7831 41.0032 36.5838 41.0032C39.3914 41.0032 41.6735 43.2852 41.6735 46.0859C41.6735 48.8936 39.3914 51.1756 36.5838 51.1756Z" fill="#141414"/>
<path d="M36.583 35.8854C30.9608 35.8854 26.3829 40.4634 26.3829 46.0855C26.3829 51.7146 30.9608 56.2925 36.583 56.2925C42.212 56.2925 46.79 51.7146 46.79 46.0855C46.79 40.4634 42.212 35.8854 36.583 35.8854ZM36.583 56.9357C30.6012 56.9357 25.7397 52.0673 25.7397 46.0855C25.7397 40.1038 30.6012 35.2423 36.583 35.2423C42.5647 35.2423 47.4331 40.1038 47.4331 46.0855C47.4331 52.0673 42.5647 56.9357 36.583 56.9357Z" fill="#141414"/>
<path d="M36.5834 37.3243C35.6083 37.3243 34.654 37.4142 33.7273 37.5733L33.8587 38.2026C34.7439 38.0504 35.6567 37.9744 36.5834 37.9744C45.3727 37.9744 52.5232 45.1248 52.5232 53.9142C52.5232 62.7036 45.3727 69.854 36.5834 69.854C31.2447 69.854 26.5077 67.2123 23.6171 63.1669L23.1538 63.6302C26.1689 67.7863 31.0649 70.4971 36.5834 70.4971C45.7323 70.4971 53.1663 63.0562 53.1663 53.9142C53.1663 44.7652 45.7323 37.3243 36.5834 37.3243Z" fill="#141414"/>
<path d="M36.5831 50.7402C36.5554 50.7402 36.5277 50.7402 36.4932 50.7402L36.6315 51.3833C38.0007 51.411 39.1141 52.5312 39.1141 53.9143C39.1141 54.9239 38.5124 55.8022 37.648 56.2033L37.7794 56.8464C38.9412 56.3762 39.7572 55.242 39.7572 53.9143C39.7572 52.1647 38.3326 50.7402 36.5831 50.7402Z" fill="#141414"/>
<path d="M36.5836 39.2471C35.7468 39.2471 34.9239 39.3162 34.1217 39.4545L34.2531 40.0838C35.0138 39.9593 35.7883 39.8902 36.5836 39.8902C44.3149 39.8902 50.6078 46.1831 50.6078 53.9145C50.6078 61.6458 44.3149 67.9318 36.5836 67.9318C32.6626 67.9318 29.115 66.3205 26.5702 63.7135L26.1138 64.1699C28.7762 66.8876 32.4897 68.5818 36.5836 68.5818C44.6745 68.5818 51.251 61.9985 51.251 53.9145C51.251 45.8305 44.6745 39.2471 36.5836 39.2471Z" fill="#141414"/>
<path d="M36.5826 41.1694C35.8773 41.1694 35.1927 41.2248 34.515 41.3354L34.6533 41.9647C35.2826 41.8679 35.9257 41.8126 36.5826 41.8126C43.2559 41.8126 48.6844 47.2411 48.6844 53.9144C48.6844 60.5876 43.2559 66.0093 36.5826 66.0093C34.0931 66.0093 31.7765 65.2555 29.8471 63.9623L29.3838 64.4256C31.4376 65.8364 33.9133 66.6593 36.5826 66.6593C43.6086 66.6593 49.3276 60.9403 49.3276 53.9144C49.3276 46.8884 43.6086 41.1694 36.5826 41.1694Z" fill="#141414"/>
<path d="M36.5821 44.9932C36.1533 44.9932 35.7246 45.0277 35.3027 45.0831L35.441 45.7124C35.8145 45.664 36.1948 45.6363 36.5821 45.6363C41.1462 45.6363 44.8597 49.3498 44.8597 53.9139C44.8597 58.4711 41.1462 62.1846 36.5821 62.1846C36.423 62.1846 36.257 62.1777 36.098 62.1708V62.8139C36.257 62.8278 36.423 62.8278 36.5821 62.8278C41.4989 62.8278 45.5028 58.8307 45.5028 53.9139C45.5028 48.9971 41.4989 44.9932 36.5821 44.9932Z" fill="#141414"/>
<path d="M36.5833 46.909C36.286 46.909 35.9886 46.9297 35.7051 46.9643L35.8365 47.6005C36.0785 47.566 36.3344 47.5521 36.5833 47.5521C40.0894 47.5521 42.9454 50.4081 42.9454 53.9142C42.9454 57.1506 40.5043 59.8406 37.3648 60.221V60.871C40.857 60.4838 43.5885 57.5102 43.5885 53.9142C43.5885 50.0486 40.4421 46.909 36.5833 46.909Z" fill="#141414"/>
<path d="M36.5832 48.8243C36.4241 48.8243 36.2582 48.8313 36.0991 48.8451L36.2305 49.4882C36.3481 49.4744 36.4656 49.4675 36.5832 49.4675C39.0312 49.4675 41.0297 51.4591 41.0297 53.914C41.0297 55.8503 39.7781 57.5031 38.0492 58.1047L38.1806 58.7409C40.2068 58.0701 41.6729 56.1615 41.6729 53.914C41.6729 51.1064 39.3908 48.8243 36.5832 48.8243Z" fill="#141414"/>
<path d="M36.583 43.064C36.0159 43.064 35.4558 43.1124 34.9094 43.1954L35.0408 43.8246C35.5457 43.7486 36.0574 43.7071 36.583 43.7071C42.212 43.7071 46.79 48.285 46.79 53.9141C46.79 59.5363 42.212 64.1142 36.583 64.1142C35.518 64.1142 34.4876 63.9551 33.5195 63.644L33.0146 64.1557C34.1349 64.5499 35.3313 64.7573 36.583 64.7573C42.5647 64.7573 47.4331 59.8958 47.4331 53.9141C47.4331 47.9323 42.5647 43.064 36.583 43.064Z" fill="#141414"/>
<path d="M87.058 58.7479C88.1092 57.7037 88.6347 56.4174 88.6347 54.9306C88.6347 53.4438 88.1092 52.1576 87.058 51.1064C86.0069 50.0276 84.7552 49.5021 83.2684 49.5021C81.7816 49.5021 80.5231 50.0276 79.5065 51.1064C78.483 52.1576 77.9575 53.4438 77.9575 54.9306C77.9575 56.4174 78.483 57.7037 79.5065 58.7479C80.5231 59.799 81.7816 60.3246 83.2684 60.3246C84.7552 60.3246 86.0415 59.799 87.058 58.7479ZM76.0004 47.6349C78.0128 45.6226 80.4401 44.5991 83.2684 44.5991C86.1245 44.5991 88.5448 45.6226 90.5295 47.6349C92.5419 49.6473 93.5377 52.0677 93.5377 54.9306C93.5377 57.759 92.5419 60.207 90.5295 62.2263C88.5448 64.2386 86.1245 65.2275 83.2684 65.2275C80.4401 65.2275 78.0474 64.2386 76.0281 62.2263C74.0227 60.207 73.0269 57.759 73.0269 54.9306C73.0269 52.0677 74.0227 49.6473 76.0004 47.6349Z" fill="#141414"/>
<path d="M119.436 64.965H114.54V55.9197L106.691 44.8621H112.493L116.96 52.1578L121.51 44.8621H127.285L119.436 56.0096V64.965Z" fill="#141414"/>
<path d="M133.819 49.2119V60.6152H136.883C138.225 60.6152 139.276 60.062 140.009 58.9832C140.762 57.8768 141.143 56.5352 141.143 54.9585C141.143 53.3541 140.762 52.0126 140.009 50.9061C139.276 49.7651 138.225 49.2119 136.883 49.2119H133.819ZM128.917 64.965V44.8621H136.883C139.711 44.8621 141.931 45.8303 143.563 47.7251C145.195 49.6199 146.018 52.0126 146.018 54.9585C146.018 57.8768 145.195 60.2695 143.563 62.1642C141.959 64.0314 139.711 64.965 136.883 64.965H128.917Z" fill="#141414"/>
</g>
</svg>
