<svg width="200" height="100" viewBox="0 0 200 100" fill="none" xmlns="http://www.w3.org/2000/svg">
<mask id="mask0_94_974" style="mask-type:alpha" maskUnits="userSpaceOnUse" x="0" y="0" width="200" height="100">
<rect width="200" height="100" fill="#D9D9D9"/>
</mask>
<g mask="url(#mask0_94_974)">
<path d="M25.7683 47.6882C26.1395 47.7101 26.5117 47.7101 26.8829 47.6882C27.2231 47.6374 27.5537 47.536 27.8638 47.3872C28.5884 47.0194 28.9785 46.1165 28.9785 44.6452C28.9785 43.1738 28.6329 42.2486 27.9307 41.9142C27.6251 41.7456 27.2936 41.6288 26.9498 41.5687C26.0381 41.4779 25.1195 41.4779 24.2077 41.5687V39.0607C24.2175 38.4844 24.1424 37.9098 23.9848 37.3553C23.6504 36.4078 22.6584 35.9285 21.0421 35.9285C19.4259 35.9285 18.5899 36.2629 18.2555 36.8983C18.0745 37.172 17.9494 37.4789 17.8876 37.8011C17.8653 38.1724 17.8653 38.5446 17.8876 38.9158V41.5687L17.2969 41.5018C16.7416 41.4866 16.1982 41.6638 15.7586 42.0034C15.4698 42.2816 15.2684 42.638 15.179 43.0289C15.0462 43.6627 14.9901 44.3101 15.0118 44.9573C14.9463 45.6891 15.1439 46.4202 15.5691 47.0194C15.7511 47.2339 15.9786 47.4052 16.235 47.5209C16.4914 47.6366 16.7704 47.6937 17.0516 47.6882C17.3414 47.6882 17.6201 47.6882 17.8876 47.6882V51.7121C17.8876 54.1086 18.5007 55.8475 19.7268 56.8953C21.2328 58.0098 23.0849 58.5548 24.9546 58.4335C25.3269 58.4382 25.6992 58.4196 26.0692 58.3778C26.4065 58.3299 26.7339 58.2283 27.039 58.0768C27.797 57.709 28.1536 56.8173 28.1536 55.3348C28.1536 54.064 27.8415 53.2615 27.2062 52.9159C26.9012 52.7371 26.5642 52.6197 26.2141 52.5704C25.8206 52.5488 25.4262 52.5488 25.0326 52.5704C24.8431 52.5704 24.5087 52.5704 24.3972 52.3809C24.2482 52.0927 24.1862 51.7674 24.2189 51.4446V47.6993L25.7683 47.6882Z" fill="#141414"/>
<path d="M41.1283 52.7704L40.7827 52.893C39.9073 53.1482 38.9965 53.2611 38.0852 53.2274C37.4408 53.214 36.8109 53.0334 36.2572 52.7035C35.9735 52.5641 35.7314 52.3527 35.555 52.0904H42.399C43.3093 52.0828 44.1794 51.714 44.8178 51.065C45.2079 50.656 45.5084 50.1702 45.7003 49.6386C45.8923 49.1069 45.9713 48.5412 45.9325 47.9773C45.945 46.6558 45.5563 45.3615 44.8178 44.2655C44.0667 43.2086 43.0582 42.361 41.8878 41.8031C40.7173 41.2452 39.4238 40.9955 38.1298 41.0776C35.6736 41.0011 33.2809 41.8664 31.4419 43.4964C30.5519 44.317 29.8508 45.3211 29.387 46.4393C28.9232 47.5574 28.7077 48.763 28.7555 49.9726C28.7486 52.0822 29.4779 54.1281 30.8177 55.7577C31.6011 56.7401 32.6214 57.5072 33.7827 57.987C35.1418 58.551 36.6028 58.828 38.0741 58.8007C42.856 58.8007 45.1745 57.7752 45.1745 55.6574C45.1479 55.0942 44.9915 54.5449 44.7175 54.0522C44.6157 53.6936 44.4296 53.3644 44.1749 53.0922C43.9202 52.8199 43.6041 52.6125 43.253 52.4871C42.9018 52.3617 42.5258 52.322 42.1563 52.3712C41.7867 52.4205 41.4343 52.5574 41.1283 52.7704ZM36.2238 47.4869C36.6162 47.1054 37.1221 46.862 37.6651 46.7936C38.2081 46.7253 38.7586 46.8356 39.2334 47.1079C39.3557 47.1995 39.454 47.3193 39.52 47.4571C39.586 47.5949 39.6177 47.7466 39.6123 47.8993C39.6123 48.178 39.6123 48.4344 38.8767 48.4344H35.4658C35.626 48.0545 35.8884 47.7266 36.2238 47.4869Z" fill="#141414"/>
<path d="M53.4005 41.1114V55.2787C53.4232 55.6499 53.4232 56.0222 53.4005 56.3934C53.3507 56.7231 53.2492 57.0428 53.0996 57.3408C52.7094 58.0653 51.7843 58.4555 50.2572 58.4555C48.7301 58.4555 47.8941 58.1099 47.4928 57.4077C47.3146 57.1055 47.1937 56.7729 47.1361 56.4268C47.1148 56.0556 47.1148 55.6834 47.1361 55.3121V37.0317C47.1135 36.6605 47.1135 36.2883 47.1361 35.9171C47.1846 35.5906 47.2863 35.2743 47.4371 34.9807C47.8272 34.2451 48.7524 33.8661 50.2795 33.8661C51.8066 33.8661 52.6537 34.2116 53.055 34.9139C53.2237 35.2195 53.3404 35.5509 53.4005 35.8948C53.4219 36.266 53.4219 36.6382 53.4005 37.0094V51.1433" fill="#141414"/>
<path d="M70.1542 43.5304C68.4639 41.9263 66.22 41.0359 63.8898 41.0447C61.5452 41.0412 59.288 41.9345 57.5808 43.5415C56.6877 44.3398 55.9781 45.3221 55.5009 46.4209C55.0237 47.5196 54.7902 48.7086 54.8164 49.9062C54.7951 51.5563 55.2858 53.1724 56.2209 54.5321C57.0587 55.7921 58.193 56.8271 59.5244 57.5463C60.8557 58.2654 62.3432 58.6466 63.8563 58.6563C65.3061 58.6511 66.7356 58.3157 68.0363 57.6754C69.4278 56.9747 70.6115 55.9217 71.4695 54.6212C72.607 52.9089 73.0992 50.8481 72.8583 48.8065C72.6174 46.7649 71.659 44.8752 70.1542 43.4746V43.5304ZM66.4646 49.817C66.4914 50.1816 66.4282 50.5471 66.2804 50.8814C66.1327 51.2158 65.9051 51.5086 65.6175 51.7343C65.1256 52.1654 64.4937 52.4031 63.8396 52.4031C63.1855 52.4031 62.5537 52.1654 62.0617 51.7343C61.7831 51.5096 61.5627 51.2211 61.4191 50.8932C61.2755 50.5653 61.213 50.2077 61.2369 49.8505C61.2086 49.4934 61.2667 49.1347 61.4064 48.8049C61.5461 48.475 61.7633 48.1837 62.0394 47.9556C62.5489 47.5293 63.192 47.2957 63.8563 47.2957C64.5206 47.2957 65.1638 47.5293 65.6732 47.9556C65.9426 48.1815 66.1547 48.4679 66.2922 48.7914C66.4298 49.1149 66.4888 49.4663 66.4646 49.817Z" fill="#141414"/>
<path d="M145.36 42.2481C144.085 42.1663 142.825 42.5638 141.827 43.3628C141.682 43.0859 141.472 42.8487 141.214 42.6717C140.45 42.2713 139.587 42.1009 138.728 42.1813C137.446 42.1813 136.61 42.5379 136.231 43.2402C136.078 43.5219 135.973 43.8269 135.919 44.143C135.896 44.5142 135.896 44.8865 135.919 45.2577V63.0923C135.896 63.4635 135.896 63.8357 135.919 64.2069C135.971 64.5267 136.085 64.8333 136.254 65.1098C136.373 65.3164 136.533 65.4962 136.725 65.6381C136.917 65.78 137.136 65.881 137.368 65.9346C138.467 66.2004 139.613 66.2004 140.712 65.9346C140.934 65.8697 141.141 65.7614 141.321 65.616C141.501 65.4706 141.65 65.2909 141.76 65.0875C141.926 64.8055 142.039 64.4959 142.094 64.1735C142.118 63.8023 142.118 63.43 142.094 63.0588V57.8868C143.074 58.49 144.212 58.7851 145.36 58.7339C146.347 58.6973 147.314 58.4566 148.203 58.0268C149.091 57.597 149.881 56.9876 150.521 56.2371C151.281 55.4819 151.884 54.584 152.295 53.595C152.707 52.606 152.918 51.5455 152.918 50.4743C152.918 49.4032 152.707 48.3426 152.295 47.3536C151.884 46.3646 151.281 45.4667 150.521 44.7115C149.876 43.9692 149.085 43.3675 148.197 42.9437C147.309 42.52 146.344 42.2832 145.36 42.2481ZM146.676 50.5301C146.675 50.8119 146.615 51.0905 146.5 51.3477C146.384 51.605 146.217 51.8353 146.007 52.0237C145.797 52.2384 145.545 52.4083 145.267 52.5232C144.989 52.6382 144.691 52.6957 144.391 52.6925C144.101 52.7016 143.812 52.6464 143.546 52.5308C143.281 52.4151 143.043 52.242 142.852 52.0237C142.456 51.6274 142.232 51.0907 142.228 50.5301C142.233 49.9653 142.452 49.4235 142.841 49.0141C143.039 48.7918 143.283 48.6163 143.557 48.5006C143.831 48.3849 144.127 48.3318 144.424 48.3453C144.726 48.33 145.028 48.382 145.308 48.4977C145.587 48.6134 145.837 48.7898 146.04 49.0141C146.242 49.2113 146.403 49.4472 146.512 49.7076C146.621 49.968 146.677 50.2477 146.676 50.5301Z" fill="#141414"/>
<path d="M167.007 43.1843C166.688 42.8259 166.275 42.5634 165.815 42.4264C165.451 42.3053 165.078 42.2121 164.7 42.1477C163.602 41.9319 162.463 42.1053 161.479 42.6382C161.027 42.8631 160.601 43.1358 160.208 43.4519C160.149 43.3356 160.082 43.2239 160.007 43.1175C159.606 42.5155 158.714 42.2257 157.287 42.2257C155.861 42.2257 154.835 42.5713 154.456 43.2847C154.296 43.5674 154.191 43.8773 154.144 44.1987C154.122 44.5699 154.122 44.9421 154.144 45.3133V56.9393C154.146 57.2458 154.212 57.5485 154.337 57.8285C154.461 58.1085 154.642 58.3598 154.869 58.5666C155.588 59.0342 156.443 59.2498 157.299 59.1797C158.803 59.1797 159.729 58.8453 160.13 58.1542C160.308 57.8609 160.425 57.535 160.475 57.1956C160.499 56.8245 160.499 56.4521 160.475 56.081V49.6717C160.47 49.4533 160.519 49.237 160.619 49.0424C160.718 48.8478 160.864 48.681 161.044 48.557C161.39 48.2958 161.801 48.1322 162.232 48.0832C162.663 48.0342 163.1 48.1016 163.496 48.2783C163.897 48.4675 164.335 48.5664 164.778 48.5681C165.23 48.5685 165.672 48.4354 166.049 48.1856C166.426 47.9358 166.72 47.5803 166.896 47.1637C167.287 46.4477 167.505 45.6497 167.531 44.834C167.559 44.2393 167.373 43.6542 167.007 43.1843Z" fill="#141414"/>
<path d="M182.256 44.3324C180.55 42.7386 178.303 41.852 175.969 41.852C173.635 41.852 171.388 42.7386 169.682 44.3324C168.789 45.1324 168.079 46.1166 167.601 47.2173C167.124 48.3179 166.891 49.5089 166.918 50.7083C166.898 52.3546 167.389 53.9667 168.323 55.3229C169.187 56.6193 170.364 57.6773 171.745 58.3994C173.045 59.0808 174.49 59.4401 175.958 59.4472C177.408 59.442 178.837 59.1066 180.138 58.4663C181.534 57.7718 182.719 56.7175 183.571 55.4121C184.524 54.0178 185.022 52.3632 184.998 50.6748C185.025 49.4825 184.794 48.2983 184.321 47.2036C183.848 46.1088 183.143 45.1294 182.256 44.3324ZM178.566 50.6191C178.593 50.9836 178.53 51.3491 178.382 51.6835C178.234 52.0178 178.007 52.3107 177.719 52.5363C177.226 52.9652 176.595 53.2015 175.941 53.2015C175.288 53.2015 174.656 52.9652 174.163 52.5363C173.88 52.3155 173.657 52.0276 173.513 51.6987C173.369 51.3699 173.309 51.0103 173.339 50.6525C173.31 50.2954 173.368 49.9368 173.508 49.6069C173.648 49.2771 173.865 48.9857 174.141 48.7576C174.652 48.3334 175.294 48.1011 175.958 48.1011C176.622 48.1011 177.265 48.3334 177.775 48.7576C178.044 48.9835 178.256 49.2699 178.394 49.5934C178.531 49.9169 178.591 50.2684 178.566 50.6191Z" fill="#141414"/>
<path d="M82.9837 47.8436C83.4806 47.8139 83.9703 47.9732 84.3547 48.2895C84.9174 48.7001 85.579 48.9539 86.2719 49.0251C87.1302 49.0251 87.9551 48.4121 88.8022 47.1525C89.2397 46.575 89.4958 45.8806 89.5379 45.1573C89.5187 44.8063 89.4169 44.4647 89.2406 44.1606C89.0643 43.8565 88.8186 43.5983 88.5235 43.4072C88.3229 43.2623 88.0219 43.0728 87.6318 42.8165L87.1302 42.5044C86.5701 42.2161 85.9793 41.9917 85.369 41.8356C84.5747 41.6117 83.7532 41.4992 82.9279 41.5012C80.8129 41.5261 78.7691 42.2689 77.1317 43.6079C76.19 44.3362 75.4274 45.2704 74.9024 46.3388C74.322 47.509 74.0278 48.8003 74.0441 50.1064C74.0324 51.4179 74.3223 52.7145 74.8912 53.8962C75.415 54.9748 76.1774 55.9202 77.1206 56.6606C78.7823 58.0065 80.8456 58.7597 82.9837 58.8007C84.6125 58.8487 86.2176 58.4017 87.5872 57.5188C88.8691 56.7609 89.5267 55.9026 89.5267 54.9663C89.4755 54.269 89.184 53.6111 88.7019 53.1048C87.7098 51.9121 86.8515 51.3325 86.0713 51.3325C85.4755 51.3829 84.9068 51.6035 84.4327 51.9678C83.9691 52.3088 83.4035 52.4824 82.8285 52.4601C82.2534 52.4379 81.7029 52.2211 81.2671 51.8452C81.0419 51.6289 80.8627 51.3692 80.7403 51.0819C80.6179 50.7946 80.5548 50.4855 80.5548 50.1732C80.5548 49.8609 80.6179 49.5519 80.7403 49.2645C80.8627 48.9772 81.0419 48.7176 81.2671 48.5012C81.7394 48.0792 82.3502 47.8452 82.9837 47.8436Z" fill="#141414"/>
<path d="M99.2689 41.312C96.9258 41.3098 94.6713 42.2076 92.9711 43.8199C92.0739 44.6131 91.3606 45.5926 90.8812 46.69C90.4018 47.7874 90.1678 48.9763 90.1956 50.1735C90.1793 51.8228 90.6695 53.4374 91.6 54.7993C92.4683 56.0965 93.6489 57.1544 95.0332 57.8758C96.3301 58.5559 97.7711 58.9152 99.2355 58.9236C100.685 58.9184 102.115 58.583 103.415 57.9427C104.811 57.2436 105.999 56.1905 106.86 54.8885C107.976 53.179 108.455 51.1317 108.215 49.1044C107.975 47.077 107.029 45.1987 105.544 43.7976C103.85 42.1929 101.603 41.3027 99.2689 41.312ZM101.855 50.0843C101.88 50.4498 101.815 50.816 101.666 51.1504C101.516 51.4848 101.286 51.7771 100.997 52.0015C100.506 52.4318 99.8765 52.6691 99.2243 52.6691C98.5721 52.6691 97.9421 52.4318 97.452 52.0015C97.1689 51.7807 96.9453 51.4929 96.8013 51.164C96.6573 50.8351 96.5975 50.4756 96.6271 50.1178C96.5988 49.7607 96.657 49.402 96.7967 49.0722C96.9364 48.7423 97.1535 48.451 97.4297 48.2228C97.9364 47.7953 98.578 47.5608 99.241 47.5608C99.904 47.5608 100.546 47.7953 101.052 48.2228C101.324 48.4476 101.538 48.7335 101.677 49.0571C101.817 49.3807 101.878 49.7327 101.855 50.0843Z" fill="#141414"/>
<path d="M128.072 41.6573C127.223 41.6609 126.39 41.8836 125.653 42.3038C125.051 42.6197 124.496 43.0173 124.003 43.4853L123.546 43.9869C123.007 43.2308 122.286 42.6217 121.451 42.2148C120.616 41.8079 119.693 41.6163 118.764 41.6573C118.144 41.6628 117.532 41.802 116.97 42.0656C116.409 42.3291 115.91 42.7107 115.51 43.1844C115.411 42.8788 115.244 42.6003 115.019 42.3707C114.276 41.8116 113.345 41.5637 112.422 41.6796C111.084 41.6796 110.193 42.0363 109.814 42.7274C109.637 43.0141 109.516 43.3318 109.457 43.6637C109.435 44.0349 109.435 44.4071 109.457 44.7783V55.5236C109.435 55.8949 109.435 56.2671 109.457 56.6383C109.514 56.9641 109.619 57.2797 109.769 57.5746C110.148 58.288 111.062 58.6335 112.578 58.6335C114.094 58.6335 114.997 58.2991 115.409 57.6081C115.578 57.3102 115.694 56.9861 115.755 56.6494C115.777 56.2782 115.777 55.906 115.755 55.5348V50.1398C115.755 47.9105 116.792 47.9105 117.182 47.9105C117.572 47.9105 118.675 47.9105 118.675 50.1398V55.479C118.653 55.8503 118.653 56.2225 118.675 56.5937C118.733 56.9193 118.839 57.2347 118.987 57.53C119.366 58.2769 120.28 58.6447 121.796 58.6447C123.312 58.6447 124.249 58.2991 124.628 57.5858C124.795 57.2956 124.912 56.9789 124.973 56.6494C124.995 56.2782 124.995 55.906 124.973 55.5348V50.1844C124.939 49.5753 125.054 48.9671 125.308 48.4121C125.374 48.3006 125.575 47.944 126.422 47.944C126.835 47.944 127.916 47.944 127.916 50.1733V55.5125C127.894 55.8837 127.894 56.2559 127.916 56.6271C127.974 56.9527 128.079 57.2681 128.228 57.5635C128.607 58.3103 129.521 58.6781 131.037 58.6781C132.553 58.6781 133.489 58.3326 133.835 57.6192C134.013 57.3259 134.13 57 134.18 56.6606C134.204 56.2894 134.204 55.9171 134.18 55.5459V50.1956C134.18 47.2083 133.567 45.0235 132.374 43.6971C131.84 43.0745 131.181 42.5712 130.44 42.2198C129.699 41.8684 128.892 41.6767 128.072 41.6573Z" fill="#141414"/>
</g>
</svg>
