<svg width="200" height="100" viewBox="0 0 200 100" fill="none" xmlns="http://www.w3.org/2000/svg">
<mask id="mask0_94_863" style="mask-type:alpha" maskUnits="userSpaceOnUse" x="0" y="0" width="200" height="100">
<rect width="200" height="100" fill="#D9D9D9"/>
</mask>
<g mask="url(#mask0_94_863)">
<path d="M123.707 21.3747C127.197 19.6448 131.391 19.5847 135.002 20.9852C137.086 21.8139 139.073 23.0984 140.365 24.965C141.426 26.5727 141.215 28.5657 141.184 30.393C140.102 29.2432 139.021 28.0644 137.685 27.1984C135.031 25.367 131.691 24.6688 128.507 25.0313C124.618 25.3214 120.812 27.2025 118.48 30.3702C118.513 28.8185 118.225 27.1735 118.89 25.7109C119.774 23.6476 121.763 22.3321 123.707 21.3747Z" fill="#141414"/>
<path d="M80.1232 24.4947C81.9774 24.0307 84.0616 25.2115 84.5505 27.074C85.2632 29.2867 83.3779 31.8038 81.0638 31.779C79.0542 31.8991 77.2766 30.0636 77.3077 28.0788C77.2766 26.4152 78.5114 24.8718 80.1232 24.4947Z" fill="#141414"/>
<path d="M61.8693 28.139C62.6897 27.7164 63.6406 27.8407 64.5294 27.8303C64.5211 29.7467 64.5169 31.663 64.5294 33.5794C67.4526 33.5711 70.3738 33.5753 73.297 33.5773C73.2514 34.6381 73.3736 35.7091 73.212 36.7616C72.8681 38.2532 71.3081 39.1379 69.8537 39.1607C68.0783 39.1855 66.3028 39.1772 64.5273 39.1627C64.5169 42.5832 64.5252 46.0036 64.5252 49.4241C64.5232 50.7583 64.8795 52.2582 66.05 53.0476C67.233 53.8348 68.7309 53.6981 70.0796 53.6131C71.2025 53.5469 72.2798 53.2009 73.2908 52.7223C73.212 54.2202 73.5746 55.861 72.7293 57.2097C71.9193 58.5377 70.3075 59.0577 68.8386 59.211C66.8186 59.3726 64.722 59.1654 62.8554 58.3388C61.0343 57.5598 59.6048 55.9646 58.9398 54.1083C58.3887 52.6125 58.2209 51.0048 58.2437 49.4199C58.2437 44.4457 58.2458 39.4714 58.2437 34.4972C58.2644 33.2313 58.4074 31.893 59.1408 30.8178C59.8576 29.7612 60.7111 28.7294 61.8693 28.139Z" fill="#141414"/>
<path d="M128.943 33.0407C131.533 32.8853 134.206 33.4675 136.377 34.9198C139.41 36.9356 141.248 40.4244 141.656 43.9981C141.987 47.2611 141.542 50.6837 139.93 53.5779C138.486 56.2256 135.967 58.2807 133.037 59.0452C129.476 59.9982 125.401 59.6626 122.345 57.4707C119.498 55.4963 117.81 52.1732 117.356 48.7901C116.973 45.5437 117.425 42.1398 118.951 39.2248C119.981 37.2484 121.572 35.5475 123.549 34.4992C125.198 33.5939 127.075 33.1546 128.943 33.0407ZM127.779 38.825C126.517 39.1337 125.453 40.0349 124.827 41.1578C123.82 42.9001 123.698 44.9739 123.793 46.9379C123.886 48.7922 124.295 50.7479 125.527 52.1981C126.861 53.7457 129.109 54.1538 131.042 53.7851C132.55 53.4784 133.787 52.341 134.415 50.9633C135.24 49.1961 135.322 47.1845 135.179 45.2702C135.012 43.3932 134.531 41.3836 133.11 40.0453C131.724 38.6988 129.604 38.4376 127.779 38.825Z" fill="#141414"/>
<path d="M100.507 34.0851C103.143 33.2564 105.989 32.929 108.72 33.4304C110.642 33.8054 112.621 34.8164 113.514 36.6458C114.21 37.9447 113.93 39.4613 113.982 40.87C113.725 40.8721 113.468 40.8742 113.211 40.8763C111.075 39.2893 108.341 38.7548 105.728 38.7258C103.269 38.6823 100.717 39.6581 99.1669 41.6159C97.9321 43.0744 97.437 45.0467 97.5385 46.9299C97.6027 49.0182 98.1331 51.2598 99.6848 52.7618C101.344 54.4565 103.866 54.9144 106.147 54.817C107.008 54.7631 108.204 54.527 108.322 53.4869C108.432 51.208 108.399 48.9001 107.879 46.6668C109.093 46.6999 110.309 46.6295 111.521 46.7061C113.075 46.8532 114.56 48.1874 114.454 49.8283C114.353 52.0968 114.798 54.5125 113.814 56.6464C112.932 58.5731 110.866 59.5965 108.881 59.9964C105.069 60.736 100.932 60.3941 97.5157 58.4488C94.5966 56.8535 92.3426 54.0691 91.5118 50.8372C90.5816 47.2572 90.9732 43.2712 92.8647 40.0621C94.5221 37.1842 97.3666 35.0899 100.507 34.0851Z" fill="#141414"/>
<path d="M77.8715 34.1348C79.3425 34.1866 80.9398 33.9587 82.2616 34.7563C83.5564 35.4773 84.1468 37.0124 84.1489 38.4357C84.1717 41.8189 84.151 45.202 84.1613 48.5872C84.1738 49.6853 84.0888 50.7957 84.2836 51.8834C84.3955 52.5671 84.7704 53.2528 85.4147 53.5656C86.577 54.183 87.9423 54.038 89.2123 54.0484C89.1957 55.3722 89.3531 56.8245 88.6094 57.995C88.0189 58.9149 86.8505 59.1759 85.8291 59.2153C83.7511 59.2919 81.4971 58.8362 79.9681 57.3279C78.3667 55.7741 77.8674 53.4434 77.8715 51.2847C77.8695 45.5687 77.8674 39.8507 77.8715 34.1348Z" fill="#141414"/>
<path d="M97.8137 63.9325C99.6907 66.3254 101.806 68.5918 104.416 70.1933C107.565 72.1863 111.332 73.1248 115.046 72.9922C119.961 72.9218 124.891 71.1857 128.587 67.9061C129.951 66.7956 130.978 65.3599 132.041 63.976C132.066 66.0063 132.269 68.1091 131.548 70.0545C130.665 72.928 128.339 75.0515 125.9 76.6592C122.525 78.8718 118.486 80.1584 114.433 79.9844C109.219 79.7938 104.023 77.5811 100.495 73.7008C99.5042 72.6235 98.659 71.3846 98.257 69.9633C97.5754 68.0283 97.7515 65.9442 97.8137 63.9325Z" fill="#141414"/>
</g>
</svg>
