<svg width="200" height="100" viewBox="0 0 200 100" fill="none" xmlns="http://www.w3.org/2000/svg">
<mask id="mask0_94_815" style="mask-type:alpha" maskUnits="userSpaceOnUse" x="0" y="0" width="200" height="100">
<rect width="200" height="100" fill="#D9D9D9"/>
</mask>
<g mask="url(#mask0_94_815)">
<path d="M71.707 50.0071C71.7018 34.3343 84.3173 21.7112 99.992 21.7051C115.657 21.6989 128.286 34.3229 128.294 49.9966C128.302 65.6703 115.653 78.3157 99.9796 78.2948C84.2988 78.2744 71.7122 65.6812 71.707 50.0071ZM87.6642 27.5328C87.5784 27.5802 87.5092 27.6139 87.4419 27.6518C83.8209 29.7036 80.8997 32.5001 78.5829 35.948C78.4621 36.1277 78.454 36.2614 78.5498 36.4544C82.8186 45.054 87.0843 53.6554 91.3468 62.2585C91.4052 62.3792 91.4704 62.4965 91.5421 62.6097C91.7062 62.8629 91.9214 62.8577 92.0688 62.5969C92.1161 62.5059 92.158 62.4122 92.1944 62.3163C93.7412 58.6716 95.2862 55.0257 96.8294 51.3786C97.0048 50.9623 97.2618 50.7898 97.7131 50.795C99.1424 50.812 100.573 50.8163 102.002 50.795C102.492 50.7874 102.764 50.9675 102.959 51.417C104.539 55.0474 106.131 58.6732 107.733 62.2945C107.786 62.4176 107.85 62.5355 107.925 62.6467C108.067 62.8529 108.257 62.8515 108.399 62.642C108.463 62.5334 108.52 62.421 108.571 62.3054C112.886 53.6754 117.202 45.0458 121.518 36.4164C121.583 36.2856 121.627 36.1837 121.525 36.0315C119.459 32.9342 116.866 30.3708 113.744 28.3411C113.309 28.06 112.86 27.8011 112.405 27.5243C112.358 27.6148 112.323 27.676 112.295 27.7395C110.094 32.6291 107.893 37.5202 105.693 42.4129C104.8 44.3983 103.907 46.3839 103.014 48.3696C102.88 48.6707 102.692 48.8612 102.338 48.8603C100.798 48.856 99.2567 48.8603 97.7169 48.8603C97.3993 48.8603 97.1911 48.7148 97.0579 48.418C94.2552 42.1792 91.4497 35.9419 88.6413 29.706C88.3184 28.9863 87.9951 28.2681 87.6642 27.5328ZM76.0078 41.0282C72.6168 49.5434 74.0167 61.9901 84.0741 70.091C93.756 77.8886 107.613 77.5339 116.922 69.2595C126.324 60.9026 127.305 48.8849 124.093 41.0324C124.039 41.1382 123.993 41.2273 123.948 41.3169C118.987 51.2923 114.027 61.2673 109.068 71.2421C109.006 71.3699 108.929 71.4895 108.838 71.5981C108.485 72.0044 107.926 72.0106 107.577 71.5981C107.449 71.4381 107.345 71.2609 107.266 71.0719C105.006 66.0262 102.748 60.9799 100.492 55.9329C100.426 55.7811 100.345 55.6358 100.252 55.4992C100.143 55.3446 99.9773 55.3408 99.8502 55.4812C99.7954 55.548 99.7511 55.6228 99.7189 55.703C97.4471 60.7778 95.1767 65.8535 92.9074 70.9301C92.8152 71.1477 92.7027 71.3561 92.5713 71.5526C92.4881 71.6797 92.3694 71.7794 92.2298 71.8394C92.0903 71.8993 91.9362 71.9168 91.7867 71.8897C91.4009 71.8328 91.1951 71.5578 91.0344 71.2359C86.0725 61.253 81.1096 51.2701 76.1458 41.2875C76.104 41.2045 76.0585 41.1235 76.0078 41.0282ZM91.6147 25.702C91.6587 25.8105 91.6858 25.8826 91.7171 25.9527C94.3374 31.8584 96.9592 37.7634 99.5824 43.6678C99.6419 43.8052 99.7155 43.9361 99.8019 44.0584C99.9194 44.2201 100.099 44.2177 100.214 44.0542C100.288 43.9424 100.352 43.8238 100.403 43.7C103.032 37.7805 105.659 31.8606 108.285 25.9404C108.316 25.8712 108.34 25.7982 108.38 25.6986C102.775 23.7512 97.2073 23.7535 91.6147 25.702Z" fill="#141414"/>
</g>
</svg>
