<svg width="62" height="70" viewBox="0 0 62 70" fill="none" xmlns="http://www.w3.org/2000/svg">
<path d="M61.4287 61.3462C61.4287 61.3918 61.3918 61.4287 61.3462 61.4287C61.3072 61.4287 61.2735 61.4566 61.265 61.4947C60.1818 66.3835 53.9291 68.541 50.0674 64.7773L48.0166 62.6738C47.3222 61.9613 46.4214 61.4287 45.4265 61.4287H12C5.37258 61.4287 0 56.0561 0 49.4287V12C0 5.37258 5.37258 0 12 0H49.4287C56.0561 0 61.4287 5.37258 61.4287 12V61.3462Z" fill="white"/>
<path d="M36.5323 47.0591C34.9162 47.7333 33.2821 48.0749 31.6388 48.0749C29.0405 48.0749 26.7046 47.6254 24.6269 46.731C22.5491 45.8321 20.8017 44.6007 19.3758 43.0276C17.9499 41.4545 16.8589 39.6073 16.0939 37.4814C15.3334 35.3556 14.9531 33.0679 14.9531 30.6139C14.9531 28.1599 15.3334 25.7599 16.0939 23.607C16.8544 21.4542 17.9499 19.571 19.3758 17.9665C20.8017 16.3619 22.5536 15.1035 24.6269 14.1911C26.7001 13.2787 29.0359 12.8203 31.6343 12.8203C33.3771 12.8203 35.0656 13.081 36.6953 13.5979C38.3249 14.1147 39.8006 14.8788 41.1179 15.8855C42.4307 16.8923 43.5171 18.1373 44.3727 19.6159C45.2282 21.0946 45.7488 22.7935 45.9435 24.7127H38.8138C38.3702 22.825 37.5146 21.4092 36.2471 20.4654C34.9796 19.5216 33.445 19.0496 31.6388 19.0496C29.9594 19.0496 28.5335 19.3732 27.361 20.0159C26.1886 20.6632 25.238 21.5261 24.5092 22.6137C23.7803 23.6969 23.2507 24.9329 22.9157 26.3172C22.5808 27.7015 22.4178 29.1352 22.4178 30.6139C22.4178 32.0926 22.5853 33.405 22.9157 34.7443C23.2462 36.0837 23.7803 37.2837 24.5092 38.3534C25.238 39.423 26.1886 40.2815 27.361 40.9242C28.5335 41.5714 29.9594 41.8905 31.6388 41.8905C34.1105 41.8905 36.0208 41.2703 37.3652 40.0253C38.7097 38.7848 39.4973 36.9825 39.7191 34.623H32.2092V29.1038H46.4686V47.3198H41.7155L40.955 43.4995C39.6241 45.1984 38.1529 46.385 36.5368 47.0636L36.5323 47.0591Z" fill="#141414"/>
</svg>
