<svg width="87" height="21" viewBox="0 0 87 21" fill="none" xmlns="http://www.w3.org/2000/svg">
<g clip-path="url(#clip0_35_606)">
<path d="M15.5688 18.2731L16.0242 20.5502H18.8704V9.69879H10.3318V12.988H14.8288C14.696 14.3936 14.2216 15.4712 13.4057 16.2209C12.6087 16.9518 11.4703 17.3173 9.99023 17.3173C8.98456 17.3173 8.1307 17.1299 7.42863 16.755C6.72656 16.3614 6.15732 15.846 5.7209 15.2088C5.28448 14.5716 4.96191 13.8594 4.75319 13.0723C4.56344 12.2664 4.46856 11.4418 4.46856 10.5984C4.46856 9.71754 4.56344 8.86479 4.75319 8.04016C4.96191 7.21553 5.28448 6.4846 5.7209 5.84739C6.15732 5.19143 6.72656 4.67604 7.42863 4.3012C8.1307 3.90763 8.98456 3.71084 9.99023 3.71084C11.0718 3.71084 11.9921 3.99197 12.7511 4.55422C13.51 5.11646 14.0224 5.95984 14.288 7.08434H18.5573C18.4435 5.9411 18.1304 4.92905 17.6181 4.04819C17.1058 3.16734 16.4511 2.42704 15.6542 1.82731C14.8762 1.22758 13.9939 0.777777 13.0072 0.477911C12.0395 0.159304 11.0338 0 9.99023 0C8.43429 0 7.03016 0.271753 5.77782 0.81526C4.54446 1.35877 3.50085 2.10843 2.64698 3.06426C1.79312 4.02008 1.13849 5.14458 0.683092 6.43775C0.227697 7.71218 0 9.09906 0 10.5984C0 12.0602 0.227697 13.4284 0.683092 14.7028C1.13849 15.9585 1.79312 17.0549 2.64698 17.992C3.50085 18.929 4.54446 19.6693 5.77782 20.2129C7.03016 20.7376 8.43429 21 9.99023 21C10.9769 21 11.9541 20.8032 12.9218 20.4096C13.8895 19.9973 14.7719 19.2851 15.5688 18.2731Z" fill="white"/>
<path d="M26.2077 3.76719V0.478027H22.166V3.76719H26.2077ZM22.166 6.01618V20.5503H26.2077V6.01618H22.166Z" fill="white"/>
<path d="M29.3901 6.01613V20.5503H33.4317V14.0001C33.4317 13.3441 33.4981 12.735 33.631 12.1728C33.7638 11.6105 33.982 11.1233 34.2856 10.7109C34.6082 10.2799 35.0256 9.94251 35.5379 9.69886C36.0502 9.45522 36.6764 9.3334 37.4164 9.3334C37.6631 9.3334 37.9193 9.35214 38.1849 9.38963C38.4506 9.40837 38.6783 9.43648 38.868 9.47396V5.76312C38.5454 5.66941 38.2513 5.62256 37.9857 5.62256C37.4734 5.62256 36.98 5.69753 36.5056 5.84746C36.0313 5.99739 35.5854 6.21292 35.1679 6.49405C34.7505 6.75643 34.3805 7.08441 34.0579 7.47798C33.7353 7.85281 33.4792 8.26513 33.2894 8.71493H33.2325V6.01613H29.3901Z" fill="white"/>
<path d="M43.5385 13.2973C43.5385 12.7163 43.5954 12.1447 43.7092 11.5824C43.8231 11.0202 44.0128 10.5235 44.2785 10.0925C44.5631 9.66138 44.9331 9.31466 45.3885 9.05228C45.8439 8.77115 46.4131 8.63059 47.0962 8.63059C47.7793 8.63059 48.3486 8.77115 48.804 9.05228C49.2783 9.31466 49.6484 9.66138 49.914 10.0925C50.1986 10.5235 50.3979 11.0202 50.5117 11.5824C50.6256 12.1447 50.6825 12.7163 50.6825 13.2973C50.6825 13.8783 50.6256 14.4499 50.5117 15.0121C50.3979 15.5557 50.1986 16.0523 49.914 16.5021C49.6484 16.9332 49.2783 17.2799 48.804 17.5423C48.3486 17.8047 47.7793 17.9358 47.0962 17.9358C46.4131 17.9358 45.8439 17.8047 45.3885 17.5423C44.9331 17.2799 44.5631 16.9332 44.2785 16.5021C44.0128 16.0523 43.8231 15.5557 43.7092 15.0121C43.5954 14.4499 43.5385 13.8783 43.5385 13.2973ZM39.4968 13.2973C39.4968 14.4593 39.6771 15.5088 40.0376 16.4459C40.3981 17.383 40.9105 18.1889 41.5746 18.8636C42.2387 19.5195 43.0356 20.0255 43.9654 20.3816C44.8952 20.7377 45.9388 20.9158 47.0962 20.9158C48.2537 20.9158 49.2973 20.7377 50.2271 20.3816C51.1758 20.0255 51.9823 19.5195 52.6464 18.8636C53.3105 18.1889 53.8228 17.383 54.1833 16.4459C54.5439 15.5088 54.7241 14.4593 54.7241 13.2973C54.7241 12.1353 54.5439 11.0858 54.1833 10.1487C53.8228 9.19284 53.3105 8.38695 52.6464 7.73099C51.9823 7.05629 51.1758 6.5409 50.2271 6.18481C49.2973 5.80997 48.2537 5.62256 47.0962 5.62256C45.9388 5.62256 44.8952 5.80997 43.9654 6.18481C43.0356 6.5409 42.2387 7.05629 41.5746 7.73099C40.9105 8.38695 40.3981 9.19284 40.0376 10.1487C39.6771 11.0858 39.4968 12.1353 39.4968 13.2973Z" fill="white"/>
<path d="M70.0462 4.16074V0.871582H58.9175L56.9536 11.7511H60.5968C60.9952 11.2076 61.4222 10.814 61.8776 10.5704C62.333 10.308 62.9212 10.1768 63.6422 10.1768C64.1925 10.1768 64.6763 10.2705 65.0938 10.4579C65.5112 10.6453 65.8717 10.9077 66.1753 11.2451C66.4789 11.5824 66.7066 11.976 66.8584 12.4258C67.0102 12.8756 67.0861 13.3535 67.0861 13.8595C67.0861 14.3468 67.0008 14.8247 66.83 15.2933C66.6782 15.7431 66.4505 16.146 66.1469 16.5021C65.8623 16.8395 65.5017 17.1206 65.0653 17.3455C64.6479 17.5516 64.1735 17.6547 63.6422 17.6547C62.7314 17.6547 61.9819 17.3923 61.3937 16.8676C60.8055 16.3241 60.4639 15.6025 60.3691 14.7029H56.3274C56.3464 15.7337 56.5551 16.6427 56.9536 17.4298C57.371 18.1982 57.9213 18.8448 58.6044 19.3696C59.2875 19.8943 60.0655 20.2879 60.9383 20.5503C61.8301 20.7939 62.7599 20.9158 63.7276 20.9158C64.7333 20.9345 65.682 20.7752 66.5738 20.4378C67.4656 20.0818 68.2436 19.5851 68.9077 18.9479C69.5908 18.3107 70.1316 17.561 70.5301 16.6989C70.9285 15.818 71.1278 14.8716 71.1278 13.8595C71.1278 12.9412 70.9855 12.0791 70.7008 11.2732C70.4352 10.4486 70.0367 9.73638 69.5054 9.13664C68.9931 8.53691 68.3574 8.059 67.5985 7.70291C66.8395 7.34682 65.9666 7.16877 64.9799 7.16877C64.183 7.16877 63.4714 7.29059 62.8453 7.53424C62.2191 7.75914 61.6309 8.14334 61.0806 8.68685L61.0237 8.63062L61.8206 4.16074H70.0462Z" fill="white"/>
<path d="M80.5105 5.8756V12.7069H75.2735L80.4251 5.8756H80.5105ZM80.5105 15.9961V20.5503H84.3529V15.9961H86.9999V12.7069H84.3529V0.871582H80.7382L72.0857 12.3415V15.9961H80.5105Z" fill="white"/>
</g>
<defs>
<clipPath id="clip0_35_606">
<rect width="87" height="21" fill="white"/>
</clipPath>
</defs>
</svg>
