<svg width="188" height="188" viewBox="0 0 188 188" fill="none" xmlns="http://www.w3.org/2000/svg">
<path d="M32 0.25H156C173.535 0.25 187.75 14.465 187.75 32V156C187.75 173.535 173.535 187.75 156 187.75H32C14.465 187.75 0.25 173.535 0.25 156V32C0.25 14.465 14.465 0.25 32 0.25Z" fill="#141414"/>
<path d="M32 0.25H156C173.535 0.25 187.75 14.465 187.75 32V156C187.75 173.535 173.535 187.75 156 187.75H32C14.465 187.75 0.25 173.535 0.25 156V32C0.25 14.465 14.465 0.25 32 0.25Z" stroke="white" stroke-width="0.5"/>
<path d="M114.421 119.527L115.937 127.005H125.413V91.3683H96.9844V102.17H111.957C111.515 106.786 109.935 110.325 107.219 112.787C104.565 115.188 100.775 116.388 95.8473 116.388C92.499 116.388 89.6562 115.773 87.3187 114.542C84.9813 113.249 83.086 111.556 81.633 109.464C80.18 107.371 79.106 105.032 78.4111 102.447C77.7794 99.8005 77.4635 97.0924 77.4635 94.3227C77.4635 91.4299 77.7794 88.6294 78.4111 85.9212C79.106 83.213 80.18 80.8126 81.633 78.7199C83.086 76.5657 84.9813 74.8731 87.3187 73.6421C89.6562 72.3496 92.499 71.7033 95.8473 71.7033C99.4482 71.7033 102.512 72.6266 105.039 74.4731C107.566 76.3195 109.272 79.0892 110.156 82.7822H124.371C123.991 79.0277 122.949 75.704 121.243 72.8112C119.538 69.9184 117.358 67.4872 114.705 65.5176C112.115 63.5481 109.177 62.0709 105.892 61.0861C102.67 60.0398 99.3219 59.5166 95.8473 59.5166C90.667 59.5166 85.9921 60.4091 81.8225 62.194C77.7162 63.9789 74.2416 66.4409 71.3988 69.5799C68.5559 72.7189 66.3764 76.4118 64.8602 80.6587C63.344 84.8441 62.5859 89.3987 62.5859 94.3227C62.5859 99.1235 63.344 103.617 64.8602 107.802C66.3764 111.926 68.5559 115.526 71.3988 118.604C74.2416 121.681 77.7162 124.112 81.8225 125.897C85.9921 127.621 90.667 128.482 95.8473 128.482C99.1323 128.482 102.386 127.836 105.608 126.544C108.83 125.19 111.767 122.851 114.421 119.527Z" fill="white"/>
</svg>
