<svg width="24" height="24" viewBox="0 0 24 24" fill="none" xmlns="http://www.w3.org/2000/svg">
<path d="M12.0039 3.5C13.1526 3.50004 14.2634 3.70968 15.3105 4.12793C16.3241 4.53273 17.2329 5.11168 18.0166 5.84375C18.7986 6.58159 19.4122 7.434 19.8389 8.38086V8.38184C20.2806 9.37413 20.5069 10.4184 20.5 11.5029V11.5059C20.5 12.5853 20.2728 13.6366 19.832 14.6201C19.405 15.5687 18.7913 16.4232 18.0078 17.1621C17.2263 17.8991 16.3189 18.4705 15.3037 18.876C14.2563 19.2944 13.1451 19.5039 11.9961 19.5039C10.7633 19.5039 9.59077 19.266 8.48828 18.792L8.28613 18.7061L8.08594 18.7949L5.04883 20.1553L5.6123 17.0693L5.65625 16.8281L5.49316 16.6465C4.20084 15.2014 3.5 13.3859 3.5 11.498C3.50004 10.4186 3.72713 9.3673 4.16797 8.38379C4.59494 7.43536 5.2088 6.58157 5.99219 5.84277C6.77379 5.10568 7.68095 4.53344 8.69629 4.12793C9.74366 3.70956 10.855 3.5 12.0039 3.5Z" stroke="#737373"/>
<path d="M15.6573 13.1953C15.2757 13.0035 14.9969 12.8855 14.7988 12.8117C14.674 12.7674 14.3805 12.6347 14.2778 12.7158C13.9549 12.9814 13.61 13.7338 13.2431 13.874C12.3332 13.697 11.4894 13.0699 10.829 12.4281C10.5354 12.1478 9.99243 11.3511 9.87503 11.1371C9.85301 10.9158 10.2492 10.6207 10.3373 10.4511C10.7922 9.93466 10.4474 9.61007 10.3887 9.39614C10.2859 9.17483 10.1098 8.77647 9.95575 8.45188C9.82367 8.23794 9.79429 7.92073 9.55948 7.80269C8.56153 7.2863 7.9892 8.31909 7.75439 8.85761C6.33818 12.2879 14.8501 18.8166 16.5818 14.3166C16.6699 13.9256 16.6332 13.7781 16.5011 13.6011C16.237 13.4166 15.9288 13.3355 15.6573 13.1953Z" fill="#737373"/>
</svg>
